<svg xmlns="http://www.w3.org/2000/svg" viewBox="0 0 211.67 105.4"><defs><style>.cls-1{fill:none;}.cls-2{fill:#fff;}.cls-3{fill:#231f20;}</style></defs><g id="Layer_1" data-name="Layer 1"><path class="cls-1" d="M198.36,30.42a25,25,0,0,1-2.65,1.67,18.74,18.74,0,0,0,7.45,4.17c.29.08.58.14.86.19a3.54,3.54,0,0,1-.12-.34c-.15-.47-1.41-4.84-2.4-8.84A13.76,13.76,0,0,1,198.36,30.42Z"/><path class="cls-2" d="M210.52,36.22a2.12,2.12,0,0,0-1.25-.41,2.74,2.74,0,0,0,0-.49c0-.12,0-.27-.07-.45a16.07,16.07,0,0,1-.23-4.34c.15-2.79.15-6.37.14-8.51,0-.69,0-1.4,0-1.55a2,2,0,0,0-.63-1.71,2,2,0,0,0-1.76-.41l-.08,0a2.29,2.29,0,0,0-.61-.2,7.48,7.48,0,0,0-4.24.84,2.89,2.89,0,0,0-1.29,1.41A2,2,0,0,0,199,19.7h0a1.94,1.94,0,0,0-1.64.95l-.36.61c-.49.85-1.42,2.43-2.56,4.17-.11.16-.21.31-.32.45,0-2.78,0-5.23,0-5.54a2,2,0,0,0-.88-1.65,2.69,2.69,0,0,0-2.6.08l-.26.11a8.94,8.94,0,0,1-1.77.26l-.29,0a2.67,2.67,0,0,0-1.57.57,3.58,3.58,0,0,0-2.73-.73,13.47,13.47,0,0,0-4.6,1.58l-.72.33c-1.3.58-2,2.39-3.37,5.81-.4,1-.81,2.1-1.18,2.9s-.66.92-1,1l-.11,0c-.09-1.94-.2-4.28-.23-5.5a23.17,23.17,0,0,0-.24-3.36,2.6,2.6,0,0,0-2.35-2.5,12,12,0,0,0-4.15.71,2,2,0,0,0-1,2.52h0c0,.15,0,.38-.08.66-.15,1.22-.42,3.48-.55,4.8l0,.27a21.52,21.52,0,0,1-1.06-2.65,13.34,13.34,0,0,1-.3-3.21v-.07a2,2,0,0,0-.64-1.51,3,3,0,0,0-2.55-.48,4.35,4.35,0,0,1-1.65,0,3.45,3.45,0,0,0-2.63.13,2.82,2.82,0,0,0-.86.65l-.08-.1-.08-.08a2.08,2.08,0,0,0-2.44-.57,1.4,1.4,0,0,1-.61,0l-.23-.09a2.47,2.47,0,0,0-3,.58,8,8,0,0,0-1.1,1.63c-.18.3-.36.62-.57.95l-.24.36a5.39,5.39,0,0,1-1.26,1.5c-.17.16-.33.28-.49.41a18.73,18.73,0,0,0-3.56,3.87,19.55,19.55,0,0,0-2.37,3.73c-.05-.83-.1-1.56-.18-2s-.16-.82-.25-1.22a9.15,9.15,0,0,1-.28-1.64,19.5,19.5,0,0,1,.44-3c.64-3,.08-3.73-.5-4.16-.77-.58-1.47-.39-3.34.13l-1,.26-.44.1A3.33,3.33,0,0,0,131,23c0-.18-.1-.35-.15-.5-.09-.31-.16-.55-.2-.7a3.13,3.13,0,0,0-1.55-2.09,2.5,2.5,0,0,0-2.12.05c-.4.19-.68.3-.91.39a7,7,0,0,0-.78.35c-.79.41-1.25.82-3.31,3.82-1.7,2.47-6.25,12.46-6.25,14.09a2.4,2.4,0,0,0,1.7,2.42c.13.06.29.12.47.22l.3.16c1.26.69,2.83,1.54,4,.36a3.33,3.33,0,0,0,.92-2.2l.05-.27c0-.27.25-1.1.54-2.18a1.83,1.83,0,0,0,1-.25,1.85,1.85,0,0,0,1.23.56c0,.37,0,.7,0,1a8,8,0,0,0,.6,3.25l0,.13c.06.17.11.33.16.49a3,3,0,0,0,1.66,2.29,1.94,1.94,0,0,0,.73.14,2.51,2.51,0,0,0,1.37-.44l1-.6c1.16-.73,2-1.27,2.45-1.6a4.06,4.06,0,0,0,.37-.32,6.71,6.71,0,0,0,4.21.64,24.7,24.7,0,0,1,4.31-.15,5.71,5.71,0,0,1,.78.16,5.61,5.61,0,0,0,1.37.23,2.22,2.22,0,0,0,1.05-.25,2,2,0,0,0,.4-.29,1.81,1.81,0,0,0,.75.69,1.72,1.72,0,0,0,.73.16,2.09,2.09,0,0,0,1.1-.35,1,1,0,0,1,.38-.17c.4-.08,1-.22,1.54-.37.77-.2,2.05-.52,2.32-.55a2.8,2.8,0,0,0,1.39-.3,2.23,2.23,0,0,0,.45.53,2.16,2.16,0,0,0,1.46.51,3.33,3.33,0,0,0,.83-.11l.13,0a4.79,4.79,0,0,1,1.49-.24,6.2,6.2,0,0,0,2.62.18h.18a2,2,0,0,0,1.42-.77c.62-.81.47-1.65.19-3.17a1.6,1.6,0,0,0,1.18.27,1.63,1.63,0,0,0,.91-.39,8.2,8.2,0,0,0-.23,1.72v.13a2.11,2.11,0,0,0,.52,1.73,2.07,2.07,0,0,0,1.67.64,9.41,9.41,0,0,0,1-.14,15.81,15.81,0,0,1,2.44-.31,5.94,5.94,0,0,1,.94.08,2.1,2.1,0,0,0,2-.53,1.91,1.91,0,0,0,1.37.52c2,0,2.45-2.38,3.17-6.33l0-.14a1.72,1.72,0,0,0,.67.19,1.88,1.88,0,0,0,.8-.16,2,2,0,0,0,.9.41l-.27,2c-.26,1.76-.38,2.57.24,3.66a3.3,3.3,0,0,0,3.12,1.46,13.17,13.17,0,0,0,2-.19l.82-.1a3.37,3.37,0,0,0,1.79-.55s0,0,.07,0a4.74,4.74,0,0,0,2.17.59c1.86.23,2.33-1.43,2.55-2.22a17.34,17.34,0,0,0,.46-2.38,24.14,24.14,0,0,0,6,4.43c5,2.65,6.07,3,7.6,3.11h.18c1.11,0,2.39-.49,2.6-2.66a3.19,3.19,0,0,1,.05-.42,14.77,14.77,0,0,1,.53-1.63,10.22,10.22,0,0,0,.71-2.42A2.26,2.26,0,0,0,210.52,36.22Zm-6.62-.11a3.54,3.54,0,0,0,.12.34c-.28-.05-.57-.11-.86-.19a18.74,18.74,0,0,1-7.45-4.17,25,25,0,0,0,2.65-1.67,13.76,13.76,0,0,0,3.14-3.15C202.49,31.27,203.75,35.64,203.9,36.11Z"/><path class="cls-3" d="M207.44,45.76h-.2c-1.59-.08-2.73-.48-7.74-3.16a24.51,24.51,0,0,1-5.58-4c-.12.69-.25,1.31-.37,1.76-.23.82-.78,2.73-2.92,2.47a5.92,5.92,0,0,1-2.2-.58,4,4,0,0,1-1.75.49c-.22,0-.49,0-.81.09a13.51,13.51,0,0,1-2,.2,3.58,3.58,0,0,1-3.42-1.64c-.67-1.18-.53-2.08-.27-3.87.06-.46.14-1,.23-1.65a2.07,2.07,0,0,1-.58-.28,2.16,2.16,0,0,1-.76.11,1.44,1.44,0,0,1-.4-.06c-.7,3.86-1.21,6.35-3.45,6.35a2.35,2.35,0,0,1-1.36-.41,2.47,2.47,0,0,1-2,.41,7,7,0,0,0-.89-.08h0a16.88,16.88,0,0,0-2.37.31,8.49,8.49,0,0,1-1.07.15,2.38,2.38,0,0,1-1.94-.75,2.45,2.45,0,0,1-.6-2V39.5a9.65,9.65,0,0,1,.1-1.06,1.67,1.67,0,0,1-.4.08,2,2,0,0,1-.77,0,3.3,3.3,0,0,1-.37,2.8,2.31,2.31,0,0,1-1.67.9l-.17,0a6.55,6.55,0,0,1-2.75-.2,4.19,4.19,0,0,0-1.28.24l-.16,0a3.8,3.8,0,0,1-.91.12,2.53,2.53,0,0,1-1.68-.59,2.41,2.41,0,0,1-.34-.37,3.22,3.22,0,0,1-1.28.22c-.21,0-1.58.37-2.24.53l-1.55.38a.77.77,0,0,0-.26.12,2.17,2.17,0,0,1-2.16.21,2,2,0,0,1-.67-.51l-.18.11a2.57,2.57,0,0,1-1.21.28,6,6,0,0,1-1.45-.23,6.35,6.35,0,0,0-.74-.16,26.6,26.6,0,0,0-4.24.15,7.44,7.44,0,0,1-4.2-.55l-.2.17c-.45.34-1.31.88-2.48,1.61l-1,.6a2.66,2.66,0,0,1-2.4.34,3.42,3.42,0,0,1-1.87-2.51c-.05-.17-.09-.33-.14-.48l-.05-.13a8.35,8.35,0,0,1-.62-3.38q0-.28,0-.66a2.26,2.26,0,0,1-1-.46,2.07,2.07,0,0,1-.69.18c-.34,1.29-.44,1.75-.47,1.91l0,.26a3.7,3.7,0,0,1-1,2.39c-1.35,1.35-3.11.4-4.4-.3l-.3-.16a4.41,4.41,0,0,0-.4-.19,2.77,2.77,0,0,1-1.95-2.75c0-1.83,4.7-11.94,6.31-14.28,2.1-3.06,2.59-3.49,3.43-3.93a7.54,7.54,0,0,1,.82-.36l.89-.38a2.77,2.77,0,0,1,2.4,0,3.36,3.36,0,0,1,1.73,2.3l.18.6a4.06,4.06,0,0,1,2-.92,4.19,4.19,0,0,0,.42-.1c.3-.07.64-.16,1-.26,1.93-.53,2.73-.75,3.64-.07s1.23,1.62.62,4.5a19.75,19.75,0,0,0-.43,3,9.33,9.33,0,0,0,.26,1.53c.1.43.19.85.26,1.27,0,.22.07.51.1.83a27.18,27.18,0,0,1,1.85-2.7,18.75,18.75,0,0,1,3.62-3.93l0,0,.43-.36a5.29,5.29,0,0,0,1.2-1.43l.23-.36c.2-.31.37-.6.53-.88a9.39,9.39,0,0,1,1.18-1.75,2.8,2.8,0,0,1,3.36-.66l.2.08a1.09,1.09,0,0,0,.4,0,2.38,2.38,0,0,1,2.72.59,3.06,3.06,0,0,1,.7-.47,3.77,3.77,0,0,1,2.86-.16,3.93,3.93,0,0,0,1.54,0,3.31,3.31,0,0,1,2.81.56,2.36,2.36,0,0,1,.75,1.76v.07a12.27,12.27,0,0,0,.29,3.13,10.78,10.78,0,0,0,.53,1.43c.15-1.37.36-3.07.45-3.81l.07-.61a2.34,2.34,0,0,1,1.2-2.83,12.29,12.29,0,0,1,4.33-.75,3,3,0,0,1,2.65,2.79,23.2,23.2,0,0,1,.25,3.4c0,1.17.12,3.27.21,5a1.7,1.7,0,0,0,.47-.71c.37-.79.78-1.85,1.17-2.88,1.36-3.51,2.13-5.37,3.56-6l.69-.32A13.72,13.72,0,0,1,184,18.67a4.25,4.25,0,0,1,2.76.63,3.33,3.33,0,0,1,1.52-.47l.29,0a8.77,8.77,0,0,0,1.68-.25l.26-.1a3,3,0,0,1,2.9-.05,2.32,2.32,0,0,1,1,1.92c0,.28,0,2.13,0,4.43,1-1.54,1.79-2.9,2.24-3.67l.37-.61A2.24,2.24,0,0,1,199,19.37a2.15,2.15,0,0,1,1.39.49,3.74,3.74,0,0,1,1.21-1.14,7.9,7.9,0,0,1,4.49-.88,2.83,2.83,0,0,1,.58.18,2.22,2.22,0,0,1,2.76,2.47V22c0,2.15,0,5.73-.15,8.53a15.92,15.92,0,0,0,.23,4.26c0,.19.06.34.08.46s0,.15,0,.23a2.31,2.31,0,0,1,1.12.45,2.57,2.57,0,0,1,.94,2.37,9.7,9.7,0,0,1-.72,2.52,13.42,13.42,0,0,0-.52,1.56c0,.13,0,.25,0,.37C210.13,45.38,208.43,45.76,207.44,45.76Zm-14-8.61.48.49A23.39,23.39,0,0,0,199.82,42c4.89,2.62,6,3,7.45,3.08s2.28-.73,2.43-2.35c0-.16,0-.3.05-.45a16.74,16.74,0,0,1,.56-1.69,10.1,10.1,0,0,0,.68-2.32,1.89,1.89,0,0,0-.68-1.79h0a1.68,1.68,0,0,0-1.05-.35h-.33V35.8a3.47,3.47,0,0,0,0-.44c0-.11,0-.25-.07-.43a16.49,16.49,0,0,1-.24-4.41c.16-2.79.15-6.36.15-8.5,0-.7,0-1.42,0-1.57a1.67,1.67,0,0,0-.51-1.44,1.63,1.63,0,0,0-1.47-.33l-.11,0-.18,0a2.29,2.29,0,0,0-.54-.17,7.13,7.13,0,0,0-4,.79,2.54,2.54,0,0,0-1.16,1.24l-.19.52-.37-.41a1.57,1.57,0,0,0-2.6.19l-.36.6c-.5.85-1.42,2.43-2.57,4.18l-.32.47-.62.88V25.88c0-2.74,0-5.22,0-5.53a1.65,1.65,0,0,0-.73-1.37,2.37,2.37,0,0,0-2.29.1l-.27.11a8.86,8.86,0,0,1-1.86.29l-.29,0A2.51,2.51,0,0,0,187,20l-.24.21-.22-.23a3.31,3.31,0,0,0-2.48-.63,13.44,13.44,0,0,0-4.47,1.55l-.72.34c-1.19.52-1.91,2.29-3.2,5.62-.4,1-.81,2.11-1.19,2.92s-.75,1.07-1.19,1.2l-.1,0-.42.14,0-.44c-.09-1.83-.2-4.23-.23-5.51a23.78,23.78,0,0,0-.24-3.31c-.23-1.36-.92-2.11-2.06-2.23a11.56,11.56,0,0,0-4,.68,1.66,1.66,0,0,0-.83,2.13l0,.09,0,0-.08.66c-.12.93-.42,3.41-.56,4.79l0,.28-.16,1.17-.48-1.07a21.7,21.7,0,0,1-1.08-2.7,14.09,14.09,0,0,1-.31-3.3v-.07a1.65,1.65,0,0,0-.53-1.26c-.6-.55-1.34-.48-2.29-.39a4.71,4.71,0,0,1-1.76,0,3.13,3.13,0,0,0-2.4.1,2.44,2.44,0,0,0-.76.58l-.25.29-.41-.46a1.73,1.73,0,0,0-2.07-.5,1.51,1.51,0,0,1-.82,0l-.25-.09a2.15,2.15,0,0,0-2.62.48,8.55,8.55,0,0,0-1.06,1.58c-.2.34-.38.65-.58,1l-.24.36a6.16,6.16,0,0,1-1.32,1.57l-.44.37-.06,0a18.3,18.3,0,0,0-3.5,3.82,18.58,18.58,0,0,0-2.33,3.65l-.56,1.32-.08-1.43c0-.71-.1-1.51-.18-2s-.16-.81-.25-1.21a8.4,8.4,0,0,1-.28-1.73,20.06,20.06,0,0,1,.44-3.09c.65-3.06,0-3.53-.37-3.82-.62-.46-1.14-.35-3.05.18l-1,.27-.45.1a3,3,0,0,0-2,1.14l-.39.61-.38-1.28-.19-.63A2.74,2.74,0,0,0,129,20.05a2.16,2.16,0,0,0-1.84.05c-.41.19-.69.3-.92.39a7.58,7.58,0,0,0-.76.34c-.73.38-1.17.78-3.18,3.71-1.8,2.61-6.2,12.48-6.2,13.9a2.08,2.08,0,0,0,1.5,2.11c.17.08.32.14.49.23l.31.17c1.48.8,2.68,1.34,3.6.42a3,3,0,0,0,.83-2l0-.27c0-.26.23-1,.55-2.21l.07-.26h.27a1.78,1.78,0,0,0,.82-.21l.21-.13.18.17a1.54,1.54,0,0,0,1,.48h.31v.31c0,.38,0,.71,0,1a7.67,7.67,0,0,0,.59,3.14l0,.12c.06.16.11.33.15.48a2.79,2.79,0,0,0,1.46,2.1,2,2,0,0,0,1.81-.27l1-.61c1.16-.72,2-1.25,2.43-1.58a2.36,2.36,0,0,0,.33-.29l.19-.2.23.16a6.53,6.53,0,0,0,4,.58,26.89,26.89,0,0,1,4.38-.15,7.74,7.74,0,0,1,.8.17,3.19,3.19,0,0,0,2.2,0,1.15,1.15,0,0,0,.33-.24l.31-.29.21.37a1.3,1.3,0,0,0,.61.55,1.45,1.45,0,0,0,1.5-.17,1.54,1.54,0,0,1,.49-.2l1.52-.38c1.1-.28,2.11-.53,2.38-.56a2.51,2.51,0,0,0,1.26-.26l.29-.16.16.29a1.82,1.82,0,0,0,.38.45,2.14,2.14,0,0,0,2,.33l.13,0a4.08,4.08,0,0,1,1.67-.24,5.76,5.76,0,0,0,2.49.18l.18,0a1.65,1.65,0,0,0,1.2-.64c.51-.66.4-1.37.12-2.9l-.15-.81.68.48a1.26,1.26,0,0,0,.93.21,1.41,1.41,0,0,0,.75-.31l.78-.67-.24,1a8.43,8.43,0,0,0-.23,1.65v.13a1.81,1.81,0,0,0,.42,1.49,1.76,1.76,0,0,0,1.42.54,7.59,7.59,0,0,0,1-.15,15.26,15.26,0,0,1,2.5-.31,5.19,5.19,0,0,1,1,.09,1.76,1.76,0,0,0,1.68-.43l.22-.23.24.22a1.64,1.64,0,0,0,1.15.43c1.66,0,2.09-2,2.83-6.06l.11-.57.4.19a1.34,1.34,0,0,0,.54.15,1.49,1.49,0,0,0,.64-.12l.19-.09.16.13a1.56,1.56,0,0,0,.74.33l.32.06,0,.32c-.1.79-.19,1.43-.27,1.94-.25,1.76-.36,2.48.2,3.46a2.93,2.93,0,0,0,2.83,1.29,12.7,12.7,0,0,0,1.93-.18l.84-.1a3.17,3.17,0,0,0,1.62-.49l.2-.15.26.19a5.25,5.25,0,0,0,2,.54c1.45.17,1.89-.93,2.19-2a18.83,18.83,0,0,0,.45-2.34Zm13.22-18.88,0,.08,0-.11Zm-2.15,18.61-.56-.1a7.47,7.47,0,0,1-.9-.2,19,19,0,0,1-7.58-4.25l-.35-.32.42-.22a22.84,22.84,0,0,0,2.61-1.64,13.29,13.29,0,0,0,3.06-3.07l.42-.61.18.72c1,4,2.26,8.36,2.4,8.82,0,.1.07.21.11.33Zm-8.23-4.73a18.55,18.55,0,0,0,7,3.79l.27.07c-.29-1-1.3-4.48-2.18-8a14.05,14.05,0,0,1-2.78,2.65A23.65,23.65,0,0,1,196.29,32.15Z"/><path d="M117.42,38.43c0,.8.38.68,1.28,1.17s2,1.14,2.32.82.32-.48.5-1.57,2.22-8.29,2.76-10a20.64,20.64,0,0,1,1.54-3.41.19.19,0,0,1,.35.07c.15,1.29.57,4.57.93,6.94a34,34,0,0,1,.54,5.86,6.77,6.77,0,0,0,.56,2.78c.38,1.12.48,2.2,1.42,1.6s2.72-1.68,3.3-2.12.38-.68.16-1.34a42.57,42.57,0,0,1-1.36-5c-.58-2.7-.8-5.08-1.36-7.28s-1.16-4.1-1.32-4.68-.48-1.36-1.34-1-1.2.48-1.62.7-.72.4-2.7,3.28S117.42,37.63,117.42,38.43Z"/><path d="M123.7,35.22c.12.25.56-.39,1.24-.69a8.45,8.45,0,0,1,1.82-.31c.08-.08-.63-.32-1.26-.61s-1.28-1.19-1.47-1.27,0,.17.22.59a6.29,6.29,0,0,0,1.58,2.5c.35.36.3,0,.08-.34a3.69,3.69,0,0,1-.35-2.27c.22-.71.41-.9,0-.92s-.25.45-.52.92S123.59,35,123.7,35.22Z"/><path d="M132.22,24.59c.14-1.08.73-1,1.85-1.31a15.73,15.73,0,0,1,2.9-.67,4.72,4.72,0,0,1-.15,2.46,23.66,23.66,0,0,0-.47,3.3,19.57,19.57,0,0,0,.55,3.24c.21,1.17.27,5.49.49,5.81s.47,0,2.24-.43a62.39,62.39,0,0,1,6.71-1.4c.39.12.24.38,0,1.36s-.72,3.57-1.1,3.77-1.37-.22-2.22-.32a29.62,29.62,0,0,0-4.65.14c-2,.16-3-.12-3.36-.53s-.37-.82-.35-2.45a14.88,14.88,0,0,0-.53-4.19c-.34-1.37-1.1-3.63-1.42-5A13.58,13.58,0,0,1,132.22,24.59Z"/><path d="M147,29.83c0,.22.33.21.39.42s.3,1.39.37,1.56a1.11,1.11,0,0,1,.05.63c0,.31,0,.54.1.56s.15-.16.17-.39.12-.68.15-1a10.65,10.65,0,0,1,.25-1.35c.06-.17.21-.29.23-.37s0-.14.12-.17a.25.25,0,0,0,.15-.3c0-.16-.19-.09-.27,0s-.09.18-.23.26a1.71,1.71,0,0,0-.49.58c-.11.22-.53.43-.68.6a2.07,2.07,0,0,1-.45.48c-.17.11-.41.26-.41.42s.08.18.18.17.16-.08.26-.19.24,0,.36-.21.88-.21,1.18-.47.34-.28.65-.27.33,0,.31-.19-.18-.12-.36-.13a1.45,1.45,0,0,1-.65-.15c-.12-.1-.49-.07-.6-.12a.36.36,0,0,1-.23-.28c0-.17-.13-.48-.36-.44S147,29.67,147,29.83Z"/><path d="M144.75,34.61a9.92,9.92,0,0,1,.66-3.16,23.45,23.45,0,0,1,2.85-5.36c1.12-1.37,1.36-1.83,1.65-1.53s.63.61.5.84a2.75,2.75,0,0,0-.19,1.11,46.15,46.15,0,0,1-.71,5.17c-.45,2.13-1.36,5.59-1.57,6.57a5.78,5.78,0,0,0-.16,2.36c.11.93.08.26,1.23,0s3.67-1,4.23-1,.9-.07.86-1a23.57,23.57,0,0,1,.09-5.47c.38-2.57-.27-8.3-.35-9s-.08-1.7-.36-2-.34-.42-.73-.27a2.89,2.89,0,0,1-1.69,0c-.61-.18-1-.55-1.49,0a23.29,23.29,0,0,0-1.51,2.37,8.14,8.14,0,0,1-1.79,2.21,17.48,17.48,0,0,0-3.82,4c-2.25,3-2.65,4.24-2.31,4.71s.76.21,1.75-.06C143.74,34.75,144.66,35.07,144.75,34.61Z"/><path d="M159,26.8a.09.09,0,0,0-.18,0,21,21,0,0,0,.85,4.63c.87,3.13,1.69,4.35,2,6.19s.51,2.49,0,2.53a4.83,4.83,0,0,1-2.11-.09,5.27,5.27,0,0,0-2.59.24c-.61.16-1,.05-.93-.77s.53-3.86.53-5.58-.66-5.28-.72-6.72-.19-3-.13-3.85.24-1.19.67-1.41a1.88,1.88,0,0,1,1.47,0,5.79,5.79,0,0,0,2.22.05c1-.09,1.35-.13,1.35.31a16.2,16.2,0,0,0,.35,3.71c.38,1.43,1.91,4.48,2.32,5.5s.6.76,1,.15a8.52,8.52,0,0,0,1.11-3.53c.17-1.73.6-5.09.65-5.58s-.35-.86.07-1.07a11.47,11.47,0,0,1,3.22-.54c.64.07.78.58.87,1.11a21.17,21.17,0,0,1,.22,3.12c.05,1.82.25,6,.36,7.85a19.77,19.77,0,0,0,.52,4.65c.42,1.33.72,2.05.56,2.23s-.51-.06-1.68-.08a32.89,32.89,0,0,0-3.54.46c-.35,0-.51-.1-.47-.51a8.58,8.58,0,0,1,.83-3.43c.77-1.76.51-6,.39-7.52a.1.1,0,0,0-.19,0,14,14,0,0,1-1.26,2.54,13.26,13.26,0,0,0-1.9,3.59c-.25,1-.23,1.51-.42,1.53a14.69,14.69,0,0,1-1.59-2.39c-.61-.94-1.7-2.4-2.3-3.54A21.4,21.4,0,0,1,159,26.8Z"/><path d="M178.82,31.41a.46.46,0,0,1,.61.12,1.6,1.6,0,0,0,1.25.23c.52-.08,1.24-.12,1.31,0s-.55.45-.74.52a4.78,4.78,0,0,0-1,.37,11.3,11.3,0,0,0-.93.78c-.09.17-.24.36-.34.12s0-.46.13-.81.82-1.71.92-2,.08-.62.22-.68a.72.72,0,0,0,.34-.31c.08-.14.2-.36.2.05s-.11,1.13-.08,1.52a8.67,8.67,0,0,0,.1,1c0,.06.35,1.31.35,1.53s-.29.17-.36,0-.33-.44-.38-.62a1.79,1.79,0,0,0-1.11-1.07C178.56,31.83,178.69,31.53,178.82,31.41Z"/><path d="M173.12,32.89c-.13-1.09,1.37.07,2.59-2.56s2.63-7.4,3.7-7.87,3.51-1.74,4.69-1.77,1.51,0,1.62.54.7,10.71,1.21,13.93.85,4.89.59,5.23-.77.26-2,.44-2.91.42-3.39-.44-.15-1.27.37-5.65a32.62,32.62,0,0,0,.29-7.7,4.19,4.19,0,0,0-.88-2.29c-.33-.33-.48-.21-1-.09s-.63,0-1.47,1.76a26.23,26.23,0,0,0-2.29,6.14c-.59,2.63-1.14,7.4-2,7.4S173.53,36.23,173.12,32.89Z"/><path d="M202,21.56c-.07-.66.08-.76.69-1.16a6.31,6.31,0,0,1,2.95-.59c.53.12.3.27.91.25s.88-.3.84.31.06,6.18-.15,10.07a18.71,18.71,0,0,0,.31,5.1c.08.57,0,.68-1.09,1-.53.14-.65.11-1-.91S202.41,24.89,202,21.56Z"/><path d="M208.35,37.69a8.94,8.94,0,0,1-5.66.18,19.56,19.56,0,0,1-9.81-6.34,18.54,18.54,0,0,0,4.49-2.47c2.44-1.78,3.56-3.8,3.53-4.54s-.66-1.43-1.11-2.18-.75-1.22-1-.79-1.41,2.47-2.95,4.8a9.77,9.77,0,0,1-3.44,3.49c.05-4,.09-9,.08-9.46,0-.62-.77-.2-1.45.06a10.2,10.2,0,0,1-2.52.4c-.72.07-.77.16-.77.95.19,4.75,1.49,15.77,1.59,16.4a3.6,3.6,0,0,1,.05,1.42c-.09.58-.13.75.06.88a6.14,6.14,0,0,0,1.44.32c.35,0,.46,0,.74-1a26.28,26.28,0,0,0,.68-5.25c0-.26,0-.64,0-1.11a20.6,20.6,0,0,0,8.12,7.38c4.86,2.6,5.75,2.87,6.89,2.92s.93-.71,1.09-1.67,1.16-3.13,1.22-3.89S209.41,37.32,208.35,37.69Z"/><path class="cls-2" d="M25.38,96.47a2.14,2.14,0,0,1,.29,2,2.1,2.1,0,0,1-1.42,1.36,5.74,5.74,0,0,0-3,2.15,2.13,2.13,0,0,1-1.9,1.15,2.35,2.35,0,0,1-.64-.09,2.16,2.16,0,0,1-1.47-1.67l-3.33,3.15a2.15,2.15,0,0,1-1.47.58,2.26,2.26,0,0,1-.85-.17,2.11,2.11,0,0,1-.3-.16,2.15,2.15,0,0,1-1,.23,2.1,2.1,0,0,1-.7-.12l-2.78-1a2.14,2.14,0,0,1-1.42-2.24c0-.08.16-1.62.47-4a4.24,4.24,0,0,1-1.21.19,4.34,4.34,0,0,1-3.27-1.21c-1.33-1.43-1.18-3.4-.92-7,.14-1.9.31-4.26.36-7.31a2.13,2.13,0,0,1,1-1.79l2.73-1.69a2,2,0,0,1,1.12-.32,2.14,2.14,0,0,1,2.14,2.31c-.19,2.25-.43,5.34-.59,7.49l.11-.11c.32-2,.67-4.45.8-6.55a2.16,2.16,0,0,1,1.47-1.9l3.41-1.12a1.69,1.69,0,0,1,.64-.12h.1a2.15,2.15,0,0,1,1.69.85l.21-.08,2.69-.78a2.34,2.34,0,0,1,.55-.1h.12a2.14,2.14,0,0,1,2.11,2.14,2.22,2.22,0,0,1,0,.37c0,.16-.08.56-.16,1.1.56,2,1.42,5,1.76,6.49s.62,3.28.83,4.67c.06.4.13.83.18,1.1C24.07,94.67,24.78,95.66,25.38,96.47Z"/><path d="M12.45,105.4a2.6,2.6,0,0,1-1-.2l-.18-.09a2.48,2.48,0,0,1-1.76,0l-2.78-1a2.48,2.48,0,0,1-1.65-2.59c0-.09.15-1.46.41-3.58a4.63,4.63,0,0,1-.81.08A4.69,4.69,0,0,1,1.18,96.8c-1.42-1.53-1.27-3.56-1-7.23l0-.25c.13-1.85.3-4.15.34-7.07a2.5,2.5,0,0,1,1.18-2.07l2.73-1.69a2.53,2.53,0,0,1,2.6,0,2.48,2.48,0,0,1,1.18,2,2.49,2.49,0,0,1,1.35-1.07L13,78.26a2.26,2.26,0,0,1,.74-.14h.11a2.49,2.49,0,0,1,1.79.79h0l2.68-.77a2.32,2.32,0,0,1,.63-.11h.11a2.5,2.5,0,0,1,2.48,2.48,3,3,0,0,1,0,.42c0,.09,0,.25-.07.46l-.08.57c.91,3.21,1.48,5.31,1.74,6.43.3,1.31.59,3.11.84,4.7.05.36.11.75.16,1,.31.45,1,1.37,1.56,2.18h0a2.49,2.49,0,0,1-1.31,3.85,5.35,5.35,0,0,0-2.78,2,2.47,2.47,0,0,1-2.2,1.33A2.46,2.46,0,0,1,17.09,102l-2.94,2.77A2.44,2.44,0,0,1,12.45,105.4Zm-1.14-1.05.16.09.27.14a1.82,1.82,0,0,0,1.94-.35l3.8-3.57.11.62a1.78,1.78,0,0,0,1.23,1.4,1.91,1.91,0,0,0,.54.08,1.81,1.81,0,0,0,1.6-1,6,6,0,0,1,3.19-2.32,1.75,1.75,0,0,0,1.2-1.15,1.8,1.8,0,0,0-.24-1.65c-.63-.86-1.33-1.83-1.62-2.27l0-.13c-.05-.27-.12-.7-.18-1.1-.24-1.58-.53-3.36-.83-4.65-.25-1.11-.82-3.23-1.75-6.47l0-.07.1-.71c0-.22.06-.38.07-.47a1.55,1.55,0,0,0,0-.31,1.82,1.82,0,0,0-1.79-1.81H19a1.93,1.93,0,0,0-.47.08l-2.69.78-.13,0-.24.1-.2-.19a1.84,1.84,0,0,0-1.43-.72h-.09a1.91,1.91,0,0,0-.53.1L9.78,80a1.79,1.79,0,0,0-1.24,1.6c-.11,1.72-.37,3.82-.81,6.59l0,.1-.83.84L7,88.24c.17-2.16.41-5.24.6-7.5a1.82,1.82,0,0,0-.87-1.69,1.84,1.84,0,0,0-1.88,0L2.06,80.75a1.82,1.82,0,0,0-.85,1.51C1.16,85.2,1,87.51.86,89.37v.22c-.26,3.52-.4,5.44.82,6.75a4.07,4.07,0,0,0,3,1.1,4.24,4.24,0,0,0,1.12-.17l.49-.14-.07.51c-.3,2.38-.46,3.93-.47,4A1.8,1.8,0,0,0,7,103.56l2.78,1a1.75,1.75,0,0,0,1.4-.09Z"/><path class="cls-2" d="M95.51,81.07a1.09,1.09,0,0,1,0,.18,61.58,61.58,0,0,1-1.08,8.54c-.69,3.48-1.21,6.55-1.4,7.7a2.14,2.14,0,0,1,1.11,2.3l-.4,2.06a2.14,2.14,0,0,1-2.1,1.75h-.12a11.6,11.6,0,0,0-3.32.61,2.14,2.14,0,0,1-2.71-.5,1.79,1.79,0,0,1-.47-1.49,2,2,0,0,1-1.2.37H82.25a2.15,2.15,0,0,1-2.13-1.86,11.26,11.26,0,0,0-1.34-3.89v4.49a2.14,2.14,0,0,1-1.68,2.09l-2,.46a1.84,1.84,0,0,1-.47.06,2.42,2.42,0,0,1-.46-.06,2,2,0,0,1-.61.16l-4.62.53h-.24a2.15,2.15,0,0,1-1.63-.75,2.1,2.1,0,0,1-.52-1.39,2,2,0,0,1-.42.86,2.13,2.13,0,0,1-1.67.81h-.12l-5-.29a2.17,2.17,0,0,1-1.79-1.17,2.88,2.88,0,0,1-.13-.31H54.44a2.16,2.16,0,0,1-2-1.51,2.13,2.13,0,0,1-2,1.51H48a2.13,2.13,0,0,1-1.52-.64,2.09,2.09,0,0,1-.49-.8,1.09,1.09,0,0,0-.37.16,2.13,2.13,0,0,1-1.36.48,2,2,0,0,1-1-.27l-.22-.13a8.1,8.1,0,0,1-3,.94,3.54,3.54,0,0,1-3.57-2.1c0,.09,0,.18,0,.26v.15a2.2,2.2,0,0,1-2.16,2.17l-.54,0c-.73,0-1.83,0-1.88,0a2.15,2.15,0,0,1-2-2l-.64-11.84c-.54.15-1.05.32-1.55.49a2.33,2.33,0,0,1-.7.11,2.13,2.13,0,0,1-2-2.86,7.19,7.19,0,0,0,.31-2.74,2.16,2.16,0,0,1,1.5-2.26,28.45,28.45,0,0,1,6.57-1c3.61-.17,7-.58,9.15-.89a2.23,2.23,0,0,1,.27,0h.09a2.13,2.13,0,0,1,1.88,1.18,1.82,1.82,0,0,1,.51-.28,10.39,10.39,0,0,1,3.52-.4h.6a2.05,2.05,0,0,1,.49.06,2.16,2.16,0,0,1,1.13-.33.93.93,0,0,1,.24,0l3.4.36a2.15,2.15,0,0,1,1.9,2.33,43.72,43.72,0,0,1-1.28,6.71c.76-.13,1.22-.23,1.59-.31l.18,0a11.48,11.48,0,0,0,1.22-5,2.18,2.18,0,0,1,.34-1.16c.7-1.1,2.32-1.56,5.58-1.6h0a2.08,2.08,0,0,1,1.52.65A3,3,0,0,1,67,80.86c.58-.14,1.32-.25,2-.35l1-.16a2.91,2.91,0,0,1,.57-.06.78.78,0,0,1,.24,0,2.11,2.11,0,0,1,1.36-.59l4.37-.24h.11a2.15,2.15,0,0,1,2.13,1.91c.33,3.08.64,5.41,1.39,6.93,0-2.33-.16-4.13-.3-5.31a2.15,2.15,0,0,1,1.3-2.25,7.45,7.45,0,0,1,1.33-.4A13.27,13.27,0,0,1,85.62,80a2.2,2.2,0,0,1,.73.13,2,2,0,0,1,.3-.46,2.16,2.16,0,0,1,1.63-.76h5.09A2.14,2.14,0,0,1,95.51,81.07Z"/><path d="M68.67,104.91a2.45,2.45,0,0,1-1.88-.87,2.05,2.05,0,0,1-.38-.59l0,.06a2.48,2.48,0,0,1-1.93.93h-.09l-5.07-.3a2.49,2.49,0,0,1-2.07-1.35l-.06-.13h-2.7a2.48,2.48,0,0,1-2-1.07,2.45,2.45,0,0,1-2,1.07H48a2.47,2.47,0,0,1-1.76-.74,2.56,2.56,0,0,1-.43-.59,2.53,2.53,0,0,1-2.74.23l-.09,0a7.89,7.89,0,0,1-3,.9A4.13,4.13,0,0,1,36.68,101a2.59,2.59,0,0,1-2.39,1.84l-.56,0c-.58,0-1.41,0-1.75-.05h-.13a2.46,2.46,0,0,1-2.37-2.34l-.62-11.42c-.39.12-.77.24-1.13.37a2.47,2.47,0,0,1-3.13-3.19,7.13,7.13,0,0,0,.29-2.59,2.48,2.48,0,0,1,1.73-2.61A29,29,0,0,1,33.27,80c3.59-.17,6.94-.58,9.12-.9l.3,0h.11a2.48,2.48,0,0,1,2,1.05,1.85,1.85,0,0,1,.29-.13,11.18,11.18,0,0,1,4.24-.41h0a2.18,2.18,0,0,1,.42,0,2.34,2.34,0,0,1,1.48-.3l3.38.37a2.48,2.48,0,0,1,2.2,2.69,42.09,42.09,0,0,1-1.15,6.26l1-.21h0a11,11,0,0,0,1.11-4.74,2.47,2.47,0,0,1,.4-1.34c.76-1.21,2.46-1.72,5.86-1.76a2.47,2.47,0,0,1,1.57.54,3.46,3.46,0,0,1,1.3-.6c.53-.13,1.18-.23,1.82-.33l.17,0,1-.16A2.29,2.29,0,0,1,70.7,80a2.49,2.49,0,0,1,1.44-.57l4.5-.23a2.48,2.48,0,0,1,2.46,2.21c.19,1.73.37,3.26.64,4.53,0-1.17-.13-2.12-.22-2.84a2.49,2.49,0,0,1,1.5-2.6A9.79,9.79,0,0,1,82.41,80a14.28,14.28,0,0,1,3.21-.36,2.28,2.28,0,0,1,.57.07,1.86,1.86,0,0,1,.21-.28,2.43,2.43,0,0,1,1.88-.87h5.09a2.48,2.48,0,0,1,2.48,2.47c0,.08,0,.14,0,.21a63.85,63.85,0,0,1-1.09,8.57c-.64,3.27-1.15,6.22-1.36,7.47a2.38,2.38,0,0,1,.61.57,2.53,2.53,0,0,1,.46,2l-.4,2.07a2.48,2.48,0,0,1-2.43,2H91.5a11.3,11.3,0,0,0-3.2.59,2.31,2.31,0,0,1-1.17.3,2.45,2.45,0,0,1-1.91-.91,2.07,2.07,0,0,1-.54-1.15,2.49,2.49,0,0,1-.87.16H82.25a2.49,2.49,0,0,1-2.46-2.16,11.32,11.32,0,0,0-.67-2.48v3a2.46,2.46,0,0,1-1.94,2.42l-2,.46a2.51,2.51,0,0,1-1,0,3.29,3.29,0,0,1-.6.15l-4.62.52Zm-1.81-5.69v3.21a1.74,1.74,0,0,0,.44,1.17,1.82,1.82,0,0,0,1.58.62l4.61-.52a1.94,1.94,0,0,0,.51-.14l.1,0,.11,0a1.75,1.75,0,0,0,.79,0l2-.46a1.79,1.79,0,0,0,1.41-1.76V95.63l.63,1a11.53,11.53,0,0,1,1.38,4,1.81,1.81,0,0,0,1.8,1.57h1.56a1.7,1.7,0,0,0,1-.31l.58-.41-.05.72a1.49,1.49,0,0,0,.38,1.24,1.83,1.83,0,0,0,2.29.43,11.77,11.77,0,0,1,3.48-.66h.19a1.81,1.81,0,0,0,1.71-1.47l.4-2.07a1.79,1.79,0,0,0-.94-1.93l-.21-.12,0-.3c.2-1.16.72-4.23,1.39-7.65a63,63,0,0,0,1.08-8.49v-.16a1.81,1.81,0,0,0-1.8-1.8H88.28a1.79,1.79,0,0,0-1.37.63,2.11,2.11,0,0,0-.26.4l-.13.27-.28-.1a1.79,1.79,0,0,0-.62-.12,13.67,13.67,0,0,0-3.05.34,8.32,8.32,0,0,0-1.28.39,1.83,1.83,0,0,0-1.1,1.9c.15,1.18.25,3,.31,5.34l0,1.53-.67-1.37c-.78-1.6-1.1-4-1.43-7a1.8,1.8,0,0,0-1.79-1.61h-.11l-4.35.23a1.88,1.88,0,0,0-1.15.5l-.14.14-.2-.06-.13,0a2,2,0,0,0-.49.06c-.21,0-.62.11-1,.16l-.17,0c-.62.09-1.26.19-1.76.31a2.72,2.72,0,0,0-1.24.64l-.24.23-.23-.24a1.79,1.79,0,0,0-1.28-.55c-3.17,0-4.71.46-5.34,1.45a1.83,1.83,0,0,0-.29,1,11.72,11.72,0,0,1-1.24,5.17L57.2,89l-.35.08c-.4.08-.86.18-1.61.31l-.52.09.14-.51a43.07,43.07,0,0,0,1.27-6.63,1.83,1.83,0,0,0-1.6-2L51.13,80h-.2a1.81,1.81,0,0,0-1,.28l-.13.07-.14,0a1.49,1.49,0,0,0-.4-.06h-.6a10.17,10.17,0,0,0-3.39.37,1.6,1.6,0,0,0-.44.24l-.31.23-.18-.35a1.81,1.81,0,0,0-1.59-1h-.09l-.22,0c-2.2.32-5.57.73-9.18.9a27.88,27.88,0,0,0-6.48,1,1.81,1.81,0,0,0-1.27,1.9,7.59,7.59,0,0,1-.35,2.94,1.78,1.78,0,0,0,.43,1.83,1.83,1.83,0,0,0,1.88.44c.49-.17,1-.34,1.56-.5l.41-.11.66,12.26a1.79,1.79,0,0,0,1.72,1.71H32c.33,0,1.14,0,1.72,0a3.71,3.71,0,0,0,.51,0,1.85,1.85,0,0,0,1.85-1.83V98.25l.65,1.58a3.24,3.24,0,0,0,3.26,1.9,7.92,7.92,0,0,0,2.91-.92l.18-.08.16.11.17.11a1.81,1.81,0,0,0,2-.17,1.47,1.47,0,0,1,.47-.22l.31-.11.11.31a1.87,1.87,0,0,0,.42.68A1.8,1.8,0,0,0,48,102h2.32a1.79,1.79,0,0,0,1.72-1.27l.33-1,.32,1A1.78,1.78,0,0,0,54.44,102h3.18l.08.24a1.17,1.17,0,0,0,.1.26,1.84,1.84,0,0,0,1.51,1l5.09.3h0a1.81,1.81,0,0,0,1.43-.68,1.67,1.67,0,0,0,.35-.72Z"/><path d="M42.78,81.56c-2.5.36-5.88.75-9.39.91a26.51,26.51,0,0,0-6,1,9.36,9.36,0,0,1-.43,3.67,42.84,42.84,0,0,1,4.24-1.19L32,100.36s1.09,0,1.78,0a1.65,1.65,0,0,0,.56,0,55.16,55.16,0,0,1,.16-6.4c.27-2.48.31-5.8.38-8.76a70.19,70.19,0,0,1,7.52-.8Z"/><path d="M46.8,98.52a34.72,34.72,0,0,1,.57-5.24,50,50,0,0,0,.86-5.79c.12-1.35,1-5.44,1-5.44h-.55A9.08,9.08,0,0,0,46,82.3c-.1,1.53-.5,5.37-.94,7.68a35.24,35.24,0,0,0-.51,5c0,.1-2.32,1.43-2.88,1.77a.73.73,0,0,1-.34.12c-.31,0-.44-.41-.45-1.06a25,25,0,0,1,.52-4.45l1-5.43a21,21,0,0,1-3.35.51s-.74,10.31-.74,11.74S39,99.92,40,99.92s4.48-2,4.48-2l-.18,1.43A6,6,0,0,1,46.8,98.52Z"/><path d="M58.52,100.18c1.18-3.45,1.31-6.13,3.71-10.44s1.9-6.67,1.9-6.67c-3.44,0-3.81.62-3.81.62a14.52,14.52,0,0,1-1.92,7c-.89.1-1.14.24-3.06.57a20.68,20.68,0,0,1-3.13.39l.72-2.43a40.54,40.54,0,0,0,1.4-7l-3.39-.37A56.36,56.36,0,0,1,48.8,96.14a18,18,0,0,0-.77,4h2.32c.35-2.13.65-3.67.93-5,.6-.22,1.44-.56,2.59-1.07a10.46,10.46,0,0,1,3.15-1c-.31.55-.6,1.1-.88,1.67-1.75,3.54-1.7,5.34-1.7,5.34Z"/><path d="M73.29,101.9a25,25,0,0,1-1.15-3.57c-.16-1.09-.72-6.66-1.12-9.12a49.14,49.14,0,0,1-.59-5.75c0-.39.54-1,.13-1l-.13,0c-.62.13-2.06.29-2.88.49s-.82,1-1.41,2.79-1.84,5-3.12,7.74a20.79,20.79,0,0,0-1.77,4.66,18.11,18.11,0,0,1-1.84,3.53l5,.29a13.06,13.06,0,0,1-.43-2,10.37,10.37,0,0,1,.64-2l4.26-2.83c.13.92.23,1.71.25,2.19a14.48,14.48,0,0,1-.49,5Zm-7.73-6.2c.11-.3.23-.59.35-.88.85-2.17,1.87-6.2,1.87-6.2s.57,3,1,5.66Z"/><path d="M84.74,95.91c.65-4.63.88-13.75.88-13.75a10.26,10.26,0,0,0-3.64.59,108.3,108.3,0,0,1,.36,11.58,12.48,12.48,0,0,0-2.75-3.21c-2-1.84-2.46-5-3-9.49l-4.37.23,2.33,19.92,2-.46V92.16a6.57,6.57,0,0,0,1.83,1.38c3.08,1.68,3.77,6.89,3.77,6.89H83.8S84.11,100.34,84.74,95.91Z"/><path d="M93.37,81.08H88.28c1.84,11.41.85,16.76.89,16.89s0,0,.08,0a11.48,11.48,0,0,0,1.57-.36s.61-3.77,1.5-8.26A63,63,0,0,0,93.37,81.08Z"/><path d="M92,99.38s-.34,0-.87,0a9.76,9.76,0,0,0-3.56.59s-.47,2.4-.46,2.4h0a12.3,12.3,0,0,1,4.38-.89h.12Z"/><path d="M23.65,97.74s-1.8-2.46-1.9-2.73-.59-4-1.08-6.08c-.36-1.61-1.39-5.19-1.86-6.83.15-.95.24-1.61.24-1.61l-2.73.8c-.35,2.49-1.69,7.36-2.76,11.57a50.34,50.34,0,0,0-1.11,10.06l4.32-4.08a8.73,8.73,0,0,1-.86-3.39A7.93,7.93,0,0,1,19,92.89c.22,1.29.39,2.4.46,3a26,26,0,0,1-.14,5C20.57,98.64,23.65,97.74,23.65,97.74ZM16.15,93c.35-1.79,1-3.82,1.53-5.54.06-.18.12-.38.17-.59.33,1.37.68,3.1,1,4.72A14.41,14.41,0,0,0,16.15,93Z"/><path d="M7.57,101.86l2.77,1s-.28-6.19,1-10.09A61.42,61.42,0,0,0,13.8,80.6l-3.46,1.14c-.14,2.3-.53,4.94-.94,7.46a40.5,40.5,0,0,1-3.28,3,1,1,0,0,1-.56.23c-.51,0-.6-.81-.58-1.75,0-1.21.76-10.05.76-10.05L3,82.29C2.84,92.9,1.18,95.63,4.71,95.63c1.51,0,3.36-2,4.09-2.89-.18,1.06-.34,2.05-.46,2.92C7.82,99.33,7.57,101.86,7.57,101.86Z"/><path class="cls-2" d="M89.81,40.62c-.11.2-.21.41-.29.57-.82,1.92-3.41,4.87-7.49,7.57l1.41.49a2.13,2.13,0,0,1,1.42,2.32L84.1,57a2.14,2.14,0,0,1-1.2,1.64L78.24,60.9a2.17,2.17,0,0,1-.92.21A2.19,2.19,0,0,1,76,60.62a2.14,2.14,0,0,1-.69-1.07c-.19.28-.37.59-.56.9a2,2,0,0,1-.89.84L70.49,63a2.23,2.23,0,0,1-1,.23,2.15,2.15,0,0,1-2.14-2L67,54.41a2.2,2.2,0,0,1,.08-.67c-.72.07-1.28.1-1.61.1-.73,0-2.66,0-3.6-1.51A3.27,3.27,0,0,1,62,49a5.67,5.67,0,0,0,.75-2A2.69,2.69,0,0,1,65,44.53a2.59,2.59,0,0,1-1-.9,2.81,2.81,0,0,1-.22-2.24,8.42,8.42,0,0,1,3.65-4.91C70.1,35,81.29,28.7,82.67,27.84a4.72,4.72,0,0,1,2.49-.91,3.59,3.59,0,0,1,2.18.85,1.41,1.41,0,0,0,.18.14c1.07.78,2.41,1.75,2.58,3.24a2.61,2.61,0,0,1-.62,2c-.19.22-.43.5-2.61,1.68a4,4,0,0,1,3.29,1.66C91.11,38,90.29,39.65,89.81,40.62Z"/><path d="M69.53,63.54a2.43,2.43,0,0,1-1.25-.33,2.47,2.47,0,0,1-1.23-2l-.34-6.76a1.61,1.61,0,0,1,0-.31c-.48,0-.9.05-1.2.05-.78,0-2.85,0-3.88-1.66a3.55,3.55,0,0,1,.06-3.64A5.22,5.22,0,0,0,62.4,47a3.05,3.05,0,0,1,1.86-2.57,2.66,2.66,0,0,1-.5-.6,3,3,0,0,1-.27-2.51,8.8,8.8,0,0,1,3.81-5.11c2.65-1.45,13.84-7.78,15.19-8.63a5,5,0,0,1,2.67-1,3.75,3.75,0,0,1,2.35.9l.18.14c1.15.84,2.56,1.86,2.74,3.49a2.92,2.92,0,0,1-.69,2.26,6,6,0,0,1-1.85,1.28,3.79,3.79,0,0,1,2.55,1.66c1,1.69.19,3.41-.33,4.43v0c-.11.2-.21.4-.28.56-.92,2.14-3.65,5-7,7.34l.77.26a2.48,2.48,0,0,1,1.64,2.69l-.76,5.47A2.45,2.45,0,0,1,83,59L78.38,61.2a2.52,2.52,0,0,1-2.64-.32,2.6,2.6,0,0,1-.53-.62c-.08.12-.15.24-.22.37a2.53,2.53,0,0,1-1,1l-3.32,1.68A2.51,2.51,0,0,1,69.53,63.54Zm-2-10.18-.13.47a1.81,1.81,0,0,0-.06.56l.34,6.77a1.75,1.75,0,0,0,.9,1.46,1.82,1.82,0,0,0,1.71.06L73.66,61a1.81,1.81,0,0,0,.75-.7q.28-.49.57-.93l.41-.6.19.7a1.8,1.8,0,0,0,.59.9,1.84,1.84,0,0,0,1.92.23l4.66-2.21a1.82,1.82,0,0,0,1-1.39l.76-5.47a1.8,1.8,0,0,0-1.2-2l-2-.71.57-.38c4.32-2.86,6.67-5.79,7.36-7.42l.3-.6h0c.48-1,1.21-2.41.36-3.78a3.63,3.63,0,0,0-3-1.49l-1.12-.1,1-.53a9.12,9.12,0,0,0,2.52-1.61,2.22,2.22,0,0,0,.53-1.74c-.15-1.34-1.42-2.27-2.44-3a2.07,2.07,0,0,1-.2-.15,3.17,3.17,0,0,0-2-.78,4.37,4.37,0,0,0-2.31.87c-1.36.85-12.58,7.2-15.22,8.65a8.12,8.12,0,0,0-3.49,4.69,2.53,2.53,0,0,0,.19,2,2.25,2.25,0,0,0,.83.79l.79.43-.88.19a2.36,2.36,0,0,0-2,2.21,5.82,5.82,0,0,1-.78,2.1,3,3,0,0,0-.09,3c.84,1.35,2.63,1.35,3.31,1.35.17,0,.68,0,1.57-.09Z"/><path class="cls-2" d="M59.63,43.12a21.36,21.36,0,0,0-.19,3.69c0,2.57,0,4.61-1.11,5.88a5,5,0,0,1-4,1.42,14.28,14.28,0,0,1-2.6-.25A2.11,2.11,0,0,1,50,52.15a4.84,4.84,0,0,1-3.25,1.23c-1,0-2.16-.51-4.34-1.49-.84-.38-2.15-1-2.83-1.19-.3.24-.73.68-1,1a6.32,6.32,0,0,1-3.11,2.1A9.44,9.44,0,0,1,34,53.9c-2.76,0-4.76-1.72-5.48-4.71-.19-.76-.37-1.48-.53-2.16a7.44,7.44,0,0,0-1.41-.13,8.1,8.1,0,0,0-1.62.17,9.73,9.73,0,0,1-1.93.2,10.87,10.87,0,0,1-8-3.88c0,1,.13,1.9.23,2.78a2.89,2.89,0,0,1,0,1.14,2.16,2.16,0,0,1-.2.51c.23.08.47.16.7.26a2.11,2.11,0,0,1,1.28,1.57s.2,1,.39,2c.1.51.2,1,.27,1.38a2.53,2.53,0,0,1-.34,2.39,2.12,2.12,0,0,1-1.65.78,2.19,2.19,0,0,1-1.35-.47,11.29,11.29,0,0,0-4.63-1H9.53A2.14,2.14,0,0,1,7.43,53l-.65-3.43A2.12,2.12,0,0,1,8.46,47a2,2,0,0,1-.15-.6c0-.06-.59-6.25-2-13.5a55.31,55.31,0,0,1-.91-14.4A2.13,2.13,0,0,1,7.51,16.6h7.15a2.13,2.13,0,0,1,2.12,2.48A128.78,128.78,0,0,0,15,40.16a2.28,2.28,0,0,1,.5-.36,22.17,22.17,0,0,0,3.91-2.58c.82-.69,2.42-2.41,3.83-3.93,3.32-3.57,3.92-4.16,4.9-4.37a4.26,4.26,0,0,1,.91-.11c2.1,0,2.75,2,3.1,3l0,.18c1.12,3.33,2.59,8.17,2.51,11.76a10.29,10.29,0,0,0,.21,2.62,5.85,5.85,0,0,0,.59-2.58q0-.4,0-.93a35.55,35.55,0,0,0-.9-9.51,74.55,74.55,0,0,1-1.21-8.43v-.05a5.12,5.12,0,0,1,.67-2.72,2.4,2.4,0,0,1-.63-.48c-.73-.78-.78-1.71-.94-4.78-.05-1.05-.12-2.48-.22-2.93a2.17,2.17,0,0,1,.78-2.12L34.16,11a2.73,2.73,0,0,1,1.77-.69l.3,0a2.24,2.24,0,0,1-.41-1.55,1.38,1.38,0,0,1,0-.26,6.3,6.3,0,0,0,0-1.08c0-.84-.27-2.51-.37-3.23a4,4,0,0,1-.07-.5,2.53,2.53,0,0,1,2-3l.32-.05a2.57,2.57,0,0,0,.61-.14A2.25,2.25,0,0,1,39.1.33a2.14,2.14,0,0,1,2.13,1.94c.07.8.1,1.5.12,2.11a11.38,11.38,0,0,0,.09,1.4,8.89,8.89,0,0,1-.32,3.79,2.57,2.57,0,0,1,.4-.08L43,9.39h.16A2.14,2.14,0,0,1,45,12.52L42,18.38a2.11,2.11,0,0,1-.74.8l.21.12c1,.65,1.18,1.67,1.29,4.2a38,38,0,0,1-.08,4.71c-.09.81,0,2.58,0,4.45a77.53,77.53,0,0,1-.35,12c.72.72,1.52,1.51,1.95,1.87a3,3,0,0,0,.6.06c.17,0,.32,0,.45,0-.1-1-.39-2.77-.62-4.13-.37-2.18-.79-4.65-.91-6.56-.06-1-.18-2.33-.3-3.73-.77-8.69-.79-10.48.72-11.52a4.92,4.92,0,0,1,3.15-1c.35,0,.74,0,1.25.06l.47,0h.87a2.76,2.76,0,0,1,2.09.82,2.19,2.19,0,0,1,.2.25c1.09-1.1,3.21-1.33,4.64-1.47l.39,0a3.28,3.28,0,0,1,.43,0,2.42,2.42,0,0,1,2.38,2.11,12.14,12.14,0,0,1,.1,1.67c0,.94.06,2.37.22,4.54A69.16,69.16,0,0,1,59.63,43.12Z"/><path d="M15.72,56.52A2.49,2.49,0,0,1,14.19,56a11.28,11.28,0,0,0-4.45-1H9.53A2.48,2.48,0,0,1,7.1,53l-.65-3.43A2.45,2.45,0,0,1,8,46.81,1.91,1.91,0,0,1,8,46.48C7.91,45.8,7.31,39.83,6,33A55.45,55.45,0,0,1,5,18.51a2.47,2.47,0,0,1,2.47-2.25h7.15a2.49,2.49,0,0,1,1.89.87,2.45,2.45,0,0,1,.56,2,130.87,130.87,0,0,0-1.82,20.37h0A22.3,22.3,0,0,0,19.15,37c.76-.64,2.24-2.22,3.54-3.62l.26-.29c3.39-3.64,4-4.24,5.08-4.47a4.52,4.52,0,0,1,1-.12c2.34,0,3.07,2.19,3.42,3.24l.06.18c1.11,3.34,2.6,8.2,2.51,11.87,0,.41,0,.8,0,1.16a5.29,5.29,0,0,0,.12-1.13c0-.27,0-.59,0-.95a34.86,34.86,0,0,0-.89-9.42A78.58,78.58,0,0,1,33.05,25v-.08a5.48,5.48,0,0,1,.57-2.6,2.27,2.27,0,0,1-.44-.38c-.81-.86-.86-1.81-1-5v-.23c0-.95-.12-2.25-.21-2.65a2.47,2.47,0,0,1,.9-2.45h0l.1-.07,1-.82a3.08,3.08,0,0,1,1.72-.75,2.65,2.65,0,0,1-.18-1.25c0-.08,0-.17.05-.29a6.35,6.35,0,0,0,0-1c0-.77-.24-2.3-.35-3l0-.15c0-.24-.06-.43-.07-.52A2.86,2.86,0,0,1,37.44.3l.33,0a3,3,0,0,0,.54-.13A2.53,2.53,0,0,1,40.45.4a2.45,2.45,0,0,1,1.11,1.84c.08.81.11,1.53.13,2.13v.11a10.94,10.94,0,0,0,.08,1.24,9.65,9.65,0,0,1-.17,3.43L43,9.06l.1.33,0-.34h.1a2.48,2.48,0,0,1,2.19,3.63l-3.06,5.85a2.33,2.33,0,0,1-.46.62A3.39,3.39,0,0,1,43,21.67,2.64,2.64,0,0,1,44,20.31a5.27,5.27,0,0,1,3.34-1c.35,0,.75,0,1.27.07a8.59,8.59,0,0,0,.88,0h.44a3.08,3.08,0,0,1,2.33.92c1.23-1,3.22-1.18,4.56-1.31l.17,0,.2,0,.49,0a2.73,2.73,0,0,1,2.71,2.38,9,9,0,0,1,.1,1.57v.34c0,.92.07,2.31.21,4.34A70,70,0,0,1,60,43.19h0a20.46,20.46,0,0,0-.18,3.61c0,2.65,0,4.74-1.19,6.11a5.3,5.3,0,0,1-4.27,1.54,15,15,0,0,1-2.67-.26,2.42,2.42,0,0,1-1.79-1.47,5.13,5.13,0,0,1-3.07,1c-1,0-2.26-.53-4.48-1.53-.73-.33-1.92-.86-2.62-1.11-.27.24-.61.58-.85.82a6.57,6.57,0,0,1-3.29,2.19,8.82,8.82,0,0,1-1.55.15c-2.92,0-5-1.81-5.81-5-.17-.68-.33-1.33-.47-1.94A7.22,7.22,0,0,0,25,47.4a10.54,10.54,0,0,1-9.58-3.12c.05.59.1,1.2.17,1.85a3,3,0,0,1,0,1.26c0,.08,0,.16-.07.23l.37.14a2.49,2.49,0,0,1,1.48,1.82h0s.2,1,.39,2L18,53a2.85,2.85,0,0,1-.41,2.66A2.45,2.45,0,0,1,15.72,56.52ZM7.51,16.94a1.8,1.8,0,0,0-1.8,1.63,54.75,54.75,0,0,0,.91,14.3c1.35,6.86,2,12.86,2,13.52a1.87,1.87,0,0,0,.13.53l.15.37-.4.08a1.78,1.78,0,0,0-1.1.7,1.84,1.84,0,0,0-.31,1.4l.65,3.43a1.81,1.81,0,0,0,1.77,1.47h.21a11.6,11.6,0,0,1,4.79,1l.05,0a1.86,1.86,0,0,0,2.53-.27c.54-.65.43-1.23.27-2.1l-.27-1.38c-.19-1-.39-2-.39-2a1.79,1.79,0,0,0-1.08-1.32L15,48.13,14.57,48l.2-.35a1.85,1.85,0,0,0,.18-.43,2.62,2.62,0,0,0,0-1c-.1-1-.18-1.91-.23-2.8l-.05-.93.63.69c2.8,3,6.18,4.28,9.59,3.57a8.08,8.08,0,0,1,3.17,0l.21,0,.05.21c.16.67.33,1.39.52,2.15.69,2.83,2.57,4.45,5.16,4.45a8.86,8.86,0,0,0,1.43-.13,6.12,6.12,0,0,0,2.93-2,13.86,13.86,0,0,1,1-1l.14-.11.17.05c.7.22,2,.81,2.87,1.2,2.13,1,3.29,1.46,4.2,1.46a4.52,4.52,0,0,0,3-1.14l.44-.39.11.58a1.78,1.78,0,0,0,1.41,1.44,14.62,14.62,0,0,0,2.54.25,4.7,4.7,0,0,0,3.76-1.31c1-1.18,1-3.16,1-5.66a20.43,20.43,0,0,1,.19-3.76,68.46,68.46,0,0,0,.75-15.53c-.14-2-.18-3.43-.21-4.36v-.35a11.25,11.25,0,0,0-.09-1.46,2.08,2.08,0,0,0-2.05-1.83,2.66,2.66,0,0,0-.39,0l-.22,0-.17,0c-1.29.12-3.42.34-4.44,1.37l-.27.27L52,20.93a1,1,0,0,0-.17-.21A2.41,2.41,0,0,0,49.94,20c-.11,0-.26,0-.41,0a7.67,7.67,0,0,1-1,0c-.5,0-.89-.06-1.22-.06a4.56,4.56,0,0,0-3,.93c-1.35.92-1.32,2.81-.58,11.21.11,1.17.24,2.65.3,3.74.13,1.91.54,4.36.91,6.52l0,.17c.22,1.33.5,3,.59,4l0,.33-.33,0a3.43,3.43,0,0,1-.48,0,3.56,3.56,0,0,1-.66-.06l-.09,0L44,46.75c-.46-.38-1.32-1.24-2-1.89L42,44.74l0-.16a77.53,77.53,0,0,0,.34-11.86v-.2c0-1.82-.08-3.53,0-4.35a38.94,38.94,0,0,0,.09-4.65c-.11-2.6-.35-3.41-1.15-3.94l-.16-.09-.56-.25.52-.34a1.83,1.83,0,0,0,.62-.68l3.07-5.86a1.82,1.82,0,0,0-1.6-2.64H43l-1.45.1a2.1,2.1,0,0,0-.33.06l-.64.17.24-.61a8.6,8.6,0,0,0,.3-3.62A10.34,10.34,0,0,1,41,4.51V4.4c0-.63,0-1.3-.12-2.1A1.79,1.79,0,0,0,40.08,1a1.83,1.83,0,0,0-1.56-.2,2.87,2.87,0,0,1-.6.15l-.36,0a2.2,2.2,0,0,0-1.78,2.67c0,.08,0,.26.07.48l0,.15c.11.81.33,2.31.35,3.12a5.17,5.17,0,0,1,0,1.12l0,.26a1.93,1.93,0,0,0,.35,1.32l.46.63-.77-.1a2.39,2.39,0,0,0-1.82.59c-.35.3-.83.68-1,.83l-.08.07a1.8,1.8,0,0,0-.66,1.79,27.09,27.09,0,0,1,.22,2.76v.23c.15,3,.19,3.87.84,4.55a2.23,2.23,0,0,0,.55.42l.3.16-.16.3a4.78,4.78,0,0,0-.64,2.54v.07a72.38,72.38,0,0,0,1.2,8.36,35.79,35.79,0,0,1,.9,9.59c0,.35,0,.66,0,.92a6.35,6.35,0,0,1-.62,2.73l-.42.85-.21-.92a10.86,10.86,0,0,1-.23-2.71c.08-3.56-1.38-8.35-2.48-11.64l-.06-.19c-.34-1-.92-2.77-2.78-2.77a3.81,3.81,0,0,0-.84.11c-.88.19-1.46.76-4.72,4.27l-.27.29c-1.38,1.48-2.81,3-3.59,3.67a23.57,23.57,0,0,1-4,2.62,2,2,0,0,0-.42.3l-.56.53v-.77A128.47,128.47,0,0,1,16.45,19a1.8,1.8,0,0,0-1.79-2.09Zm36.9,29.24a3.37,3.37,0,0,0,.53,0c-.12-1-.36-2.42-.56-3.6l0-.17c-.37-2.18-.79-4.65-.92-6.59-.06-1.08-.19-2.56-.3-3.72-.07-.82-.14-1.58-.19-2.28,0,.77,0,1.69,0,2.64v.15a80.24,80.24,0,0,1-.32,11.86C43.25,45.1,44,45.81,44.41,46.18Z"/><path d="M10.44,45.52a20.06,20.06,0,0,0,2.62.57c.08,0,.13,0,.13,0,.06-.21-1.58-8.94,1.47-27.58H7.51A51.85,51.85,0,0,0,8.39,32C9.86,39.36,10.44,45.52,10.44,45.52Z"/><path d="M9.74,51.73a12,12,0,0,1,6,1.45h0S15,49.27,15,49.27a13.55,13.55,0,0,0-5-1,9.46,9.46,0,0,0-1.06,0l.66,3.37Z"/><path d="M34.37,13.34c.29,1.35.27,6.2.62,6.56a.24.24,0,0,0,.19.1c.29,0,.65-.64,1.39-1.39a5.55,5.55,0,0,0,1.27-3,12.58,12.58,0,0,1,.48-2h0c.1,0,.18.61,0,1.67a11.85,11.85,0,0,0-.13,2l1.83-.18,3.06-5.76-1.48.1A10.59,10.59,0,0,1,41,12.63c-.37.59-1.19,2.91-1.44,3.43-.15.31-.31.44-.42.44s-.14-.06-.14-.17c0-.27.19-3.4.23-3.8a7.22,7.22,0,0,1,.19-.95l-1.2.4a29.68,29.68,0,0,0-1.37,4.13c-.27,1.05-.56,1.15-.64,1.21h0c-.08,0,0-3.8,0-4.44,0-.41-.11-.64-.32-.64a.71.71,0,0,0-.4.19Z"/><path d="M37.86,2.74c-.35.06-.32.32-.28.66S38,6.05,38,7.24A6.36,6.36,0,0,1,38,8.86c0,.08.07.1.19.1h.48c.13,0,.2,0,.25,0s.11,0,.23-.26a6.17,6.17,0,0,0,.22-2.68c-.14-.85-.08-2.08-.22-3.6A5.86,5.86,0,0,1,37.86,2.74Z"/><path d="M50.2,41.61c-1.05-7.67.3-17.48.41-19,.06-1-.11-1.1-.67-1.1l-.87,0-.65,0c-.43,0-.78,0-1.08,0a2.9,2.9,0,0,0-1.93.6c-.81.56.26,9.17.51,13.13S47.86,45.87,47.4,47c-.27.66-1.45,1-2.53,1a3.24,3.24,0,0,1-1.8-.41c-.87-.65-3.06-2.9-3.06-2.9,1.07-5.06.25-14.33.51-17s0-6.62-.26-6.82a.39.39,0,0,0-.23-.06,14.63,14.63,0,0,0-2.36.71,3.11,3.11,0,0,0-2.14,3,69,69,0,0,0,1.17,8,38.13,38.13,0,0,1,.92,10.72,8,8,0,0,1-2.86,6.07S32.4,48.27,32.52,43c.09-3.69-1.88-9.36-2.44-11-.42-1.24-.67-1.52-1.07-1.52a2.24,2.24,0,0,0-.46.07c-.72.15-5.81,6.06-7.8,7.72a24.68,24.68,0,0,1-4.33,2.8A9.19,9.19,0,0,0,23,44.42a7.76,7.76,0,0,0,1.49-.15,10.36,10.36,0,0,1,2.06-.21,9.8,9.8,0,0,1,3.19.53c.25,1,.53,2.1.83,3.33.62,2.53,2.17,3,3.4,3a6.72,6.72,0,0,0,1.12-.11c1.17-.2,3-3.06,4.28-3.11h0c1.33,0,6.2,2.71,7.36,2.71a3.23,3.23,0,0,0,2.75-1.76C50.25,47.57,50.66,45,50.2,41.61ZM22.58,41.1a7.79,7.79,0,0,0-1.56.14c1.65-.39,6.66-4.54,6.66-4.54s.37,1.16,1.52,5.65A21.6,21.6,0,0,0,22.58,41.1Z"/><path d="M57.69,21h-.1c-.67.1-3.91.25-3.93,1.15,0,2.81.77,7.82,1,14.48.13,3.3.15,12.33-.76,13.28a3.06,3.06,0,0,1-1.79,1,13.6,13.6,0,0,0,2.2.2,3.35,3.35,0,0,0,2.39-.66c1-1.15.25-5.81.81-8.47a63.81,63.81,0,0,0,.72-14.78C57.86,21.93,58.21,21,57.69,21Z"/><path d="M85.9,36.37h-.37c-4.39.11-15,3.37-15,3.37,5.92-2.48,16.82-7.92,17.32-8.48s-.76-1.47-1.6-2.07c-.46-.33-.72-.57-1.09-.57a2.86,2.86,0,0,0-1.36.57c-1.45.9-12.8,7.21-15.32,8.57-1.82,1-2.86,3.7-2.64,4s.6.35,1.22.35c1.88,0,5.48-.94,8.2-1.59C78.87,39.72,84,39,84,39c-.34,2.33-3.44,4.61-13.19,8.24a4.16,4.16,0,0,1-1.49.31A1.65,1.65,0,0,1,68,47.05c-.25-.33.82-1.63.69-2a.2.2,0,0,0-.2-.16,14.29,14.29,0,0,0-2,.74c-1.2.44-1.55.07-1.67.94a7.35,7.35,0,0,1-1,2.63c-.62,1.2-.19,1.69,1.6,1.69s8.64-.75,13.6-3.58,7.76-6,8.45-7.58S89.83,36.37,85.9,36.37Z"/><path d="M82,55.85l.76-5.39-2.41-.81a85.92,85.92,0,0,0-7.25,6.57c.22-1.2,1-4.92,1-4.92-.7.07-2.8,2.15-4.66,2.15h-.19l.34,6.65,3.33-1.65c2.86-4.89,6-6.43,6-6.43l-1.56,6Z"/><polygon points="203.5 94.11 203.51 94.11 203.51 94.11 203.5 94.11"/><path class="cls-2" d="M211.24,81.85,209,92.34a1.19,1.19,0,0,1,.2.19h0a1.84,1.84,0,0,1,.17.22,2.16,2.16,0,0,1,.12,2.17l-1.52,3a2,2,0,0,1-1.79,1.16,4.92,4.92,0,0,0-1.35.45,3.11,3.11,0,0,1-1.37.34,2.4,2.4,0,0,1-1.85-.85,3.08,3.08,0,0,1-.33-.5,14.42,14.42,0,0,0-2.19,1.43,2.19,2.19,0,0,1-1.31.45,2.13,2.13,0,0,1-.85-.18l-1.52-.65a2.4,2.4,0,0,1-.55-.34,1.92,1.92,0,0,1-.48.37l-2.5,1.4a2.19,2.19,0,0,1-1.05.27,2.13,2.13,0,0,1-2.12-2.4v0l-1.38.8a2.23,2.23,0,0,1-1.06.27,2.13,2.13,0,0,1-1.12-.31,2.22,2.22,0,0,1-.47-.39,3.43,3.43,0,0,1-1.79.54,4,4,0,0,1-.62,0l-.18,0-.39-.08-.17-.07a2.53,2.53,0,0,1-.33-.12l-.16-.09-.27-.17-.15-.1a1.5,1.5,0,0,1-.24-.2l-.13-.12-.21-.22a.76.76,0,0,0-.11-.14l-.18-.25-.09-.15-.16-.26a.77.77,0,0,1-.07-.16c0-.09-.09-.18-.13-.27l-.07-.16c0-.1-.07-.19-.11-.28s0-.11-.06-.18-.05-.17-.08-.26,0-.13-.05-.19l-.06-.25c0-.06,0-.12,0-.18a1.55,1.55,0,0,0-.05-.23l0-.2a1.38,1.38,0,0,1,0-.2,1.55,1.55,0,0,1,0-.21.68.68,0,0,1,0-.14c0-.09,0-.18,0-.26a4.44,4.44,0,0,1-1.79,1.28h0c-.16.07-.34.12-.52.18h0l-.52.11-.08,0a4.46,4.46,0,0,1-.54.06l-.1,0c-.22,0-.45,0-.68,0s-.64,0-.95,0l.13,5.4a2,2,0,0,1,0,.43,2.62,2.62,0,0,1-.11.4,2.16,2.16,0,0,1-.46.72l0,0a1.78,1.78,0,0,1-.57.4,1.64,1.64,0,0,1-.33.14l-1.52.45a2.16,2.16,0,0,1-.62.09,2.2,2.2,0,0,1-1.18-.35,2.17,2.17,0,0,1-.94-1.55l-.24-2.1-1.64.56a2,2,0,0,1-.69.12,2.21,2.21,0,0,1-1.23-.39,2.28,2.28,0,0,1-.42-.4,2.34,2.34,0,0,1-.53.17l-2.35.4a1.5,1.5,0,0,1-.37,0,2.19,2.19,0,0,1-1.41-.53,1.37,1.37,0,0,1-.17-.17s0,0,0,0a1.15,1.15,0,0,1-.14-.17h0a2.18,2.18,0,0,1-.24-.42,1.35,1.35,0,0,1-.26.33,4.44,4.44,0,0,1-3.12,1.31,6,6,0,0,1-4-1.81l-.09-.1a10.25,10.25,0,0,1-4.48,1.19,7,7,0,0,1-2.2-.35c-.19-.06-.36-.13-.53-.2a1,1,0,0,0-.18-.09l-.28-.16-.21-.14-.19-.13-.22-.19-.12-.12a1.51,1.51,0,0,1-.21-.23.39.39,0,0,1-.08-.1,1.39,1.39,0,0,1-.21-.27.21.21,0,0,0,0-.06,3.3,3.3,0,0,1-.18-.32s0,0,0,0-.12-.23-.17-.35l.08.7a1.93,1.93,0,0,1,0,.48c0,.26-.39,2.49-3.66,2.49a5.35,5.35,0,0,1-3-1,7.84,7.84,0,0,1-3,.68h-.39c-.21,0-.42,0-.63-.08l-.18,0-.47-.1-.18,0-.47-.14-.14-.06a4.87,4.87,0,0,1-.53-.21l-.07,0a6.63,6.63,0,0,1-.59-.31l-.1-.07a3.52,3.52,0,0,1-.45-.3l-.13-.09q-.19-.15-.39-.33L127,99c-.05-.06-.12-.1-.18-.16a14.63,14.63,0,0,1-1.42,3.31c-.11.18-.22.37-.35.55a2.14,2.14,0,0,1-1.44.91,1.83,1.83,0,0,1-.33,0,2.16,2.16,0,0,1-1.33-.45l-2.55-2a2.15,2.15,0,0,1,.06-3.41,5.88,5.88,0,0,0,2-2.26,5.65,5.65,0,0,0-1.08-2.58,19.82,19.82,0,0,0-2.4-3.05c-.46-.49-1-1.06-1.59-1.78a2.72,2.72,0,0,1-.63-2c.16-1.63,1.79-3.22,3.14-4.27a2.15,2.15,0,0,1,1.32-.45,2.29,2.29,0,0,1,.51.06,2.13,2.13,0,0,1,1.39,1.11,2.13,2.13,0,0,1,.88-1.24,2.07,2.07,0,0,1,1.2-.37,2,2,0,0,1,.67.11l3,1c.11,0,.23.09.34.15l.11.07.12.07.33-.31,0,0a4.19,4.19,0,0,1,.33-.26.18.18,0,0,0,.07,0,2.63,2.63,0,0,1,.33-.2l.1-.06a2,2,0,0,1,.32-.17l.16-.07.3-.11.23-.07.26-.08.31,0,.22,0a5.17,5.17,0,0,1,.57,0c3.13,0,4.45,2.84,4.95,4.54a28.1,28.1,0,0,1,.87,5.85c0,.68.09,1.32.14,1.65s.07.38.1.55a2,2,0,0,1,1-.27,2.59,2.59,0,0,1,.47,0l.3.1a.18.18,0,0,1,.09,0l.18.08.1.06.15.11a.34.34,0,0,1,.09.08,1.07,1.07,0,0,1,.19.18l.11.13.07.09.1.16a.59.59,0,0,0,0,.08l.09.18a5.36,5.36,0,0,1,.09-.7s0-.06,0-.08a4.64,4.64,0,0,1,.17-.64l0-.11a6.44,6.44,0,0,1,.24-.61l0-.08a5.7,5.7,0,0,1,.32-.6l-.21-.15a.18.18,0,0,1-.07,0l-.14-.13-.06-.06-.15-.16s0,0,0,0a1.14,1.14,0,0,1-.15-.23s0,0,0,0l0-.06L141,90.5l0-.09s0-.1-.05-.15a.31.31,0,0,1,0-.08.29.29,0,0,1,0-.09.13.13,0,0,1,0-.06,1.57,1.57,0,0,1,0-.24s0-.05,0-.08a1.93,1.93,0,0,1,0-.33v0a2.57,2.57,0,0,1,.2-.65l.06-.12,0-.07.07-.14,0-.07.07-.16,0-.07c0-.09.08-.17.11-.25,1-2.29,2.85-6.52,6.81-6.52a5.3,5.3,0,0,1,.57,0l.16,0a2.2,2.2,0,0,1,.37.06l.17,0,.34.1.15,0,.35.15.09,0a5.61,5.61,0,0,1,1.23.85h0l.35.35a1.42,1.42,0,0,1,.2-.28,2.18,2.18,0,0,1,1.56-.7,21.67,21.67,0,0,0,2.95-.38,1.58,1.58,0,0,1,.38,0,2.18,2.18,0,0,1,1.35.48,2.4,2.4,0,0,1,.28.27,3.88,3.88,0,0,1,1.67-.54h.31a2.8,2.8,0,0,1,2.24,1,3.13,3.13,0,0,1,2-.76,2.86,2.86,0,0,1,.42,0h.14l.29.07.22.07a1.56,1.56,0,0,1,.16-.2l.14-.14,0,0a2.4,2.4,0,0,1,.38-.27l.07,0,.17-.08.09,0,.14,0,.14,0,.15,0,.29,0h3.14a2.14,2.14,0,0,1,1.89,1.13,5.58,5.58,0,0,1,2.87-.83,3,3,0,0,1,.41,0l.1,0a1.89,1.89,0,0,1,.34.09l.07,0a3.55,3.55,0,0,1,.86.41,2.14,2.14,0,0,1,.52-.32h0a1,1,0,0,1,.22-.08l.07,0a2.3,2.3,0,0,1,.28-.06l3.54-.39.23,0a2.11,2.11,0,0,1,1.4.52L184,82a13.16,13.16,0,0,1,3.71-.76,4.68,4.68,0,0,1,.66,0,2.22,2.22,0,0,1,1.4.82,2.37,2.37,0,0,1,.48-.23l3.12-1.07a2.13,2.13,0,0,1,2,.29,2.24,2.24,0,0,1,.77,1,4.41,4.41,0,0,1,2.47-.87h.1a4.75,4.75,0,0,1,.54,0l.16,0a1.91,1.91,0,0,1,.33.06l.17,0,.31.1.11,0c0-.12,0-.24,0-.36h0l.06-.36h0a1.76,1.76,0,0,1,.1-.3l0-.07a2.19,2.19,0,0,1,.16-.3,2.14,2.14,0,0,1,1.77-.93h6.76a2.14,2.14,0,0,1,2.14,2.14A2.18,2.18,0,0,1,211.24,81.85Z"/><path d="M169.86,104.56a2.46,2.46,0,0,1-2.46-2.21l-.18-1.67-1.25.42a2.45,2.45,0,0,1-2.22-.32,2.69,2.69,0,0,1-.32-.27,2.36,2.36,0,0,1-.38.1l-2.35.4a1.68,1.68,0,0,1-.43,0,2.49,2.49,0,0,1-1.63-.6l-.2-.21,0,0a.79.79,0,0,1-.12-.15l0,0v0a4.87,4.87,0,0,1-3.33,1.37,6.3,6.3,0,0,1-4.19-1.83,8.73,8.73,0,0,1-6.71.75,4.79,4.79,0,0,1-.57-.21l-.06,0-.11,0-.14-.08-.18-.1a1.88,1.88,0,0,1-.18-.12l-.12-.08-.14-.1-.23-.2a1.66,1.66,0,0,1-.14-.13L142,99l-.05-.06,0-.06c-.08.47-.64,2.71-4,2.71a5.57,5.57,0,0,1-3-1,7.35,7.35,0,0,1-3.38.62c-.21,0-.44,0-.65-.07l-.35-.06-.33-.08-.2,0c-.15,0-.32-.09-.48-.15l-.16-.06a3.41,3.41,0,0,1-.54-.22l-.07,0a5.92,5.92,0,0,1-.61-.33l-.09,0a5.41,5.41,0,0,1-.5-.34.6.6,0,0,1-.14-.11,3.33,3.33,0,0,1-.32-.26,14.77,14.77,0,0,1-1.3,2.89c-.11.18-.23.37-.36.55a2.46,2.46,0,0,1-3.59.56l-2.55-2a2.49,2.49,0,0,1,.07-4,6.48,6.48,0,0,0,1.84-2,5.36,5.36,0,0,0-1-2.39,18.6,18.6,0,0,0-2.36-3c-.46-.5-1-1.07-1.6-1.79a3.1,3.1,0,0,1-.71-2.3c.17-1.75,1.87-3.41,3.27-4.5a2.47,2.47,0,0,1,3.36.28,2.3,2.3,0,0,1,.76-.82,2.48,2.48,0,0,1,2.17-.3l3,1a1.71,1.71,0,0,1,.39.17h0l.17-.14,0,0,.33-.26.08,0,.34-.22.06,0a3.66,3.66,0,0,1,.39-.2l.16-.07a2.92,2.92,0,0,1,.34-.13l.25-.08.27-.07a2,2,0,0,1,.35-.06l.23,0a5.74,5.74,0,0,1,.6,0c3.35,0,4.75,3,5.28,4.78a29.11,29.11,0,0,1,.87,5.93c0,.61.09,1.29.15,1.62l0,.12a2.66,2.66,0,0,1,1.31-.07l.32.1.12,0,.22.11.18.11.13.1a.32.32,0,0,1,.11.09.92.92,0,0,1,.15.14,4.26,4.26,0,0,1,.16-.61.77.77,0,0,1,0-.12,4.12,4.12,0,0,1,.25-.63l0-.1.18-.34,0,0-.2-.17-.06-.06a1.63,1.63,0,0,1-.17-.2L141,91.1l0,0h-.15l0-.32a.61.61,0,0,1,0-.12l.29-.19-.32.12c0-.07,0-.13-.06-.18l0-.1,0-.24a1,1,0,0,1,0-.24v-.08c0-.12,0-.25,0-.37l0-.13a2.64,2.64,0,0,1,.22-.67s0,0,0-.08l.07-.14,0-.07L141,88l.35,0-.31-.13.05-.12.06-.13c1-2.37,3-6.72,7.12-6.72a5.82,5.82,0,0,1,.6,0l.17,0,.4.07.62.17.1,0,.37.16.09,0a5.61,5.61,0,0,1,1.3.9l.09.08a2.46,2.46,0,0,1,1.79-.79,23.11,23.11,0,0,0,2.9-.38,1.89,1.89,0,0,1,.44,0,2.5,2.5,0,0,1,1.56.54l.13.12a4.24,4.24,0,0,1,1.59-.45,1.67,1.67,0,0,1,.33,0,3.17,3.17,0,0,1,2.28.87,3.32,3.32,0,0,1,1.91-.65,2.32,2.32,0,0,1,.46,0h.14a2.44,2.44,0,0,1,.34.08h0l0,0,.2-.19a2.92,2.92,0,0,1,.44-.32l.08,0,.12-.06.07,0,.1,0,.19,0,.17,0,.13,0h3.49a2.47,2.47,0,0,1,2,1,5.9,5.9,0,0,1,2.76-.71,2.45,2.45,0,0,1,.46,0l.12,0a2,2,0,0,1,.38.1h0l.07,0a4.63,4.63,0,0,1,.73.32,2.65,2.65,0,0,1,.4-.22l.08,0,.23-.08a1.92,1.92,0,0,1,.39-.08l3.55-.4h.27a2.46,2.46,0,0,1,1.62.6l.09.08a13.06,13.06,0,0,1,3.62-.71,5.24,5.24,0,0,1,.7,0,2.5,2.5,0,0,1,1.43.73,1.94,1.94,0,0,1,.3-.13l3.12-1.07a2.48,2.48,0,0,1,2.27.34,2.41,2.41,0,0,1,.71.81,4.56,4.56,0,0,1,2.32-.7h.11a5.52,5.52,0,0,1,.58,0l.16,0a2.2,2.2,0,0,1,.37.06l.17,0h0a2.24,2.24,0,0,1,.05-.31v-.1l0,0,.1-.27,0-.08a3.65,3.65,0,0,1,.18-.34,2.5,2.5,0,0,1,2.06-1.09h6.76a2.48,2.48,0,0,1,2.48,2.48,2.68,2.68,0,0,1-.08.6l-2.18,10.29.08.08.08.11a.83.83,0,0,1,.12.16,2.49,2.49,0,0,1,.14,2.5l-1.53,3a2.29,2.29,0,0,1-2.08,1.35,5,5,0,0,0-1.2.42,2.94,2.94,0,0,1-3.63-.61,2.48,2.48,0,0,1-.19-.26,13.66,13.66,0,0,0-1.86,1.24,2.49,2.49,0,0,1-2.5.32l-1.52-.65a2.42,2.42,0,0,1-.39-.21,3,3,0,0,1-.35.23l-2.5,1.4a2.56,2.56,0,0,1-2.59-.11,2.49,2.49,0,0,1-1.08-1.77l-.87.51a2.54,2.54,0,0,1-2.53-.05,2.88,2.88,0,0,1-.35-.26,3.52,3.52,0,0,1-1.73.47,4.8,4.8,0,0,1-.67,0l-.18,0a2.72,2.72,0,0,1-.43-.09l-.12,0-.14,0a2.52,2.52,0,0,1-.29-.12l-.2-.11a2.38,2.38,0,0,1-.29-.17l-.17-.13a1.48,1.48,0,0,1-.26-.21l-.12-.12-.23-.23a.82.82,0,0,0-.12-.16l-.2-.27-.08-.12c-.08-.13-.13-.22-.18-.32l-.06-.11c-.07-.16-.12-.25-.16-.35l-.25-.64-.2-.73a.75.75,0,0,0,0-.16,1.59,1.59,0,0,0-.05-.24,1.86,1.86,0,0,1,0-.26l0-.12a4.89,4.89,0,0,1-1.4.86l0,0c-.17.07-.36.13-.55.19h-.06a4.12,4.12,0,0,1-.53.12l-.15,0a4.51,4.51,0,0,1-.51.07H175a7.84,7.84,0,0,1-1.29,0l.13,5a2.65,2.65,0,0,1-.05.5,1.88,1.88,0,0,1-.13.47,2.42,2.42,0,0,1-.53.83,2.45,2.45,0,0,1-.68.49,2.74,2.74,0,0,1-.38.15l-1.52.46A2.78,2.78,0,0,1,169.86,104.56Zm-2.07-4.79.28,2.51a1.78,1.78,0,0,0,.8,1.3,1.87,1.87,0,0,0,1.52.23l1.52-.46a1.48,1.48,0,0,0,.27-.1,1.91,1.91,0,0,0,.48-.35,1.58,1.58,0,0,0,.4-.63,1.06,1.06,0,0,0,.1-.33,2.21,2.21,0,0,0,0-.37l-.15-5.76.38,0a9.16,9.16,0,0,0,1.57,0h.11a4,4,0,0,0,.5-.06l.08,0,.5-.11.06,0h0l.37-.13.05,0h.08a4.16,4.16,0,0,0,1.61-1.17l.52-.62.07.81a1.92,1.92,0,0,0,0,.22l.06.35c0,.08,0,.12,0,.16l0,.07a.88.88,0,0,0,0,.16,1.58,1.58,0,0,1,0,.25.69.69,0,0,1,.05.18l.4,1.23c0,.1.08.18.13.27l0,.08.18.31.08.13a2.5,2.5,0,0,0,.18.24s.07.1.11.15l.18.18.12.12a1.09,1.09,0,0,0,.17.13l.06,0,.1.08.25.15.16.09.22.08.07,0,.1,0,.07,0,.33.07.19,0a4.73,4.73,0,0,0,.56,0,3.17,3.17,0,0,0,1.63-.49l.23-.13.18.2a2,2,0,0,0,.39.32,1.85,1.85,0,0,0,1.85,0l1.87-1.08v.65a1.82,1.82,0,0,0,.78,1.72,1.86,1.86,0,0,0,1.89.08l2.51-1.4a1.78,1.78,0,0,0,.4-.31l.22-.23.24.2a1.87,1.87,0,0,0,.46.29l1.52.65a1.82,1.82,0,0,0,1.82-.23,15,15,0,0,1,2.25-1.46l.3-.15.15.29a2.17,2.17,0,0,0,3.1.87,5.87,5.87,0,0,1,1.43-.48,1.69,1.69,0,0,0,1.56-1l1.52-3a1.8,1.8,0,0,0-.1-1.82,1.41,1.41,0,0,0-.14-.18l-.09-.1-.07-.06-.16-.13,2.27-10.69a2.58,2.58,0,0,0,.05-.45,1.8,1.8,0,0,0-1.8-1.8h-6.76a1.79,1.79,0,0,0-1.49.78,2,2,0,0,0-.14.25l0,.07a2.09,2.09,0,0,0-.08.23l0,.1a1.72,1.72,0,0,0,0,.24,1,1,0,0,0,0,.29l.06.56-.53-.21-.1,0-.28-.08-.12,0-.33-.06-.16,0a4.1,4.1,0,0,0-.5,0h-.1a3.94,3.94,0,0,0-2.28.81l-.36.25-.15-.42a1.82,1.82,0,0,0-2.3-1.12l-3.12,1.07a1.42,1.42,0,0,0-.41.2l-.26.16-.19-.24a1.86,1.86,0,0,0-1.18-.7,11.66,11.66,0,0,0-4.21.7l-.21.07-.15-.16-.19-.19a1.84,1.84,0,0,0-1.38-.42l-3.53.4-.23,0-.08,0-.16.06-.08,0a1.77,1.77,0,0,0-.41.26l-.19.15-.2-.13a3.45,3.45,0,0,0-.78-.37l-.08,0-.28-.07h-.07a2,2,0,0,0-.39,0,5.25,5.25,0,0,0-2.7.78l-.3.17-.17-.3a1.78,1.78,0,0,0-1.59-.95h-3.48l-.14,0-.1,0-.1,0-.2.09a2.7,2.7,0,0,0-.34.25l-.14.14-.08.11-.21.26-.23-.09-.19-.06-.27-.06h-.12a2.22,2.22,0,0,0-.37,0,2.85,2.85,0,0,0-1.76.7l-.25.18-.2-.23a2.46,2.46,0,0,0-2-.86h-.22a3.45,3.45,0,0,0-1.55.49l-.24.15-.19-.22a1.06,1.06,0,0,0-.24-.23,1.77,1.77,0,0,0-1.13-.4,1.3,1.3,0,0,0-.31,0,22.26,22.26,0,0,1-3,.39,1.77,1.77,0,0,0-1.31.58,2.07,2.07,0,0,0-.17.24l-.22.38-.31-.32c-.11-.12-.22-.23-.34-.34l-.1-.1a4.63,4.63,0,0,0-1-.7l.06-.34-.14.3-.33-.13-.16-.06-.45-.12a1.91,1.91,0,0,0-.33-.06l-.12,0a4,4,0,0,0-.58,0c-3.73,0-5.53,4.09-6.49,6.3a1.11,1.11,0,0,0-.07.16l0,.09-.07.17-.12.26a.31.31,0,0,1-.05.1l-.05.11a2.11,2.11,0,0,0-.18.57v.09a1.77,1.77,0,0,0,0,.22.25.25,0,0,1,0,.08.9.9,0,0,0,0,.18l.05.21,0,.11-.14.1h.18l.1.18h0l0,.05.08.13.06.07.09.1.06.06.12.11.06,0,.19.12.28.19-.18.28a4.32,4.32,0,0,0-.3.56l0,.07a5.36,5.36,0,0,0-.23.58l0,.13a3.28,3.28,0,0,0-.14.58l0,.09a6.57,6.57,0,0,0-.09.66l-.11,1.42-.54-1.32a.69.69,0,0,0-.07-.15l0-.08-.13-.2a.47.47,0,0,0-.09-.1.8.8,0,0,0-.16-.16l-.1-.08-.07-.06L140,93.6l-.19-.09-.06,0-.28-.08a1.43,1.43,0,0,0-.38,0,1.84,1.84,0,0,0-.87.22l-.42.24-.17-1c-.06-.36-.1-1-.15-1.68a28,28,0,0,0-.85-5.79c-.48-1.6-1.71-4.3-4.63-4.3-.19,0-.36,0-.53,0l-.11,0-.08,0-.29.05-.25.07-.22.06-.27.11-.17.07-.27.14-.07,0-.35.22a.33.33,0,0,1-.11.07l-.26.22-.05,0-.29.27-.18.17-.24-.11-.12-.08-.1-.05a1.75,1.75,0,0,0-.28-.13l-2.94-1a1.79,1.79,0,0,0-1.58.21,1.86,1.86,0,0,0-.74,1l-.23.87-.4-.8a1.75,1.75,0,0,0-1.17-.93,1.83,1.83,0,0,0-1.54.33c-1.3,1-2.87,2.52-3,4a2.43,2.43,0,0,0,.55,1.8c.63.72,1.14,1.28,1.59,1.78a19,19,0,0,1,2.43,3.09,6,6,0,0,1,1.13,2.71v.1A6,6,0,0,1,119.7,98a1.85,1.85,0,0,0-.74,1.42,1.81,1.81,0,0,0,.69,1.46l2.55,2a1.9,1.9,0,0,0,1.41.37,1.87,1.87,0,0,0,1.21-.77l.33-.53a13.75,13.75,0,0,0,1.39-3.24l.18-.58.4.45,0,.06a.63.63,0,0,1,.12.11l.11.09a3.57,3.57,0,0,0,.37.31l.1.08.44.3-.07.35.17-.29c.18.1.37.21.56.3l.07,0a3.37,3.37,0,0,0,.49.2l.17.07.43.12.16.05.32.07.29,0c.22,0,.42.06.62.07a1.54,1.54,0,0,0,.37,0,7.45,7.45,0,0,0,2.86-.65l.17-.07.16.1a5,5,0,0,0,2.81,1c3,0,3.3-2,3.32-2.18a1.41,1.41,0,0,0,0-.41l-.33-3.2.91,2.33a3.13,3.13,0,0,0,.15.32l0,.08c0,.07.08.14.11.2a.55.55,0,0,1,.09.14l.16.2-.2.29.25-.22.09.1.13.14.11.1.21.18.1.07.13.1.12.07.17.1.12.06.14.08.5.19c2,.64,4,.38,6.43-.82l.24-.12.24.28a5.69,5.69,0,0,0,3.79,1.71,4.16,4.16,0,0,0,2.88-1.2,1.21,1.21,0,0,0,.21-.28l.33-.54.27.58a2.21,2.21,0,0,0,.18.34l0,0a1.47,1.47,0,0,0,.1.13l0,0a.92.92,0,0,0,.14.14,1.79,1.79,0,0,0,1.18.44,1.21,1.21,0,0,0,.3,0l2.36-.4a1.89,1.89,0,0,0,.44-.14l.24-.12.17.21a1.86,1.86,0,0,0,.36.33,1.73,1.73,0,0,0,1.61.23ZM141.14,90.4l-.12.08Z"/><path d="M203.64,93.61h0c.24,0,3.14-1.14,3.14-1.14l2.36-11.15h-6.75C204.33,86.24,203.64,93.5,203.64,93.61Z"/><path d="M156.08,97.67a2,2,0,0,1-.49.06,2.12,2.12,0,0,1-1.25-.41,2.17,2.17,0,0,1-.73-.94s0,0,0-.07,0-.07,0-.11a1.57,1.57,0,0,1-.09-.23,2.58,2.58,0,0,1-.12-.42v0l-.06-.29h0c-.1-.53-.18-1.15-.24-1.81s-.11-1.14-.17-1.73l0-.11c0-.12,0-.24,0-.36s0-.09,0-.14l-.06-.47c-.39-2.68-1.37-7.17-4.42-7.17S143.83,88,143,89.66c0,0,2.55.23,3.13.23.08,0,.12,0,.11,0s-.29-2.71.86-3.79a2.23,2.23,0,0,1,1.38-.72c.52,0,.91.42,1.07,1.29a13.74,13.74,0,0,1,.14,3.24h-.25a7.77,7.77,0,0,0-3.46.9,4.41,4.41,0,0,0-2.81,4c0,1.51.27,2.66,1.61,3.09a4.79,4.79,0,0,0,1.55.25,9.68,9.68,0,0,0,5-1.76s1.65,2.47,3.64,2.47a2.35,2.35,0,0,0,1.58-.65l0-.65Zm-7.14-2.26a4.32,4.32,0,0,1-2.18.5c-.91,0-1.49-.09-1.49-1,0-1.22,2.3-2.14,3.89-2.69a10.17,10.17,0,0,1,1.4-.44s0,0,0,0l.43,3.12A7.88,7.88,0,0,0,148.94,95.41Z"/><path d="M165,84.16c-.5,0-2,1.48-2.86,2.3-.24-1.56-.48-2.52-1.33-2.52h-.11c-1,.08-1.66.93-3.4,2.88l-.1-3.09a22.25,22.25,0,0,1-3.3.43,46.2,46.2,0,0,0,1,5.49c.39,1.84.71,5.43.75,5.88l0,0,1.89-.44-.19-5.87c.5-.72,1.38-1.9,1.91-1.9h0c.77,0,1,.87,1.14,1.78s-.12,9.42-.12,9.42l2.35-.4s-.08-5.36-.25-8.76c.49-.5,1.37-1.4,1.68-1.65a.63.63,0,0,1,.4-.19c.21,0,.36.22.44.67.12.69.28,10.51.28,10.51l2.09-.7s-.19-8.23-.67-10.77S165.65,84.16,165,84.16Z"/><path d="M175.69,83.73c-2.06,0-3.81,2.18-4.66,3.46l-.1-3.77h-3.14l2.07,18.66,1.53-.46-.2-8a16.1,16.1,0,0,0,3.16.41c1.76,0,3.53-.46,3.71-4.76S176.39,83.73,175.69,83.73Zm-.09,7.2c-.22.25-1,.13-2,.34-.57.12-1.66.48-2.46.76l-.08-3.19a24.62,24.62,0,0,1,3.46-2.24,1.78,1.78,0,0,1,.52-.09.49.49,0,0,1,.51.3.8.8,0,0,1,0,.24A23.85,23.85,0,0,1,175.6,90.93Z"/><path d="M200.48,87.94c.44-2.62.37-4.54-1.82-4.54h-.07c-1.87,0-3.81,3.48-4.69,5,.1-3,.16-5.55.16-5.55l-3.13,1.07.07,9.89a1.43,1.43,0,0,0-.74-.26c-.78,0-1.15,1-2.12,1.13a19.59,19.59,0,0,1-.09-4.55c.2-2.1,0-6.69,0-6.69a2,2,0,0,0-.35,0,12.2,12.2,0,0,0-3.16.69c.88,2.28,1.13,9.15,1.13,9.15L183,94.79c-.28-2.85-.6-11.38-.6-11.38l-3.54.39A81.14,81.14,0,0,1,180.73,94c.33,2.43.82,3.54,2.18,3.54a5.63,5.63,0,0,0,2.35-1.44,1.44,1.44,0,0,1,.81-.44c.21,0,.32.17.3.48l-.08,1.56s3.53-2,4.11-2.51a.73.73,0,0,1,.4-.21c.24,0,.3.39.3,1.08,0,1-.25,3-.25,3l2.51-1.4c.18-.87.34-3.87.46-7,.34-.41,2.42-2.88,3.34-2.88a.4.4,0,0,1,.24.07c.8.62-1.13,9.63-1.13,9.63l1.53.65c2.26-1.76,4.22-2.47,5.07-2.47.26,0,.41.07.45.18.12.44-.47,1.77.17,1.77a1.08,1.08,0,0,0,.44-.13,6.31,6.31,0,0,1,2.15-.66l1.52-3c-2.94.21-8.64,2.39-8.64,2.39S200.05,90.59,200.48,87.94Z"/><path d="M137.53,96.31a.92.92,0,0,1-.39-.09c-1-.45-.93-.89-1.32-3.12s0-10.26-3.86-10.26c-3.57,0-4.44,6.6-4.44,6.6l3.56.62a4.08,4.08,0,0,1-.65-2.76c.18-.87.9-1.71,1.54-1.71.38,0,.73.31.91,1.09a10.41,10.41,0,0,1,.21,3.69s-6,.82-5.85,4a4.45,4.45,0,0,0,4.41,4.36h.24a7,7,0,0,0,3.29-1.11,4.25,4.25,0,0,0,2.71,1.44c1.46,0,1.53-.6,1.53-.6l-.36-3.31S138.36,96.31,137.53,96.31ZM133.15,96a8.81,8.81,0,0,1-3.63-.63c-.06,0,0-.44,0-.72a.51.51,0,0,1,.23-.4l1.58-1.08a.51.51,0,0,1,.17-.07l2.19-.53.76,3.38S133.9,96,133.15,96Z"/><path d="M123.75,91.34l-3.52-7.9s-3,2.33-2.2,3.23c2,2.34,2.85,3,4.18,5.08a7.75,7.75,0,0,1,1.4,3.48c.27,2-2.84,4.24-2.84,4.24l2.55,2c2.37-3.49,2.3-8.7,2.59-11.15S127.17,84,127.17,84l-3-1Z"/></g></svg>