<svg xmlns="http://www.w3.org/2000/svg" viewBox="0 0 115.34 71.96"><defs><style>.cls-1{fill:#231f20;}</style></defs><g id="Layer_1" data-name="Layer 1"><path class="cls-1" d="M103.93,72H11.4A11.41,11.41,0,0,1,0,60.56V11.4A11.42,11.42,0,0,1,11.4,0h92.53a11.42,11.42,0,0,1,11.41,11.4V60.56A11.42,11.42,0,0,1,103.93,72ZM11.4,1A10.46,10.46,0,0,0,1,11.4V60.56A10.47,10.47,0,0,0,11.4,71h92.53a10.47,10.47,0,0,0,10.46-10.46V11.4A10.47,10.47,0,0,0,103.93,1Z"/><path class="cls-1" d="M11.38,19.66H9v0a3.4,3.4,0,0,0,1.37-2L13.6,8.87h.05L17.09,18c.38,1,.55,1.35,1.16,1.67v0h-3v0c.46-.18.67-.44.67-.81a3,3,0,0,0-.21-.91L15,16.07H11.38l-.54,1.48a2.37,2.37,0,0,0-.2.94,1.18,1.18,0,0,0,.74,1.14Zm.14-4h3.33l-1.69-4.45Z"/><path class="cls-1" d="M22.64,9c2.08,0,3.83.73,3.83,2.8,0,1.9-1.73,2.64-3.36,2.7a2.62,2.62,0,0,1,2.59,2L26,17.76a2.29,2.29,0,0,0,1.66,1.87v0H25.45A4.18,4.18,0,0,1,24.69,18l-.36-1.35c-.29-1.13-.74-2-2.08-2H21.14v3.13c0,1,.14,1.53.86,1.84v0H19v0c.73-.31.87-.84.87-1.84v-6.9c0-1-.14-1.53-.87-1.84V9Zm-1.5,5.26h1.27c1.52,0,2.6-.59,2.6-2.43,0-1.67-.94-2.45-2.6-2.45H21.14Z"/><path class="cls-1" d="M34.12,9a1.74,1.74,0,0,0,.72-.1l.44,2.6h0A3.27,3.27,0,0,0,32,9.39H30.45v4.68h1.18c1.23,0,1.61-.28,2.13-1.69h0v3.5h0c-.52-1.4-.9-1.46-2.13-1.46H30.45v4.87h1.73c1.7,0,2.64-.74,3.42-2.4h0l-.41,2.77h-7v0c.73-.31.87-.84.87-1.84v-6.9c0-1-.14-1.53-.87-1.84V9Z"/><path class="cls-1" d="M45.5,10.76a1.94,1.94,0,0,0,.21-.78,1,1,0,0,0-.62-.93V9h2.22v0A3.47,3.47,0,0,0,46,10.56l-2.48,4.68v2.67c0,1,.22,1.41,1,1.72v0H41.34v0c.72-.31.94-.72.94-1.72V15.24l-2.54-4.76a3.3,3.3,0,0,0-1.18-1.43V9h3v0a.82.82,0,0,0-.53.76,1.56,1.56,0,0,0,.21.76l2.19,4.15Z"/><path class="cls-1" d="M51.23,19.81c-2.36,0-4.33-2.28-4.33-5.47s2-5.47,4.33-5.47,4.33,2.28,4.33,5.47S53.57,19.81,51.23,19.81Zm0-10.59c-1.9,0-2.78,2.22-2.78,5.12s.88,5.12,2.78,5.12S54,17.24,54,14.34,53.13,9.22,51.23,9.22Z"/><path class="cls-1" d="M64,16.1c0,2.22-1.3,3.71-3.37,3.71-2.37,0-3.6-1.35-3.6-3.74V10.89c0-1-.14-1.53-.88-1.84V9h3.07v0c-.75.31-.88.84-.88,1.84V16c0,1.92.68,3.22,2.5,3.22,1.66,0,2.75-1.18,2.75-3.13V11.09a1.91,1.91,0,0,0-1.15-2V9h2.72v0A2,2,0,0,0,64,11.12Z"/><path class="cls-1" d="M70.35,17.88c0,1,.14,1.38,1.17,1.75v0H68.16v0c.73-.31.87-.84.87-1.84v-6.9c0-1-.14-1.53-.87-1.84V9H74a1.62,1.62,0,0,0,.71-.1l.44,2.7h0c-.76-1.52-1.58-2.23-3.26-2.23H70.35v4.78H71.5c1.23,0,1.61-.27,2.13-1.68h0V16h0c-.52-1.39-.9-1.46-2.13-1.46H70.35Z"/><path class="cls-1" d="M79.47,9c2.08,0,3.82.73,3.82,2.8,0,1.9-1.73,2.64-3.35,2.7a2.6,2.6,0,0,1,2.58,2l.33,1.28a2.29,2.29,0,0,0,1.66,1.87v0H82.28A4,4,0,0,1,81.52,18l-.37-1.35c-.29-1.13-.74-2-2.08-2H78v3.13c0,1,.14,1.53.87,1.84v0H75.77v0c.73-.31.87-.84.87-1.84v-6.9c0-1-.14-1.53-.87-1.84V9ZM78,14.28h1.28c1.52,0,2.6-.59,2.6-2.43,0-1.67-1-2.45-2.6-2.45H78Z"/><path class="cls-1" d="M88.75,19.81c-2.35,0-4.33-2.28-4.33-5.47s2-5.47,4.33-5.47,4.33,2.28,4.33,5.47S91.09,19.81,88.75,19.81Zm0-10.59c-1.9,0-2.78,2.22-2.78,5.12s.88,5.12,2.78,5.12,2.78-2.22,2.78-5.12S90.65,9.22,88.75,9.22Z"/><path class="cls-1" d="M96.28,19.63v0H93.56v0a2,2,0,0,0,1.14-2.07V10.89c0-1-.13-1.53-.86-1.84V9h2.4l3,8.27L102,9h2.27v0c-.73.31-.88.84-.88,1.84v6.85c0,1,.3,1.58,1,1.89v0h-3.33v0c.75-.31,1-.88,1-1.89V9.89L98.8,19.83h-.06L95.13,9.89v7.69A1.94,1.94,0,0,0,96.28,19.63Z"/><path class="cls-1" d="M37.64,53.94h.51v3.15h-.51Z"/><path class="cls-1" d="M42,57.09h-.47L40,54.77l-.19-.38.06.63v2.07h-.47V53.94H40l1.44,2.22.19.45-.08-.68v-2H42Z"/><path class="cls-1" d="M44.41,57.16a1.56,1.56,0,0,1-1-.27,1.19,1.19,0,0,1-.45-.78h.55a.63.63,0,0,0,.29.46,1,1,0,0,0,.58.16.66.66,0,0,0,.47-.14.45.45,0,0,0,.14-.36A.29.29,0,0,0,45,56a.44.44,0,0,0-.18-.14,1,1,0,0,0-.26-.1l-.32-.09-.38-.11a1.71,1.71,0,0,1-.33-.17.82.82,0,0,1-.24-.25.67.67,0,0,1-.1-.38.86.86,0,0,1,.08-.36.9.9,0,0,1,.21-.3,1.11,1.11,0,0,1,.34-.19,1.4,1.4,0,0,1,.47-.08,1.36,1.36,0,0,1,.85.24,1.08,1.08,0,0,1,.4.71H45a.55.55,0,0,0-.24-.4.82.82,0,0,0-.5-.13.7.7,0,0,0-.46.13.45.45,0,0,0-.15.34.25.25,0,0,0,.07.19.62.62,0,0,0,.18.14l.26.1.31.09a2.91,2.91,0,0,1,.39.12,1.2,1.2,0,0,1,.34.17.69.69,0,0,1,.25.26.65.65,0,0,1,.1.38.89.89,0,0,1-.29.68A1.13,1.13,0,0,1,44.41,57.16Z"/><path class="cls-1" d="M46.61,57.09V53.94h2.22v.46H47.26l-.23,0,.06.23v.55l0,.12.07,0h1.14v.46h-1l-.22-.06,0,.1v.73L47,56.7l.24-.07H48.9v.46Z"/><path class="cls-1" d="M49.9,53.94h1.28a1.48,1.48,0,0,1,.89.23.77.77,0,0,1,.3.66,1.58,1.58,0,0,1,0,.28.84.84,0,0,1-.13.29.73.73,0,0,1-.28.24,1,1,0,0,1-.45.12v.05l.23,0a.65.65,0,0,1,.21.06.75.75,0,0,1,.38.4,2.22,2.22,0,0,1,.12.71v.08h-.55v-.15a1.75,1.75,0,0,0-.16-.76,1.09,1.09,0,0,0-.31-.37l-.21,0h-.57l-.23,0v1.29H49.9ZM51,55.47a2.42,2.42,0,0,0,.42,0,.57.57,0,0,0,.26-.1.3.3,0,0,0,.13-.18.7.7,0,0,0,0-.27.48.48,0,0,0-.16-.38.83.83,0,0,0-.53-.13h-.61l-.21-.05.06.19v.95Z"/><path class="cls-1" d="M54.74,57.09h-.51V54.53l0-.23h0l-.23.1h-.79v-.46h2.49v.46h-.79l-.23-.1h0l0,.22Z"/><path class="cls-1" d="M60.61,57.09h-.53l-.28-.81H58.43l-.29.81h-.52l1.19-3.15h.64Zm-1-1.32-.39-1.14-.1-.52-.11.52-.4,1.15-.11.14.2-.08h.82l.21.09Z"/><path class="cls-1" d="M61.55,53.94h1.23a1.36,1.36,0,0,1,.86.23.77.77,0,0,1,.27.63.68.68,0,0,1-.19.5.86.86,0,0,1-.53.26,1.41,1.41,0,0,1,.62.17.56.56,0,0,1,.24.52.72.72,0,0,1-.3.64,1.6,1.6,0,0,1-.87.2H61.55Zm.49.55v.8h.76a.61.61,0,0,0,.44-.14.45.45,0,0,0,.15-.35.42.42,0,0,0-.13-.33.6.6,0,0,0-.4-.11H62.2l-.21,0Zm.17,2.17h.65a.86.86,0,0,0,.5-.12.46.46,0,0,0,.16-.38.56.56,0,0,0-.14-.41.58.58,0,0,0-.41-.13h-.79l-.14,0v1l0,.15Z"/><path class="cls-1" d="M66.32,57.16a1.55,1.55,0,0,1-.95-.27,1.2,1.2,0,0,1-.46-.78h.56a.65.65,0,0,0,.28.46,1,1,0,0,0,.59.16.66.66,0,0,0,.47-.14.49.49,0,0,0,.14-.36.29.29,0,0,0-.07-.2.62.62,0,0,0-.18-.14,1.08,1.08,0,0,0-.27-.1l-.31-.09-.38-.11a1.46,1.46,0,0,1-.33-.17.85.85,0,0,1-.25-.25.76.76,0,0,1-.09-.38,1,1,0,0,1,.07-.36.81.81,0,0,1,.22-.3,1.11,1.11,0,0,1,.34-.19A1.55,1.55,0,0,1,67,54.1a1.12,1.12,0,0,1,.4.71H66.9a.62.62,0,0,0-.24-.4.84.84,0,0,0-.51-.13.72.72,0,0,0-.46.13.48.48,0,0,0-.14.34.25.25,0,0,0,.07.19.44.44,0,0,0,.18.14,1.28,1.28,0,0,0,.26.1l.31.09a2.4,2.4,0,0,1,.38.12,1.27,1.27,0,0,1,.35.17.78.78,0,0,1,.25.26.65.65,0,0,1,.1.38.89.89,0,0,1-.29.68A1.14,1.14,0,0,1,66.32,57.16Z"/><path class="cls-1" d="M69.76,57.17a1.3,1.3,0,0,1-1-.34,1.35,1.35,0,0,1-.32-1V53.94H69v1.91a1,1,0,0,0,.19.65.7.7,0,0,0,.57.22.71.71,0,0,0,.57-.21,1,1,0,0,0,.18-.66V53.94H71v1.91a1.31,1.31,0,0,1-.34,1A1.28,1.28,0,0,1,69.76,57.17Z"/><path class="cls-1" d="M72.25,53.94h1.28a1.51,1.51,0,0,1,.9.23.77.77,0,0,1,.3.66,1,1,0,0,1,0,.28.84.84,0,0,1-.13.29.78.78,0,0,1-.27.24,1,1,0,0,1-.46.12v.05l.23,0a.71.71,0,0,1,.22.06.73.73,0,0,1,.37.4,1.78,1.78,0,0,1,.12.71v.08h-.55v-.15a1.62,1.62,0,0,0-.16-.76,1,1,0,0,0-.31-.37l-.2,0H73l-.24,0v1.29h-.49Zm1.1,1.53a2.37,2.37,0,0,0,.41,0,.57.57,0,0,0,.26-.1.3.3,0,0,0,.13-.18.7.7,0,0,0,0-.27.48.48,0,0,0-.16-.38.81.81,0,0,0-.53-.13h-.6l-.21-.05,0,.19v.95Z"/><path class="cls-1" d="M75.88,57.09V53.94H77a1.56,1.56,0,0,1,1.17.41,1.58,1.58,0,0,1,.4,1.17,1.55,1.55,0,0,1-.42,1.17,1.66,1.66,0,0,1-1.2.4Zm.68-.44H77a1.05,1.05,0,0,0,.8-.28,1.18,1.18,0,0,0,.27-.84v0a1.22,1.22,0,0,0-.26-.85,1,1,0,0,0-.78-.28h-.43l-.21-.06.05.21v2l-.05.16Z"/><path class="cls-1" d="M35,62.79V59.63H37.2v.46H35.63L35.39,60l.07.23v.56l0,.12.07,0h1.13v.46h-1l-.21-.06,0,.09v.74l-.07.23.24-.07h1.63v.47Z"/><path class="cls-1" d="M39.57,62.79h-.51V60.23l0-.24h0l-.23.1h-.79v-.46h2.49v.46h-.79l-.23-.1h0l0,.23Z"/><path class="cls-1" d="M43.57,61.44l0-.17-.2.13H42.21L42,61.21l.06.19v1.39h-.51V59.63H42V61h1.36l.2.11,0-.11V59.63h.51v3.16h-.51Z"/><path class="cls-1" d="M47.92,62.79h-.47l-1.51-2.32-.19-.39.06.63v2.08h-.47V59.63h.56l1.44,2.22.19.46-.08-.69v-2h.47Z"/><path class="cls-1" d="M49.18,59.63h.51v3.16h-.51Z"/><path class="cls-1" d="M52.21,62.86a1.4,1.4,0,0,1-.58-.12,1.45,1.45,0,0,1-.45-.33,1.55,1.55,0,0,1-.29-.52,2.11,2.11,0,0,1-.11-.68,2,2,0,0,1,.11-.67,1.4,1.4,0,0,1,.3-.52,1.28,1.28,0,0,1,.46-.34,1.46,1.46,0,0,1,.6-.12,1.44,1.44,0,0,1,.9.28,1.34,1.34,0,0,1,.48.87h-.55a.83.83,0,0,0-.28-.54.85.85,0,0,0-.56-.17.81.81,0,0,0-.68.32,1.41,1.41,0,0,0-.25.87v0a1.33,1.33,0,0,0,.25.86.79.79,0,0,0,.66.32.94.94,0,0,0,.57-.16.83.83,0,0,0,.3-.55l.51.12a1.26,1.26,0,0,1-.49.78A1.47,1.47,0,0,1,52.21,62.86Z"/><path class="cls-1" d="M54.66,59.63h.51v3.16h-.51Z"/><path class="cls-1" d="M57.63,62.79h-.5V60.23l0-.24h0l-.23.1h-.79v-.46h2.5v.46h-.8L57.6,60h0l0,.23Z"/><path class="cls-1" d="M60.55,62.79V61.55l-1.14-1.92H60l.75,1.31.07.25.07-.26.74-1.3h.58l-1.14,1.92v1.24Z"/><path class="cls-1" d="M65.4,59.63h.49l-1.32,3.16h-.48Z"/><path class="cls-1" d="M68.1,59.63h1.28a1.51,1.51,0,0,1,.9.23.8.8,0,0,1,.3.66,1,1,0,0,1,0,.28.88.88,0,0,1-.13.3,1.05,1.05,0,0,1-.27.24,1.15,1.15,0,0,1-.46.11v0l.23,0a.71.71,0,0,1,.22.07.74.74,0,0,1,.37.39,1.78,1.78,0,0,1,.12.71v.09h-.55v-.16a1.55,1.55,0,0,0-.16-.75.92.92,0,0,0-.31-.37l-.2,0h-.57l-.24,0v1.3H68.1Zm1.1,1.54a2.37,2.37,0,0,0,.41,0,.71.71,0,0,0,.26-.1.38.38,0,0,0,.13-.18.77.77,0,0,0,0-.27.46.46,0,0,0-.16-.38.8.8,0,0,0-.53-.14h-.6l-.21,0,0,.18v1Z"/><path class="cls-1" d="M74.45,62.79h-.53L73.64,62H72.27l-.29.81h-.52l1.19-3.16h.64Zm-1-1.33-.39-1.13L73,59.81l-.1.51-.4,1.15-.11.14.2-.08h.82l.21.1Z"/><path class="cls-1" d="M76.53,62.86a1.4,1.4,0,0,1-.58-.12,1.35,1.35,0,0,1-.45-.33,1.58,1.58,0,0,1-.3-.52,2.11,2.11,0,0,1-.1-.68,2,2,0,0,1,.11-.67,1.4,1.4,0,0,1,.3-.52,1.2,1.2,0,0,1,.46-.34,1.46,1.46,0,0,1,.6-.12,1.44,1.44,0,0,1,.9.28,1.34,1.34,0,0,1,.48.87H77.4a.83.83,0,0,0-.29-.54.82.82,0,0,0-.55-.17.81.81,0,0,0-.68.32,1.41,1.41,0,0,0-.25.87v0a1.33,1.33,0,0,0,.25.86.79.79,0,0,0,.66.32.94.94,0,0,0,.57-.16.87.87,0,0,0,.3-.55l.51.12a1.26,1.26,0,0,1-.49.78A1.49,1.49,0,0,1,76.53,62.86Z"/><path class="cls-1" d="M79,62.79V59.63H81.2v.46H79.63L79.39,60l.07.23v.56l0,.12.07,0h1.13v.46h-1l-.21-.06,0,.09v.74l-.07.23.24-.07h1.63v.47Z"/><path class="cls-1" d="M102.4,36.78c0,.69.41,1.17.93,1.17a1,1,0,0,0,.59-.19h0a1.26,1.26,0,0,1-1.25,1,1.47,1.47,0,0,1-1.44-1.61c0-1.33,1.15-2.41,2.93-2.41a2.91,2.91,0,0,1,3.13,2.87,4,4,0,0,1-3.18,3.72v1.16h-.3V39.89a2.64,2.64,0,0,0,2.28-2.72A2,2,0,0,0,104.17,35,1.66,1.66,0,0,0,102.4,36.78ZM105,44.63a1,1,0,1,1-1-1A1,1,0,0,1,105,44.63Z"/><rect class="cls-1" x="7.6" y="47.23" width="91.92" height="0.95"/></g></svg>