<svg xmlns="http://www.w3.org/2000/svg" viewBox="0 0 177.61 103.04"><defs><style>.cls-1{fill:#fff;}.cls-2{fill:#231f20;}</style></defs><g id="Layer_1" data-name="Layer 1"><path class="cls-1" d="M144.59,12.78h0a8.69,8.69,0,0,0,8.7,8.7h10.44a8.71,8.71,0,0,1,8.71,8.71V41.61a8.7,8.7,0,0,1-8.71,8.7H107a8.69,8.69,0,0,1-8.7-8.7V30.19a8.7,8.7,0,0,1,8.7-8.71H117.4a8.7,8.7,0,0,0,8.71-8.7h0"/><path class="cls-2" d="M163.73,50.55H107A9,9,0,0,1,98,41.61V30.19a9,9,0,0,1,8.94-9H117.4a8.46,8.46,0,0,0,8.46-8.46h.49a9,9,0,0,1-8.95,8.94H107a8.47,8.47,0,0,0-8.46,8.47V41.61A8.46,8.46,0,0,0,107,50.07h56.77a8.47,8.47,0,0,0,8.47-8.46V30.19a8.48,8.48,0,0,0-8.47-8.47H153.29a9,9,0,0,1-8.94-8.94h.48a8.46,8.46,0,0,0,8.46,8.46h10.44a9,9,0,0,1,9,9V41.61A9,9,0,0,1,163.73,50.55Z"/><circle class="cls-1" cx="135.35" cy="12.78" r="9.24"/><path class="cls-2" d="M135.35,22.26a9.48,9.48,0,1,1,9.48-9.48A9.5,9.5,0,0,1,135.35,22.26Zm0-18.48a9,9,0,1,0,9,9A9,9,0,0,0,135.35,3.78Z"/><path class="cls-2" d="M134.69,9.57v.49h5.76v.5h-5.76v.49h5.76v.5h-5.76V12h5.76v.49h-5.76V13h5.76v.49H130.24V9.08h10.21v.49ZM130.24,14h10.2v.5h-10.2Zm0,1h10.21v.49H130.24Zm0,1h10.21v.49H130.24Zm.63-6.57h-.17l0-.16,0,.16h-.17l.14.09-.06.16.13-.09.13.09-.05-.16Zm0,.91h-.17l0-.15,0,.15h-.17l.14.09-.06.16.13-.1.13.1-.05-.16Zm0,.91h-.17l0-.15,0,.15h-.17l.14.1-.06.15.13-.1.13.1-.05-.15Zm0,.91h-.17l0-.15,0,.15h-.17l.14.1-.06.14.13-.09.13.09-.05-.14Zm-.14,1,.14-.1h-.17l0-.15,0,.15h-.17l.14.1-.06.15.13-.09.13.09Zm.17-3.28L131,10l0,.15.13-.09.12.09,0-.15.13-.09h-.16l0-.16-.05.16Zm.29,2.82.13-.1h-.16l0-.14-.05.14h-.16l.12.1,0,.15.13-.09.12.09Zm1.69-1h1v-.84h-1v-1h-.83v1h-1v.84h1v1h.83Zm-1.53-2.29.13.09,0,.16.13-.1.13.1-.05-.16.13-.09h-.16l-.05-.16,0,.16Zm0,.91.13.09,0,.16.13-.1.13.1-.05-.16.13-.09h-.16l-.05-.15,0,.15Zm.42,1.82h-.16l-.05-.15,0,.15h-.17l.13.1,0,.14.13-.09.13.09-.05-.14Zm-.13,1,.13-.1h-.16l-.05-.15,0,.15h-.17l.13.1,0,.15.13-.09.13.09Zm.62-3.74.13.09,0,.16.13-.1.13.1,0-.16.12-.09h-.15l-.05-.16-.05.16Zm.29,3.74.12-.1h-.15l-.05-.15-.05.15h-.16l.13.1,0,.15.13-.09.13.09Zm.61-3.74.14.09-.05.16.12-.1.14.1,0-.16.12-.09h-.16l0-.16-.05.16Zm0,.91.14.09-.05.16.12-.1.14.1,0-.16.12-.09h-.16l0-.15-.05.15Zm.42,1.82h-.16l0-.15-.05.15h-.16l.14.1-.05.14.12-.09.14.09,0-.14Zm-.12,1,.12-.1h-.16l0-.15-.05.15h-.16l.14.1-.05.15.12-.09.14.09ZM134,9.89h-.17l0-.16-.05.16h-.16l.13.09-.05.15.13-.09.13.09-.05-.15Zm-.13,2.82.13-.1h-.17l0-.14-.05.14h-.16l.13.1-.05.15.13-.09.13.09Zm.58-3.28h-.16l-.05-.16-.05.16h-.16l.13.09,0,.16.12-.1.14.1-.06-.16Zm0,.91h-.16l-.05-.15-.05.15h-.16l.13.09,0,.16.12-.1.14.1-.06-.16Zm0,.91h-.16l-.05-.15-.05.15h-.16l.13.1,0,.15.12-.1.14.1-.06-.15Zm0,.91h-.16l-.05-.15-.05.15h-.16l.13.1,0,.14.12-.09.14.09-.06-.14Zm-.13,1,.13-.1h-.16l-.05-.15-.05.15h-.16l.13.1,0,.15.12-.09.14.09Z"/><path class="cls-2" d="M105.57,26.06h5.91l0,1.77h-.25a2.19,2.19,0,0,0-.46-1.09,1.92,1.92,0,0,0-1.19-.25H109v5.34c0,.41.07.66.19.75a1.71,1.71,0,0,0,.83.19V33h-3v-.2a1.35,1.35,0,0,0,.83-.22,1.35,1.35,0,0,0,.16-.84V26.49h-.58a2,2,0,0,0-1.18.25,1.82,1.82,0,0,0-.47,1.09h-.26Z"/><path class="cls-2" d="M112,32.82a.83.83,0,0,0,.54-.2,1.21,1.21,0,0,0,.13-.71V27a.91.91,0,0,0-.07-.42c0-.09-.17-.14-.36-.14h-.11l-.12,0V26.3l.55-.16L113,26l.49-.15V29a3.42,3.42,0,0,1,.57-.54,1.71,1.71,0,0,1,1-.3,1.12,1.12,0,0,1,1.13.69,2.42,2.42,0,0,1,.16,1v2.08a1.21,1.21,0,0,0,.13.7.72.72,0,0,0,.51.21V33h-2.21v-.15a.91.91,0,0,0,.57-.21,1.15,1.15,0,0,0,.13-.7V29.84a1.67,1.67,0,0,0-.17-.8.65.65,0,0,0-.62-.31,1.25,1.25,0,0,0-.77.29c-.25.19-.37.31-.37.37v2.52a1.19,1.19,0,0,0,.13.71,1,1,0,0,0,.56.2V33H112Z"/><path class="cls-2" d="M120.66,28.68a1.82,1.82,0,0,1,.54,1.41H118a2.64,2.64,0,0,0,.54,1.72,1.48,1.48,0,0,0,1.14.54,1.45,1.45,0,0,0,.91-.28,2.82,2.82,0,0,0,.67-.79l.18.06a3,3,0,0,1-.78,1.2,2,2,0,0,1-1.41.55,1.72,1.72,0,0,1-1.48-.73,2.73,2.73,0,0,1-.52-1.66,2.66,2.66,0,0,1,.61-1.77,1.93,1.93,0,0,1,1.58-.75A1.81,1.81,0,0,1,120.66,28.68Zm-2.44.39a2.07,2.07,0,0,0-.24.69h2.15a2,2,0,0,0-.19-.76.9.9,0,0,0-.84-.44A1,1,0,0,0,118.22,29.07Z"/><path class="cls-2" d="M129.24,30.83h-3L125.08,33H124l4.11-7.41h1L130.6,33h-1ZM129.1,30l-.53-2.89a4.06,4.06,0,0,1-.07-.56h0a5.83,5.83,0,0,1-.28.56L126.66,30Z"/><path class="cls-2" d="M132.15,27.75H133l-.16.91a1.56,1.56,0,0,1,1.52-1.06,1.22,1.22,0,0,1,1.34,1.07,1.79,1.79,0,0,1,1.64-1.07,1.41,1.41,0,0,1,1.53,1.54,2.68,2.68,0,0,1-.07.59L138.2,33h-.89l.58-3.17a2.71,2.71,0,0,0,0-.47c0-.79-.49-.95-.88-.95-1,0-1.25.94-1.39,1.71L135.15,33h-.89l.57-3.17a2.71,2.71,0,0,0,0-.47c0-.79-.49-.95-.88-.95-1,0-1.26,1-1.39,1.71L132.1,33h-.88Z"/><path class="cls-2" d="M140.3,30.62v.08c0,1.19.61,1.61,1.42,1.61a1.39,1.39,0,0,0,1.41-1l.73.34a2.19,2.19,0,0,1-2.17,1.43,2.09,2.09,0,0,1-2.25-2.32c0-1.46.8-3.15,2.7-3.15a1.89,1.89,0,0,1,2.08,2,3.12,3.12,0,0,1-.17,1Zm.09-.72h2.91a1.53,1.53,0,0,0,0-.41,1.1,1.1,0,0,0-1.23-1.18A1.78,1.78,0,0,0,140.39,29.9Z"/><path class="cls-2" d="M147.79,27.62a1.83,1.83,0,0,1,.35,0l-.17.88a1,1,0,0,0-.28,0,1.32,1.32,0,0,0-.93.31,2.87,2.87,0,0,0-.85,1.77L145.47,33h-.88l.93-5.22h.82L146.11,29C146.43,28.16,146.91,27.62,147.79,27.62Z"/><path class="cls-2" d="M148.75,27.75h.88L148.72,33h-.89Zm.28-2.09h1l-.2,1.12h-1Z"/><path class="cls-2" d="M150,30.78c0-1.37.7-3.16,2.71-3.16a1.83,1.83,0,0,1,2.05,1.9l-.85.11a1.15,1.15,0,0,0-1.22-1.24c-1.35,0-1.74,1.4-1.74,2.39,0,1.19.69,1.54,1.32,1.54a1.37,1.37,0,0,0,1.35-1.24l.87.13a2.19,2.19,0,0,1-2.26,1.88A2.07,2.07,0,0,1,150,30.78Z"/><path class="cls-2" d="M155,31.59a1.42,1.42,0,0,1,.49-1.11,3,3,0,0,1,1.72-.57l1.58-.13,0-.21c.12-.82-.16-1.22-1-1.22a1.21,1.21,0,0,0-1.38,1h-.91a2,2,0,0,1,2.24-1.77c1.52,0,2.15.7,1.87,2.29l-.23,1.32A8,8,0,0,0,159.3,33h-.92a7,7,0,0,1,.06-.95,1.84,1.84,0,0,1-1.75,1.07A1.51,1.51,0,0,1,155,31.59Zm3.63-.9,0-.28-1.29.1c-1,.09-1.43.44-1.43,1s.41.82.93.82A1.84,1.84,0,0,0,158.62,30.69Z"/><path class="cls-2" d="M161.21,27.75H162l-.19,1a1.77,1.77,0,0,1,1.73-1.16,1.48,1.48,0,0,1,1.6,1.65,4.27,4.27,0,0,1-.06.68l-.52,3h-.89l.53-3a3,3,0,0,0,0-.5.93.93,0,0,0-1-1c-1.15,0-1.47,1.05-1.61,1.83L161.16,33h-.88Z"/><path class="cls-2" d="M103.24,43.27a1.31,1.31,0,0,0,.68-.19c.1-.09.15-.33.15-.73V39.92a1.52,1.52,0,0,0,0-.46.31.31,0,0,0-.32-.21h-.11l-.31.08v-.16l.22-.07c.6-.19,1-.34,1.24-.44l.19-.06s0,0,0,.08v3.66c0,.39,0,.63.14.73a1,1,0,0,0,.63.19v.14h-2.47Zm.81-6.82a.47.47,0,0,1,.37-.16.51.51,0,0,1,.38.16.51.51,0,0,1,.15.37.51.51,0,0,1-.53.53.5.5,0,0,1-.37-.15.51.51,0,0,1-.16-.38A.49.49,0,0,1,104.05,36.45Z"/><path class="cls-2" d="M106.21,43.27a.61.61,0,0,0,.65-.79V39.89a1.17,1.17,0,0,0-.06-.45.41.41,0,0,0-.4-.2h-.21v-.17l1-.32.47-.16a0,0,0,0,1,0,0,.56.56,0,0,1,0,.07v.75a4.5,4.5,0,0,1,.73-.6,1.48,1.48,0,0,1,.82-.25,1,1,0,0,1,.63.2,1.55,1.55,0,0,1,.55,1.38v2.38a.78.78,0,0,0,.15.53.67.67,0,0,0,.49.17v.14H108.9v-.14a.9.9,0,0,0,.52-.21,1,1,0,0,0,.15-.68V40.21a1.46,1.46,0,0,0-.16-.73.64.64,0,0,0-.6-.29,1.09,1.09,0,0,0-.61.21,2.93,2.93,0,0,0-.44.38v2.86a.59.59,0,0,0,.16.49.86.86,0,0,0,.51.14v.14h-2.22Z"/><path class="cls-2" d="M116.51,38.71v.37h-1V42a2.17,2.17,0,0,0,.06.59A.47.47,0,0,0,116,43a.57.57,0,0,0,.32-.09,1.68,1.68,0,0,0,.31-.27l.13.11-.11.15a1.65,1.65,0,0,1-.56.51,1.28,1.28,0,0,1-.57.15.81.81,0,0,1-.82-.54,2.14,2.14,0,0,1-.12-.8V39.08H114l0,0s0,0,0,0a.19.19,0,0,1,0-.08l.15-.13a4,4,0,0,0,.5-.47c.11-.12.35-.44.74-1,0,0,.07,0,.07,0s0,0,0,.07v1.26Z"/><path class="cls-2" d="M116.94,43.27a.92.92,0,0,0,.55-.21,1.3,1.3,0,0,0,.13-.71v-4.9a.89.89,0,0,0-.08-.42c-.05-.09-.17-.13-.36-.13H117v-.18l.56-.16.45-.14.49-.15v3.17a3.36,3.36,0,0,1,.57-.54,1.67,1.67,0,0,1,1-.31,1.12,1.12,0,0,1,1.13.69,2.42,2.42,0,0,1,.16,1v2.08a1.21,1.21,0,0,0,.13.7.76.76,0,0,0,.51.22v.14h-2.21v-.14a.91.91,0,0,0,.57-.21,1.21,1.21,0,0,0,.13-.71V40.28a1.58,1.58,0,0,0-.17-.8.64.64,0,0,0-.62-.3,1.26,1.26,0,0,0-.77.28c-.25.19-.37.32-.37.38v2.51a1.17,1.17,0,0,0,.13.71,1,1,0,0,0,.57.21v.14h-2.25Z"/><path class="cls-2" d="M125.62,39.12a1.85,1.85,0,0,1,.54,1.41h-3.24a2.76,2.76,0,0,0,.54,1.72,1.48,1.48,0,0,0,1.15.54,1.44,1.44,0,0,0,.9-.28,2.86,2.86,0,0,0,.68-.79l.18.06a2.89,2.89,0,0,1-.79,1.2,1.93,1.93,0,0,1-1.4.55,1.72,1.72,0,0,1-1.48-.72,2.88,2.88,0,0,1,.08-3.44,1.93,1.93,0,0,1,1.58-.74A1.8,1.8,0,0,1,125.62,39.12Zm-2.44.39a2.13,2.13,0,0,0-.24.7h2.16a2.15,2.15,0,0,0-.2-.76.86.86,0,0,0-.83-.45A1,1,0,0,0,123.18,39.51Z"/><path class="cls-2" d="M129.24,43.28a1.24,1.24,0,0,0,.64-.17c.11-.08.16-.27.16-.55V37.44c0-.24,0-.39-.13-.46a.56.56,0,0,0-.35-.09h-.17l-.15,0v-.14l.46-.13c.35-.09.64-.18.89-.26l.26-.07h0v4.35l1.42-1.25a.91.91,0,0,0,.2-.22.24.24,0,0,0,.06-.14.14.14,0,0,0-.12-.15,2.37,2.37,0,0,0-.41,0v-.15h2.13v.15a2.26,2.26,0,0,0-.92.22,10.44,10.44,0,0,0-1.33,1.1l-.3.27.93,1.23a8.27,8.27,0,0,0,1.1,1.24,1.41,1.41,0,0,0,.78.35v.13h-2.27v-.13h.18l.16,0a.1.1,0,0,0,.07-.1.36.36,0,0,0,0-.11l-.08-.12-1.58-2.08v1.91a.47.47,0,0,0,.26.47,1.54,1.54,0,0,0,.53.08v.13h-2.44Z"/><path class="cls-2" d="M135.53,41.16a12,12,0,0,1,1.87-.83V39.9a1.79,1.79,0,0,0-.1-.73.71.71,0,0,0-.72-.34,1,1,0,0,0-.49.13.42.42,0,0,0-.24.38,1.26,1.26,0,0,0,0,.21,1.23,1.23,0,0,1,0,.18.44.44,0,0,1-.19.4.44.44,0,0,1-.26.07.43.43,0,0,1-.35-.15.52.52,0,0,1-.12-.34,1,1,0,0,1,.44-.74,1.88,1.88,0,0,1,1.29-.39,1.38,1.38,0,0,1,1.34.64,2.13,2.13,0,0,1,.19,1v2a1.31,1.31,0,0,0,0,.41.27.27,0,0,0,.28.19.5.5,0,0,0,.19,0,1.92,1.92,0,0,0,.27-.17V43a1.86,1.86,0,0,1-.36.33,1,1,0,0,1-.58.19.56.56,0,0,1-.5-.22,1,1,0,0,1-.17-.54,4.76,4.76,0,0,1-.66.5,1.8,1.8,0,0,1-.88.28,1.07,1.07,0,0,1-.76-.31,1,1,0,0,1-.33-.78A1.46,1.46,0,0,1,135.53,41.16Zm1.87-.58a4.87,4.87,0,0,0-1,.43,1.28,1.28,0,0,0-.74,1,.79.79,0,0,0,.31.69.77.77,0,0,0,.44.14,1.2,1.2,0,0,0,.65-.19.55.55,0,0,0,.3-.48Z"/><path class="cls-2" d="M139.35,43.28a1.18,1.18,0,0,0,.53-.14.69.69,0,0,0,.2-.59V39.92a.83.83,0,0,0-.1-.5.39.39,0,0,0-.33-.12l-.16,0a.3.3,0,0,0-.12,0v-.18l.36-.12c.14,0,.35-.12.66-.24a3.52,3.52,0,0,1,.48-.17l0,0v.79a4.09,4.09,0,0,1,.87-.64,1.87,1.87,0,0,1,.76-.17,1.09,1.09,0,0,1,.84.35,2,2,0,0,1,.27.53,4.77,4.77,0,0,1,.65-.57,1.82,1.82,0,0,1,1-.31,1.07,1.07,0,0,1,1.1.66,3.48,3.48,0,0,1,.16,1.2v2.11a.61.61,0,0,0,.16.5,1.21,1.21,0,0,0,.58.17v.13H145v-.14a1,1,0,0,0,.58-.18.82.82,0,0,0,.14-.56v-2.2a1.89,1.89,0,0,0-.11-.73.72.72,0,0,0-.74-.42,1.18,1.18,0,0,0-.65.22,3.55,3.55,0,0,0-.47.41v2.61a1.11,1.11,0,0,0,.15.63.73.73,0,0,0,.61.23v.13h-2.34v-.13a.93.93,0,0,0,.62-.24,1.65,1.65,0,0,0,.13-.85V40.76a3.79,3.79,0,0,0-.1-1.08.69.69,0,0,0-.71-.5,1.29,1.29,0,0,0-.62.17,2.26,2.26,0,0,0-.53.45v2.79a.77.77,0,0,0,.14.53.85.85,0,0,0,.59.16v.13h-2.32Z"/><path class="cls-2" d="M147.24,45.52q.48,0,.6-.21a.88.88,0,0,0,.13-.54v-4.9a.91.91,0,0,0-.09-.5.47.47,0,0,0-.36-.11h-.1l-.14,0v-.17l.48-.16,1-.35a.05.05,0,0,1,0,0,.13.13,0,0,1,0,.06v.69a3.34,3.34,0,0,1,.59-.5,1.79,1.79,0,0,1,.95-.29,1.55,1.55,0,0,1,1.21.6,2.49,2.49,0,0,1,.5,1.64,3,3,0,0,1-.61,1.85,1.83,1.83,0,0,1-1.53.83,1.75,1.75,0,0,1-.49-.07,1.54,1.54,0,0,1-.6-.4v1.68c0,.34,0,.55.16.63a1.76,1.76,0,0,0,.74.16v.17h-2.52Zm2-2.54a1.07,1.07,0,0,0,.62.17,1.13,1.13,0,0,0,.94-.54,2.62,2.62,0,0,0,.39-1.53,2.09,2.09,0,0,0-.4-1.4,1.23,1.23,0,0,0-1-.46,1.12,1.12,0,0,0-.68.23.61.61,0,0,0-.31.46v2.56A1,1,0,0,0,149.25,43Z"/><path class="cls-2" d="M153.9,38.69V42a1.46,1.46,0,0,0,.09.56.7.7,0,0,0,.7.38,1.22,1.22,0,0,0,.68-.22,2.48,2.48,0,0,0,.38-.36V39.52a.69.69,0,0,0-.15-.52,1.17,1.17,0,0,0-.62-.14v-.17h1.65v3.59a.63.63,0,0,0,.13.47c.08.09.25.13.52.12V43l-.41.12-.44.14-.59.22s0,0,0,0v-.87a3.5,3.5,0,0,1-.63.61,1.61,1.61,0,0,1-.92.31,1.32,1.32,0,0,1-.84-.32,1.28,1.28,0,0,1-.4-1V39.49a.65.65,0,0,0-.17-.54,1,1,0,0,0-.48-.12v-.14Z"/><path class="cls-2" d="M157.73,43.27a.94.94,0,0,0,.51-.18.86.86,0,0,0,.15-.61V39.89a1.13,1.13,0,0,0-.07-.45.39.39,0,0,0-.39-.2h-.22v-.17l1-.32.48-.16s0,0,0,0,0,0,0,.07v.75a5,5,0,0,1,.73-.6,1.52,1.52,0,0,1,.83-.25,1,1,0,0,1,.63.2,1.55,1.55,0,0,1,.55,1.38v2.38a.78.78,0,0,0,.15.53.65.65,0,0,0,.49.17v.14h-2.18v-.14a.94.94,0,0,0,.52-.21,1,1,0,0,0,.15-.68V40.21a1.58,1.58,0,0,0-.16-.73.64.64,0,0,0-.6-.29,1.09,1.09,0,0,0-.61.21,2.91,2.91,0,0,0-.45.38v2.86a.59.59,0,0,0,.17.49.84.84,0,0,0,.51.14v.14h-2.23Z"/><path class="cls-2" d="M163.52,41.15a1.59,1.59,0,0,1-.26-.88,1.69,1.69,0,0,1,.47-1.13,1.71,1.71,0,0,1,1.35-.54,2.26,2.26,0,0,1,.82.18,2.48,2.48,0,0,0,.86.17h.7v.41h-.89c.07.14.11.27.15.37a1.94,1.94,0,0,1,.08.56,1.49,1.49,0,0,1-.48,1.07,1.72,1.72,0,0,1-1.3.49l-.45-.05c-.1,0-.23.09-.4.25a.72.72,0,0,0-.24.41q0,.16.36.24a2.7,2.7,0,0,0,.52.05,6.9,6.9,0,0,1,1.78.15,1,1,0,0,1,.77,1,1.42,1.42,0,0,1-.9,1.28,3.84,3.84,0,0,1-1.82.48,2.3,2.3,0,0,1-1.32-.33.93.93,0,0,1-.49-.72.59.59,0,0,1,.13-.36,3.8,3.8,0,0,1,.51-.52l.33-.3.06-.06a1.6,1.6,0,0,1-.35-.18.46.46,0,0,1-.2-.36.69.69,0,0,1,.18-.42,6.63,6.63,0,0,1,.75-.73A1.38,1.38,0,0,1,163.52,41.15Zm.54,3.79a3.39,3.39,0,0,0,1.1.17,2.77,2.77,0,0,0,1.38-.3.84.84,0,0,0,.53-.72c0-.22-.14-.38-.43-.45a5.87,5.87,0,0,0-1-.08h-.39l-.39,0a2.23,2.23,0,0,1-.36,0l-.37-.06s-.14.11-.3.32a1.05,1.05,0,0,0-.24.6A.59.59,0,0,0,164.06,44.94Zm1.62-3.5a1,1,0,0,0,.3-.85,3,3,0,0,0-.24-1.09.85.85,0,0,0-.83-.61.7.7,0,0,0-.69.48,1.78,1.78,0,0,0-.09.61,2.11,2.11,0,0,0,.3,1.12.89.89,0,0,0,.78.49A.73.73,0,0,0,165.68,41.44Z"/><rect class="cls-1" x="27.55" y="4.58" width="13.42" height="21.34" transform="translate(0.72 -1.53) rotate(2.59)"/><path class="cls-2" d="M40.64,26.38h-.16l-13.57-.61V25.6l1-21.48h.16l13.57.62V4.9Zm-13.4-.93L40.33,26l1-21L28.19,4.45Z"/><path class="cls-2" d="M39.58,13.49c-.75-.35-1.82-.31-1.7-1.46.25-.37.24-.28.08-.62l-.55.36-.88-.57a1.25,1.25,0,0,1-1-.1l-.31.22c-.06,1.24.39,2.44.37,3.68s.06,2.39,0,3.57a3.87,3.87,0,0,1-.46,1.63l.08.27c.33-.1.21-.11.59,0,1-.31,1,.28,1.25,1.09a1.94,1.94,0,0,1-.82,1.2c-.61-.17-.68.09-1.22.12-.48-.37-.65-.53-1.22-.35-.69-.38-.71,0-1.45.06-.43-.23-.31-.22-.74,0-.72-.24-1.25-.29-1.21-1.26a1.2,1.2,0,0,1,1.12-1.19l.6.44c.07-.35-.41-.85-.39-1.35a1.51,1.51,0,0,1,.24-.67,3.14,3.14,0,0,1-.19-.92c0-.26.26-.49.27-.76s-.21-.62-.2-1c0-.73.37-.22,0-1.15a11.55,11.55,0,0,0,.42-2.84,1.6,1.6,0,0,0-.16-1c-.6.3-.46.28-.78.18-1.27.17-.65.85-.7,1.77,0,.61-.94.69-1.38.67s-.8-.69-.78-1,.18-.88.2-1.35c.05-1,.87-3.38,2.05-3.39.43.32.34,1,.71,1.3a.73.73,0,0,1,1.15,0c.18-.11.39-.31.63-.3a3.2,3.2,0,0,0,1.62.69,2.67,2.67,0,0,1,1.48-.61,1.14,1.14,0,0,0,.86.54c.46-.51.93-1.05,1.42-1.53l.6.59c.2,1.49,1,2.79,1,4.3Zm-6.64,1.3.24-.11.23.19c.1-.29,0-.21-.22-.51C32.94,14.7,32.86,14.64,32.94,14.79Zm.35,3.44c-.37-.4-.28-.37-.5-.17l.43.25,0,.45c.42,0,.36-.11.39-.67Zm-.08-5.58a.18.18,0,0,0-.06.14s.29.78.32,0Zm0,3.48-.19.28.05.18.12,0,.16-.32Zm.33-5.24-.19.29.13.33c.4-.28.41,0,.44-.49Zm-.56,8.44a6.5,6.5,0,0,0,.14.81c.23-1.14.19-.94.08-1.09Zm.83-2.76-.17-.16-.09.21.26,0Zm.16-.85-.16.2H34Z"/><rect class="cls-1" x="46.49" y="28.22" width="16.04" height="24.64" transform="translate(-3.3 4.86) rotate(-4.95)"/><path class="cls-2" d="M47.44,53.67,45.28,28.81l16.3-1.41,2.16,24.86ZM45.63,29.1l2.1,24.23L63.39,52l-2.1-24.22Z"/><path class="cls-2" d="M61.68,47.92c-.5-.25-.38-.23-.61-.21-.68.09-1.37-.06-2,0a19.16,19.16,0,0,0-2.35.47L56.26,48l0-.29.26-.32c1.05.14.85.16,1.12-.07-1.79-1.92-3.45-4-5.13-6l-.21.37A17.7,17.7,0,0,1,53,47.25c.62,1,.25.48,1.35.53.08-.15,0-.11.69-.23l.21.36c-.41.66-.3.59-.61.47l-.11.13c-.86-.1-2.55-.4-3.27.13a3.27,3.27,0,0,0-2.23.61l-.48-.43c0-.54,1.08-.51,1.05-.89-.1-1.12-1-11.16-1.25-11.38,0-.38,0-.79-.05-1.18l-.13-1.26c-1-.33-.74-.32-1.11-.14l-.6-.39.45-.63a3.3,3.3,0,0,0,1.06.26,2.07,2.07,0,0,1,.58-.17A26.34,26.34,0,0,1,51.65,33l.36-.27c.28.12.84-.19,1.22-.23l.7.51c0,.32-.29.49-.61.52s-.78-.14-1.22-.1a.54.54,0,0,0-.42.33l.56,5.78c.14.26.14.23-.06.25,0,.68,0,.53-.14.84l.2.25c.9-.58,4.77-6.48,5.43-7.72a4.37,4.37,0,0,1-1.61-.1c-.16-.22-.16-.14-.08-.56l.48-.28a7.93,7.93,0,0,0,2.23,0c.16-.16.07-.16.5,0a5.09,5.09,0,0,1,1.07-.27l.38.33c-.55.75-.34.41-1.26.46A44.21,44.21,0,0,0,54.72,39c1.53,1.65,5.57,6,6.27,7.84l.65.36.53-.11c.47.31.46.2,0,.74ZM50.35,41.27c-.19.43-.17.43,0,.53l-.26.09.24.3.12-.31.18.08s-.21-.75-.26-.66Zm-.13-7.07c-.31.27-.34.24.1.23Z"/><rect class="cls-1" x="31.84" y="26.4" width="8.32" height="26.03" transform="translate(-1.42 1.34) rotate(-2.1)"/><path class="cls-2" d="M32.16,52.74v-.16l-1-26.17,8.64-.32v.16l1,26.17h-.16Zm-.63-26,.94,25.69,8-.29-.94-25.7Z"/><path class="cls-2" d="M38.85,44.73c.32.52.23,4.62-.54,4.62-1.09,0-1.45-.15-2.37.41-.42-.19-.3-.19-.74,0-1.42-.86-1.15-.67-1.34-1l-.4-7A11.07,11.07,0,0,0,33.34,40c0-1.15.06-2.27,0-3.39,0-1.51-.4-3-.46-4.44a4.35,4.35,0,0,1,1-3,4.32,4.32,0,0,0,.88,0,9.4,9.4,0,0,0,1.83-.13c.15.12.09.12.23,0a1.93,1.93,0,0,1,1.54,1.6c.32,3.09.37,6.21.48,9.31l.16,3.5A4.57,4.57,0,0,1,38.85,44.73Zm-4.2-2c.49-.17.18.05,0-.56Zm1.62-7.35c-.07-1,.1-2.07.06-3.1,0-.47,0-2.24-1-1.56.24,5.75.36,11.49.78,17.2l.42.22c.26,0,.18.06.4-.33-.12-2.33-.17-4.66-.26-7C36.68,40.2,36.48,35.43,36.27,35.38ZM38,37.11c.32,0,.3,0,.14-.36C38,36.91,38,36.85,38,37.11Zm0,.5c.2-.06.2,0,0-.23Z"/><rect class="cls-1" x="40.03" y="27.48" width="8.31" height="26.03" transform="translate(1.87 -1.95) rotate(2.59)"/><path class="cls-2" d="M47.9,53.85l-8.62-.39V53.3l1.18-26.16,8.62.39v.16Zm-8.28-.69,8,.36,1.16-25.68-8-.37Z"/><path class="cls-2" d="M45.23,34.12a3.23,3.23,0,0,0-.57-1.2A1,1,0,0,0,43.88,34c-.05,1,0,2,0,2.93,0,.35-.21.67-.22,1s.43.84.07,1.63a13.73,13.73,0,0,1,0,3l-.07,1.53a13.45,13.45,0,0,0-.5,3.79V48a2.68,2.68,0,0,0,.93.49c.53,0,.36-.81.49-1.13,0-.15.19-.26.2-.43,0-.42-.23-.81-.21-1.22a2.13,2.13,0,0,1,.11-.5c.68-.18,2.32-.49,2.27.63,0,.21-.17.41-.2.58-.29,1,.08,2-.78,2.83A2.26,2.26,0,0,1,44,50a7.57,7.57,0,0,1-1.6-.55,4.05,4.05,0,0,1-1.11-1.61,6,6,0,0,1,.12-2c0-.36-.2-.69-.19-1.07a2,2,0,0,1,.19-.91A22.85,22.85,0,0,1,41.14,41c.43-.48-.34-8.28,2.09-9.76a1.85,1.85,0,0,1,1-.13c.16-.2.42-.16.66-.15a2,2,0,0,1,2.06,1.48c.07.24.06.47.11.71a7.06,7.06,0,0,1,.18,2c0,.94-.46,1-1.34,1s-1.05-.34-1-1.08A1,1,0,0,1,45.23,34.12ZM43,36.71l-.16.17c.11.24.05.27.3-.08Zm-.39,5.38,0,.24c.3,0,.27,0,.28-.2Zm.28-1.73-.19.29c.2.22.11.27.4-.28Zm-.18,1.35c.32.14.29.19.19-.25Zm.41-5.88.05.3.25-.26C43.29,35.9,43.17,35.83,43.08,35.83Z"/><rect class="cls-1" x="8.95" y="1.49" width="9.95" height="27.33" transform="translate(0.7 -0.61) rotate(2.59)"/><path class="cls-2" d="M18.43,29.2h-.16l-10.1-.46v-.16L9.42,1.11h.16l10.1.46v.16ZM8.5,28.43l9.62.44,1.22-27L9.72,1.45Z"/><path class="cls-2" d="M17.48,6.08a4.55,4.55,0,0,0-.31,1.55,19.76,19.76,0,0,1,0,2.59c-.14,1.92-.26,3.86-.35,5.77s0,3.87-.11,5.79c-.1,2.26-.85,3.77-3.36,3.65a6.55,6.55,0,0,1-2.42-1.32,32.5,32.5,0,0,1-.34-9.4l.1-.11c-.3-.55.29-6.46.34-7.66a3.41,3.41,0,0,0-.53-1.86l.28-.37c.78.24.61.24.79.13.58.14,1.55.42,2.07,0l.46.26c.36-.1.27-.11.44,0v.32c-.61-.05-.67.59-.69,1a4,4,0,0,1,0,.59c.3,1.17-.05,5-.12,6.49l-.09.09a69.8,69.8,0,0,1-.22,10,1.12,1.12,0,0,0,.93,1.17c1.41.06,1.56-2.65,1.61-3.62s0-1.68,0-2.54c-.08-.09-.08-.06,0-.21,0-1.09,0-2.15.06-3.24.08-1.86.4-3.7.49-5.56.05-1.15.17-3.18-.83-4-.2,0-.17-.13-.16-.3,0-.33.55-.33.78-.35l.2.15a13.15,13.15,0,0,1,1.43-.11c.37.2.28.13.42.4Zm-5.26,8c-.16.17-.13.17-.15-.1-.21.2-.12.17-.39.16,0,.27.16.42.42.52a.65.65,0,0,1,.11-.47Zm0-6L12,8.1l0,.33c.26.13.2.13.23.13V8.32C12.24,8.23,12.19,8.11,12.19,8Zm-.11,1.15-.13.2.23.19.08-.32Zm-.28,3.65c.08.12,0,.12.3-.08C11.78,12.52,11.84,12.52,11.8,12.82Zm.45,3.68c-.15.11-.09.11-.32-.08l-.28.29c.31.31.2.3.59.17Zm-.19,2.88c-.21.11-.2-.8-.1-1l0-1-.34.28a2.31,2.31,0,0,1-.07,1c.16.25,0,.65.25.87l-.13.41c.28.22.19.18.37.19l.08.24c.13-.2.15-.08-.18-.57ZM12,11l.14.12c.15-.11.15-.08,0-.24Zm-.18,3.85v.27l.24,0C12,14.89,12.09,15,11.82,14.88Zm.23-3-.07.24.2.07C12.16,11.92,12.19,12,12.05,11.91Zm.15,1.25c-.15-.07-.23-.19-.24.08s.27.39.28.19S12.19,13.25,12.2,13.16Zm-.28,7.46h-.09c-.29,0-.15.14-.14.41l.46-.25C12.13,20.62,12.15,20.66,11.92,20.62Zm.4-13.39c.23.1.47.58.51-.15C12.56,7,12.65,7,12.32,7.23Zm.19,2.84c-.26,0-.2,0-.33.17l.25.27c0-.2-.08-.15.14-.28Zm-.13,5.58c-.35,0-.26,0-.45.18l.05.27.34-.37,0,.09Zm-.66,6.14c.43.14.33-.11.07-.26Z"/><rect class="cls-1" x="38.85" y="0.55" width="9.85" height="27.33" transform="translate(-1.06 3.83) rotate(-4.95)"/><path class="cls-2" d="M39.9,28.43,37.51.88,47.65,0,50,27.55Zm-2-27.26,2.33,26.91,9.5-.82L47.35.35Z"/><path class="cls-2" d="M46.11,4.75A4.41,4.41,0,0,0,46,6.33a21.91,21.91,0,0,1,.31,2.57c.11,1.92.24,3.86.41,5.77s.48,3.83.65,5.74c.19,2.27-.35,3.85-2.85,4.07a6.51,6.51,0,0,1-2.57-1,32.24,32.24,0,0,1-1.57-9.28l.07-.12c-.37-.5-.55-6.44-.66-7.64A3.41,3.41,0,0,0,39,4.68l.23-.4c.81.13.63.15.8,0,.6.07,1.59.22,2-.26l.49.19c.34-.15.25-.14.44,0l.06.33c-.62,0-.6.67-.56,1.11a3.61,3.61,0,0,1,.05.59c.45,1.11.61,5,.74,6.44l-.08.1a71.21,71.21,0,0,1,1.1,10,1.09,1.09,0,0,0,1.07,1c1.41-.12,1.2-2.83,1.12-3.8s-.24-1.66-.34-2.51c-.1-.08-.09-.05-.05-.21-.09-1.08-.27-2.13-.37-3.22-.16-1.85-.08-3.72-.24-5.57-.1-1.15-.25-3.18-1.34-3.82-.2.07-.19-.1-.2-.28s.5-.4.73-.45L45,4a10.38,10.38,0,0,1,1.39-.3c.4.14.31.09.48.34Zm-4.17,8.59c-.13.19-.1.18-.16-.08-.18.23-.1.19-.36.21,0,.27.21.4.48.46,0-.29,0-.2.05-.47Zm-.82-6-.19.11,0,.32c.28.09.22.1.25.09l0-.23C41.2,7.57,41.13,7.46,41.12,7.37Zm0,1.15-.09.22.25.15,0-.33Zm.2,3.65c.1.11.07.12.29-.11C41.31,11.88,41.37,11.88,41.36,12.17Zm.94,3.59c-.14.13-.08.13-.33,0l-.24.32c.35.27.23.28.6.1Zm.19,2.89c-.2.13-.31-.77-.23-1l-.12-1-.3.32a2.09,2.09,0,0,1,0,1c.2.22.06.64.37.83l-.08.42c.31.18.22.16.4.14l.11.23c.1-.22.13-.1-.26-.54Zm-1.16-8.28.15.11c.14-.13.14-.1,0-.24Zm.33,3.85,0,.26.23-.05C41.86,14.2,41.93,14.26,41.66,14.22Zm-.17-3,0,.24.21,0C41.61,11.24,41.64,11.29,41.49,11.25Zm.31,1.21c-.15,0-.25-.15-.23.11s.33.36.31.15S41.81,12.55,41.8,12.46Zm.71,7.43h-.09c-.3,0-.14.16-.08.42l.41-.3C42.71,19.87,42.74,19.9,42.51,19.89ZM41.14,6.57c.25.07.55.51.49-.22C41.36,6.31,41.44,6.28,41.14,6.57Zm.57,2.79c-.26,0-.21,0-.31.21l.29.24c-.08-.2-.1-.14.09-.31Zm.6,5.54c-.35,0-.27,0-.42.25l.08.26.29-.41.07.08Zm.15,6.18c.45.08.31-.15,0-.27Z"/><rect class="cls-1" x="18.34" y="1.16" width="10.58" height="27.61" transform="translate(-0.53 0.87) rotate(-2.1)"/><path class="cls-2" d="M18.69,29.12V29l-1-27.75h.16L28.56.81V1l1,27.75h-.16ZM18,1.52l1,27.27,10.25-.37-1-27.28Z"/><path class="cls-2" d="M27.93,24.13l-.81-.3c-.61.2-1.06-.11-1.43.26a11.38,11.38,0,0,1-1.48-.15,22.94,22.94,0,0,1-2.45.17c-.37.23-.25.22-.64,0-1.51.05-.56.85-1.67-.44l.15-.77c.6-.38.37-.37,1.2,0l.14-.33a28.29,28.29,0,0,1-.29-3.17c-.09-2.36,0-4.73-.06-7.09-.05-1.56-.17-3.15-.29-4.74l-.36-.34a6.83,6.83,0,0,1-.64.29c-.39,0-.58-.42-.59-.74a1.21,1.21,0,0,1,.61-1c.37.31,1.13.14,1.6.18l.15-.1c1,0,2-.28,3.08-.29l.44.55-.47,1A3.43,3.43,0,0,1,22.7,7a.91.91,0,0,0-.18.62c.07,2,.41,4,.48,6,0,.45,0,.89,0,1.33-.33.78.13,6-.05,7.47l.31.46a1.41,1.41,0,0,1,1.47-.2c.58-.32.94-.1,1.53,0l.23-.27a19.67,19.67,0,0,1-.37-4.53c0-.95.6-1.18,1.4-1.18l.66.36c.23,2.27.27,4,.36,6.48C28.57,23.89,28.19,24,27.93,24.13ZM22.5,22.52l.29-.15-.21-.23C22.47,22.38,22.46,22.32,22.5,22.52ZM22,7.17c.24.28.16.35.43-.2Z"/><rect class="cls-1" x="48.35" y="2.3" width="20.36" height="26.03" transform="translate(1.99 -6.2) rotate(6.17)"/><path class="cls-2" d="M67.39,29.53l-.16,0L46.83,27.3l0-.16,2.82-26,.16,0,20.4,2.21,0,.16ZM47.19,27l19.92,2.15L69.87,3.61,50,1.46Z"/><path class="cls-2" d="M66,22.23c0,.77-2.48,1.78-3.14,1.56l-.25.13c-.32-.28-.55-.15-1-.2A3.71,3.71,0,0,1,59.24,22c-.23-1.45-.39-3,1.15-3.85,0-.12,0-.06-.3-.45l-3.69-.46c-.26,0-.51-.2-.78-.23-.47-.05-.38,1.08-.35,1.32a5.77,5.77,0,0,1,1.9,0l.37.46c-.2,1-.5,1.87-.61,2.84,0,.38.13.78.08,1.19l-.25.45-.52.12c-.54-.21-.4-.19-.74-.05-.32-.33-.89-.27-1.34-.23-.36-.25-.56,0-1,0s-1.09-.15-1.58-.2c-.25-.2-.88-.39-1.11-.18-1.81-.25-1.47-.13-1.8-.64.15-.84.19-1.73.28-2.61.07-.61.22-1.72.84-2,.64.36,1.16.24,1.81.55l.14-.16c-.26-.06,0-1.33.07-1.54.09-.79-.12-1.55,0-2.34.05-.5.25-.9.3-1.39.08-.71.26-.24.18-1.08l-1.06.15c-1-.52-.2.51-1.26-.64.25-1.49.4-2.95.59-4.44L51,6.19a15.58,15.58,0,0,1,1.7.45,3.38,3.38,0,0,1,1.64.15l.4-.17c.7.46,2.48.42,3.31.39l.23.14c2.93-.21,5.85,2.33,5.53,5.35-.22,2.05-1.41,2.6-3.19,3.18.52.41,1.27.88,1.18,1.64,0,.06-.31.68-.35.8l.57.53.5-.24c0-.24.05-.8.4-.76.43.23.28.21.68.05.39.28.42.22.85.09.31.18.16.16.7.1.38.37.61.16,1.14.22a2,2,0,0,1,1,.34c0,.56-.06,1.12-.13,1.71A3.26,3.26,0,0,1,66,22.23ZM50,19.49c.23,0,.2.06.13-.13ZM51.46,8.8l-.2.21.11.13C51.5,9,51.46,9.09,51.46,8.8Zm-.32,1.35.1.19c.43-.13,0-.41,0-.41Zm-1,11.55c-.16-.49-.1-.42-.21-.29l.13.46ZM51.64,7.45c-.18.31-.17.19-.07.65.36,0,.14-.2.21-.58Zm.51,1.84c-.45-.23-.39-.22-.35,0,.42.46.72.16.4.93l.36-.29C52.59,9.63,52.55,9.21,52.15,9.29ZM50.64,20.57a1.77,1.77,0,0,1,0,.69c.22.14.17.1.31.12-.05-.33-.09-.28.1-.32C51,20.9,50.79,20.77,50.64,20.57ZM51,18.71c-.12.22-.14.16.08.27Zm.21.73c-.38.29-.35.23-.21.34l.23-.25ZM52.7,8.93a3.53,3.53,0,0,0-.33-.57c-.23,0-.16-.11-.31.41a1.61,1.61,0,0,1,.47.29l.19-.1ZM51.3,20.2C51.12,20,51.2,20,51,20a2.54,2.54,0,0,1,.15.49l.15,0Zm-.26,1,.23.11.17-.25C51.19,21,51.25,20.93,51,21.21Zm.61-1.83,0,.2.21,0C51.83,19.4,51.82,19.19,51.65,19.38Zm0,.95.09.24c.27,0,.23.09.26-.15ZM53.56,10l-.19-.11a.49.49,0,0,0-.5.21c.28-.11.34.1.67.14Zm-.47,1.08c.36-.05.35,0,0-.18Zm1.13,0a1.88,1.88,0,0,1-.62.2l-.06.08.16.14.28-.12.26.33.1-.14Zm-.4,6.16-.17.16c.28.77-.83.59-.91,1.32,0,.18.17.32.32.36v-.2a1.15,1.15,0,0,1,.24-.54l.25.14.49-.71Zm.13-6.4c.24,0,.26.06,0-.21Zm.56,2.5c-.33.05-.25.06-.51-.26,0-.33.11-.44-.21-.47-.12.22-.13.1.07.66.13-.08.11-.14.17.37l.57-.06Zm-1.24,6.48c-.23,0-.21.06-.32.26l.29,0Zm.85-5.37.12-.52L54,14a1.7,1.7,0,0,1-.32.82,1.23,1.23,0,0,1,.66,0l.09-.29C54.22,14.55,54.28,14.59,54.12,14.39Zm0,1c-.21.36-.8.36-.47.87l-.2.45c.15,0,.09-.05.15.2.29-.21.46-.34.29-.72.35-.25.29-.17.31-.41A2.26,2.26,0,0,0,54.1,15.37Zm.25-4.21c.18-.28.21-.25,0-.22Zm.32-1c-.23.18-.18,0-.21.25.4-.08.18.22.36,0Zm.09,5.74c.05-.21,0-.36-.19-.2Zm-.55,5,.17.07c.16-.36.22-.33-.14-.37Zm.72-1.14-.08.14c.12.07.09.07.21,0Zm5.45-7.36a1,1,0,0,0-.92,0l-3.16-.4c-.13-.14-.07-.13-.31-.1a2,2,0,0,0-.11.47c0,.23,0,.47,0,.71.15,0,.12-.05.14.1h.5l0,.09c.26,0,.48,0,.77,0s.85.07,1.27.08c.25-.12.19-.13.29,0,.59.07,1.49.52,1.66-.5Zm-4.1-3.23,0,.33.26-.27C56.39,9.09,56.44,9.1,56.28,9.23Zm2,.81v0c-.14,0-.14-.07-.1.11.32.12.31.15.1-.11Zm.3-.27c.08-.25,0-.2-.11-.1Zm2.08-.07,0,.19.3,0,0-.18C60.78,9.63,60.84,9.63,60.68,9.7Zm.11,1.14-.08.26.09.28.25-.21C61,10.81,61.06,10.87,60.79,10.84Zm.64,1-.34.14.4.46.29-.26Zm-.55,8.9a1.35,1.35,0,0,0-.12.61l.45-.31C61.1,20.66,61.15,20.73,60.88,20.7Zm.85-1v.21a.87.87,0,0,0,.53-.24C62.06,19.67,61.93,19.57,61.73,19.72Z"/><rect class="cls-1" x="65.98" y="2.59" width="9.87" height="25.02" transform="translate(4.27 -13.46) rotate(11.18)"/><path class="cls-2" d="M73.45,28.52l-10-2,0-.16L68.37,1.68l10,2Zm-9.61-2.23,9.36,1.85L78,3.91,68.62,2.06Z"/><path class="cls-2" d="M75.52,6.75c.29.06.68.23.61.57-.23,1.19-.36,2.43-.59,3.62a9.69,9.69,0,0,1-1,2.87c-.71.1-1.93-.27-1.76-1.16.12-.58.41-1.13.52-1.7a6.77,6.77,0,0,0,.09-.74,20.4,20.4,0,0,1-2-.57L71,9.89c-.25,1.28-.39,2.6-.52,3.9.31.36.2.31.52.22a1.17,1.17,0,0,0,1.29.19,1,1,0,0,1,.29,1.09c-.06.31-.25,1.12-.68,1-.26-.2-1.83-1.11-1.94-.38l-.82,4.62.11.17c.59.08,1.75.43,2.25.17.16-.81.06-1.67.22-2.48.22-1.1,1-1.16,1.94-1,.35.07.38.5.48.76l-.48,1.65c-.62.11-.61.06,0,.23a35.24,35.24,0,0,1-1,4.56l-.63.3a5.07,5.07,0,0,0-2.83-.59l-.11-.2a20,20,0,0,1-2.76-.34c-1-.19-.85-.73-.69-1.52.07-.37.51-2.75,1.15-2.32a1.13,1.13,0,0,0,.5-1.32,19.48,19.48,0,0,0,.73-2.8c.06-.29-.09-.59,0-.91.13-.63.42-.42.33-1.34a15.69,15.69,0,0,0,.32-1.92,14,14,0,0,1,.6-1.87l-.12-.41h-.48c-.26-.35-.23,0-.16-1.62.35-.29.33-1.38.32-1.77l.37-.5L70,5.3a8.14,8.14,0,0,0,2.57.81h.51l.48.33C74.23,6.62,74.86,6.62,75.52,6.75Zm-6.62.83-.12.13.18.15a1.59,1.59,0,0,0,0,.49l.22.1C69.14,8,69.2,8.18,68.9,7.58ZM66.56,21.37c.28.14-.09.61.4.58a1.45,1.45,0,0,0-.11-.8Zm1-2.28c.35-.08.31,0,.15-.3Zm-.11,2.38c-.32,0-.34-.09.1.29ZM68,19.39l-.11.55.25,0A.68.68,0,0,1,68,19.39Zm2.11-8.12,0-.24-.37.2C69.79,11.42,69.73,11.41,70.09,11.27ZM69,16.76l-.33,0c.14.39,0,.33.62.21l-.09-.44Zm-.34,2.91.31.39c0-.26.07-.19-.11-.47Zm3-11.29-.44.4h.33a.62.62,0,0,0,.11-.25Zm1.1.7c-.1.64-.42.61.22.55l-.23-.22.2-.23S72.75,9.06,72.69,9.08ZM70.12,23.57l.1-.19C70,23.34,70,23.31,70.12,23.57Zm1,0-.24.31c0,.11.5-.23.5-.23ZM73.78,9.66V9.9c.29.06.22.07.32-.12v0Zm.58-1,0-.43c-.22.08-.22-.07-.1.67l.36-.14-.12-.17Zm-2,13.58v.18l.17-.09Z"/><rect class="cls-1" x="21.31" y="27.41" width="11.45" height="23.2" transform="translate(1.79 -1.18) rotate(2.59)"/><path class="cls-2" d="M32.38,51h-.16l-11.59-.53v-.16L21.69,27h.16l11.59.53v.16ZM21,50.19l11.11.5,1-22.86L22,27.33Z"/><path class="cls-2" d="M31.27,38.4c-.11,2.45,0,4.88-.1,7.32-.09,2.09-1.1.87-2.28,1.49l-.9-.3a4.94,4.94,0,0,1-.13-1.72c0-1.51.09-1.27-.15-1.22-.36-.4-.37-.28,0-.59l.19.22c.21-.67-.19-1.61.25-2.15l.06-1.32c-.64-.33-1.63.19-2.56-.27l-.28.38a7.72,7.72,0,0,1,.23,2.63c-.05,1.21-.25,2.41-.3,3.59l-.64.38-.35-.19c-.63.18-.93-.19-1.51.17-.57-.38-.46-.26-.59-.65a5.46,5.46,0,0,0,.1-2.18c.24-.1.24-.07,0-.14a4.19,4.19,0,0,0,.18-1.35c.07-1.53,0-3.07.06-4.6l.28-6.16c0-.36.39-.66.63-.86a9.2,9.2,0,0,0,2.14.25l.27.6-.2,4.48c-.25.19-.17.55-.3.84.37.22.91,0,1.38,0,.29.16.47.08.8,0a1.25,1.25,0,0,0,.91.07c-.6-1.65-.12-3.75-.07-5.49a3.32,3.32,0,0,1,.7-.65l.64.23a2.26,2.26,0,0,1,2.05.39C31.71,33.88,31.37,36.14,31.27,38.4Zm-7.34.94-.07.44.18-.23c.17.16.11.16.41.08C24.31,39.48,24.08,39.47,23.93,39.34Zm.22,1.16h-.24a.38.38,0,0,0,.26.22Zm-.25,4.24a1.7,1.7,0,0,1,.09.54c.25-.2.21-.11.11-.53Zm5.59-5.53-.13.2c.19.48.1.45.41.11Zm.23-6.34.34-.42.23.15c.45-.21.18-.05-.36-.45A6.52,6.52,0,0,0,29.72,32.87ZM29.78,36l-.05.53.19-.32c.17.12.09.12.53.08C30.28,36.09,30,36.1,29.78,36Zm0,1.15c.07.5,0,.5.27,0Zm0,4.46v.2l.23.13v-.41Z"/><rect class="cls-1" x="61.64" y="27.97" width="4.73" height="24.41"/><path class="cls-2" d="M66.53,52.54H61.48V27.81h5.05Zm-4.73-.32h4.4V28.13H61.8Z"/><path class="cls-2" d="M64.52,39.91c.26.68.09,0,.09,1.74,0,.44,0,1.74-.59,1.74-.59-.74-.51-6.31-.71-7.61,0-1-.21-2-.21-3s1.24-.64,1.8-.32A72.16,72.16,0,0,1,64.52,39.91Zm-.47,8.17h0c-.57.24-.74.09-.74-.5A14.62,14.62,0,0,0,63.25,46l.26-.45c.56,0,.8-.11,1.3.15a1.51,1.51,0,0,1,.06.38c0,.21-.24.54,0,.77,0,.44.15,1.06-.23,1.36C64.25,48.23,64.4,48.23,64.05,48.08Zm-.21-12.56a.15.15,0,0,0,.21-.18Z"/><rect class="cls-1" x="6.64" y="27.81" width="14.78" height="24.1" transform="translate(-3.39 1.36) rotate(-4.95)"/><path class="cls-2" d="M7.56,52.68,5.45,28.35l15.05-1.3,2.11,24.33Zm-1.76-24,2.05,23.7,14.41-1.25-2.05-23.7Z"/><path class="cls-2" d="M20.26,44.86a3.56,3.56,0,0,1-.83,1.35c-1.37,1.27-1.45,1.28-1.95,1.32s-.93.55-1.27.76c-.29-.27-.2-.28-.56.08-.47-.35-.32-.33-.81-.17-.57-.45-.45-.4-.7-.2-.79.06-.66-.15-1.26-.25l-.47-.61-.44,0A15.09,15.09,0,0,1,10,48.85c-1.29.12-1.21-.36-1.29-1.3a46.49,46.49,0,0,0-.83-5.08,9.78,9.78,0,0,0-.23-2.29c.21-.64-.09-.79-.15-1.41l-.2-2.32c-.1-1.18,2.09-5,3.44-4.77l.22-.19c2.14-.19,2.51.28,4.38,1.1a3.53,3.53,0,0,1,1-1.28c.39.15.47-.33.94-.37,1.44-.13,1.49,2.53,1.58,3.5s-.1,2.26,0,3.37c.11,1.27,1.52,2.15,1.64,3.53A7.35,7.35,0,0,1,20.26,44.86Zm-3.1-6.15c-.81-.47-1.75-.74-2.59-1.17-.45.28-1.44-.56-1.79-.85l-.32.06c-.86-.37-2.28-.69-2.38-1.81s1.19-1.26,1.24-1.71a2.77,2.77,0,0,0,1.31.07,6.75,6.75,0,0,0,1.9.78l0,.09c.83.31,2.13,1.33,2.21,2.3.17.25.4.46.54.72.27,0,.18.07.38-.36a16.73,16.73,0,0,1-.55-2.35c0-.35.14-.69.08-1.07-.08-.59,0-.48-.34-.56l-.38.44a1.09,1.09,0,0,1-.61.82c-.66-.15-1.3-.71-2-.74a2.35,2.35,0,0,0-1.65-.6,5.69,5.69,0,0,0-2.41.86,3.13,3.13,0,0,1-.67,1.15,1.21,1.21,0,0,1-.19.58c.31,3.2.09,2,1.3,4.06a5.36,5.36,0,0,0,2.14.74,6.15,6.15,0,0,0,2.32,1.18c.46-.21.87.14,1.22.46l.2-.16c.61.21,1.51.43,1.58,1.19.09,1-.3,1.3-1.09,1.78-.24-.09-.13-.1-.68,0-.13.16-.18.26-.36.27a7.22,7.22,0,0,1-2.86-.49v-.15c-2.67,0-2.08-3.13-3-3.61-.35.47-.36-.3,0,4a5.25,5.25,0,0,0,.3,1.13l.28.12c.5-.31.73-1.48,1.34-1.53s2,1.62,3.76,1a1.08,1.08,0,0,0,.81.11c.38-.36.27-.32.57-.29,1.72-1.3,2.07-1.69,1.88-3.92C18.52,39.74,17.48,39.69,17.16,38.71ZM9.9,46.82l0,.27c.21,0,.18,0,.22-.17ZM11.78,46c.22-.2.23-.14.07-.27Zm-.22-4.63c-.08.13-.12.07.17.34C11.71,41.43,11.77,41.48,11.56,41.38Zm2.22,1.7,0-.29-.19.22c-.84-.49-.66-.42-1-.35a.37.37,0,0,0-.59,0,7.85,7.85,0,0,0,2.54,1.26c.37-.15.29-.09.35-.39C14.48,43.38,14.2,43.23,13.78,43.08ZM11.43,34.5c-.15.28-.15.22,0,.38s.21,0,.25-.2Zm.71.32c-.25.11-.2,0-.18.31.28.15.22.13.36.06.7.5.73.5.9.45l.7.57c.31-.15.26-.09.23-.44A8.59,8.59,0,0,0,12.14,34.82Zm2.67,12.29c.07-.21.1-.19-.11-.17Zm.12-.63-.06.3c.31-.09.29-.06.27-.26C14.94,46.59,15,46.59,14.93,46.48Zm-.5-9.85c.18,0,.17-.07,0-.23Zm.4-.21.11.26.17-.1c.07.17,0,.2.24-.26A1.6,1.6,0,0,1,14.83,36.42Zm1,10.69C16,47,16,47,15.77,47ZM15.58,43c-.08.15-.08.09.06.35a1.06,1.06,0,0,0,.23,0C15.57,43,15.64,43,15.58,43Zm.52.22,0,.23C16.31,43.25,16.31,43.31,16.1,43.24Zm.69,3.16c-.3.3-.31.27,0,.25Zm-.17-3.24h.18C16.7,43,16.73,43,16.62,43.16Z"/><rect class="cls-1" x="0.64" y="3.87" width="8.45" height="26.03" transform="translate(-0.61 0.19) rotate(-2.1)"/><path class="cls-2" d="M1,30.21v-.16L0,3.88H.16l8.61-.31v.16l1,26.17H9.57Zm-.63-26,.94,25.69,8.13-.3L8.46,3.89Z"/><path class="cls-2" d="M5.38,10.45a3.14,3.14,0,0,0-.66-1.16A1,1,0,0,0,4,10.44c0,1,.19,1.94.22,2.91,0,.36-.15.69-.14,1s.5.81.21,1.62A13.11,13.11,0,0,1,4.6,19l.06,1.53a13.74,13.74,0,0,0-.19,3.81v.18a2.74,2.74,0,0,0,1,.41c.53,0,.29-.84.4-1.17,0-.15.17-.27.16-.45,0-.41-.29-.78-.31-1.2a3,3,0,0,1,.07-.5c.67-.23,2.28-.67,2.32.45a2.85,2.85,0,0,1-.16.59c-.19,1,.25,2-.54,2.88a2.23,2.23,0,0,1-1.94.93A7.72,7.72,0,0,1,3.8,26a4.18,4.18,0,0,1-1.24-1.52,6,6,0,0,1,0-2c0-.36-.26-.67-.28-1.06a1.94,1.94,0,0,1,.12-.92,22.64,22.64,0,0,1-.49-2.81c.39-.52-1-8.23,1.29-9.9a1.92,1.92,0,0,1,1-.22c.14-.21.4-.19.64-.2A2,2,0,0,1,6.94,8.65a4.46,4.46,0,0,1,.17.7,6.86,6.86,0,0,1,.34,1.94c0,.94-.37,1-1.26,1.08s-1.07-.26-1.1-1A1,1,0,0,1,5.38,10.45Zm-2,2.76-.14.18c.13.23.07.26.29-.1Zm0,5.4v.23c.29-.07.26,0,.26-.21Zm.14-1.75-.16.3c.21.2.12.26.37-.31Zm-.06,1.36c.32.11.3.17.16-.27Zm-.07-5.9.07.3.22-.28C3.6,12.37,3.48,12.32,3.39,12.32Z"/><path class="cls-1" d="M73.76,77.44c1-1.2,2-2.34,1.47-3.94-.67-2-2.89-2-3.62-2a33.38,33.38,0,0,0-5.3.56,4.19,4.19,0,0,0-1.94,1,6.86,6.86,0,0,0-1.76-1l-.29-.13a6.31,6.31,0,0,0-2.63-.65A4,4,0,0,0,56,73.53a3.77,3.77,0,0,0-3.69-1.88h-.89a4.15,4.15,0,0,0-1.86.41,4.93,4.93,0,0,0-2.46-.54,33.66,33.66,0,0,0-5.3.56,3.59,3.59,0,0,0-.89.3c-.9-1.09-2.52-1.67-4.72-1.67a15.82,15.82,0,0,0-5.28,1,43.72,43.72,0,0,0-10.06,5.6A2.53,2.53,0,0,0,20,76h0a2.52,2.52,0,0,0,.26-.71l.33-1.68A2.57,2.57,0,0,0,18,70.5h0l-4.78.08a2.57,2.57,0,0,0-1.1-.25l-.29,0-2.44.28a2.88,2.88,0,0,0-.4.09,2.52,2.52,0,0,0-1.34-.39h-.1l-2.1.09A2.57,2.57,0,0,0,3,73v6.89a2.56,2.56,0,0,0,2.56,2.57h.09l1.91-.07A2.49,2.49,0,0,0,9,81.82a2.58,2.58,0,0,0,1.06.33l2.24.17h.2l.34,0,.24,0h3.95a5.14,5.14,0,0,0,1,4.36,7.15,7.15,0,0,0,1.48,1.41c-3,1.53-4.42,2.29-4.91,3.84a2.86,2.86,0,0,0,1.84,3.58.7.7,0,0,1,.29.15,7.24,7.24,0,0,1,.54.6,4.79,4.79,0,0,0,3.5,2.11H21a5.91,5.91,0,0,0,4.27-2.08,32,32,0,0,1,4.64-3.37,2.53,2.53,0,0,0,1,.78,9.26,9.26,0,0,1,5,6.76,2.57,2.57,0,0,0,2.54,2.25h.13A2.57,2.57,0,0,0,41,100.23,3.42,3.42,0,0,1,43,96.88a6.32,6.32,0,0,1,2.43-.58h0A2.56,2.56,0,0,0,48,94.2a3,3,0,0,0,2.21-1.51c.51-.94.71-2.1,1-4.54a6,6,0,0,0,2.71,3.38,2.57,2.57,0,0,0,1.5,2.18,9.24,9.24,0,0,1,5,6.76A2.57,2.57,0,0,0,63,102.72h.12a2.56,2.56,0,0,0,2.44-2.49,3.42,3.42,0,0,1,1.95-3.35,6.25,6.25,0,0,1,2.43-.58h0a2.56,2.56,0,0,0,.38-5.1l-3.13-.5a34.32,34.32,0,0,1,2.94-8.09A26.51,26.51,0,0,1,73.76,77.44Z"/><path d="M63,103a2.89,2.89,0,0,1-2.86-2.53A9.05,9.05,0,0,0,55.27,94a2.88,2.88,0,0,1-1.67-2.27,5.42,5.42,0,0,1-2.24-2.44,10.68,10.68,0,0,1-.92,3.55,3.26,3.26,0,0,1-2.22,1.63,2.88,2.88,0,0,1-2.77,2.15,5.89,5.89,0,0,0-2.33.55,3.08,3.08,0,0,0-1.76,3.06A2.91,2.91,0,0,1,38.61,103h-.14a2.89,2.89,0,0,1-2.86-2.53A9,9,0,0,0,30.76,94a2.59,2.59,0,0,1-.89-.65,30.39,30.39,0,0,0-4.36,3.17A6.12,6.12,0,0,1,21,98.7h-.21a5.18,5.18,0,0,1-3.74-2.22,5.34,5.34,0,0,0-.51-.57s0,0-.19-.1a3.15,3.15,0,0,1-2-4c.5-1.6,1.86-2.41,4.61-3.8a7.26,7.26,0,0,1-1.13-1.15,5.5,5.5,0,0,1-1.16-4.24H13.11l-.2,0h0a2.69,2.69,0,0,1-.57,0l-2.24-.17a2.91,2.91,0,0,1-1-.27,2.91,2.91,0,0,1-1.5.49l-2,.07a2.87,2.87,0,0,1-2-.81,2.9,2.9,0,0,1-.88-2.08V73A2.87,2.87,0,0,1,5.43,70.1L7.53,70A3,3,0,0,1,9,70.37a1.65,1.65,0,0,1,.32-.06L11.79,70a2.83,2.83,0,0,1,1.49.23L18,70.18h0a2.9,2.9,0,0,1,2.27,1,2.87,2.87,0,0,1,.61,2.41l-.33,1.68a2.78,2.78,0,0,1-.17.56,3.07,3.07,0,0,1,.64.9,44,44,0,0,1,9.79-5.38,15.93,15.93,0,0,1,5.39-1A6.45,6.45,0,0,1,41,72a3.92,3.92,0,0,1,.74-.22,32.81,32.81,0,0,1,5.36-.57,5.27,5.27,0,0,1,2.47.5,4.53,4.53,0,0,1,1.85-.37h.89A4.24,4.24,0,0,1,56,72.91c1.29-2,3.76-2.54,6.46-1.28l.21.1.08,0a7.56,7.56,0,0,1,1.63.89,4.52,4.52,0,0,1,1.87-.88,33.08,33.08,0,0,1,5.37-.57c2.11,0,3.43.74,3.92,2.2.6,1.77-.48,3-1.53,4.25h0a26.3,26.3,0,0,0-3.57,5.1,34.18,34.18,0,0,0-2.84,7.69l2.79.44A2.89,2.89,0,0,1,70,96.62a5.89,5.89,0,0,0-2.32.55,3.08,3.08,0,0,0-1.76,3.06A2.92,2.92,0,0,1,63.12,103ZM51,86.9,51.49,88a5.49,5.49,0,0,0,2.56,3.21l.16.08v.19a2.25,2.25,0,0,0,1.31,1.91,9.51,9.51,0,0,1,5.22,7,2.25,2.25,0,0,0,2.23,2h.11a2.26,2.26,0,0,0,2.13-2.18,3.76,3.76,0,0,1,2.12-3.63A6.62,6.62,0,0,1,69.92,96a2.23,2.23,0,0,0,2.26-2,2.26,2.26,0,0,0-1.9-2.41L66.81,91l.08-.33a34.74,34.74,0,0,1,3-8.17,26.1,26.1,0,0,1,3.66-5.23l.24.21-.24-.21c1-1.18,1.88-2.2,1.4-3.62-.53-1.58-2.14-1.77-3.31-1.77a34.16,34.16,0,0,0-5.24.55,4,4,0,0,0-1.79.92l-.21.18-.21-.18a6.24,6.24,0,0,0-1.68-1l-.07,0-.23-.1c-2.61-1.21-4.86-.56-5.9,1.46l-.27.54-.29-.53A3.45,3.45,0,0,0,52.31,72h-.89a3.85,3.85,0,0,0-1.73.38l-.15.07-.15-.09a4.55,4.55,0,0,0-2.29-.49,34,34,0,0,0-5.23.55,3.46,3.46,0,0,0-.82.28l-.23.1-.15-.19c-.85-1-2.4-1.55-4.48-1.55A15.42,15.42,0,0,0,31,72a43.13,43.13,0,0,0-10,5.56l-.38.29-.12-.46a2.28,2.28,0,0,0-.77-1.17L19.57,76l.12-.24a2.36,2.36,0,0,0,.22-.63l.33-1.67A2.24,2.24,0,0,0,18,70.82l-4.89.08-.07,0a2.24,2.24,0,0,0-1.22-.2L9.43,71a2,2,0,0,0-.35.07l-.14,0L8.82,71a2.24,2.24,0,0,0-1.17-.34H7.56l-2.1.09A2.24,2.24,0,0,0,3.31,73v6.89A2.29,2.29,0,0,0,4,81.49a2.27,2.27,0,0,0,1.56.63l2-.07a2.23,2.23,0,0,0,1.3-.48L9,81.44l.19.1a2.2,2.2,0,0,0,.93.29l2.23.17a2.57,2.57,0,0,0,.48,0h0L13,82h4.47l-.09.39a4.88,4.88,0,0,0,1,4.09,7.05,7.05,0,0,0,1.41,1.34l.44.31-.48.24C16.6,89.94,15.39,90.66,15,92a2.49,2.49,0,0,0,1.65,3.18,1,1,0,0,1,.38.21,6.28,6.28,0,0,1,.57.63,4.55,4.55,0,0,0,3.27,2H21a5.61,5.61,0,0,0,4-2,31.31,31.31,0,0,1,4.7-3.41l.25-.15.18.23a2.2,2.2,0,0,0,.84.68,9.56,9.56,0,0,1,5.22,7,2.24,2.24,0,0,0,2.22,2h.11a2.26,2.26,0,0,0,2.14-2.18,3.75,3.75,0,0,1,2.12-3.63A6.62,6.62,0,0,1,45.41,96a2.23,2.23,0,0,0,2.22-1.83l0-.21.22,0a2.72,2.72,0,0,0,2-1.35,13,13,0,0,0,1-4.43Z"/><path class="cls-2" d="M32,91.38l5,1a41,41,0,0,1,1.17-10c1.47-5.1,2.9-7.51,4.21-7.78s5.79-.81,6-.27-2.64,2.69-4.93,7.1a35.7,35.7,0,0,0-3.66,11.4l5.73.91s-6.77-.09-7,6.42A11.89,11.89,0,0,0,32,91.38Z"/><path class="cls-2" d="M56.46,91.38l5,1a40.72,40.72,0,0,1,1.18-10c1.46-5.1,2.89-7.51,4.2-7.78s5.79-.81,6-.27-2.63,2.69-4.92,7.1a35.89,35.89,0,0,0-3.67,11.4l5.73.91s-6.77-.09-7,6.42A11.92,11.92,0,0,0,56.46,91.38Z"/><path class="cls-2" d="M27.39,79.58c3.11-2.13,5.94-3.13,6.37-2.59S33,78.17,33,78.71s1.39-.26,2.29-.49l3-1.14a2.47,2.47,0,0,0,.72-3c-.63-1-4-1.17-7.2,0A39.57,39.57,0,0,0,21.63,80c-2.83,2.38-2.27,4.24-1.55,5.13a4.51,4.51,0,0,0,3.18,1.71c1.48.3,2.44-.12,4.46-.9s6.77-4.44,5.23-1.22-7.37,3.27-12.11,5.65c-2.67,1.35-3.59,1.9-3.74,2.39s.52.27,1.39,1.05,1.48,2,2.41,2,1.51-.3,2.6-1.35c2.45-2.39,8.54-5.77,10.59-7S37,83,36.62,81.91s-1.69-2-4.95.24-6,3.27-7.81,2.77S23.17,82.48,27.39,79.58Z"/><path class="cls-2" d="M43.16,89.6c-.26,1.07.12,1.29,1.12,1.72s3.37.6,3.62.15c.34-.64.51-1.81.9-4.86.87-6.66,1.9-6.84,1.9-6.84s.73.68,1.87,4.42,1.62,4.89,3,5.25c2.9.76,3.44.35,4-3,.82-5,2.41-9,3.23-10.19s-.66-1.6-1.57-2-2.59-1-3.14.93S56.22,80.82,56,83.8c0,0-1.26-5.2-2-8.26-.33-1.45-.75-1.32-2.35-1.32-.75,0-1.3-.13-2.5,1.84A36.52,36.52,0,0,0,43.16,89.6Z"/><polygon class="cls-2" points="5.55 72.98 7.65 72.9 7.46 79.81 5.55 79.87 5.55 72.98"/><polygon class="cls-2" points="9.69 73.18 12.12 72.9 6.6 78.94 6.6 76.85 9.69 73.18"/><polygon class="cls-2" points="10.29 79.59 12.53 79.76 9.2 75.28 8.17 76.51 10.29 79.59"/><polygon class="cls-2" points="12.66 73.16 18.04 73.06 17.71 74.74 14.53 74.51 14.98 78.51 18.38 77.96 18.5 79.76 13.11 79.76 12.66 73.16"/><polygon class="cls-2" points="14.01 76.38 14.37 75.92 16.65 75.92 16.98 77.1 14.44 77.1 14.01 76.38"/><path class="cls-1" d="M177.21,81.54a2.55,2.55,0,0,0-2.48-1.93h-.56A15.38,15.38,0,0,1,169,78.54a2.69,2.69,0,0,0-3.4,1.43,2.79,2.79,0,0,0-.18,1.13,15.08,15.08,0,0,1-1.24-3.36,1.7,1.7,0,0,1,.05-.37,3.16,3.16,0,0,0-.42-2.58,4.37,4.37,0,0,0-3.18-1.54l-.54-.17a6.09,6.09,0,0,0-1.88-.39h0a2.87,2.87,0,0,0-2.24,1,2.71,2.71,0,0,0-.57-.36,3.93,3.93,0,0,0-1.65-.28c-.38,0-.81,0-1.23,0s-.72,0-1,0h-.14a1.27,1.27,0,0,0-.27,0,3,3,0,0,0-2.32,1c-.95,1.12-.73,2.39-.5,3.73a32.71,32.71,0,0,1,.47,4.16,15.48,15.48,0,0,0-2.64-2.94c-1.28-1.11-1.3-1.75-1.32-2.32a3.46,3.46,0,0,0-.55-2,3.58,3.58,0,0,0-3.16-1.47l-.65,0h-.25a5,5,0,0,0-.61,0A3.1,3.1,0,0,0,137,74.49,3.25,3.25,0,0,0,135.09,73a7,7,0,0,0-1.63-.23l-.53,0-.35-.08a6.13,6.13,0,0,0-1.44-.22,3,3,0,0,0-2,.68A6.78,6.78,0,0,0,125.31,72c-2.48,0-5.4,1-8.68,3.05-1,.63-2,1.17-2.79,1.66-1,.59-2,1.14-2.8,1.71a2.77,2.77,0,0,0-.64-.77h0a2.5,2.5,0,0,0,.25-.71l.33-1.68a2.55,2.55,0,0,0-.54-2.14,2.58,2.58,0,0,0-2-.92h0l-4.78.08a2.56,2.56,0,0,0-1.09-.25l-.3,0-2.43.28a2.59,2.59,0,0,0-.4.09A2.52,2.52,0,0,0,98.07,72H98l-2.1.08a2.57,2.57,0,0,0-2.46,2.57v6.88A2.58,2.58,0,0,0,96,84.1h.09L98,84a2.6,2.6,0,0,0,1.49-.54,2.57,2.57,0,0,0,1.06.32l2.23.17h.2l.35,0,.24,0h3.33c-.06.28-.11.57-.15.88a6,6,0,0,0,.55,3.38,2.61,2.61,0,0,0-.74.5,38.28,38.28,0,0,1-5.82,4.72,2.57,2.57,0,0,0,1.36,4.75h.08c2.71,0,5.16,2.19,5.19,2.21a2.59,2.59,0,0,0,3.24.17,2.61,2.61,0,0,0,.85-1.08c.67.06,1.38.09,2.12.09a15.62,15.62,0,0,0,8.76-2.26c0,.09.08.18.13.27a4.09,4.09,0,0,0,2.87,1.81l.37.09a9.59,9.59,0,0,0,2.54.39,3.79,3.79,0,0,0,4.1-3.35c.1-.93.22-1.85.34-2.75l0,0a25.93,25.93,0,0,0,.23,3.27,3.09,3.09,0,0,0,3,2.94,3.73,3.73,0,0,0,2.32-.92,3,3,0,0,0,2.64,1.61,4.44,4.44,0,0,0,1.34-.25l.22-.07.38,0c.22,0,.48,0,.76,0a3.11,3.11,0,0,0,3-2.17,2.5,2.5,0,0,0,1.15,1.25,5.13,5.13,0,0,0,2.21.57,2.32,2.32,0,0,1,.95.19,2.87,2.87,0,0,0,1.39.38,2.73,2.73,0,0,0,1.88-.77,8.12,8.12,0,0,0,1.35.5l.4.12a5.09,5.09,0,0,0,1.65.33,3.05,3.05,0,0,0,2.26-1,3.89,3.89,0,0,0,.85-3.07l0-.59c.12.54.25,1.09.42,1.65a3.22,3.22,0,0,0,3.1,2.49,4.54,4.54,0,0,0,2.69-1.08l.2-.15c3.19-1.41,3.62-3.4,3.41-4.82a25.39,25.39,0,0,0-1.85-5.48,2.41,2.41,0,0,0,1,.2,2.56,2.56,0,0,0,2.17-1.19,9.93,9.93,0,0,1,3.91-3.31A2.56,2.56,0,0,0,177.21,81.54Z"/><path d="M109.06,101.41a2.92,2.92,0,0,1-2-.74s-2.41-2.13-5-2.13h-.08a2.89,2.89,0,0,1-1.53-5.34,39.49,39.49,0,0,0,5.77-4.68,2.41,2.41,0,0,1,.54-.41,6.49,6.49,0,0,1-.45-3.28c0-.18,0-.35.08-.52h-3.18a2.72,2.72,0,0,1-.57,0l-2.24-.17a3,3,0,0,1-1-.27,2.71,2.71,0,0,1-1.5.49l-2,.07a2.88,2.88,0,0,1-2.89-2.89V74.65a2.89,2.89,0,0,1,2.77-2.89l2.22-.09a2.93,2.93,0,0,1,1.38.36l.32-.06,2.44-.28a2.86,2.86,0,0,1,1.49.23l4.71-.08h0a2.91,2.91,0,0,1,2.26,1,2.87,2.87,0,0,1,.62,2.42L111,77a2.7,2.7,0,0,1-.18.57,2.64,2.64,0,0,1,.35.4c.82-.53,1.73-1.06,2.55-1.54s1.76-1,2.78-1.66c3.34-2,6.31-3.09,8.85-3.09a7.12,7.12,0,0,1,3.86,1,3.32,3.32,0,0,1,2-.61,6.23,6.23,0,0,1,1.52.23l.33.07a4.82,4.82,0,0,0,.49,0,7.21,7.21,0,0,1,1.7.25A3.52,3.52,0,0,1,137.07,74a3.42,3.42,0,0,1,2.48-1,5.6,5.6,0,0,1,.64,0h.2l.67,0a3.91,3.91,0,0,1,3.43,1.6,3.85,3.85,0,0,1,.6,2.13c0,.52,0,1.07,1.21,2.09a15.16,15.16,0,0,1,2,2.12c-.11-1.31-.27-2.29-.4-3-.23-1.35-.47-2.75.58-4a3.29,3.29,0,0,1,2.56-1.14,1.62,1.62,0,0,1,.31,0h.1c.25,0,.61,0,1,0s.87,0,1.25,0a4.16,4.16,0,0,1,1.78.32,2.65,2.65,0,0,1,.4.22,3.2,3.2,0,0,1,2.28-.9,6.27,6.27,0,0,1,2,.41l.5.16A4.69,4.69,0,0,1,164,74.6a3.43,3.43,0,0,1,.46,2.83,2.12,2.12,0,0,0,0,.29,9.82,9.82,0,0,0,.77,2.23l0-.1a2.92,2.92,0,0,1,2.75-1.8,3,3,0,0,1,1.07.19,14,14,0,0,0,5.36,1.06h.3a2.89,2.89,0,0,1,1.11,5.55A9.53,9.53,0,0,0,172.08,88a2.9,2.9,0,0,1-2.86,1.31,23.15,23.15,0,0,1,1.62,4.94c.22,1.53-.22,3.67-3.6,5.16h0l-.07.06-.07.05a4.79,4.79,0,0,1-2.88,1.16A3.49,3.49,0,0,1,161,98.42a3.5,3.5,0,0,1-.86,1.69,3.37,3.37,0,0,1-2.49,1.06,5.55,5.55,0,0,1-1.75-.34l-.39-.12a7.47,7.47,0,0,1-1.2-.43,3.08,3.08,0,0,1-3.49.28,2.65,2.65,0,0,0-.82-.14,5.31,5.31,0,0,1-2.34-.61,2.9,2.9,0,0,1-.95-.81,3.44,3.44,0,0,1-3.09,1.77,6.3,6.3,0,0,1-.79,0l-.32,0-.13,0a4.64,4.64,0,0,1-1.46.27,3.26,3.26,0,0,1-2.73-1.46,3.8,3.8,0,0,1-2.23.77,3.39,3.39,0,0,1-3.35-3.21s0-.09,0-.13a4.1,4.1,0,0,1-4.36,3.26,10.32,10.32,0,0,1-2.63-.4l-.36-.09a4.47,4.47,0,0,1-3-1.93,16.09,16.09,0,0,1-8.63,2.12c-.63,0-1.27,0-1.92-.07a2.93,2.93,0,0,1-.86,1A2.82,2.82,0,0,1,109.06,101.41Zm-6.92-3.51a9.32,9.32,0,0,1,5.4,2.29,2.3,2.3,0,0,0,2.84.15,2.19,2.19,0,0,0,.74-.94l.09-.21h.24c.7.06,1.41.09,2.09.09a15.27,15.27,0,0,0,8.58-2.2l.31-.21.16.34a1.34,1.34,0,0,0,.12.24,3.72,3.72,0,0,0,2.66,1.65l.38.1a9.47,9.47,0,0,0,2.46.38A3.48,3.48,0,0,0,132,96.52c.1-.93.22-1.86.35-2.76v-.07l.62-.87,0,1a26.22,26.22,0,0,0,.23,3.23,2.78,2.78,0,0,0,2.71,2.66,3.4,3.4,0,0,0,2.12-.85l.31-.23.17.33a2.64,2.64,0,0,0,2.36,1.43,3.91,3.91,0,0,0,1.24-.23l.24-.07h.1l.38,0a5.87,5.87,0,0,0,.74,0,2.8,2.8,0,0,0,2.75-1.95l.26-.79.34.76a2.25,2.25,0,0,0,1,1.11,5,5,0,0,0,2.08.52,2.69,2.69,0,0,1,1.09.23,2.45,2.45,0,0,0,2.89-.34l.16-.15.19.09a8.17,8.17,0,0,0,1.3.48l.36.11a5.3,5.3,0,0,0,1.61.33,2.72,2.72,0,0,0,2-.86,3.61,3.61,0,0,0,.77-2.83q0-.28,0-.6l.63-.08c.12.56.26,1.1.42,1.63a2.9,2.9,0,0,0,2.79,2.26,4.24,4.24,0,0,0,2.5-1l.07,0,.14-.11c2.43-1.07,3.55-2.62,3.27-4.51A24.5,24.5,0,0,0,168.37,89l-.3-.72.72.3a2.26,2.26,0,0,0,2.75-.88,10.45,10.45,0,0,1,4.06-3.43,2.24,2.24,0,0,0,1.3-2.62h0a2.25,2.25,0,0,0-2.41-1.68h-.32a15.64,15.64,0,0,1-5.33-1.11,2.4,2.4,0,0,0-.84-.15,2.29,2.29,0,0,0-2.15,1.39,2.34,2.34,0,0,0-.16,1l.09,1.76-.71-1.61a14.27,14.27,0,0,1-1.25-3.46,1.11,1.11,0,0,1,.05-.46A2.88,2.88,0,0,0,163.5,75a4,4,0,0,0-3-1.4c-.11,0-.4-.12-.59-.18a5.7,5.7,0,0,0-1.78-.38,2.53,2.53,0,0,0-2,.9l-.21.24-.24-.2a2.6,2.6,0,0,0-.5-.32,5.61,5.61,0,0,0-2.7-.21,10.72,10.72,0,0,1-1.2,0h-.24a2.59,2.59,0,0,0-2.07.92c-.86,1-.66,2.14-.44,3.46a33.12,33.12,0,0,1,.48,4.21l0,1.12-.64-.92a14.83,14.83,0,0,0-2.58-2.89c-1.38-1.2-1.41-2-1.43-2.55A3.11,3.11,0,0,0,144,75a3.28,3.28,0,0,0-2.9-1.33l-.63,0h-.26a6.06,6.06,0,0,0-.62,0,2.76,2.76,0,0,0-2.27,1l-.3.38-.23-.43A2.93,2.93,0,0,0,135,73.27a6.73,6.73,0,0,0-1.55-.22c-.2,0-.48,0-.58,0l-.31-.07a6,6,0,0,0-1.42-.22,2.71,2.71,0,0,0-1.76.61l-.18.15-.2-.14a6.46,6.46,0,0,0-3.69-1c-2.42,0-5.28,1-8.52,3-1,.63-2,1.18-2.79,1.66s-1.91,1.12-2.78,1.71l-.29.19-.17-.3a2.18,2.18,0,0,0-.56-.67L110,77.7l.12-.24a2.42,2.42,0,0,0,.22-.62l.33-1.68a2.25,2.25,0,0,0-2.2-2.68l-4.9.09-.06,0a2.24,2.24,0,0,0-1.22-.2l-2.43.28a2.33,2.33,0,0,0-.36.08l-.13,0-.12-.07a2.27,2.27,0,0,0-1.17-.34l-2.19.09a2.25,2.25,0,0,0-2.16,2.25v6.88A2.25,2.25,0,0,0,96,83.78l2-.07a2.17,2.17,0,0,0,1.3-.48l.17-.13.18.11a2.23,2.23,0,0,0,.93.28l2.24.17a1.84,1.84,0,0,0,.47,0h4l-.08.39c-.06.27-.1.55-.14.84a6,6,0,0,0,.51,3.22l.15.29-.3.14a2.16,2.16,0,0,0-.65.43,39.57,39.57,0,0,1-5.87,4.77,2.25,2.25,0,0,0-1,2.53,2.27,2.27,0,0,0,2.16,1.62Z"/><path class="cls-2" d="M136.72,84.88a59.08,59.08,0,0,1-1.9-8.95c0-.77-1.49-.55-2.39-.73s-1.9-.58-1.72.37a10.41,10.41,0,0,1,0,4.15c-.84,3.87-3.83,7.83-6.12,15.65-.39,1.34.52,1.35,1.69,1.67s3.26.74,3.43-.77c.14-1.22.28-2.35.44-3.41a14.3,14.3,0,0,1,5.23-4.66,48.15,48.15,0,0,0,0,8.49c.25,1.78,1.65-.21,2.33-.49,1.26-.55,1.76-.85,1.76-1.75C139.53,91.82,137.6,87.74,136.72,84.88Zm-5.83,3.93c1.49-7.54,3.2-9.44,3.2-9.44a16.58,16.58,0,0,1,1.38,7.53A13.88,13.88,0,0,0,130.89,88.81Z"/><path class="cls-2" d="M168.05,80.94a3.8,3.8,0,0,1,1.68,2.1c-2.12.85-3.87,1.65-5.3,2.38-.1-.25-.21-.5-.32-.76-1.31-3.13-2.41-5.19-2.53-6.71s1-1.8-1.39-2.16c-.94-.15-2.54-1.07-2.36-.1a25.89,25.89,0,0,1-.49,6.81c-1.15,4.17-2.2,7.73-3.37,12.4-.35,1.4.09,2.42,2.29,3,1.2.34,2.05.9,1.91-.92a34.64,34.64,0,0,1,0-3.68,57,57,0,0,1,4.42-4.84,32.25,32.25,0,0,0,1,8.66c.45,1.53,1.73,0,2.42-.33,1.3-.55,2.11-1.21,2-2.13-.23-1.56-1.39-4.17-3.11-8.24a14.47,14.47,0,0,1,5-2.82,6.06,6.06,0,0,1-.23,2.84,12.43,12.43,0,0,1,5.08-4.3A15.9,15.9,0,0,1,168.05,80.94Zm-9.58,8.55a65.76,65.76,0,0,1,2.11-10c1.44,2,1.78,4.35,1.91,7A17.83,17.83,0,0,0,158.47,89.49Z"/><path class="cls-2" d="M118,77.19c-5.7,3.51-8.27,4.23-8.71,8-.47,4,5.08,5.44,7.41,3,6.65-7,9.43-6.55,4.55,1.3-3,4.86-10.42,4.17-13.1,3.74a19.72,19.72,0,0,1,.18-2.6,41.7,41.7,0,0,1-6.24,5.05c3.83,0,7,2.88,7,2.88a9,9,0,0,1-.64-2c2.85.56,10.89,1.63,14.33-3.1a31.79,31.79,0,0,0,4.32-8.58c.85-2.77-1.72-6.89-9.58,1.27-1.53,1.59-4.08,1.79-3.34-2.11.65-3.37,4.84-4.58,6.74-5.44,3.71-1.68,2.6.44,2.6,1s-.42,1.11.43.8c.63-.24,3.06-1,4.24-1.4a.9.9,0,0,0,.64-.88v-.86C129,75.18,125.85,72.34,118,77.19Z"/><path class="cls-2" d="M151.07,75.69c.76.09,2.83-.19,3.24,0s1.26,2.52.19,7c-.47,2-1.74,6.13-1.67,9.52s0,6.17-.59,5.81c-1.25-.73-2.47-.36-3.2-.77S148,82.2,142.41,80.72c0,0,2.32,4.48,1.87,16.35-.09,1.13-.68.77-1.81.73s-2,1-2.13-.59,1.32-7.48-.4-13.37a24.8,24.8,0,0,1-1-7.56c.14-.58.91-.3,1.45-.33s1.4-.13,1.72.33-.53,2.31,2.31,4.76c3.89,3.37,5,8.35,6.26,14.14-.86-5.74.77-8.91.62-13C151.12,77.23,150,75.68,151.07,75.69Z"/><polygon class="cls-2" points="95.97 74.65 98.07 74.56 97.87 81.47 95.97 81.53 95.97 74.65"/><polygon class="cls-2" points="100.11 74.84 102.54 74.56 97.02 80.6 97.02 78.51 100.11 74.84"/><polygon class="cls-2" points="100.7 81.25 102.94 81.43 99.61 76.94 98.59 78.18 100.7 81.25"/><polygon class="cls-2" points="108.8 79.62 105.4 80.17 105.24 78.76 107.4 78.76 107.06 77.58 105.1 77.58 104.94 76.18 108.13 76.4 108.46 74.73 103.07 74.82 103.53 81.43 108.92 81.43 108.8 79.62"/></g></svg>