<svg xmlns="http://www.w3.org/2000/svg" viewBox="0 0 165.95 93.07"><defs><style>.cls-1{fill:#66ba46;}.cls-2{fill:#fff256;}.cls-3{fill:#231f20;}.cls-4{fill:none;}.cls-5{fill:#d4268c;}.cls-6{fill:#fff;}</style></defs><g id="Layer_1" data-name="Layer 1"><path class="cls-1" d="M74.22,93.07H8.14A8.15,8.15,0,0,1,0,84.93V44.4a8.15,8.15,0,0,1,8.14-8.14H74.22a8.15,8.15,0,0,1,8.14,8.14V84.93A8.15,8.15,0,0,1,74.22,93.07ZM8.14,36.94A7.47,7.47,0,0,0,.68,44.4V84.93a7.47,7.47,0,0,0,7.46,7.46H74.22a7.47,7.47,0,0,0,7.46-7.46V44.4a7.47,7.47,0,0,0-7.46-7.46Z"/><path class="cls-1" d="M28.68,52.76h1.79a1.94,1.94,0,0,1,1.17.3,1.1,1.1,0,0,1,.4.9.87.87,0,0,1-.18.56,1.23,1.23,0,0,1-.49.36,1.27,1.27,0,0,1,.62.39,1,1,0,0,1,.23.68,1.14,1.14,0,0,1-.43,1,2.16,2.16,0,0,1-1.31.33h-1.8Zm.85.71v1.11h.82a1,1,0,0,0,.58-.14.49.49,0,0,0,.21-.42A.5.5,0,0,0,31,53.6a.76.76,0,0,0-.51-.13Zm0,3.07h.89a1.16,1.16,0,0,0,.65-.15.53.53,0,0,0,.22-.48.52.52,0,0,0-.21-.49,1.14,1.14,0,0,0-.64-.16h-.91Z"/><path class="cls-1" d="M32.33,57.26l1.7-4.5h1l1.64,4.5h-.91l-.43-1.2H33.62l-.43,1.2Zm2.15-3.58-.61,1.66h1.2Z"/><path class="cls-1" d="M40.83,52.76v4.5H40V55.34H38v1.92h-.86v-4.5H38v1.85h2V52.76Z"/><path class="cls-1" d="M41.26,57.26,43,52.76h1l1.64,4.5h-.92l-.42-1.2H42.55l-.44,1.2Zm2.15-3.58-.61,1.66H44Z"/><path class="cls-1" d="M47.56,57.33a2.08,2.08,0,0,1-1.38-.41,1.72,1.72,0,0,1-.6-1.12h.89a1,1,0,0,0,.32.62,1.18,1.18,0,0,0,.73.19,1,1,0,0,0,.63-.17.56.56,0,0,0,.23-.47.42.42,0,0,0-.33-.41,5.31,5.31,0,0,0-.79-.2,5.73,5.73,0,0,1-.56-.14,1.77,1.77,0,0,1-.5-.23,1,1,0,0,1-.36-.36,1.08,1.08,0,0,1-.14-.56,1.39,1.39,0,0,1,.12-.57,1.36,1.36,0,0,1,.35-.44,1.69,1.69,0,0,1,.53-.29,2,2,0,0,1,.67-.1,2,2,0,0,1,1.28.39,1.67,1.67,0,0,1,.57,1.13h-.88a.83.83,0,0,0-.3-.61,1.06,1.06,0,0,0-.68-.19.88.88,0,0,0-.59.17.55.55,0,0,0-.22.45.38.38,0,0,0,.1.26.68.68,0,0,0,.26.16,3,3,0,0,0,.38.1l.44.09.55.13a1.76,1.76,0,0,1,.48.22,1.09,1.09,0,0,1,.34.37,1.06,1.06,0,0,1,.14.56,1.31,1.31,0,0,1-.45,1A1.81,1.81,0,0,1,47.56,57.33Z"/><path class="cls-1" d="M49.33,57.26l1.7-4.5h1l1.64,4.5h-.92l-.42-1.2H50.62l-.43,1.2Zm2.15-3.58-.61,1.66h1.2Z"/><path class="cls-1" d="M25.47,59.53V64h-.86v-4.5Z"/><path class="cls-1" d="M27.16,59.53l2,3v-3H30V64h-.82L27,60.75V64h-.82v-4.5Z"/><path class="cls-1" d="M30.64,64v-4.5H32.3a2.31,2.31,0,0,1,1.66.58,2.25,2.25,0,0,1,.59,1.69,2.17,2.17,0,0,1-.61,1.66,2.41,2.41,0,0,1-1.7.57Zm.87-3.78v3.06h.74a1.4,1.4,0,0,0,1.06-.37,1.63,1.63,0,0,0,.35-1.13v0a1.65,1.65,0,0,0-.34-1.15,1.33,1.33,0,0,0-1-.37Z"/><path class="cls-1" d="M37.15,64.12a2.37,2.37,0,0,1-.9-.17,2,2,0,0,1-.7-.48,2,2,0,0,1-.44-.74,2.63,2.63,0,0,1-.16-.95,2.67,2.67,0,0,1,.16-1,2.15,2.15,0,0,1,.45-.73,1.94,1.94,0,0,1,.71-.48,2.32,2.32,0,0,1,.92-.18,2.4,2.4,0,0,1,.9.17,2.29,2.29,0,0,1,.7.48,2.11,2.11,0,0,1,.44.74,2.67,2.67,0,0,1,.16,1,2.63,2.63,0,0,1-.16.95,2.19,2.19,0,0,1-.45.74,2.22,2.22,0,0,1-.71.48A2.51,2.51,0,0,1,37.15,64.12Zm0-.75a1.23,1.23,0,0,0,1-.41,1.73,1.73,0,0,0,.36-1.16v0a1.75,1.75,0,0,0-.35-1.15,1.22,1.22,0,0,0-1-.41,1.2,1.2,0,0,0-1,.41,1.69,1.69,0,0,0-.36,1.15v0A1.77,1.77,0,0,0,36.2,63,1.2,1.2,0,0,0,37.16,63.37Z"/><path class="cls-1" d="M40.9,59.53l2,3v-3h.81V64h-.82l-2.15-3.28V64h-.81v-4.5Z"/><path class="cls-1" d="M46.84,61.35v.74H45.23v1.2h2.49V64H44.39v-4.5h3.26v.74H45.23v1.08Z"/><path class="cls-1" d="M49.92,64.11a2.12,2.12,0,0,1-1.38-.41,1.75,1.75,0,0,1-.6-1.12h.89a1,1,0,0,0,.33.62,1.13,1.13,0,0,0,.72.19,1,1,0,0,0,.63-.17.56.56,0,0,0,.23-.47.42.42,0,0,0-.33-.41,4.31,4.31,0,0,0-.79-.2L49.06,62a2.3,2.3,0,0,1-.5-.23,1.16,1.16,0,0,1-.36-.37,1,1,0,0,1-.14-.55,1.33,1.33,0,0,1,.47-1,1.69,1.69,0,0,1,.53-.29,2.09,2.09,0,0,1,.67-.11,2,2,0,0,1,1.28.4A1.67,1.67,0,0,1,51.58,61H50.7a.86.86,0,0,0-.29-.6,1.11,1.11,0,0,0-.69-.2,1,1,0,0,0-.59.17.58.58,0,0,0-.22.46.4.4,0,0,0,.1.26,1,1,0,0,0,.26.16,3,3,0,0,0,.38.1l.44.09a4.9,4.9,0,0,1,.55.13,1.51,1.51,0,0,1,.48.22,1,1,0,0,1,.48.93,1.29,1.29,0,0,1-.45,1A1.77,1.77,0,0,1,49.92,64.11Z"/><path class="cls-1" d="M53,59.53V64h-.86v-4.5Z"/><path class="cls-1" d="M53.43,64l1.69-4.5h1L57.75,64h-.92l-.43-1.2H54.72L54.28,64Zm2.15-3.58L55,62.12h1.2Z"/><path class="cls-1" d="M8.32,67.07v.73H6.71V69H9.2v.74H5.87v-4.5H9.13V66H6.71v1.08Z"/><path class="cls-1" d="M10.71,65.25l2,3v-3h.82v4.5H12.7l-2.15-3.29v3.29H9.74v-4.5Z"/><path class="cls-1" d="M17.41,69.75v-.62a1.33,1.33,0,0,1-.53.52,1.5,1.5,0,0,1-.78.19,2.24,2.24,0,0,1-.84-.16,1.88,1.88,0,0,1-.65-.46,2,2,0,0,1-.41-.71,2.85,2.85,0,0,1-.15-.94,3.13,3.13,0,0,1,.16-1,2.29,2.29,0,0,1,.45-.76,1.83,1.83,0,0,1,.68-.48,2.23,2.23,0,0,1,.88-.17,2,2,0,0,1,1.3.41,1.75,1.75,0,0,1,.64,1.18h-.89a1,1,0,0,0-.36-.62,1.16,1.16,0,0,0-.7-.2,1.14,1.14,0,0,0-.92.43,1.75,1.75,0,0,0-.36,1.18v.07a1.6,1.6,0,0,0,.35,1.09,1.19,1.19,0,0,0,.94.39,1.21,1.21,0,0,0,.72-.23.92.92,0,0,0,.35-.64h-1v-.71h1.87v2.24Z"/><path class="cls-1" d="M19.1,67.85v-.66H64.52l-1.36-1.3.5-.44,2.07,2.06-2.07,2.08-.51-.46,1.37-1.28Z"/><path class="cls-1" d="M67.57,65.25v4.5H66.7v-4.5Z"/><path class="cls-1" d="M68.28,69.75v-4.5h1.65a2.27,2.27,0,0,1,1.66.58,2.24,2.24,0,0,1,.6,1.68,2.15,2.15,0,0,1-.62,1.66,2.34,2.34,0,0,1-1.7.58ZM69.14,66V69h.74a1.38,1.38,0,0,0,1.06-.37,1.6,1.6,0,0,0,.35-1.13v0A1.7,1.7,0,0,0,71,66.34a1.33,1.33,0,0,0-1-.37Z"/><path class="cls-1" d="M73.68,65.25l2,3v-3h.81v4.5h-.82l-2.15-3.29v3.29h-.81v-4.5Z"/><path class="cls-1" d="M73,81.58h0l-2.76-2.77a.48.48,0,0,0-.68,0,.47.47,0,0,0-.14.33.48.48,0,0,0,.14.34l2,2H67.18a.48.48,0,0,0,0,1h4.34l-2,2a.48.48,0,0,0,.68.68L73,82.25l0,0a.47.47,0,0,0,.11-.25.27.27,0,0,0,0-.09h0a.43.43,0,0,0-.13-.3Z"/><path class="cls-1" d="M68.15,87.38H62.84a1.54,1.54,0,0,1-1.54-1.54V78a1.54,1.54,0,0,1,1.54-1.54h5.31A1.54,1.54,0,0,1,69.69,78h.36a1.91,1.91,0,0,0-1.9-1.9H62.84a1.91,1.91,0,0,0-1.9,1.9v7.86a1.91,1.91,0,0,0,1.9,1.9h5.31a1.9,1.9,0,0,0,1.9-1.9h-.36A1.54,1.54,0,0,1,68.15,87.38Z"/><path class="cls-1" d="M28,87.39H9.54v-11H32.75l.44-.34H9.2V87.73H28.6Z"/><path class="cls-1" d="M35.85,76.43H49.13v11H32.79a1.59,1.59,0,0,0,.27.25l.19.09H49.46V76.09H36.22C36.1,76.19,36,76.31,35.85,76.43Z"/><path class="cls-1" d="M37.15,74.78l-.89.22c-1.35.33-1.52.46-1.72.68S30,79.2,28.87,79.93s-2.33,1.4-2.51,1.51h-9.1a20.53,20.53,0,0,0-2.13.12,12.33,12.33,0,0,0-1.89.43,3,3,0,0,0-1.27.75c-.14.06-.59.29-.59.67s.87.79,1.42,1a18.54,18.54,0,0,0,3.34.43h8.38c.41.19,1.42.79,2.49,1.42s2.12,1.25,2.77,1.58a7.83,7.83,0,0,0,3.46,1,3.71,3.71,0,0,0,.67-.06l.93-.18-.94-.15a3.92,3.92,0,0,1-1.11-.36,25.44,25.44,0,0,1-2.31-2.63l-.19-.23a3.54,3.54,0,0,1,.52-.43h6.35a36.38,36.38,0,0,0,6-1l1.82.65,1.61-.08-1.06-1.13.74-.19.12,0v-.85l-.15,0-.67-.07,1.91-2H46l-.79.46,1.16-3.08h-.22a7.56,7.56,0,0,0-1.26,0l-.07,0s-3.66,3.55-4,3.87a1.17,1.17,0,0,1-.3.19c-.8-.06-1.49-.08-2.11-.08H31.23l0,0c.25-.32,3.59-4.63,4.11-5.18a6.71,6.71,0,0,1,1-.91ZM31,81.2l-.1.23H27c.54-.31,1.36-.79,2-1.22,1.05-.68,5.58-4.12,5.75-4.31s.17-.19.78-.37c-.14.13-.3.28-.46.45C34.56,76.56,31.12,81,31,81.2Zm14.91-3.47L44.27,82l-3.36-.31a.6.6,0,0,0,.08-.08c.36-.31,3.62-3.46,4-3.85A8.38,8.38,0,0,1,45.88,77.73ZM45,81l1.07-.62h.66L45.18,82,44.64,82Zm-4.85.93h0l4.35.4,0,0,.79.09h0l.78.09v.28L45.3,83,45,82.58l-4,.41,1.67.59a32.3,32.3,0,0,1-5.43.88H30.78a52.89,52.89,0,0,0-5.52-.72c-.7,0-1.11.12-1.26.38a.44.44,0,0,0-.06.17v0a.3.3,0,0,0,0,.1v0H16.14A18.92,18.92,0,0,1,12.9,84a2.58,2.58,0,0,1-1.19-.63c0-.16.29-.32.42-.37l.06,0a2.71,2.71,0,0,1,1.15-.69,11.28,11.28,0,0,1,1.84-.41c.95-.12,2.07-.13,2.08-.13h21.1c.53,0,1.12,0,1.8.07Zm5.73,2.13-.81,0-1.8-.64h0l-.77-.28,2.37-.23Zm-16,1.15v.11l.06.06.23.29a20.32,20.32,0,0,0,2.41,2.7l.2.1a8.72,8.72,0,0,1-2.89-1c-.64-.33-1.71-1-2.75-1.57S25,84.65,24.62,84.47l-.34-.15a0,0,0,0,1,0,0s.17-.21,1-.21a49.44,49.44,0,0,1,5.07.64C30.07,84.93,29.94,85.09,29.92,85.21Z"/><g id="path50"><path class="cls-1" d="M50.85,44.53a1.76,1.76,0,1,1,1.76,1.7,1.67,1.67,0,0,1-1.76-1.7Zm2.53,0a.76.76,0,1,0-1.52,0,.75.75,0,0,0,.76.81A.74.74,0,0,0,53.38,44.53Zm-3.19-.78a.86.86,0,0,1,.09.42,1.24,1.24,0,0,1-.49.95,1.26,1.26,0,0,1,.66,1.14c0,.85-.69,1.42-1.74,1.42S47,47.12,47,46.26a1.28,1.28,0,0,1,.66-1.14,1.24,1.24,0,0,1-.49-.95,1.35,1.35,0,0,1,1.52-1.29c.55,0,.71.09,1,.09a1.06,1.06,0,0,0,.6-.16.42.42,0,0,1,.21-.06c.13,0,.19.12.19.27a.71.71,0,0,1-.49.73Zm-.71,2.48a.67.67,0,0,0-.76-.65.66.66,0,0,0-.75.65.77.77,0,0,0,1.51,0Zm-1.37-2a.61.61,0,0,0,1.22,0,.61.61,0,0,0-1.22,0Zm-1.59.37v1.18c0,.23-.09.32-.33.32h-.33c-.25,0-.34-.09-.34-.32V44.63a1,1,0,0,0-.15-.64.59.59,0,0,0-.5-.21.67.67,0,0,0-.52.21,1,1,0,0,0-.19.63v1.15c0,.24-.1.33-.33.33H43.5c-.23,0-.33-.09-.33-.33V43.12c0-.15.07-.21.19-.21a.8.8,0,0,1,.58.41A1.47,1.47,0,0,1,45,42.85a1.49,1.49,0,0,1,1.13.45A1.82,1.82,0,0,1,46.52,44.6Zm-5.17-2.67a.55.55,0,0,1,.55-.54h0a.54.54,0,0,1,.5.57.54.54,0,0,1-.57.5A.52.52,0,0,1,41.35,41.93Zm.07,3.85V43.29c0-.22.08-.33.33-.33h.33c.25,0,.33.1.33.33v2.49c0,.23-.08.32-.33.32h-.33C41.5,46.1,41.42,46,41.42,45.78Zm-1.75,0V42.66c0-.79.43-1.23.8-1.23.11,0,.19.08.19.22v4.13c0,.24-.09.32-.33.32H40C39.77,46.1,39.67,46,39.67,45.78Zm-4.09-1.25a1.76,1.76,0,1,1,1.76,1.7A1.67,1.67,0,0,1,35.58,44.53Zm2.52,0a.76.76,0,1,0-.76.81A.75.75,0,0,0,38.1,44.53Zm-3-1.24v2.65c0,.16-.08.22-.19.22a.79.79,0,0,1-.58-.41,1.31,1.31,0,0,1-1,.47,1.43,1.43,0,0,1-1-.38,1.79,1.79,0,0,1-.46-1.34V43.29c0-.22.09-.33.34-.33h.33c.24,0,.33.1.33.33v1.12a.94.94,0,0,0,.19.71.6.6,0,0,0,.44.17.67.67,0,0,0,.48-.2,1,1,0,0,0,.18-.66V43.29c0-.23.11-.33.34-.33h.33C35,43,35.07,43.06,35.07,43.29Zm-4-1.64v4.29c0,.16-.07.22-.19.22a.78.78,0,0,1-.57-.4,1.53,1.53,0,0,1-1.13.47,1.7,1.7,0,0,1,0-3.39,1.67,1.67,0,0,1,.91.27v-.45c0-.79.44-1.23.8-1.23C31,41.43,31.09,41.51,31.09,41.65Zm-1,2.88a.77.77,0,1,0-.77.81A.75.75,0,0,0,30.11,44.53Z"/></g><path class="cls-1" d="M4.15,44.8v-.1a.1.1,0,0,1,0-.09.12.12,0,0,1,.09,0h.36a.14.14,0,0,1,.13.13v.1a.72.72,0,0,0,.06.29,1.08,1.08,0,0,0,.18.24,1.17,1.17,0,0,0,.27.15.88.88,0,0,0,.33.06A.9.9,0,0,0,6,45.48a.92.92,0,0,0,.27-.16.68.68,0,0,0,.18-.23.72.72,0,0,0,.06-.29.74.74,0,0,0-.08-.36.69.69,0,0,0-.22-.23,1.42,1.42,0,0,0-.35-.14L5.36,44a1.81,1.81,0,0,1-.43-.15,1.33,1.33,0,0,1-.35-.26,1.09,1.09,0,0,1-.22-.36,1.21,1.21,0,0,1-.08-.48,1.13,1.13,0,0,1,.11-.52,1.26,1.26,0,0,1,.3-.38,1.4,1.4,0,0,1,.43-.24,1.62,1.62,0,0,1,.49-.08,1.37,1.37,0,0,1,.54.1,1.29,1.29,0,0,1,.42.26,1.13,1.13,0,0,1,.39.86v.09a.18.18,0,0,1,0,.09.13.13,0,0,1-.1,0H6.46a.12.12,0,0,1-.09,0,.15.15,0,0,1,0-.09v-.08a.58.58,0,0,0-.06-.28.52.52,0,0,0-.17-.19.7.7,0,0,0-.23-.11,1.15,1.15,0,0,0-.26,0,.76.76,0,0,0-.51.16.53.53,0,0,0-.2.45.59.59,0,0,0,.09.34.91.91,0,0,0,.24.2,1.52,1.52,0,0,0,.32.12l.33.07a1.81,1.81,0,0,1,.87.46,1.19,1.19,0,0,1,.33.89,1.16,1.16,0,0,1-.13.56,1.33,1.33,0,0,1-.79.7,1.72,1.72,0,0,1-.55.1A1.62,1.62,0,0,1,5,46.05a1.44,1.44,0,0,1-.46-.29,1.52,1.52,0,0,1-.31-.44A1.27,1.27,0,0,1,4.15,44.8Z"/><path class="cls-1" d="M7.61,43.34V43a.12.12,0,0,1,0-.09.1.1,0,0,1,.09,0H8.2a.05.05,0,0,0,.06-.06v-1a.14.14,0,0,1,.13-.13h.32a.13.13,0,0,1,.1,0,.18.18,0,0,1,0,.09v1a.05.05,0,0,0,.06.06h.75a.14.14,0,0,1,.13.13v.33a.12.12,0,0,1,0,.09.13.13,0,0,1-.09,0H8.91a.05.05,0,0,0-.06.06v1.54a.47.47,0,0,0,.11.34.5.5,0,0,0,.41.13h.36a.14.14,0,0,1,.13.13V46a.18.18,0,0,1,0,.09.16.16,0,0,1-.09,0H9.37a1.26,1.26,0,0,1-.81-.24,1,1,0,0,1-.3-.79V43.53a.05.05,0,0,0-.06-.06H7.74a.13.13,0,0,1-.09,0A.12.12,0,0,1,7.61,43.34Z"/><path class="cls-1" d="M10.46,45.13a1,1,0,0,1,.08-.38.83.83,0,0,1,.2-.32,1.08,1.08,0,0,1,.34-.21,1.14,1.14,0,0,1,.46-.08h.8s.06,0,.06-.07v-.25a.45.45,0,0,0-.16-.39.68.68,0,0,0-.44-.13l-.19,0-.2.07a.34.34,0,0,0-.16.13.29.29,0,0,0-.06.19c0,.06,0,.09,0,.1h-.4a.12.12,0,0,1-.13-.13.77.77,0,0,1,.11-.4A1.07,1.07,0,0,1,11,43a1.19,1.19,0,0,1,.38-.17,1.52,1.52,0,0,1,.42-.06,1.36,1.36,0,0,1,.87.25.94.94,0,0,1,.32.79V46a.18.18,0,0,1,0,.1.16.16,0,0,1-.09,0h-.22a.13.13,0,0,1-.1,0,.26.26,0,0,1,0-.09.09.09,0,0,0-.08,0,.26.26,0,0,0-.1,0,1.16,1.16,0,0,1-.14.09l-.21.08a.93.93,0,0,1-.31,0,1.38,1.38,0,0,1-.52-.09,1.09,1.09,0,0,1-.38-.22.92.92,0,0,1-.21-.34A1,1,0,0,1,10.46,45.13Zm.59,0a.47.47,0,0,0,.15.37.62.62,0,0,0,.43.14.92.92,0,0,0,.64-.18.69.69,0,0,0,.18-.51v-.21c0-.05,0-.07-.06-.07h-.85a.5.5,0,0,0-.37.12A.45.45,0,0,0,11.05,45.13Z"/><path class="cls-1" d="M13.94,46V43a.13.13,0,0,1,0-.09.12.12,0,0,1,.09,0h.22c.07,0,.12,0,.13.13l0,.15s.05.08.09.08a.17.17,0,0,0,.12-.06,1.32,1.32,0,0,1,.16-.12,1.26,1.26,0,0,1,.26-.13,1.3,1.3,0,0,1,.43,0h.13a.12.12,0,0,1,.09,0,.13.13,0,0,1,0,.09v.32a.18.18,0,0,1,0,.09.12.12,0,0,1-.09,0h-.13a1.44,1.44,0,0,0-.37,0,.92.92,0,0,0-.31.17.79.79,0,0,0-.22.31,1.26,1.26,0,0,0-.08.46V46a.12.12,0,0,1-.13.12h-.33a.16.16,0,0,1-.09,0A.18.18,0,0,1,13.94,46Z"/><path class="cls-1" d="M16.26,43.34V43a.18.18,0,0,1,0-.09.12.12,0,0,1,.09,0h.46s.07,0,.07-.06v-1a.12.12,0,0,1,0-.09.1.1,0,0,1,.09,0h.32a.11.11,0,0,1,.09,0,.12.12,0,0,1,0,.09v1s0,.06.07.06h.75a.12.12,0,0,1,.09,0,.18.18,0,0,1,0,.09v.33a.14.14,0,0,1-.13.13h-.75s-.07,0-.07.06v1.54a.43.43,0,0,0,.52.47h.36a.13.13,0,0,1,.09,0,.12.12,0,0,1,0,.09V46a.12.12,0,0,1-.13.12H18a1.26,1.26,0,0,1-.81-.24,1,1,0,0,1-.29-.79V43.53s0-.06-.07-.06h-.46a.14.14,0,0,1-.13-.13Z"/><path class="cls-1" d="M19.06,44.48c0-.18,0-.33,0-.46a1.31,1.31,0,0,1,.12-.48,1.13,1.13,0,0,1,.27-.4,1.15,1.15,0,0,1,.41-.26,1.29,1.29,0,0,1,.53-.1,1.3,1.3,0,0,1,.94.35,1.26,1.26,0,0,1,.36.95v.45a.13.13,0,0,1,0,.09.12.12,0,0,1-.09,0H19.72a.06.06,0,0,0-.07.07.86.86,0,0,0,.21.65.73.73,0,0,0,.55.2.83.83,0,0,0,.43-.11.58.58,0,0,0,.24-.3.15.15,0,0,1,.06-.09l.09,0h.32a.12.12,0,0,1,.09,0,.1.1,0,0,1,0,.1,1,1,0,0,1-.13.4,1.14,1.14,0,0,1-.27.31,1.52,1.52,0,0,1-.38.2,1.78,1.78,0,0,1-.47.07,1.29,1.29,0,0,1-.53-.1,1.15,1.15,0,0,1-.41-.26,1.13,1.13,0,0,1-.27-.4,1.31,1.31,0,0,1-.12-.48C19.07,44.8,19.06,44.65,19.06,44.48Zm.6-.4s0,.06.07.06h1.36a.05.05,0,0,0,.06-.06.68.68,0,0,0-.21-.53.81.81,0,0,0-.53-.18.77.77,0,0,0-.54.2A.69.69,0,0,0,19.66,44.08Z"/><path class="cls-1" d="M22.46,44.48c0-.18,0-.33,0-.46a1.31,1.31,0,0,1,.12-.48,1.11,1.11,0,0,1,.26-.4,1.22,1.22,0,0,1,.38-.26,1.07,1.07,0,0,1,.47-.1.66.66,0,0,1,.21,0l.16,0,.13.06a.23.23,0,0,0,.11,0,.16.16,0,0,0,.11,0,.23.23,0,0,0,0-.13V41.63a.13.13,0,0,1,0-.09.13.13,0,0,1,.1,0h.32a.12.12,0,0,1,.09,0,.1.1,0,0,1,0,.09V46a.13.13,0,0,1,0,.1.12.12,0,0,1-.09,0H24.7a.12.12,0,0,1-.09,0L24.54,46a.16.16,0,0,0-.09,0,.25.25,0,0,0-.13,0l-.13.07a.75.75,0,0,1-.18.08,1.26,1.26,0,0,1-.3,0,1.07,1.07,0,0,1-.47-.1,1.22,1.22,0,0,1-.38-.26,1.11,1.11,0,0,1-.26-.4,1.31,1.31,0,0,1-.12-.48C22.47,44.8,22.46,44.65,22.46,44.48Zm.56,0c0,.16,0,.32,0,.45a.7.7,0,0,0,.21.46.73.73,0,0,0,.54.19.7.7,0,0,0,.53-.19.71.71,0,0,0,.22-.46c0-.13,0-.29,0-.45s0-.33,0-.46a.71.71,0,0,0-.22-.46.7.7,0,0,0-.53-.19.72.72,0,0,0-.53.19A.67.67,0,0,0,23,44C23,44.15,23,44.31,23,44.48Z"/><path class="cls-1" d="M57.22,46V41.63a.14.14,0,0,1,.13-.13h.32a.14.14,0,0,1,.13.13V46a.13.13,0,0,1,0,.1.12.12,0,0,1-.09,0h-.32a.12.12,0,0,1-.09,0A.13.13,0,0,1,57.22,46Z"/><path class="cls-1" d="M58.68,44.48c0-.18,0-.33,0-.46a1.31,1.31,0,0,1,.12-.48,1.15,1.15,0,0,1,.28-.4,1.2,1.2,0,0,1,.4-.26,1.46,1.46,0,0,1,1.48.25,1.29,1.29,0,0,1,.35.95v.45a.14.14,0,0,1-.13.13H59.33s-.06,0-.07.07a.86.86,0,0,0,.21.65.76.76,0,0,0,.55.2.87.87,0,0,0,.44-.11.58.58,0,0,0,.24-.3.15.15,0,0,1,.06-.09l.08,0h.33a.16.16,0,0,1,.09,0,.1.1,0,0,1,0,.1,1.25,1.25,0,0,1-.13.4,1.14,1.14,0,0,1-.27.31,1.43,1.43,0,0,1-.39.2,1.72,1.72,0,0,1-.47.07,1.32,1.32,0,0,1-.53-.1,1.2,1.2,0,0,1-.4-.26,1.15,1.15,0,0,1-.28-.4,1.31,1.31,0,0,1-.12-.48C58.68,44.8,58.68,44.65,58.68,44.48Zm.6-.4a.05.05,0,0,0,.06.06H60.7s.07,0,.07-.06a.68.68,0,0,0-.22-.53.78.78,0,0,0-.52-.18.73.73,0,0,0-.54.2A.69.69,0,0,0,59.28,44.08Z"/><path class="cls-1" d="M62,45.13V45a.12.12,0,0,1,0-.09.11.11,0,0,1,.09,0h.33a.12.12,0,0,1,.09,0,.18.18,0,0,1,0,.09v.09a.36.36,0,0,0,.07.24.39.39,0,0,0,.17.14.58.58,0,0,0,.22.08l.24,0,.26,0a.53.53,0,0,0,.22-.08.36.36,0,0,0,.16-.14.43.43,0,0,0,.06-.24A.24.24,0,0,0,64,45a.61.61,0,0,0-.15-.12,1,1,0,0,0-.22-.07l-.27-.06-.41-.1a1,1,0,0,1-.38-.16.75.75,0,0,1-.28-.28.82.82,0,0,1-.11-.44.77.77,0,0,1,.1-.4,1.27,1.27,0,0,1,.27-.3,1.11,1.11,0,0,1,.38-.18,1.25,1.25,0,0,1,.43-.07,1.31,1.31,0,0,1,.44.07,1,1,0,0,1,.38.19,1,1,0,0,1,.27.31.8.8,0,0,1,.1.41.14.14,0,0,1-.13.13h-.32a.1.1,0,0,1-.09,0,.12.12,0,0,1,0-.09.38.38,0,0,0-.14-.29.68.68,0,0,0-.47-.13.66.66,0,0,0-.44.12.35.35,0,0,0-.13.26.28.28,0,0,0,.16.27,1.83,1.83,0,0,0,.41.12l.43.09a1.52,1.52,0,0,1,.42.16.84.84,0,0,1,.31.28.91.91,0,0,1,.12.49,1,1,0,0,1-.1.46,1,1,0,0,1-.28.32,1.18,1.18,0,0,1-.41.19,1.61,1.61,0,0,1-.49.07,1.91,1.91,0,0,1-.48-.06,1.18,1.18,0,0,1-.41-.19.85.85,0,0,1-.29-.33A1,1,0,0,1,62,45.13Z"/><path class="cls-1" d="M65.27,45.13V45a.14.14,0,0,1,.13-.13h.33a.12.12,0,0,1,.09,0,.18.18,0,0,1,0,.09v.09a.36.36,0,0,0,.07.24.39.39,0,0,0,.17.14.57.57,0,0,0,.23.08l.23,0,.26,0a.53.53,0,0,0,.22-.08.36.36,0,0,0,.16-.14.43.43,0,0,0,.06-.24A.24.24,0,0,0,67.2,45a.38.38,0,0,0-.15-.12,1,1,0,0,0-.22-.07l-.27-.06-.41-.1a1,1,0,0,1-.38-.16.75.75,0,0,1-.28-.28.82.82,0,0,1-.11-.44.77.77,0,0,1,.1-.4,1.27,1.27,0,0,1,.27-.3,1.21,1.21,0,0,1,.38-.18,1.25,1.25,0,0,1,.43-.07,1.41,1.41,0,0,1,.45.07,1,1,0,0,1,.38.19,1,1,0,0,1,.26.31.8.8,0,0,1,.1.41.14.14,0,0,1-.13.13H67.3a.1.1,0,0,1-.09,0,.12.12,0,0,1,0-.09.38.38,0,0,0-.14-.29.68.68,0,0,0-.47-.13.66.66,0,0,0-.44.12.35.35,0,0,0-.13.26.28.28,0,0,0,.16.27,2,2,0,0,0,.41.12l.43.09a1.31,1.31,0,0,1,.42.16.84.84,0,0,1,.31.28.91.91,0,0,1,.12.49,1,1,0,0,1-.1.46,1,1,0,0,1-.28.32,1.18,1.18,0,0,1-.41.19,1.61,1.61,0,0,1-.49.07,2,2,0,0,1-.48-.06,1.18,1.18,0,0,1-.41-.19.94.94,0,0,1-.29-.33A1,1,0,0,1,65.27,45.13Z"/><path class="cls-1" d="M68.56,44.48c0-.18,0-.33,0-.46a1.31,1.31,0,0,1,.12-.48,1.28,1.28,0,0,1,.27-.4,1.25,1.25,0,0,1,.41-.26,1.33,1.33,0,0,1,.54-.1,1.32,1.32,0,0,1,.53.1,1.25,1.25,0,0,1,.41.26,1.28,1.28,0,0,1,.27.4,1.31,1.31,0,0,1,.12.48c0,.13,0,.28,0,.46s0,.32,0,.45a1.31,1.31,0,0,1-.12.48,1.28,1.28,0,0,1-.27.4,1.25,1.25,0,0,1-.41.26,1.32,1.32,0,0,1-.53.1,1.33,1.33,0,0,1-.54-.1,1.25,1.25,0,0,1-.41-.26,1.28,1.28,0,0,1-.27-.4,1.31,1.31,0,0,1-.12-.48C68.56,44.8,68.56,44.65,68.56,44.48Zm.58,0c0,.16,0,.32,0,.45a.77.77,0,0,0,.22.46.73.73,0,0,0,.54.19.72.72,0,0,0,.53-.19.77.77,0,0,0,.22-.46c0-.13,0-.29,0-.45s0-.33,0-.46a.77.77,0,0,0-.22-.46.72.72,0,0,0-.53-.19.73.73,0,0,0-.54.19.77.77,0,0,0-.22.46C69.15,44.15,69.14,44.31,69.14,44.48Z"/><path class="cls-1" d="M72.11,46V43a.13.13,0,0,1,0-.09.13.13,0,0,1,.1,0h.28a.12.12,0,0,1,.09,0,.23.23,0,0,1,.07.07.18.18,0,0,0,.1,0,.21.21,0,0,0,.12,0l.12-.07a.75.75,0,0,1,.18-.08,1,1,0,0,1,.27,0,1.31,1.31,0,0,1,.5.09,1,1,0,0,1,.4.24,1.3,1.3,0,0,1,.25.39,1.46,1.46,0,0,1,.09.52V46a.13.13,0,0,1,0,.1.12.12,0,0,1-.09,0h-.32a.12.12,0,0,1-.09,0,.13.13,0,0,1,0-.1V44a.57.57,0,0,0-.21-.48.75.75,0,0,0-.51-.17.76.76,0,0,0-.51.16.55.55,0,0,0-.21.46v2a.13.13,0,0,1,0,.1.12.12,0,0,1-.09,0h-.32a.17.17,0,0,1-.1,0A.18.18,0,0,1,72.11,46Z"/><path class="cls-1" d="M75.49,45.13V45a.12.12,0,0,1,0-.09.09.09,0,0,1,.08,0h.33A.1.1,0,0,1,76,45a.12.12,0,0,1,0,.09v.09a.43.43,0,0,0,.07.24.46.46,0,0,0,.17.14.63.63,0,0,0,.23.08l.24,0,.25,0a.57.57,0,0,0,.23-.08.34.34,0,0,0,.15-.14.43.43,0,0,0,.06-.24.29.29,0,0,0,0-.17.61.61,0,0,0-.15-.12,1.14,1.14,0,0,0-.22-.07l-.27-.06-.41-.1a1.11,1.11,0,0,1-.39-.16.93.93,0,0,1-.28-.28.82.82,0,0,1-.1-.44.77.77,0,0,1,.1-.4A1,1,0,0,1,76,43a1.21,1.21,0,0,1,.38-.18,1.42,1.42,0,0,1,.88,0,1,1,0,0,1,.38.19,1,1,0,0,1,.27.31.8.8,0,0,1,.1.41.1.1,0,0,1,0,.09.12.12,0,0,1-.09,0h-.33a.12.12,0,0,1-.09,0,.18.18,0,0,1,0-.09.35.35,0,0,0-.14-.29.87.87,0,0,0-.9,0,.36.36,0,0,0-.14.26.28.28,0,0,0,.17.27,1.83,1.83,0,0,0,.41.12l.43.09a1.52,1.52,0,0,1,.42.16,1,1,0,0,1,.31.28.91.91,0,0,1,.12.49,1.11,1.11,0,0,1-.1.46,1,1,0,0,1-.29.32,1.11,1.11,0,0,1-.41.19,1.51,1.51,0,0,1-.48.07,1.86,1.86,0,0,1-.48-.06,1.11,1.11,0,0,1-.41-.19.95.95,0,0,1-.4-.79Z"/><path class="cls-2" d="M125.19,43.14l4.49-3.73a3.8,3.8,0,0,1,6.11,2l1.44,5.65a.93.93,0,0,0,1,.7l5.82-.38a3.8,3.8,0,0,1,3.78,5.2L145.63,58a.93.93,0,0,0,.37,1.13l4.93,3.12a3.8,3.8,0,0,1,0,6.42L146,71.78a.93.93,0,0,0-.37,1.13l2.16,5.42a3.8,3.8,0,0,1-3.78,5.2l-5.82-.38a.92.92,0,0,0-1,.69l-1.44,5.66a3.8,3.8,0,0,1-6.11,2l-4.49-3.73a.91.91,0,0,0-1.18,0l-4.49,3.73a3.81,3.81,0,0,1-6.12-2L112,83.84a.92.92,0,0,0-.95-.69l-5.83.38a3.8,3.8,0,0,1-3.78-5.2l2.16-5.42a.93.93,0,0,0-.36-1.13l-4.94-3.12a3.8,3.8,0,0,1,0-6.42l4.94-3.12a.93.93,0,0,0,.36-1.13l-2.16-5.42a3.8,3.8,0,0,1,3.78-5.2l5.83.38a.93.93,0,0,0,.95-.7l1.44-5.65a3.81,3.81,0,0,1,6.12-2L124,43.14A.93.93,0,0,0,125.19,43.14Z"/><path class="cls-3" d="M125.52,46.17a.66.66,0,0,1-.22.06.78.78,0,0,1-.22,0,.72.72,0,0,1-.19-.13.8.8,0,0,1-.15-.21.84.84,0,0,1-.09-.25.59.59,0,0,1,0-.23.5.5,0,0,1,.1-.19.65.65,0,0,1,.18-.15.66.66,0,0,1,.36-.07.49.49,0,0,1,.31.21l-.18.1a.31.31,0,0,0-.19-.13.35.35,0,0,0-.22,0,.32.32,0,0,0-.18.23.56.56,0,0,0,.07.34h0a.49.49,0,0,0,.24.25.28.28,0,0,0,.28,0,.34.34,0,0,0,.16-.15.28.28,0,0,0,0-.24l.19,0a.42.42,0,0,1,0,.35A.6.6,0,0,1,125.52,46.17Z"/><path class="cls-3" d="M126.84,45.16a1,1,0,0,1-.22.13.45.45,0,0,1-.23,0,.46.46,0,0,1-.21-.08.79.79,0,0,1-.2-.17,1,1,0,0,1-.13-.22.66.66,0,0,1,0-.23.79.79,0,0,1,.06-.22.63.63,0,0,1,.17-.2.88.88,0,0,1,.21-.12.57.57,0,0,1,.22,0,.58.58,0,0,1,.22.08.84.84,0,0,1,.2.18.71.71,0,0,1,.13.22.66.66,0,0,1,0,.23A.6.6,0,0,1,127,45,.7.7,0,0,1,126.84,45.16Zm-.11-.13a.34.34,0,0,0,.14-.28.48.48,0,0,0-.14-.32h0a.53.53,0,0,0-.29-.2.34.34,0,0,0-.3.09.35.35,0,0,0-.14.27.53.53,0,0,0,.14.32h0a.55.55,0,0,0,.3.2A.33.33,0,0,0,126.73,45Z"/><path class="cls-3" d="M128.39,43.84l-.14.11-1-.31-.15-.07.17.18.51.61-.14.11-.77-.93.17-.13,1,.3.17.08-.19-.18-.49-.58.14-.12Z"/><path class="cls-3" d="M129.45,43l-.24-.26,0,.08a.57.57,0,0,1,0,.14.52.52,0,0,1,0,.17.42.42,0,0,1-.12.16.48.48,0,0,1-.39.12.7.7,0,0,1-.41-.26,1,1,0,0,1-.14-.23.63.63,0,0,1,0-.23.54.54,0,0,1,0-.22.65.65,0,0,1,.15-.18.51.51,0,0,1,.29-.13.4.4,0,0,1,.28,0l-.11.17a.3.3,0,0,0-.17,0,.38.38,0,0,0-.18.09.32.32,0,0,0-.13.27.62.62,0,0,0,.14.33h0a.68.68,0,0,0,.12.12.46.46,0,0,0,.14.07.22.22,0,0,0,.14,0,.34.34,0,0,0,.15-.07.53.53,0,0,0,.1-.12.56.56,0,0,0,0-.12.33.33,0,0,0,0-.1v-.07l-.08-.08-.24.2-.11-.13.39-.32.41.5Z"/><path class="cls-3" d="M129.18,41.61l.37-.31a.54.54,0,0,1,.32-.15.27.27,0,0,1,.25.12l.06.09a.34.34,0,0,1,0,.12.39.39,0,0,1,0,.14.37.37,0,0,1-.1.14v0l.07-.05.08,0a.31.31,0,0,1,.21,0,.56.56,0,0,1,.21.18l0,0-.16.14,0-.05a.61.61,0,0,0-.23-.18.31.31,0,0,0-.18,0l-.06.05-.06.06-.1.08-.08,0,.31.38-.14.12Zm.7.19.11-.12a.14.14,0,0,0,0-.09.11.11,0,0,0,0-.08.24.24,0,0,0-.06-.09.2.2,0,0,0-.14-.08.35.35,0,0,0-.19.09l-.18.15-.07,0,.06,0,.24.28Z"/><path class="cls-3" d="M131.93,41.23l-.19.08-.22-.24-.48.21,0,.32-.18.08-.07-1.29.23-.09Zm-.55-.32-.31-.34-.12-.16,0,.19,0,.47,0,.06.06-.05.29-.13h.08Z"/><path class="cls-3" d="M132.44,41.37l-.18,0,.24-1,0-.08h-.1l-.29-.07,0-.17.93.24-.05.17-.29-.08-.08-.06h0v.09Z"/><path class="cls-3" d="M133.14,42a.56.56,0,0,1-.11-.36.46.46,0,0,1,.15-.31l.12.18a.25.25,0,0,0-.09.19.47.47,0,0,0,.07.22.27.27,0,0,0,.15.12.17.17,0,0,0,.14,0,.13.13,0,0,0,.05-.06.28.28,0,0,0,0-.09.52.52,0,0,0,0-.11.56.56,0,0,1,0-.12.57.57,0,0,1,0-.14.36.36,0,0,1,0-.14.28.28,0,0,1,0-.13.21.21,0,0,1,.1-.11.31.31,0,0,1,.13-.06h.14a.46.46,0,0,1,.14.07.58.58,0,0,1,.12.14.52.52,0,0,1,.1.32.45.45,0,0,1-.14.27l-.11-.16a.3.3,0,0,0,.08-.16.32.32,0,0,0-.07-.19.22.22,0,0,0-.14-.12.18.18,0,0,0-.14,0s0,0,0,.06a.28.28,0,0,0,0,.09.52.52,0,0,0,0,.11s0,.07,0,.11,0,.1,0,.15a.77.77,0,0,1,0,.15.28.28,0,0,1,0,.13.38.38,0,0,1-.1.12.39.39,0,0,1-.28.05A.5.5,0,0,1,133.14,42Z"/><path class="cls-3" d="M133.64,43.54a.6.6,0,0,1,0-.23.7.7,0,0,1,.08-.2.69.69,0,0,1,.41-.26.78.78,0,0,1,.26,0,.4.4,0,0,1,.22.06.46.46,0,0,1,.17.14.51.51,0,0,1,.1.21.49.49,0,0,1,0,.36.46.46,0,0,1-.27.26l-.05-.2a.38.38,0,0,0,.17-.16.33.33,0,0,0,0-.22.31.31,0,0,0-.18-.22.46.46,0,0,0-.35,0h0a.49.49,0,0,0-.29.17.31.31,0,0,0-.06.28.37.37,0,0,0,.12.2.32.32,0,0,0,.23,0V44a.53.53,0,0,1-.34-.11A.73.73,0,0,1,133.64,43.54Z"/><path class="cls-3" d="M134,45a.54.54,0,0,1,0-.25.6.6,0,0,1,.08-.21.46.46,0,0,1,.16-.15.88.88,0,0,1,.24-.11.78.78,0,0,1,.26,0,.71.71,0,0,1,.22.06.65.65,0,0,1,.18.15.54.54,0,0,1,.1.23.54.54,0,0,1,0,.25.49.49,0,0,1-.08.21.61.61,0,0,1-.16.16.64.64,0,0,1-.24.1.83.83,0,0,1-.26,0,.56.56,0,0,1-.23-.07.47.47,0,0,1-.17-.15A.54.54,0,0,1,134,45Zm.16,0a.32.32,0,0,0,.19.24.51.51,0,0,0,.35,0h0A.46.46,0,0,0,135,45a.34.34,0,0,0,.05-.3.32.32,0,0,0-.19-.24.51.51,0,0,0-.35,0h0a.55.55,0,0,0-.3.18A.37.37,0,0,0,134.18,45Z"/><path class="cls-3" d="M134.54,47l0-.17.72-.78.12-.11-.23.08-.77.2,0-.18,1.17-.3.05.21-.68.75-.16.11.25-.09.74-.19,0,.17Z"/><path class="cls-3" d="M134.89,48.31l.34-.1h-.09a.35.35,0,0,1-.14,0,.29.29,0,0,1-.14-.08.32.32,0,0,1-.1-.18.48.48,0,0,1,.06-.41.67.67,0,0,1,.41-.25.83.83,0,0,1,.27,0,.52.52,0,0,1,.22.07.39.39,0,0,1,.17.14.7.7,0,0,1,.11.21.57.57,0,0,1,0,.32.48.48,0,0,1-.17.23l-.11-.17a.27.27,0,0,0,.12-.14.34.34,0,0,0,0-.2.32.32,0,0,0-.19-.22.51.51,0,0,0-.35,0h0a.49.49,0,0,0-.17.06.36.36,0,0,0-.11.1.26.26,0,0,0-.06.13.43.43,0,0,0,0,.16.46.46,0,0,0,.07.14.38.38,0,0,0,.09.09l.09,0,.06,0,.11,0-.08-.3.16,0,.13.48-.63.16Z"/><path class="cls-3" d="M136.12,48.53l.27.41a.56.56,0,0,1,.11.34.27.27,0,0,1-.14.23.31.31,0,0,1-.1.05.25.25,0,0,1-.12,0,.25.25,0,0,1-.14,0,.36.36,0,0,1-.13-.12h0a.3.3,0,0,1,0,.08.32.32,0,0,1,0,.09.3.3,0,0,1,0,.2.93.93,0,0,1-.2.19h0l-.12-.17,0,0a.45.45,0,0,0,.21-.2.42.42,0,0,0,.06-.18l-.05-.06,0-.07-.08-.11,0-.09-.42.27-.1-.15Zm-.26.68.1.12a.23.23,0,0,0,.08.07h.09l.09,0a.22.22,0,0,0,.09-.14.25.25,0,0,0-.07-.19l-.12-.2,0-.07-.05.05-.31.2Z"/><path class="cls-3" d="M137.75,50.38h-.2l-.12-.31-.52,0-.1.31h-.21L137,49.2h.25Zm-.4-.49-.16-.43-.05-.2,0,.2-.14.44,0,.06.08,0h.31l.08,0Z"/><path class="cls-3" d="M138.53,50.31h-.19l-.07-1v-.09h0l-.09,0-.3,0v-.18l1-.06v.18l-.3,0-.09,0h0l0,.09Z"/><path class="cls-3" d="M139.76,50.26a.6.6,0,0,1-.37-.08.48.48,0,0,1-.2-.29h.22a.23.23,0,0,0,.12.17.41.41,0,0,0,.23,0,.21.21,0,0,0,.17-.06.24.24,0,0,0,0-.14.2.2,0,0,0,0-.08s0,0-.07-.05l-.1,0-.12,0a.8.8,0,0,1-.15,0l-.14-.05a.28.28,0,0,1-.09-.1.2.2,0,0,1-.05-.14.34.34,0,0,1,0-.14.75.75,0,0,1,.07-.12.57.57,0,0,1,.13-.08l.18,0a.54.54,0,0,1,.33.07.44.44,0,0,1,.17.26l-.2,0a.24.24,0,0,0-.1-.15.37.37,0,0,0-.2,0,.34.34,0,0,0-.17.06.22.22,0,0,0,0,.14.16.16,0,0,0,0,.07s0,0,.07,0l.1,0,.12,0,.15,0a.35.35,0,0,1,.14.06.28.28,0,0,1,.1.09.34.34,0,0,1,0,.14.36.36,0,0,1-.1.27A.43.43,0,0,1,139.76,50.26Z"/><path class="cls-3" d="M141.51,50.15a.73.73,0,0,1-.22,0,.76.76,0,0,1-.19-.12.62.62,0,0,1-.12-.19,1,1,0,0,1-.06-.26.74.74,0,0,1,0-.26.42.42,0,0,1,.1-.2.39.39,0,0,1,.17-.14.52.52,0,0,1,.22-.07.57.57,0,0,1,.35.09.53.53,0,0,1,.21.32h-.21a.43.43,0,0,0-.12-.2.38.38,0,0,0-.22-.05.34.34,0,0,0-.25.14.51.51,0,0,0-.08.34v0a.54.54,0,0,0,.12.32.29.29,0,0,0,.26.1.38.38,0,0,0,.22-.07.41.41,0,0,0,.1-.22l.2,0a.53.53,0,0,1-.17.31A.63.63,0,0,1,141.51,50.15Z"/><path class="cls-3" d="M143,50.05a.52.52,0,0,1-.25,0,.45.45,0,0,1-.19-.11.67.67,0,0,1-.12-.2.66.66,0,0,1-.06-.25.74.74,0,0,1,0-.26.53.53,0,0,1,.11-.21.61.61,0,0,1,.17-.14.71.71,0,0,1,.25-.06.59.59,0,0,1,.44.14,1,1,0,0,1,.13.2.66.66,0,0,1,.05.25.72.72,0,0,1,0,.26.68.68,0,0,1-.1.21.62.62,0,0,1-.18.14A.51.51,0,0,1,143,50.05Zm0-.17a.31.31,0,0,0,.28-.14.51.51,0,0,0,.08-.34h0a.55.55,0,0,0-.12-.33.33.33,0,0,0-.29-.1.35.35,0,0,0-.28.14.57.57,0,0,0-.08.34h0a.49.49,0,0,0,.11.33A.34.34,0,0,0,143,49.88Z"/><path class="cls-3" d="M144.87,50.24l-.18-.05-.27-1,0-.16-.06.24-.24.75-.18-.06.38-1.14.2.06.26,1,0,.19.05-.26.24-.72.17.06Z"/><path class="cls-3" d="M145.37,51.21l.33-.14h-.09a.38.38,0,0,1-.15,0,.51.51,0,0,1-.15-.07.5.5,0,0,1-.09-.58.62.62,0,0,1,.38-.29.65.65,0,0,1,.26-.06.53.53,0,0,1,.23,0,.5.5,0,0,1,.19.13.56.56,0,0,1,.12.2.57.57,0,0,1,0,.31.44.44,0,0,1-.15.25l-.12-.16a.25.25,0,0,0,.1-.15.26.26,0,0,0,0-.19.34.34,0,0,0-.21-.21.57.57,0,0,0-.36,0h0l-.16.08a.38.38,0,0,0-.11.11.28.28,0,0,0,0,.13.35.35,0,0,0,0,.17.41.41,0,0,0,.08.13.39.39,0,0,0,.1.08l.09,0,.07,0,.1,0-.1-.3.15-.06.17.47-.6.22Z"/><path class="cls-3" d="M146.49,52l-.16.47a.56.56,0,0,1-.19.3.28.28,0,0,1-.27,0l-.1,0a.2.2,0,0,1-.09-.09.26.26,0,0,1-.06-.13.35.35,0,0,1,0-.17h0l0,.08a.18.18,0,0,1-.05.07.31.31,0,0,1-.19.09.78.78,0,0,1-.27,0h0l.07-.2,0,0a.66.66,0,0,0,.29,0,.52.52,0,0,0,.18-.07s0-.05,0-.08l0-.08,0-.13,0-.08-.47-.15.06-.18Zm-.69.21c0,.06,0,.12,0,.16a.2.2,0,0,0,0,.11.13.13,0,0,0,0,.07l.1,0a.16.16,0,0,0,.15,0,.32.32,0,0,0,.12-.17l.07-.23,0-.07h-.07l-.34-.12Z"/><path class="cls-3" d="M144.47,53.94l.07-.19h.33l.2-.48-.25-.22.07-.18,1,.87-.09.22Zm.61-.17.46,0,.2,0-.17-.11-.35-.3,0-.06v.08l-.11.29-.07.06Z"/><path class="cls-3" d="M144.2,54.62l.07-.18.91.37.08,0h0v-.1l.11-.28.16.06-.35.89-.17-.06.12-.29.07-.06h-.09Z"/><path class="cls-3" d="M143.72,55.76a.55.55,0,0,1,.23-.3.43.43,0,0,1,.34-.05l-.08.19a.27.27,0,0,0-.2,0,.35.35,0,0,0-.14.19.24.24,0,0,0,0,.18.18.18,0,0,0,.11.1.11.11,0,0,0,.08,0l.08,0,.07-.08a.86.86,0,0,0,.07-.1l.1-.12a.48.48,0,0,1,.11-.09.22.22,0,0,1,.12,0,.27.27,0,0,1,.15,0,.42.42,0,0,1,.12.08.41.41,0,0,1,.07.11.48.48,0,0,1,0,.33.53.53,0,0,1-.2.27.41.41,0,0,1-.31,0l.07-.18a.27.27,0,0,0,.18,0,.41.41,0,0,0,.11-.16.27.27,0,0,0,0-.19.19.19,0,0,0-.1-.1h-.08l-.07,0a.29.29,0,0,0-.07.08l-.08.09-.09.12a.5.5,0,0,1-.11.1.24.24,0,0,1-.13.05.2.2,0,0,1-.15,0,.29.29,0,0,1-.2-.19A.41.41,0,0,1,143.72,55.76Z"/><path class="cls-3" d="M143.07,57.39a.52.52,0,0,1,.12-.19.44.44,0,0,1,.18-.12.85.85,0,0,1,.23,0,.88.88,0,0,1,.26.06.8.8,0,0,1,.22.13.73.73,0,0,1,.14.18.55.55,0,0,1,.06.22.66.66,0,0,1,0,.23.58.58,0,0,1-.23.28.53.53,0,0,1-.38,0l.08-.19a.29.29,0,0,0,.23,0,.3.3,0,0,0,.14-.17.28.28,0,0,0,0-.28.51.51,0,0,0-.27-.22h0a.52.52,0,0,0-.34,0,.31.31,0,0,0-.21.19.37.37,0,0,0,0,.23.3.3,0,0,0,.16.18l-.12.17a.53.53,0,0,1-.21-.29A.54.54,0,0,1,143.07,57.39Z"/><path class="cls-3" d="M142.61,59.14a.51.51,0,0,1,0-.25.4.4,0,0,1,.11-.19.5.5,0,0,1,.19-.13,1,1,0,0,1,.52,0,.42.42,0,0,1,.2.1.65.65,0,0,1,.15.18.83.83,0,0,1,.06.25.47.47,0,0,1,0,.24.45.45,0,0,1-.11.19.53.53,0,0,1-.2.13.92.92,0,0,1-.25.06.72.72,0,0,1-.26,0,.7.7,0,0,1-.21-.11.51.51,0,0,1-.14-.18A.48.48,0,0,1,142.61,59.14Zm.17,0a.32.32,0,0,0,.14.28.51.51,0,0,0,.34.07h0a.55.55,0,0,0,.33-.12.36.36,0,0,0,.1-.29.33.33,0,0,0-.14-.27.51.51,0,0,0-.34-.08h0a.55.55,0,0,0-.33.12A.33.33,0,0,0,142.78,59.13Z"/><path class="cls-3" d="M144.25,61.07l-.15-.1V59.91l0-.16L144,60l-.43.67-.15-.09.65-1,.18.12v1l0,.19.12-.24.41-.64.16.1Z"/><path class="cls-3" d="M145.45,61.82l.17-.31-.06.07-.13.07a.38.38,0,0,1-.16,0,.38.38,0,0,1-.19-.06.54.54,0,0,1-.24-.34.68.68,0,0,1,.13-.47.7.7,0,0,1,.18-.2.44.44,0,0,1,.2-.11.45.45,0,0,1,.23,0,.74.74,0,0,1,.22.08.57.57,0,0,1,.21.23.48.48,0,0,1,0,.29l-.19-.05a.27.27,0,0,0,0-.18.33.33,0,0,0-.14-.15.3.3,0,0,0-.29,0,.53.53,0,0,0-.27.23v0a.46.46,0,0,0-.07.16.26.26,0,0,0,0,.15.28.28,0,0,0,0,.13.46.46,0,0,0,.12.12l.14.06h.13l.1,0,.06,0,.06-.1-.27-.16.09-.14.42.26-.35.55Z"/><path class="cls-3" d="M146.65,61.15l.41.26a.67.67,0,0,1,.25.26.32.32,0,0,1,0,.28l-.07.08-.1.07a.34.34,0,0,1-.31,0v0l.07.06.05.06a.3.3,0,0,1,0,.21.81.81,0,0,1-.1.25l0,0-.18-.11,0,0a.67.67,0,0,0,.11-.28.42.42,0,0,0,0-.18l-.07,0-.07,0-.12-.07-.06-.07-.27.42-.16-.1Zm0,.72a.7.7,0,0,0,.14.08l.11,0a.11.11,0,0,0,.07,0,.27.27,0,0,0,.07-.08.23.23,0,0,0,0-.16.35.35,0,0,0-.15-.15l-.19-.12-.06-.06,0,.07-.2.31Z"/><path class="cls-3" d="M148.09,63.49l-.17-.11.07-.32-.44-.28-.26.21-.17-.11,1-.78.21.13Zm-.05-.63.1-.45.08-.19-.14.15-.37.29-.06,0,.08,0,.26.16,0,.08Z"/><path class="cls-3" d="M148.71,63.89l-.16-.11.52-.82.06-.07H149l-.26-.16.09-.15.81.51-.09.15-.26-.16-.05-.08h0l0,.08Z"/><path class="cls-3" d="M149.57,64.61a.62.62,0,0,1-.16-.35.51.51,0,0,1,.12-.32l.14.16a.31.31,0,0,0-.07.2.41.41,0,0,0,.1.21.21.21,0,0,0,.16.1.19.19,0,0,0,.14,0,.25.25,0,0,0,0-.07v-.09a.42.42,0,0,0,0-.1l-.05-.12-.06-.14a.32.32,0,0,1,0-.14.29.29,0,0,1,0-.13.47.47,0,0,1,.09-.12l.12-.07h.14l.15.06a.71.71,0,0,1,.13.12.48.48,0,0,1,.14.31.44.44,0,0,1-.11.29l-.13-.16a.18.18,0,0,0,.06-.16.3.3,0,0,0-.09-.19.26.26,0,0,0-.15-.1.2.2,0,0,0-.13,0,.1.1,0,0,0,0,.07V64a.69.69,0,0,0,0,.1l0,.11.06.14a.4.4,0,0,1,0,.15.29.29,0,0,1,0,.13.33.33,0,0,1-.36.21A.44.44,0,0,1,149.57,64.61Z"/><path class="cls-3" d="M149.81,65.87a.67.67,0,0,1,.12-.2.57.57,0,0,1,.18-.12.85.85,0,0,1,.23,0,.88.88,0,0,1,.26.06.78.78,0,0,1,.22.12.43.43,0,0,1,.15.18.37.37,0,0,1,.06.21.47.47,0,0,1,0,.23.59.59,0,0,1-.22.29.55.55,0,0,1-.37.06l.07-.2a.34.34,0,0,0,.23,0,.35.35,0,0,0,.13-.18.33.33,0,0,0,0-.29.6.6,0,0,0-.29-.2h0a.58.58,0,0,0-.34,0,.29.29,0,0,0-.2.2.37.37,0,0,0,0,.23.32.32,0,0,0,.16.17l-.11.17a.46.46,0,0,1-.22-.28A.6.6,0,0,1,149.81,65.87Z"/><path class="cls-3" d="M149,66.8a.68.68,0,0,1,.23-.11h.23a.54.54,0,0,1,.2.1.66.66,0,0,1,.18.19.8.8,0,0,1,.11.23.46.46,0,0,1,0,.23.57.57,0,0,1-.07.22.77.77,0,0,1-.18.18.58.58,0,0,1-.23.1.41.41,0,0,1-.22,0,.5.5,0,0,1-.21-.1.55.55,0,0,1-.18-.19.72.72,0,0,1-.12-.23.45.45,0,0,1,0-.23.42.42,0,0,1,.08-.21A.58.58,0,0,1,149,66.8Zm.1.14a.35.35,0,0,0-.17.26.5.5,0,0,0,.11.33h0a.5.5,0,0,0,.27.22.34.34,0,0,0,.3-.06.37.37,0,0,0,.17-.26.53.53,0,0,0-.11-.34h0a.5.5,0,0,0-.27-.22A.34.34,0,0,0,149.09,66.94Z"/><path class="cls-3" d="M147.31,67.9l.15-.09,1,.44.14.08-.14-.19-.43-.67.15-.1.65,1-.18.12-.92-.43-.16-.1.17.2.4.64-.15.1Z"/><path class="cls-3" d="M146.14,68.64l.2.29a.22.22,0,0,1,0-.09.52.52,0,0,1,0-.14.53.53,0,0,1,0-.16.37.37,0,0,1,.14-.14.52.52,0,0,1,.41-.08.64.64,0,0,1,.36.32.62.62,0,0,1,.11.25.56.56,0,0,1-.07.44.87.87,0,0,1-.17.16.64.64,0,0,1-.3.09.47.47,0,0,1-.28-.09l.13-.15a.36.36,0,0,0,.17.07.32.32,0,0,0,.19-.07.3.3,0,0,0,.15-.24.53.53,0,0,0-.09-.35h0a.85.85,0,0,0-.11-.14.31.31,0,0,0-.13-.08.23.23,0,0,0-.14,0,.4.4,0,0,0-.16.06.36.36,0,0,0-.11.1.41.41,0,0,0-.06.11.38.38,0,0,0,0,.1.08.08,0,0,0,0,.07l.06.1.26-.17.09.14-.42.26-.34-.54Z"/><path class="cls-3" d="M146.24,70l-.42.27a.54.54,0,0,1-.33.1.27.27,0,0,1-.24-.15l0-.09a.27.27,0,0,1,0-.13.33.33,0,0,1,0-.13.37.37,0,0,1,.12-.13v0l-.08,0-.08,0a.24.24,0,0,1-.2,0,.74.74,0,0,1-.19-.2v0l.17-.11,0,0a.58.58,0,0,0,.2.21.28.28,0,0,0,.18,0l.06,0,.07,0,.11-.07.09,0-.27-.42.16-.1Zm-.67-.27-.13.1a.33.33,0,0,0-.06.08.14.14,0,0,0,0,.09.36.36,0,0,0,0,.09.22.22,0,0,0,.13.09.29.29,0,0,0,.2-.06l.2-.13.08,0-.06,0-.19-.31Z"/><path class="cls-3" d="M143.48,70.32l.17-.11.26.2.44-.28-.07-.32.17-.11.26,1.27-.2.13Zm.6.22.36.29.14.15-.08-.19-.1-.46v-.06l0,.06-.27.17H144Z"/><path class="cls-3" d="M142.77,71.17l.09-.17.87.45.07,0h0v-.1l.14-.27.16.08-.44.85-.16-.08.14-.27.08-.06h0l-.08,0Z"/><path class="cls-3" d="M142.82,72.9a.64.64,0,0,1,0-.38.44.44,0,0,1,.22-.27l.07.2a.24.24,0,0,0-.12.17.38.38,0,0,0,0,.23.27.27,0,0,0,.11.15.2.2,0,0,0,.15,0,.1.1,0,0,0,.06,0,.16.16,0,0,0,0-.09v-.11s0-.08,0-.12a1.13,1.13,0,0,1,0-.3.34.34,0,0,1,.06-.12.36.36,0,0,1,.12-.08.36.36,0,0,1,.14,0,.32.32,0,0,1,.14,0,.52.52,0,0,1,.11.1.42.42,0,0,1,.09.16.52.52,0,0,1,0,.34.4.4,0,0,1-.2.23l-.07-.18a.31.31,0,0,0,.12-.14.38.38,0,0,0,0-.2.26.26,0,0,0-.11-.15.17.17,0,0,0-.14,0,.13.13,0,0,0-.06,0,.19.19,0,0,0,0,.08.2.2,0,0,0,0,.11.49.49,0,0,0,0,.12s0,.1,0,.15a.61.61,0,0,1,0,.15.31.31,0,0,1-.06.13.36.36,0,0,1-.12.08.31.31,0,0,1-.28,0A.42.42,0,0,1,142.82,72.9Z"/><path class="cls-3" d="M143.48,74.55a.47.47,0,0,1,0-.23.54.54,0,0,1,.05-.21.8.8,0,0,1,.15-.18.91.91,0,0,1,.22-.13,1.22,1.22,0,0,1,.26-.06.54.54,0,0,1,.22,0,.45.45,0,0,1,.19.11.69.69,0,0,1,.13.2.57.57,0,0,1,0,.36.53.53,0,0,1-.25.29l-.07-.19a.32.32,0,0,0,.15-.18.34.34,0,0,0,0-.22.32.32,0,0,0-.21-.2.56.56,0,0,0-.35,0h0a.5.5,0,0,0-.27.21.33.33,0,0,0,0,.29.3.3,0,0,0,.14.17.29.29,0,0,0,.23,0l0,.2a.52.52,0,0,1-.35-.06A.67.67,0,0,1,143.48,74.55Z"/><path class="cls-3" d="M144,75.93a.59.59,0,0,1-.05-.25.54.54,0,0,1,.05-.22.73.73,0,0,1,.14-.18,1.26,1.26,0,0,1,.23-.13,1.14,1.14,0,0,1,.25-.06.59.59,0,0,1,.23,0,.55.55,0,0,1,.19.12.69.69,0,0,1,.14.22.67.67,0,0,1,0,.24.54.54,0,0,1-.05.22.49.49,0,0,1-.14.18.73.73,0,0,1-.23.13.57.57,0,0,1-.25.06.85.85,0,0,1-.23,0,.59.59,0,0,1-.19-.13A.74.74,0,0,1,144,75.93Zm.15-.06a.4.4,0,0,0,.22.22.49.49,0,0,0,.35,0h0a.49.49,0,0,0,.28-.22.35.35,0,0,0,0-.3.34.34,0,0,0-.22-.22.54.54,0,0,0-.35,0h0a.64.64,0,0,0-.28.22A.37.37,0,0,0,144.18,75.87Z"/><path class="cls-3" d="M144.81,77.81l-.07-.17.61-.87.11-.12-.22.11-.73.29-.07-.17,1.12-.44.08.2-.59.82-.13.14.23-.13.71-.28.07.17Z"/><path class="cls-3" d="M145.31,79.1l.33-.14h-.09a.33.33,0,0,1-.14,0,.26.26,0,0,1-.15-.07.4.4,0,0,1-.12-.16.51.51,0,0,1,0-.42.62.62,0,0,1,.38-.29.88.88,0,0,1,.26-.06.86.86,0,0,1,.24,0,.46.46,0,0,1,.18.13.56.56,0,0,1,.12.2.57.57,0,0,1,0,.31.44.44,0,0,1-.15.25l-.12-.16a.27.27,0,0,0,.11-.15.34.34,0,0,0,0-.19.3.3,0,0,0-.21-.21.54.54,0,0,0-.35,0h0l-.16.08a.57.57,0,0,0-.11.11.33.33,0,0,0,0,.13.35.35,0,0,0,0,.17.41.41,0,0,0,.08.13l.1.08.09,0h.07l.11,0-.11-.3.15-.05L146,79l-.6.23Z"/><path class="cls-3" d="M146.55,79.9l-.15.47a.61.61,0,0,1-.18.3.28.28,0,0,1-.28,0l-.1,0-.09-.08a.31.31,0,0,1-.06-.13.57.57,0,0,1,0-.18h0a.19.19,0,0,1,0,.08.56.56,0,0,1-.05.08.31.31,0,0,1-.19.09,1,1,0,0,1-.27,0h0l.06-.2.06,0a.77.77,0,0,0,.29,0,.3.3,0,0,0,.17-.08s0,0,0-.07a.29.29,0,0,1,0-.09l0-.12,0-.08-.48-.15.06-.18Zm-.69.23a.49.49,0,0,0,0,.15.2.2,0,0,0,0,.11.18.18,0,0,0,0,.07l.1,0a.22.22,0,0,0,.16,0,.37.37,0,0,0,.11-.18l.07-.22,0-.07h-.08l-.35-.11Z"/><path class="cls-3" d="M144,81l.19-.07.21.24.49-.19,0-.33.19-.08,0,1.29-.22.09Zm.54.33.3.35.12.17,0-.2,0-.47V81.1l-.06.05-.29.12h-.09Z"/><path class="cls-3" d="M143.36,80.9h.19l-.06,1,0,.09h0l.09,0,.3,0v.18l-1-.06v-.17h.3l.08,0h0v-.09Z"/><path class="cls-3" d="M142.14,80.79a.65.65,0,0,1,.36.13.42.42,0,0,1,.15.31h-.21a.27.27,0,0,0-.1-.19.38.38,0,0,0-.22-.07.24.24,0,0,0-.18,0,.16.16,0,0,0-.06.13.08.08,0,0,0,0,.08.17.17,0,0,0,.06.06l.1,0,.12,0,.14,0,.13.07a.31.31,0,0,1,.08.11.29.29,0,0,1,0,.14.33.33,0,0,1,0,.14.22.22,0,0,1-.09.1.33.33,0,0,1-.13.07.58.58,0,0,1-.19,0,.49.49,0,0,1-.31-.12.36.36,0,0,1-.14-.28l.2,0a.27.27,0,0,0,.08.16.43.43,0,0,0,.19.06.3.3,0,0,0,.18,0,.15.15,0,0,0,.06-.13.07.07,0,0,0,0-.07s0,0-.06-.06l-.1,0-.12,0-.14-.06-.13-.07a.31.31,0,0,1-.09-.11.33.33,0,0,1,0-.15.34.34,0,0,1,.13-.25A.48.48,0,0,1,142.14,80.79Z"/><path class="cls-3" d="M140.4,80.68a.4.4,0,0,1,.22.06.46.46,0,0,1,.17.14.93.93,0,0,1,.1.2.78.78,0,0,1,0,.27,1,1,0,0,1-.06.25.52.52,0,0,1-.12.19.76.76,0,0,1-.19.12.45.45,0,0,1-.23,0,.55.55,0,0,1-.34-.13.52.52,0,0,1-.16-.34H140a.29.29,0,0,0,.09.21.32.32,0,0,0,.21.08.33.33,0,0,0,.27-.1.55.55,0,0,0,.12-.33h0a.52.52,0,0,0-.08-.34.28.28,0,0,0-.24-.14.38.38,0,0,0-.22.05.3.3,0,0,0-.13.2l-.19-.06a.52.52,0,0,1,.2-.29A.58.58,0,0,1,140.4,80.68Z"/><path class="cls-3" d="M138.92,80.58a.84.84,0,0,1,.24.06.86.86,0,0,1,.18.14.68.68,0,0,1,.1.21.74.74,0,0,1,0,.26.92.92,0,0,1-.06.25.53.53,0,0,1-.13.2.4.4,0,0,1-.19.11.52.52,0,0,1-.25,0,.48.48,0,0,1-.24-.06.49.49,0,0,1-.18-.14.54.54,0,0,1-.1-.2.74.74,0,0,1,0-.26.71.71,0,0,1,.05-.26.91.91,0,0,1,.13-.19.67.67,0,0,1,.2-.12A1,1,0,0,1,138.92,80.58Zm0,.17a.36.36,0,0,0-.29.1.55.55,0,0,0-.12.33h0a.54.54,0,0,0,.08.35.36.36,0,0,0,.27.14.36.36,0,0,0,.29-.11.5.5,0,0,0,.12-.33h0a.54.54,0,0,0-.07-.35A.36.36,0,0,0,138.9,80.75Z"/><path class="cls-3" d="M136.85,80.48H137l.53.92.07.15v-.24l0-.79h.18l-.07,1.2h-.21l-.5-.88-.07-.18,0,.27,0,.76h-.19Z"/><path class="cls-3" d="M135.2,81.53l.3.2-.06-.07a.54.54,0,0,1-.07-.13.31.31,0,0,1,0-.17.34.34,0,0,1,.07-.18.49.49,0,0,1,.36-.21.62.62,0,0,1,.45.16.68.68,0,0,1,.19.19.62.62,0,0,1,.1.22.55.55,0,0,1,0,.22.62.62,0,0,1-.35.41.48.48,0,0,1-.29,0l.07-.19a.37.37,0,0,0,.18,0,.36.36,0,0,0,.15-.13.31.31,0,0,0,.06-.29.55.55,0,0,0-.21-.29h0L136,81.2a.28.28,0,0,0-.15,0,.37.37,0,0,0-.14,0,.4.4,0,0,0-.12.11.37.37,0,0,0-.07.14.49.49,0,0,0,0,.12.3.3,0,0,0,0,.1.39.39,0,0,1,0,.06l.1.07.18-.25.14.1-.3.39-.52-.38Z"/><path class="cls-3" d="M136.1,82.73l-.12.47a.6.6,0,0,1-.17.31.29.29,0,0,1-.27,0,.3.3,0,0,1-.11,0,.28.28,0,0,1-.09-.07.54.54,0,0,1-.07-.13.38.38,0,0,1,0-.18h0a.59.59,0,0,1,0,.08s0,.06,0,.07a.34.34,0,0,1-.18.11.72.72,0,0,1-.28,0h0l.05-.21.06,0a.73.73,0,0,0,.29,0,.38.38,0,0,0,.17-.08s0,0,0-.08,0-.06,0-.08l0-.13,0-.09-.48-.12.05-.18Zm-.67.26a.55.55,0,0,0,0,.16.28.28,0,0,0,0,.1.13.13,0,0,0,.06.07.19.19,0,0,0,.09,0,.22.22,0,0,0,.16,0,.38.38,0,0,0,.1-.19l.06-.22,0-.08h-.07l-.36-.09Z"/><path class="cls-3" d="M134.32,84.83l.05-.19.33,0,.12-.51-.27-.19,0-.19,1.06.74-.06.24Zm.58-.24.46,0h.21l-.19-.09-.38-.25-.05-.06v.08l-.07.31-.06.07Z"/><path class="cls-3" d="M134.13,85.56l.05-.19.95.24.08,0h0v-.09l.07-.29.18,0-.24.93-.17,0,.07-.29.06-.08h-.08Z"/><path class="cls-3" d="M133.81,86.74a.66.66,0,0,1,.18-.33.47.47,0,0,1,.34-.09l-.06.2a.26.26,0,0,0-.19.07.34.34,0,0,0-.12.2.24.24,0,0,0,0,.19.2.2,0,0,0,.12.08h.08a.13.13,0,0,0,.07-.06l.06-.09.06-.1.08-.13a.36.36,0,0,1,.1-.11.26.26,0,0,1,.11-.07.38.38,0,0,1,.15,0,.32.32,0,0,1,.22.17.54.54,0,0,1,0,.15.62.62,0,0,1,0,.18.49.49,0,0,1-.17.29.43.43,0,0,1-.3.08l.05-.19a.23.23,0,0,0,.17-.05.32.32,0,0,0,.1-.18.21.21,0,0,0,0-.18.17.17,0,0,0-.11-.09h-.08a.17.17,0,0,0-.06.06.27.27,0,0,0-.07.08l-.06.11-.08.13a.53.53,0,0,1-.09.11.33.33,0,0,1-.13.07.19.19,0,0,1-.15,0,.32.32,0,0,1-.22-.17A.43.43,0,0,1,133.81,86.74Z"/><path class="cls-3" d="M133.36,88.4a.62.62,0,0,1,.12-.19.52.52,0,0,1,.17-.13.59.59,0,0,1,.23,0,.82.82,0,0,1,.26,0,.65.65,0,0,1,.23.13.49.49,0,0,1,.15.17.51.51,0,0,1,0,.44.58.58,0,0,1-.21.29.53.53,0,0,1-.38.07L134,89a.33.33,0,0,0,.23,0,.35.35,0,0,0,.13-.18.34.34,0,0,0,0-.28.54.54,0,0,0-.29-.2h0a.6.6,0,0,0-.35,0,.29.29,0,0,0-.19.2.31.31,0,0,0,0,.23.27.27,0,0,0,.16.17l-.11.18a.49.49,0,0,1-.22-.28A.63.63,0,0,1,133.36,88.4Z"/><path class="cls-3" d="M132.68,89.38a.61.61,0,0,1,.23-.09.59.59,0,0,1,.23,0,.59.59,0,0,1,.2.12.85.85,0,0,1,.17.2.74.74,0,0,1,.1.47.4.4,0,0,1-.09.2.66.66,0,0,1-.19.18.7.7,0,0,1-.23.08.54.54,0,0,1-.22,0,.61.61,0,0,1-.21-.11.85.85,0,0,1-.17-.2.82.82,0,0,1-.1-.24.59.59,0,0,1,0-.23.5.5,0,0,1,.09-.21A.63.63,0,0,1,132.68,89.38Zm.09.15a.34.34,0,0,0-.19.25.53.53,0,0,0,.1.34h0a.46.46,0,0,0,.26.24.33.33,0,0,0,.3,0,.32.32,0,0,0,.18-.25.46.46,0,0,0-.09-.34h0a.54.54,0,0,0-.26-.24A.33.33,0,0,0,132.77,89.53Z"/><path class="cls-3" d="M131.05,89.32l.17.06.24,1,0,.17.06-.24.27-.74.17.06-.42,1.13-.2-.07-.22-1v-.19l-.06.26-.27.72-.17-.07Z"/><path class="cls-3" d="M130.08,88.46l-.22.29.08-.06.13-.06a.42.42,0,0,1,.16,0,.36.36,0,0,1,.18.08.51.51,0,0,1,.2.37.72.72,0,0,1-.19.45,1.12,1.12,0,0,1-.2.18.65.65,0,0,1-.22.08.55.55,0,0,1-.22,0,.61.61,0,0,1-.21-.11.56.56,0,0,1-.18-.26.48.48,0,0,1,0-.29l.19.08a.28.28,0,0,0,0,.18.42.42,0,0,0,.12.16.33.33,0,0,0,.29.07.53.53,0,0,0,.29-.2h0a.44.44,0,0,0,.1-.15.42.42,0,0,0,0-.15.39.39,0,0,0,0-.14.35.35,0,0,0-.1-.12.34.34,0,0,0-.14-.08l-.12,0h-.1l-.06,0-.07.09.24.2-.11.12-.38-.31.41-.5Z"/><path class="cls-3" d="M128.81,89l-.37-.31a.54.54,0,0,1-.21-.29.29.29,0,0,1,.07-.26.6.6,0,0,1,.08-.08l.11-.05a.32.32,0,0,1,.14,0,.4.4,0,0,1,.16.08h0l-.06-.07a.15.15,0,0,1-.05-.07.3.3,0,0,1,0-.21,1,1,0,0,1,.14-.24l0,0,.17.13,0,.05a.61.61,0,0,0-.14.26.36.36,0,0,0,0,.18l.07,0,.06,0,.11.09.05.07.32-.38.15.12Zm.06-.72-.13-.09-.1,0a.15.15,0,0,0-.09,0,.23.23,0,0,0-.07.07.18.18,0,0,0,0,.15.33.33,0,0,0,.12.17l.18.15.05.06,0-.07.24-.28Z"/><path class="cls-3" d="M127.68,86.48l.16.12-.11.31.4.34.28-.17.15.13-1.12.64-.19-.16Zm0,.63-.16.43-.1.18.16-.13.4-.24H128l-.07,0-.24-.2,0-.08Z"/><path class="cls-3" d="M127.11,86l.15.12-.63.76-.06.06h0l.09,0,.24.19-.12.14-.73-.61.11-.14.23.2,0,.08h0l0-.08Z"/><path class="cls-3" d="M126.17,85.18a.58.58,0,0,1,.21.32.46.46,0,0,1,0,.34l-.17-.14a.24.24,0,0,0,0-.2.35.35,0,0,0-.13-.19.26.26,0,0,0-.18-.08.19.19,0,0,0-.12.07.13.13,0,0,0,0,.08.15.15,0,0,0,0,.09.41.41,0,0,0,0,.09.86.86,0,0,0,.07.1l.08.13a.38.38,0,0,1,.06.13.22.22,0,0,1,0,.14.25.25,0,0,1-.06.13.31.31,0,0,1-.11.09.32.32,0,0,1-.14,0l-.15,0a.44.44,0,0,1-.15-.1.53.53,0,0,1-.2-.28.42.42,0,0,1,.06-.3l.15.13a.21.21,0,0,0,0,.17.28.28,0,0,0,.11.16.26.26,0,0,0,.17.08.24.24,0,0,0,.13-.07.06.06,0,0,0,0-.07.15.15,0,0,0,0-.09.41.41,0,0,0,0-.09l-.07-.1a.57.57,0,0,1-.08-.13.38.38,0,0,1-.06-.13.23.23,0,0,1,0-.14.28.28,0,0,1,.06-.14.36.36,0,0,1,.25-.13A.45.45,0,0,1,126.17,85.18Z"/><path class="cls-3" d="M123.92,84.61a.43.43,0,0,1,.22,0,.46.46,0,0,1,.21.05.65.65,0,0,1,.18.15.73.73,0,0,1,.13.23,1.14,1.14,0,0,1,.06.25.59.59,0,0,1,0,.23.36.36,0,0,1-.12.18.43.43,0,0,1-.19.13.57.57,0,0,1-.36,0,.53.53,0,0,1-.29-.25l.19-.07a.32.32,0,0,0,.18.15.34.34,0,0,0,.22,0,.32.32,0,0,0,.2-.21.47.47,0,0,0,0-.34v0a.5.5,0,0,0-.21-.27.31.31,0,0,0-.28,0,.37.37,0,0,0-.18.14.29.29,0,0,0,0,.23l-.2,0a.47.47,0,0,1,.07-.35A.56.56,0,0,1,123.92,84.61Z"/><path class="cls-3" d="M122.5,85.61a.8.8,0,0,1,.22-.12.51.51,0,0,1,.44.06,1.12,1.12,0,0,1,.2.18,1,1,0,0,1,.13.22.62.62,0,0,1,0,.23.9.9,0,0,1-.06.22.51.51,0,0,1-.17.19.5.5,0,0,1-.21.12.42.42,0,0,1-.22,0,.45.45,0,0,1-.22-.08.79.79,0,0,1-.2-.17.85.85,0,0,1-.13-.22.66.66,0,0,1,0-.23.43.43,0,0,1,.06-.22A.74.74,0,0,1,122.5,85.61Zm.11.14a.33.33,0,0,0-.14.27.48.48,0,0,0,.14.33h0a.53.53,0,0,0,.29.2.35.35,0,0,0,.3-.09.36.36,0,0,0,.14-.27.55.55,0,0,0-.14-.33h0a.55.55,0,0,0-.3-.2A.33.33,0,0,0,122.61,85.75Z"/><path class="cls-3" d="M120.94,87l.14-.12,1,.31.15.07-.17-.17-.51-.61.14-.12.77.93-.17.14-1-.3-.17-.09.19.18.49.59-.14.12Z"/><path class="cls-3" d="M119.87,87.84l.25.26-.05-.08a.7.7,0,0,1,0-.14.35.35,0,0,1,0-.17.28.28,0,0,1,.11-.16.48.48,0,0,1,.4-.12.65.65,0,0,1,.4.26.62.62,0,0,1,.14.23.66.66,0,0,1,0,.23.43.43,0,0,1-.06.22.49.49,0,0,1-.14.18.54.54,0,0,1-.29.13.43.43,0,0,1-.29-.05l.11-.17a.31.31,0,0,0,.18.05.38.38,0,0,0,.18-.09.34.34,0,0,0,.12-.27.53.53,0,0,0-.14-.33h0a.49.49,0,0,0-.13-.12.37.37,0,0,0-.14-.07.33.33,0,0,0-.14,0,.5.5,0,0,0-.14.08.35.35,0,0,0-.1.12.28.28,0,0,0,0,.12.34.34,0,0,0,0,.1.2.2,0,0,1,0,.07l.08.08.24-.2.1.13-.38.32-.41-.5Z"/><path class="cls-3" d="M120.16,89.17l-.38.31a.49.49,0,0,1-.32.15.33.33,0,0,1-.25-.12.36.36,0,0,1,0-.09.56.56,0,0,1,0-.12.39.39,0,0,1,0-.14.31.31,0,0,1,.1-.14v0l-.08,0a.11.11,0,0,1-.08,0,.28.28,0,0,1-.2,0,.84.84,0,0,1-.21-.18l0,0,.16-.14,0,0a.55.55,0,0,0,.23.19.31.31,0,0,0,.18,0l.06-.06.06,0,.1-.09.08,0-.31-.38.14-.12Zm-.7-.19a1.13,1.13,0,0,0-.11.11.19.19,0,0,0,0,.1.11.11,0,0,0,0,.08.24.24,0,0,0,.06.09.16.16,0,0,0,.14.07.35.35,0,0,0,.19-.09l.17-.14.08,0-.06,0-.24-.29Z"/><path class="cls-3" d="M117.44,89.63l.17-.1.24.23.47-.25,0-.32.18-.09.15,1.28-.21.11Zm.57.27.33.32.13.16-.06-.2-.06-.46v-.07l-.06.07-.28.14h-.08Z"/><path class="cls-3" d="M116.89,89.57l.19,0-.13,1,0,.09h0l.09,0,.3,0,0,.17-.94-.13,0-.17.3,0,.08,0h0v-.09Z"/><path class="cls-3" d="M116.13,89a.61.61,0,0,1,.14.36.43.43,0,0,1-.13.32l-.13-.17a.26.26,0,0,0,.08-.2.48.48,0,0,0-.09-.21.29.29,0,0,0-.16-.11.19.19,0,0,0-.14,0,.1.1,0,0,0,0,.07.14.14,0,0,0,0,.09.19.19,0,0,0,0,.1.61.61,0,0,0,0,.12l.05.14a.39.39,0,0,1,0,.14.29.29,0,0,1-.11.25.31.31,0,0,1-.13.06.32.32,0,0,1-.14,0L115.3,90a.49.49,0,0,1-.13-.12.51.51,0,0,1-.13-.32.46.46,0,0,1,.12-.29l.13.16a.25.25,0,0,0-.07.17.29.29,0,0,0,.08.18.24.24,0,0,0,.15.11.13.13,0,0,0,.13,0s0,0,0-.06a.28.28,0,0,0,0-.09.22.22,0,0,0,0-.1l0-.12-.06-.14,0-.14a.59.59,0,0,1,0-.14.23.23,0,0,1,.1-.12.3.3,0,0,1,.27-.07A.43.43,0,0,1,116.13,89Z"/><path class="cls-3" d="M115.59,87.52a.45.45,0,0,1,0,.23.5.5,0,0,1-.08.2.49.49,0,0,1-.16.16.64.64,0,0,1-.24.1.83.83,0,0,1-.26,0,.77.77,0,0,1-.23-.06.57.57,0,0,1-.16-.15.53.53,0,0,1-.11-.21.62.62,0,0,1,0-.36.55.55,0,0,1,.28-.26l0,.21a.29.29,0,0,0-.17.15.36.36,0,0,0,0,.23.33.33,0,0,0,.18.22.58.58,0,0,0,.35,0h0a.52.52,0,0,0,.3-.17.3.3,0,0,0,0-.28.36.36,0,0,0-.11-.19.28.28,0,0,0-.23-.06v-.2a.46.46,0,0,1,.33.11A.51.51,0,0,1,115.59,87.52Z"/><path class="cls-3" d="M115.23,86.09a.53.53,0,0,1,0,.25.48.48,0,0,1-.07.21.69.69,0,0,1-.41.26.78.78,0,0,1-.26,0,.43.43,0,0,1-.22-.06.35.35,0,0,1-.17-.15.55.55,0,0,1-.11-.23.67.67,0,0,1,0-.24.49.49,0,0,1,.08-.21.55.55,0,0,1,.17-.17.87.87,0,0,1,.24-.1.76.76,0,0,1,.26,0,.55.55,0,0,1,.22.06.61.61,0,0,1,.17.15A.7.7,0,0,1,115.23,86.09Zm-.17,0a.35.35,0,0,0-.19-.25.51.51,0,0,0-.35,0h0a.64.64,0,0,0-.3.18.35.35,0,0,0,0,.3.38.38,0,0,0,.19.25.51.51,0,0,0,.35,0h0a.46.46,0,0,0,.3-.18A.31.31,0,0,0,115.06,86.13Z"/><path class="cls-3" d="M114.69,84.11l0,.18-.72.78-.12.11.22-.09.77-.19,0,.17-1.17.3,0-.21.68-.74.15-.12-.24.1-.74.19,0-.18Z"/><path class="cls-3" d="M114.35,82.77l-.34.1h.09l.14,0a.42.42,0,0,1,.14.09.32.32,0,0,1,.1.18.49.49,0,0,1-.06.41.67.67,0,0,1-.41.25,1.24,1.24,0,0,1-.27,0,.52.52,0,0,1-.22-.07.39.39,0,0,1-.17-.14.7.7,0,0,1-.11-.21.57.57,0,0,1,0-.32.48.48,0,0,1,.17-.23l.11.17a.27.27,0,0,0-.12.14.34.34,0,0,0,0,.2.32.32,0,0,0,.19.22.51.51,0,0,0,.35,0h0a.85.85,0,0,0,.17-.06.36.36,0,0,0,.11-.1.31.31,0,0,0,.06-.13.43.43,0,0,0,0-.16.37.37,0,0,0-.07-.14.26.26,0,0,0-.09-.09l-.09,0-.06,0-.11,0,.08.31-.16,0-.13-.48.63-.16Z"/><path class="cls-3" d="M113.09,82.5l-.22-.44a.53.53,0,0,1-.08-.34.32.32,0,0,1,.17-.22l.1,0h.13a.24.24,0,0,1,.13.05.43.43,0,0,1,.12.14h0l0-.09a.25.25,0,0,1,0-.08.31.31,0,0,1,.07-.2.66.66,0,0,1,.22-.16l0,0,.09.19,0,0a.64.64,0,0,0-.23.18.43.43,0,0,0-.07.17.43.43,0,0,1,0,.07.25.25,0,0,1,0,.07l.06.12,0,.09.44-.22.09.16Zm.33-.64a.87.87,0,0,0-.08-.14l-.08-.07a.11.11,0,0,0-.08,0,.19.19,0,0,0-.1,0,.17.17,0,0,0-.1.12.3.3,0,0,0,0,.21l.11.2,0,.08,0,0,.33-.16Z"/><path class="cls-3" d="M111.68,80.48h.2l.1.31.52,0,.12-.3h.2l-.5,1.19h-.24ZM112,81l.13.43,0,.21,0-.2.17-.43,0-.06-.08,0h-.31l-.08,0Z"/><path class="cls-3" d="M110.84,80.57H111l.06,1v.09h0l.09,0,.3,0v.17l-.95.06,0-.17.31,0,.09,0h0l0-.08Z"/><path class="cls-3" d="M109.61,80.63a.62.62,0,0,1,.37.08.41.41,0,0,1,.19.28L110,81a.27.27,0,0,0-.12-.17.41.41,0,0,0-.23,0,.25.25,0,0,0-.17.07.17.17,0,0,0,0,.14.09.09,0,0,0,0,.07l.08.05.1,0,.12,0,.15,0,.13,0a.22.22,0,0,1,.1.09.34.34,0,0,1,.05.14.59.59,0,0,1,0,.14.25.25,0,0,1-.08.12.36.36,0,0,1-.12.08.37.37,0,0,1-.18,0,.48.48,0,0,1-.33-.07.38.38,0,0,1-.17-.26h.2a.21.21,0,0,0,.1.15.3.3,0,0,0,.2,0,.24.24,0,0,0,.17-.06.15.15,0,0,0,0-.13.09.09,0,0,0,0-.07.18.18,0,0,0-.07,0l-.1,0-.12,0-.15,0-.14-.06a.43.43,0,0,1-.1-.09.33.33,0,0,1,0-.15.44.44,0,0,1,.09-.27A.49.49,0,0,1,109.61,80.63Z"/><path class="cls-3" d="M107.87,80.74a.43.43,0,0,1,.23,0,.36.36,0,0,1,.18.12.7.7,0,0,1,.13.19.66.66,0,0,1,0,.25.72.72,0,0,1,0,.26.68.68,0,0,1-.1.21.46.46,0,0,1-.17.14.44.44,0,0,1-.23.06.59.59,0,0,1-.35-.08.51.51,0,0,1-.2-.32l.21,0a.29.29,0,0,0,.12.2.37.37,0,0,0,.47-.08.61.61,0,0,0,.07-.35h0a.49.49,0,0,0-.12-.32.28.28,0,0,0-.26-.11.33.33,0,0,0-.21.08.28.28,0,0,0-.1.21l-.2,0a.45.45,0,0,1,.17-.31A.6.6,0,0,1,107.87,80.74Z"/><path class="cls-3" d="M106.39,80.83a1,1,0,0,1,.25,0,.52.52,0,0,1,.19.12.64.64,0,0,1,.13.19.71.71,0,0,1,.05.26.69.69,0,0,1,0,.25.68.68,0,0,1-.1.21.49.49,0,0,1-.18.14.61.61,0,0,1-.25.07.88.88,0,0,1-.24,0A.52.52,0,0,1,106,82a.43.43,0,0,1-.13-.19.71.71,0,0,1-.06-.26.74.74,0,0,1,0-.26A.64.64,0,0,1,106,81a.42.42,0,0,1,.18-.14A.61.61,0,0,1,106.39,80.83Zm0,.17a.38.38,0,0,0-.28.14.54.54,0,0,0-.08.35h0a.46.46,0,0,0,.13.33.32.32,0,0,0,.29.11.36.36,0,0,0,.27-.14.51.51,0,0,0,.08-.34h0a.52.52,0,0,0-.12-.33A.36.36,0,0,0,106.4,81Z"/><path class="cls-3" d="M104.46,80.73l.18,0,.36,1,0,.16,0-.24.18-.78.18,0-.28,1.17-.21,0-.34-1,0-.19,0,.26-.18.74-.18,0Z"/><path class="cls-3" d="M103.85,79.84l-.32.17.09,0h.15a.3.3,0,0,1,.15.05.34.34,0,0,1,.14.15.52.52,0,0,1,0,.42.71.71,0,0,1-.35.33.65.65,0,0,1-.26.08.59.59,0,0,1-.23,0,.54.54,0,0,1-.2-.1.45.45,0,0,1-.14-.19.52.52,0,0,1-.07-.31.45.45,0,0,1,.12-.26l.14.14a.23.23,0,0,0-.08.16.31.31,0,0,0,0,.2.38.38,0,0,0,.23.18.52.52,0,0,0,.35-.07h0a.78.78,0,0,0,.15-.1.47.47,0,0,0,.09-.12.32.32,0,0,0,0-.14.34.34,0,0,0,0-.16.62.62,0,0,0-.09-.12l-.11-.07-.1,0h-.06l-.1,0,.14.28-.15.08L103.2,80l.57-.29Z"/><path class="cls-3" d="M102.67,79.1l.12-.47a.54.54,0,0,1,.18-.31.28.28,0,0,1,.27,0l.1,0,.1.08a.34.34,0,0,1,.06.12.54.54,0,0,1,0,.18h0a.13.13,0,0,1,0-.08l0-.08a.32.32,0,0,1,.19-.1.69.69,0,0,1,.27,0h0l0,.21-.06,0a.58.58,0,0,0-.29,0,.38.38,0,0,0-.17.08s0,0,0,.08,0,0,0,.08l0,.13,0,.08.48.13,0,.18Zm.67-.25a.61.61,0,0,0,0-.16.2.2,0,0,0,0-.11.15.15,0,0,0,0-.06l-.1,0a.18.18,0,0,0-.16,0,.37.37,0,0,0-.1.18l-.06.23,0,.07h.07l.36.09Z"/><path class="cls-3" d="M104.66,77.13l-.08.19h-.33l-.19.48.25.22-.08.19-1-.87.09-.23Zm-.61.17-.46,0-.2,0,.17.11.35.3,0,.06v-.08l.12-.29.06-.06Z"/><path class="cls-3" d="M104.93,76.44l-.07.17-.91-.36-.08,0h0v.1l-.12.28-.16-.07.35-.89.17.07L104,76l-.06.07h0l.09,0Z"/><path class="cls-3" d="M105.41,75.3a.55.55,0,0,1-.23.3.43.43,0,0,1-.34.05l.08-.19a.27.27,0,0,0,.2,0,.35.35,0,0,0,.14-.19.2.2,0,0,0,0-.18.18.18,0,0,0-.11-.1.11.11,0,0,0-.08,0L105,75l-.07.08a.86.86,0,0,0-.07.1l-.1.12-.1.09a.29.29,0,0,1-.13.05.37.37,0,0,1-.34-.21.48.48,0,0,1,0-.33.5.5,0,0,1,.21-.27.38.38,0,0,1,.3,0l-.07.18a.27.27,0,0,0-.18,0,.41.41,0,0,0-.11.16.27.27,0,0,0,0,.19.19.19,0,0,0,.1.1.11.11,0,0,0,.08,0l.07,0a.29.29,0,0,0,.07-.08l.08-.09.09-.12.11-.1a.24.24,0,0,1,.13,0,.2.2,0,0,1,.15,0,.33.33,0,0,1,.21.19A.46.46,0,0,1,105.41,75.3Z"/><path class="cls-3" d="M106.06,73.68a.52.52,0,0,1-.12.19.52.52,0,0,1-.19.11.51.51,0,0,1-.22,0,1.22,1.22,0,0,1-.26-.06.69.69,0,0,1-.22-.14.65.65,0,0,1-.15-.18.46.46,0,0,1-.05-.21.62.62,0,0,1,0-.23.54.54,0,0,1,.23-.28.53.53,0,0,1,.38,0l-.08.2a.34.34,0,0,0-.23,0,.37.37,0,0,0-.14.18.31.31,0,0,0,0,.28.56.56,0,0,0,.28.21h0a.61.61,0,0,0,.34,0,.32.32,0,0,0,.21-.2.29.29,0,0,0-.13-.41l.12-.16a.5.5,0,0,1,.21.29A.62.62,0,0,1,106.06,73.68Z"/><path class="cls-3" d="M106.58,72a.49.49,0,0,1-.06.25.46.46,0,0,1-.14.17.68.68,0,0,1-.21.1,1.1,1.1,0,0,1-.26,0,1,1,0,0,1-.25-.06.53.53,0,0,1-.19-.13.67.67,0,0,1-.12-.2,1,1,0,0,1,0-.25.61.61,0,0,1,.07-.24.39.39,0,0,1,.14-.17.51.51,0,0,1,.21-.1.72.72,0,0,1,.26,0,1,1,0,0,1,.25.06.55.55,0,0,1,.19.14.62.62,0,0,1,.12.19A.69.69,0,0,1,106.58,72Zm-.16,0a.38.38,0,0,0-.1-.3.55.55,0,0,0-.33-.12h0a.55.55,0,0,0-.35.07.36.36,0,0,0-.14.28.36.36,0,0,0,.1.29.55.55,0,0,0,.33.12h0a.51.51,0,0,0,.34-.07A.34.34,0,0,0,106.42,72Z"/><path class="cls-3" d="M105.11,69.92l.15.1v1.06l0,.17.12-.21.44-.66.15.1-.68,1-.17-.12v-1l0-.19-.12.23-.43.64-.15-.1Z"/><path class="cls-3" d="M103.91,69.18l-.18.31a.22.22,0,0,1,.07-.07.36.36,0,0,1,.12-.08.37.37,0,0,1,.35,0,.48.48,0,0,1,.24.34.67.67,0,0,1-.13.46.74.74,0,0,1-.17.21.71.71,0,0,1-.21.11.55.55,0,0,1-.22,0,.47.47,0,0,1-.22-.09.49.49,0,0,1-.22-.23.47.47,0,0,1,0-.29l.19.06a.27.27,0,0,0,0,.18.31.31,0,0,0,.14.14.33.33,0,0,0,.29,0,.61.61,0,0,0,.27-.24h0a.71.71,0,0,0,.07-.16.28.28,0,0,0,0-.15.33.33,0,0,0,0-.14.43.43,0,0,0-.12-.11l-.14-.06h-.13l-.09,0-.07,0,0,.1.26.17-.09.14-.42-.27.35-.54Z"/><path class="cls-3" d="M102.71,69.85l-.41-.26a.53.53,0,0,1-.24-.26.29.29,0,0,1,0-.27l.07-.09a.41.41,0,0,1,.11-.07l.13,0a.32.32,0,0,1,.17.06v0l-.06,0-.06-.07a.28.28,0,0,1,0-.2.69.69,0,0,1,.11-.26v0l.18.12,0,0a.56.56,0,0,0-.1.27.37.37,0,0,0,0,.19l.07,0,.08,0,.11.08.07.06.26-.42.16.1Zm0-.72-.14-.08-.1,0-.08,0a.16.16,0,0,0-.07.07.24.24,0,0,0,0,.16.35.35,0,0,0,.15.15l.19.13.06,0,0-.07.2-.31Z"/><path class="cls-3" d="M101.26,67.5l.17.11-.07.32.44.28.26-.2.17.11-1,.77-.21-.13Zm0,.64-.1.44-.08.19.14-.14.37-.29.06,0h-.08l-.26-.17,0-.07Z"/><path class="cls-3" d="M100.64,67.11l.16.1-.52.83-.06.07h0l.1,0,.25.16-.09.15-.81-.51.1-.15.25.16.06.08h0l0-.08Z"/><path class="cls-3" d="M99.72,66.4a.67.67,0,0,1,.18.34.46.46,0,0,1-.09.33l-.15-.15a.29.29,0,0,0,0-.2.39.39,0,0,0-.11-.21.26.26,0,0,0-.17-.09.18.18,0,0,0-.13.06.1.1,0,0,0,0,.07.28.28,0,0,0,0,.09l0,.1.06.11a.83.83,0,0,1,.07.13.37.37,0,0,1,0,.14.29.29,0,0,1,0,.13.26.26,0,0,1-.08.13.37.37,0,0,1-.12.07.22.22,0,0,1-.14,0,.25.25,0,0,1-.14,0,.48.48,0,0,1-.15-.11.56.56,0,0,1-.16-.3.44.44,0,0,1,.09-.3l.14.15a.23.23,0,0,0,0,.17.33.33,0,0,0,.1.18.38.38,0,0,0,.16.09.21.21,0,0,0,.13,0,.25.25,0,0,0,0-.07s0-.06,0-.09l-.05-.1,0-.11a.83.83,0,0,1-.07-.13.44.44,0,0,1-.05-.15.2.2,0,0,1,0-.13.26.26,0,0,1,.08-.13.29.29,0,0,1,.26-.1A.43.43,0,0,1,99.72,66.4Z"/><path class="cls-3" d="M99.34,65.17a.51.51,0,0,1-.1.21.73.73,0,0,1-.16.14.79.79,0,0,1-.22.06.78.78,0,0,1-.26,0,.58.58,0,0,1-.24-.1.52.52,0,0,1-.17-.16.46.46,0,0,1-.09-.2.6.6,0,0,1,0-.23.54.54,0,0,1,.18-.31.54.54,0,0,1,.37-.11l0,.21a.29.29,0,0,0-.23.06.36.36,0,0,0-.11.19.34.34,0,0,0,.06.28.52.52,0,0,0,.31.17h0a.55.55,0,0,0,.34,0,.31.31,0,0,0,.18-.22.36.36,0,0,0,0-.23.32.32,0,0,0-.18-.16l.09-.18a.51.51,0,0,1,.25.25A.62.62,0,0,1,99.34,65.17Z"/><path class="cls-3" d="M100.06,64.2a.65.65,0,0,1-.22.11.41.41,0,0,1-.22,0,.48.48,0,0,1-.21-.09.64.64,0,0,1-.19-.18.85.85,0,0,1-.13-.22,1,1,0,0,1,0-.23.57.57,0,0,1,.07-.22.75.75,0,0,1,.17-.19.57.57,0,0,1,.22-.11.42.42,0,0,1,.22,0,.58.58,0,0,1,.22.08,1.07,1.07,0,0,1,.19.18.64.64,0,0,1,.12.23.47.47,0,0,1,0,.23.44.44,0,0,1-.07.22A.6.6,0,0,1,100.06,64.2Zm-.1-.14a.35.35,0,0,0,.16-.27.56.56,0,0,0-.13-.33h0a.46.46,0,0,0-.28-.21.38.38,0,0,0-.45.34.51.51,0,0,0,.13.33h0a.57.57,0,0,0,.29.21A.32.32,0,0,0,100,64.06Z"/><path class="cls-3" d="M101.74,63.09l-.15.1-1-.44-.15-.09.15.19.43.67-.16.1-.64-1,.18-.12.92.43.16.1-.17-.2-.41-.64.16-.1Z"/><path class="cls-3" d="M102.91,62.35l-.2-.29,0,.09a.61.61,0,0,1,0,.14.5.5,0,0,1,0,.16.37.37,0,0,1-.14.14.52.52,0,0,1-.41.08.69.69,0,0,1-.37-.32.62.62,0,0,1-.1-.24.54.54,0,0,1,.07-.44.55.55,0,0,1,.17-.17.58.58,0,0,1,.3-.09.49.49,0,0,1,.28.09l-.13.15a.41.41,0,0,0-.17-.07.32.32,0,0,0-.19.07.33.33,0,0,0-.16.25.53.53,0,0,0,.1.34v0a.69.69,0,0,0,.11.13.26.26,0,0,0,.13.08.22.22,0,0,0,.14,0,.24.24,0,0,0,.15-.06.4.4,0,0,0,.12-.1l.05-.11a.44.44,0,0,0,0-.1v-.07l-.06-.09-.27.16-.09-.14.42-.26.35.54Z"/><path class="cls-3" d="M102.82,61l.41-.26a.56.56,0,0,1,.34-.11.32.32,0,0,1,.23.15.3.3,0,0,1,0,.1.25.25,0,0,1,0,.12.25.25,0,0,1,0,.14.36.36,0,0,1-.12.13h0l.08,0,.08,0a.35.35,0,0,1,.2,0,.78.78,0,0,1,.19.21l0,0-.18.11,0-.05a.69.69,0,0,0-.21-.21.38.38,0,0,0-.18-.06s0,0-.06,0l-.07.05-.11.07-.09,0,.27.42-.16.1Zm.66.27a.48.48,0,0,0,.13-.09.28.28,0,0,0,.07-.09.11.11,0,0,0,0-.08l0-.1a.2.2,0,0,0-.13-.09.4.4,0,0,0-.2.07l-.2.12L103,61l0,0,.2.31Z"/><path class="cls-3" d="M105.55,60.68l-.17.11-.26-.2-.44.28.07.32-.17.11L104.32,60l.2-.13Zm-.6-.22-.35-.29-.14-.15.07.19.1.46v.06l0-.06.27-.17H105Z"/><path class="cls-3" d="M106.28,60l-.12.16-.79-.58-.06-.06h0l0,.1-.18.24-.14-.1.56-.78.15.11-.18.24-.09,0h0l.08,0Z"/><path class="cls-3" d="M106.45,58.22a.65.65,0,0,1,0,.39.48.48,0,0,1-.24.25l-.06-.21a.23.23,0,0,0,.14-.15.49.49,0,0,0,0-.24c0-.08-.06-.13-.11-.15a.17.17,0,0,0-.14,0,.18.18,0,0,0-.07,0l0,.08a.41.41,0,0,0,0,.11v.28a.59.59,0,0,1,0,.14.75.75,0,0,1-.07.12.32.32,0,0,1-.13.07.23.23,0,0,1-.14,0,.28.28,0,0,1-.13,0,.38.38,0,0,1-.11-.11.6.6,0,0,1-.08-.16.49.49,0,0,1,0-.34.37.37,0,0,1,.22-.22l0,.19a.22.22,0,0,0-.12.13.28.28,0,0,0,0,.2c0,.08,0,.13.1.15a.15.15,0,0,0,.13,0,.12.12,0,0,0,.07-.05l0-.08a.37.37,0,0,0,0-.11v-.27a.68.68,0,0,1,0-.15.75.75,0,0,1,.07-.12.41.41,0,0,1,.13-.08.42.42,0,0,1,.29,0A.47.47,0,0,1,106.45,58.22Z"/><path class="cls-3" d="M105.78,56.52a.43.43,0,0,1,0,.22.54.54,0,0,1,0,.21.6.6,0,0,1-.15.18.91.91,0,0,1-.22.13,1.22,1.22,0,0,1-.26.06.54.54,0,0,1-.22,0,.45.45,0,0,1-.19-.11.69.69,0,0,1-.13-.2.5.5,0,0,1,0-.36.48.48,0,0,1,.24-.29l.07.19a.32.32,0,0,0-.15.18.34.34,0,0,0,0,.22.32.32,0,0,0,.21.2.5.5,0,0,0,.35,0h0a.5.5,0,0,0,.27-.21.31.31,0,0,0,0-.28.3.3,0,0,0-.37-.21l0-.2a.52.52,0,0,1,.35.06A.64.64,0,0,1,105.78,56.52Z"/><path class="cls-3" d="M105.23,55.13a.59.59,0,0,1,0,.25.54.54,0,0,1,0,.22.73.73,0,0,1-.14.18,1.26,1.26,0,0,1-.23.13,1.14,1.14,0,0,1-.25.06.59.59,0,0,1-.23,0,.44.44,0,0,1-.19-.12.69.69,0,0,1-.14-.22.51.51,0,0,1,0-.24.42.42,0,0,1,0-.22.59.59,0,0,1,.14-.18.73.73,0,0,1,.23-.13.57.57,0,0,1,.25-.06.85.85,0,0,1,.23,0,.59.59,0,0,1,.19.13A.74.74,0,0,1,105.23,55.13Zm-.15.06a.4.4,0,0,0-.22-.22.49.49,0,0,0-.35,0h0a.49.49,0,0,0-.28.22.35.35,0,0,0,0,.3.34.34,0,0,0,.22.22.54.54,0,0,0,.35,0h0a.64.64,0,0,0,.28-.22A.37.37,0,0,0,105.08,55.19Z"/><path class="cls-3" d="M104.46,53.26l.06.17-.61.86-.11.13.22-.11.74-.3.06.17-1.12.44-.08-.19.59-.83.13-.13-.23.12-.71.28-.07-.17Z"/><path class="cls-3" d="M103.94,52l-.33.15.1,0h.14a.51.51,0,0,1,.15.07.4.4,0,0,1,.12.16.51.51,0,0,1,0,.42.66.66,0,0,1-.38.3l-.26.06a.56.56,0,0,1-.23,0,.52.52,0,0,1-.19-.12.69.69,0,0,1-.13-.2.57.57,0,0,1,0-.31.55.55,0,0,1,.14-.26l.13.16a.26.26,0,0,0-.1.15.29.29,0,0,0,0,.2.32.32,0,0,0,.22.2.49.49,0,0,0,.35,0h0a.54.54,0,0,0,.15-.09.29.29,0,0,0,.11-.11.2.2,0,0,0,0-.13.3.3,0,0,0,0-.16.47.47,0,0,0-.08-.14l-.1-.07-.1,0h-.06l-.11,0,.11.29-.15.06-.18-.46.6-.23Z"/><path class="cls-3" d="M102.63,51.27l.09-.48a.54.54,0,0,1,.16-.32.31.31,0,0,1,.27-.06l.1,0a.25.25,0,0,1,.1.08.35.35,0,0,1,.07.12.35.35,0,0,1,0,.18h0a.31.31,0,0,1,0-.08.56.56,0,0,1,0-.08.28.28,0,0,1,.17-.11.68.68,0,0,1,.28,0h0l0,.21h-.06a.7.7,0,0,0-.29,0,.52.52,0,0,0-.17.09v.08s0,.06,0,.08l0,.13,0,.09.49.1,0,.18Zm.65-.29a.53.53,0,0,0,0-.16.19.19,0,0,0,0-.11l-.06-.06a.29.29,0,0,0-.1,0,.14.14,0,0,0-.15,0,.26.26,0,0,0-.1.19l0,.22,0,.08h.07l.36.08Z"/><path class="cls-3" d="M105.06,49.92l-.18.1-.24-.23-.46.25,0,.32-.18.09-.15-1.28.22-.11Zm-.57-.27-.34-.32-.12-.16,0,.2.07.46v.07l0-.07.28-.14h.09Z"/><path class="cls-3" d="M105.67,50h-.2V48.92h0l-.09,0h-.3v-.18h1V49h-.3l-.09,0h0V50Z"/><path class="cls-3" d="M106.89,50.09a.64.64,0,0,1-.36-.12.49.49,0,0,1-.16-.31h.22a.23.23,0,0,0,.09.18.42.42,0,0,0,.23.08.3.3,0,0,0,.18,0,.18.18,0,0,0,.06-.14.24.24,0,0,0,0-.08.18.18,0,0,0-.07-.05.31.31,0,0,0-.1,0l-.11,0-.15-.05-.12-.08a.24.24,0,0,1-.11-.24.32.32,0,0,1,0-.14.48.48,0,0,1,.09-.11.35.35,0,0,1,.14-.06.35.35,0,0,1,.18,0,.58.58,0,0,1,.32.11.39.39,0,0,1,.13.28h-.2a.22.22,0,0,0-.07-.16.3.3,0,0,0-.2-.06.24.24,0,0,0-.18,0,.17.17,0,0,0-.06.12.19.19,0,0,0,0,.08.18.18,0,0,0,.07.05.31.31,0,0,0,.1,0l.11,0,.15.06a.47.47,0,0,1,.12.07.24.24,0,0,1,.09.11.22.22,0,0,1,0,.14.36.36,0,0,1-.13.26A.44.44,0,0,1,106.89,50.09Z"/><path class="cls-3" d="M108.62,50.21a.71.71,0,0,1-.22-.06.58.58,0,0,1-.17-.14,1,1,0,0,1-.1-.21.72.72,0,0,1,0-.26.92.92,0,0,1,.06-.25.67.67,0,0,1,.12-.2.52.52,0,0,1,.19-.11.45.45,0,0,1,.23,0,.5.5,0,0,1,.5.47H109a.34.34,0,0,0-.09-.22.49.49,0,0,0-.21-.08.33.33,0,0,0-.27.11.5.5,0,0,0-.12.33h0a.59.59,0,0,0,.07.34.34.34,0,0,0,.25.14.38.38,0,0,0,.22,0,.32.32,0,0,0,.13-.21l.19.06a.49.49,0,0,1-.2.29A.59.59,0,0,1,108.62,50.21Z"/><path class="cls-3" d="M110.11,50.3a.48.48,0,0,1-.24-.06.49.49,0,0,1-.18-.14.63.63,0,0,1-.1-.2.74.74,0,0,1,0-.26.71.71,0,0,1,.06-.26.62.62,0,0,1,.12-.19.67.67,0,0,1,.2-.12,1,1,0,0,1,.25,0,.84.84,0,0,1,.24.06.62.62,0,0,1,.18.14.68.68,0,0,1,.1.21,1,1,0,0,1,0,.52.91.91,0,0,1-.13.19.49.49,0,0,1-.2.11A.51.51,0,0,1,110.11,50.3Zm0-.16a.37.37,0,0,0,.3-.11.5.5,0,0,0,.12-.33h0a.52.52,0,0,0-.08-.34.39.39,0,0,0-.56,0,.49.49,0,0,0-.12.33h0a.57.57,0,0,0,.08.34A.34.34,0,0,0,110.12,50.14Z"/><path class="cls-3" d="M112.15,50.41H112l-.52-.93-.07-.15v.24l0,.8h-.18l.08-1.21h.21l.5.88.06.18V50l0-.76h.18Z"/><path class="cls-3" d="M113.86,49.62l-.26-.25.05.08a.57.57,0,0,1,0,.14.33.33,0,0,1-.11.34.48.48,0,0,1-.38.15.68.68,0,0,1-.43-.23.78.78,0,0,1-.15-.22.49.49,0,0,1-.06-.23.57.57,0,0,1,0-.22.59.59,0,0,1,.13-.19.54.54,0,0,1,.28-.16.49.49,0,0,1,.29,0l-.1.18a.24.24,0,0,0-.18,0,.44.44,0,0,0-.17.1.33.33,0,0,0-.1.28.52.52,0,0,0,.16.31l0,0,.13.11a.3.3,0,0,0,.15.05.23.23,0,0,0,.14,0,.55.55,0,0,0,.14-.09.47.47,0,0,0,.09-.12.35.35,0,0,0,0-.12v-.11s0,0,0-.06l-.08-.08-.23.22-.11-.12.36-.35.45.46Z"/><path class="cls-3" d="M113.05,48.34l.12-.48a.65.65,0,0,1,.17-.31.34.34,0,0,1,.28,0l.1,0a.41.41,0,0,1,.16.2.54.54,0,0,1,0,.18h0a.13.13,0,0,1,0-.08.59.59,0,0,1,0-.08.32.32,0,0,1,.18-.1.94.94,0,0,1,.28,0h0l0,.21-.06,0a.58.58,0,0,0-.29,0,.38.38,0,0,0-.17.08s0,0,0,.08,0,.05,0,.08l0,.13,0,.08.48.13,0,.18Zm.68-.26a1.37,1.37,0,0,0,0-.16.2.2,0,0,0,0-.11.15.15,0,0,0,0-.06l-.1,0a.18.18,0,0,0-.16,0,.37.37,0,0,0-.1.18l0,.23,0,.07h.07l.36.09Z"/><path class="cls-3" d="M114.83,46.23l0,.2-.32,0-.13.51.27.18,0,.19-1.06-.74.06-.23Zm-.58.25-.46,0h-.2l.18.09.39.26,0,0v-.08l.08-.3,0-.07Z"/><path class="cls-3" d="M115,45.53l0,.19-1-.24-.09,0h0l0,.09-.08.29-.17,0,.24-.93.17,0-.08.29-.06.08h.09Z"/><path class="cls-3" d="M115.35,44.33a.66.66,0,0,1-.19.33.47.47,0,0,1-.34.09l.06-.2a.26.26,0,0,0,.19-.06.37.37,0,0,0,.12-.21.21.21,0,0,0,0-.18.18.18,0,0,0-.12-.09.08.08,0,0,0-.08,0,.18.18,0,0,0-.07,0l-.06.09-.07.11-.07.13a.52.52,0,0,1-.1.11.24.24,0,0,1-.11.06.19.19,0,0,1-.15,0,.31.31,0,0,1-.13-.06.24.24,0,0,1-.09-.11.57.57,0,0,1,0-.14.65.65,0,0,1,0-.19.49.49,0,0,1,.17-.29.43.43,0,0,1,.3-.08l0,.2a.23.23,0,0,0-.17,0,.32.32,0,0,0-.1.18.21.21,0,0,0,0,.18.14.14,0,0,0,.11.09.11.11,0,0,0,.08,0l.06-.05a.31.31,0,0,0,.07-.09l.06-.11.08-.13.09-.11.13-.07h.15a.38.38,0,0,1,.22.17A.47.47,0,0,1,115.35,44.33Z"/><path class="cls-3" d="M115.78,42.65a.53.53,0,0,1-.11.21.45.45,0,0,1-.17.13.71.71,0,0,1-.22.06L115,43a1.33,1.33,0,0,1-.24-.11.65.65,0,0,1-.16-.17.7.7,0,0,1-.08-.2.6.6,0,0,1,0-.23.53.53,0,0,1,.2-.31.51.51,0,0,1,.36-.09l-.05.2a.39.39,0,0,0-.23,0,.41.41,0,0,0-.12.19.33.33,0,0,0,0,.29.55.55,0,0,0,.3.18h0a.49.49,0,0,0,.34,0,.3.3,0,0,0,.19-.22.41.41,0,0,0,0-.22.35.35,0,0,0-.17-.17l.09-.18a.45.45,0,0,1,.24.27A.59.59,0,0,1,115.78,42.65Z"/><path class="cls-3" d="M116.41,41.59a.53.53,0,0,1-.22.12.55.55,0,0,1-.22,0,.67.67,0,0,1-.21-.09.81.81,0,0,1-.19-.18.89.89,0,0,1-.13-.23.91.91,0,0,1,0-.23.63.63,0,0,1,.07-.22.75.75,0,0,1,.17-.19.65.65,0,0,1,.22-.11.55.55,0,0,1,.22,0,.47.47,0,0,1,.22.09.64.64,0,0,1,.19.18.72.72,0,0,1,.12.23.45.45,0,0,1,0,.23.58.58,0,0,1-.07.21A.6.6,0,0,1,116.41,41.59Zm-.1-.13a.35.35,0,0,0,.15-.28.45.45,0,0,0-.12-.32h0a.55.55,0,0,0-.28-.21.35.35,0,0,0-.3.08.32.32,0,0,0-.15.27.5.5,0,0,0,.13.33h0a.49.49,0,0,0,.28.21A.33.33,0,0,0,116.31,41.46Z"/><path class="cls-3" d="M118,41.49l-.18-.05-.33-1,0-.16,0,.24-.21.77-.17-.05.31-1.17.21.06.31,1,0,.19,0-.26.19-.74.18,0Z"/><path class="cls-3" d="M119,42.32l.21-.28-.07.05-.13.07a.47.47,0,0,1-.17,0,.38.38,0,0,1-.18-.09.47.47,0,0,1-.19-.36.64.64,0,0,1,.18-.45,1.12,1.12,0,0,1,.2-.18.74.74,0,0,1,.22-.08.6.6,0,0,1,.23,0,.56.56,0,0,1,.2.11.58.58,0,0,1,.19.26.48.48,0,0,1,0,.29l-.18-.08a.28.28,0,0,0,0-.18.36.36,0,0,0-.12-.16.32.32,0,0,0-.28-.07.5.5,0,0,0-.3.19v0a1.3,1.3,0,0,0-.1.15,1,1,0,0,0,0,.14.4.4,0,0,0,0,.15.53.53,0,0,0,.1.12.34.34,0,0,0,.14.08l.12,0,.1,0,.07,0,.07-.09-.24-.2.1-.13.38.32-.41.5Z"/><path class="cls-3" d="M120.25,41.81l.38.31a.54.54,0,0,1,.21.29.29.29,0,0,1-.07.26.6.6,0,0,1-.08.08.43.43,0,0,1-.12,0,.28.28,0,0,1-.13,0,.51.51,0,0,1-.17-.08h0l.06.07.05.07a.3.3,0,0,1,0,.21.77.77,0,0,1-.14.24v0l-.17-.13,0,0a.61.61,0,0,0,.14-.26.53.53,0,0,0,0-.18l-.07,0-.07,0-.1-.08-.06-.08-.31.38-.15-.11Zm0,.72.13.09.1,0a.08.08,0,0,0,.08,0,.18.18,0,0,0,.08-.07.18.18,0,0,0,0-.15.31.31,0,0,0-.13-.17l-.17-.15-.06-.06,0,.07-.23.28Z"/><path class="cls-3" d="M121.38,44.31l-.16-.13.11-.31-.4-.33-.28.17-.15-.13,1.12-.64.19.16Zm0-.63.16-.43.1-.18-.16.12-.4.24-.06,0,.07,0,.24.2,0,.08Z"/><path class="cls-3" d="M121.94,44.78l-.15-.13.63-.75.06-.06h0l-.09,0-.23-.19.11-.14.73.61-.11.14-.23-.2,0-.08h0l0,.08Z"/><path class="cls-3" d="M122.88,45.59a.56.56,0,0,1-.21-.31.46.46,0,0,1,0-.34l.17.14a.24.24,0,0,0,0,.2.38.38,0,0,0,.13.19c.07.05.12.08.17.07a.15.15,0,0,0,.13-.07.11.11,0,0,0,0-.07.15.15,0,0,0,0-.09.93.93,0,0,0,0-.1.86.86,0,0,1-.07-.1l-.09-.12a1.12,1.12,0,0,1,0-.13.23.23,0,0,1,0-.14.25.25,0,0,1,.06-.13.31.31,0,0,1,.11-.09.32.32,0,0,1,.14,0,.28.28,0,0,1,.15,0,.6.6,0,0,1,.15.09.49.49,0,0,1,.19.28.39.39,0,0,1,0,.31l-.16-.13a.18.18,0,0,0,0-.17.33.33,0,0,0-.11-.17.29.29,0,0,0-.17-.07.18.18,0,0,0-.13.06.12.12,0,0,0,0,.08.13.13,0,0,0,0,.08.31.31,0,0,0,.05.1l.07.1a.57.57,0,0,1,.08.13.38.38,0,0,1,.06.13.23.23,0,0,1,0,.14.28.28,0,0,1-.06.14.36.36,0,0,1-.25.13A.49.49,0,0,1,122.88,45.59Z"/><path class="cls-3" d="M110.53,58.64l-.35-.31-.32-.33a2.73,2.73,0,0,1-.28-.33,1.71,1.71,0,0,1-.29-.48,1.67,1.67,0,0,1-.11-.53,1.4,1.4,0,0,1,.1-.54,1.59,1.59,0,0,1,.33-.51,1.66,1.66,0,0,1,.5-.36,1.59,1.59,0,0,1,.55-.14,1.33,1.33,0,0,1,.55.09,1.55,1.55,0,0,1,.5.33h0a.11.11,0,0,1,0,.09.1.1,0,0,1,0,.09l-.44.46a.13.13,0,0,1-.09,0,.18.18,0,0,1-.09,0h0a.5.5,0,0,0-.17-.11.78.78,0,0,0-.22,0,.68.68,0,0,0-.23,0,.77.77,0,0,0-.22.16.63.63,0,0,0-.2.42.66.66,0,0,0,.14.38l.28.32.33.34.34.31.34.27a.53.53,0,0,0,.38.12.57.57,0,0,0,.41-.21.59.59,0,0,0,.19-.45.52.52,0,0,0,0-.21.34.34,0,0,0-.11-.17h0a.1.1,0,0,1,0-.09.08.08,0,0,1,0-.09l.44-.46a.13.13,0,0,1,.09,0,.12.12,0,0,1,.09,0h0a1.49,1.49,0,0,1,.46,1,1.51,1.51,0,0,1-.12.55,1.59,1.59,0,0,1-.35.52,1.48,1.48,0,0,1-.49.35,1.4,1.4,0,0,1-.53.11,1.43,1.43,0,0,1-.54-.09,1.77,1.77,0,0,1-.49-.26A3.92,3.92,0,0,1,110.53,58.64Z"/><path class="cls-3" d="M113.34,55.86c-.09-.12-.18-.25-.26-.38s-.17-.26-.25-.39l-.2-.38a1.48,1.48,0,0,1-.17-.54,1.4,1.4,0,0,1,0-.54,1.22,1.22,0,0,1,.21-.5,1.57,1.57,0,0,1,.43-.42,1.48,1.48,0,0,1,.56-.23,1.28,1.28,0,0,1,.55,0,1.42,1.42,0,0,1,.5.2,1.64,1.64,0,0,1,.42.37,3.37,3.37,0,0,1,.27.34l.26.37.25.4a2.72,2.72,0,0,1,.2.37,1.72,1.72,0,0,1,.18.54,1.4,1.4,0,0,1,0,.54,1.26,1.26,0,0,1-.21.51,1.44,1.44,0,0,1-.43.42,1.62,1.62,0,0,1-.55.23,1.69,1.69,0,0,1-.55,0,1.62,1.62,0,0,1-.51-.21,1.64,1.64,0,0,1-.42-.37Zm.23-1.26c.08.13.16.26.25.39s.17.26.27.38l.26.34a.59.59,0,0,0,.35.2.58.58,0,0,0,.45-.12.6.6,0,0,0,.29-.37.65.65,0,0,0,0-.39c-.06-.12-.13-.25-.21-.38s-.16-.26-.25-.39-.18-.26-.26-.39l-.27-.34a.57.57,0,0,0-.8-.08.61.61,0,0,0-.28.37.62.62,0,0,0,.05.4Z"/><path class="cls-3" d="M117.46,55.21,116,51.28a.14.14,0,0,1,0-.09.12.12,0,0,1,.07-.07l.71-.27a.17.17,0,0,1,.12,0,.18.18,0,0,1,.07,0l1.67,2s0,0,0,0a0,0,0,0,0,0,0l-.84-2.23a.12.12,0,0,1,0-.1.16.16,0,0,1,.07-.07l.59-.22a.12.12,0,0,1,.1,0,.13.13,0,0,1,.07.06l1.47,3.93a.17.17,0,0,1,0,.1.13.13,0,0,1-.07.06l-.7.27a.2.2,0,0,1-.13,0l-.07,0-1.6-1.79s0,0,0,0a.07.07,0,0,0,0,.05l.78,2a.12.12,0,0,1,0,.1.11.11,0,0,1-.06.07l-.6.22h-.1A.13.13,0,0,1,117.46,55.21Z"/><path class="cls-3" d="M120.59,52.4c0-.15,0-.3-.07-.46s0-.31,0-.46a3.17,3.17,0,0,1,0-.43,1.7,1.7,0,0,1,.07-.55,1.52,1.52,0,0,1,.25-.49,1.39,1.39,0,0,1,.4-.36,1.53,1.53,0,0,1,.58-.19,1.55,1.55,0,0,1,.61,0,1.45,1.45,0,0,1,.52.23,1.33,1.33,0,0,1,.37.41,1.43,1.43,0,0,1,.19.56h0a.1.1,0,0,1,0,.09.11.11,0,0,1-.09,0l-.62.09a.1.1,0,0,1-.1,0,.14.14,0,0,1,0-.08h0a.44.44,0,0,0-.07-.19.43.43,0,0,0-.14-.16.53.53,0,0,0-.21-.11.6.6,0,0,0-.27,0,.56.56,0,0,0-.54.59c0,.13,0,.28,0,.43s0,.3.05.46,0,.31.07.46.07.29.1.42a.59.59,0,0,0,.22.33.58.58,0,0,0,.46.09.72.72,0,0,0,.44-.2.43.43,0,0,0,.13-.38l0-.28a.05.05,0,0,0-.07,0l-.43.06-.09,0a.14.14,0,0,1,0-.08l-.08-.6a.1.1,0,0,1,0-.09s0,0,.09,0l1.22-.17a.1.1,0,0,1,.1,0,.16.16,0,0,1,.05.08l.14,1a1.13,1.13,0,0,1,0,.55,1.34,1.34,0,0,1-.25.49,1.53,1.53,0,0,1-.43.36,1.65,1.65,0,0,1-.58.19,1.54,1.54,0,0,1-.61,0,1.4,1.4,0,0,1-.49-.24,1.57,1.57,0,0,1-.37-.4,1.92,1.92,0,0,1-.22-.51C120.66,52.69,120.62,52.55,120.59,52.4Z"/><path class="cls-3" d="M124.52,53.6l.32-4.19a.12.12,0,0,1,0-.08l.09,0,1.4.1a1.5,1.5,0,0,1,.51.15,1.38,1.38,0,0,1,.4.32,1.48,1.48,0,0,1,.25.44,1.36,1.36,0,0,1,.07.53,1.24,1.24,0,0,1-.21.62,1.79,1.79,0,0,1-.54.45.16.16,0,0,0-.08.09.35.35,0,0,0,0,.12l.55,1.63a.15.15,0,0,1,0,.13.12.12,0,0,1-.13,0l-.65,0a.21.21,0,0,1-.12,0l-.06-.1-.53-1.61a.09.09,0,0,0,0-.06.08.08,0,0,0-.07,0l-.17,0a.05.05,0,0,0-.06.06l-.13,1.58a.1.1,0,0,1,0,.09.16.16,0,0,1-.09,0l-.64-.05a.12.12,0,0,1-.08,0A.09.09,0,0,1,124.52,53.6Zm1.08-2.53a.07.07,0,0,0,.06.07l.57,0a.46.46,0,0,0,.33-.11.44.44,0,0,0,.15-.3.42.42,0,0,0-.11-.32.41.41,0,0,0-.3-.16l-.57,0a.07.07,0,0,0-.07.06Z"/><path class="cls-3" d="M127.67,53.85,130,50.12a.1.1,0,0,1,.14-.06l.81.25a.1.1,0,0,1,.09.12l-.11,4.37v0l0,.05a.16.16,0,0,1-.12,0l-.64-.19a.15.15,0,0,1-.09-.13v-.68s0,0,0-.07a.1.1,0,0,0-.06,0L129,53.5s-.09,0-.12.06l-.36.58a.1.1,0,0,1-.14.06l-.64-.19s-.08,0-.09-.07a.08.08,0,0,1,0-.07Zm1.75-1.23s0,0,0,0,0,0,0,.05l.56.17s.06,0,.07,0v0l.14-1.54a.05.05,0,0,0,0,0h0s0,0,0,0Z"/><path class="cls-3" d="M132.31,51.58l.28-.57a.12.12,0,0,1,.08-.06.14.14,0,0,1,.09,0l2.33,1.17a.12.12,0,0,1,.06.08.14.14,0,0,1,0,.09l-.29.57a.11.11,0,0,1-.07.06h-.1l-.71-.36s-.06,0-.08,0l-1.52,3a.09.09,0,0,1-.07.06.12.12,0,0,1-.1,0l-.57-.28a.12.12,0,0,1-.06-.08.1.1,0,0,1,0-.09l1.51-3s0-.06,0-.09l-.71-.35s-.05,0-.06-.07A.11.11,0,0,1,132.31,51.58Z"/><path class="cls-3" d="M134.18,55.2l.11-.15a.13.13,0,0,1,.09,0,.15.15,0,0,1,.09,0l.5.4a.11.11,0,0,1,.05.08.13.13,0,0,1,0,.09l-.12.15a.48.48,0,0,0-.1.4.65.65,0,0,0,.27.4.7.7,0,0,0,.46.16.5.5,0,0,0,.36-.19.36.36,0,0,0,.07-.34,1.46,1.46,0,0,0-.28-.47,2.94,2.94,0,0,1-.34-.47,1.81,1.81,0,0,1-.2-.49,1.34,1.34,0,0,1,0-.49,1.24,1.24,0,0,1,.24-.49,1.3,1.3,0,0,1,.4-.34,1.16,1.16,0,0,1,.5-.15,1.42,1.42,0,0,1,.54,0,1.81,1.81,0,0,1,.92.71,1.33,1.33,0,0,1,.19.51,1.3,1.3,0,0,1,0,.52,1.19,1.19,0,0,1-.23.48l-.06.08a.13.13,0,0,1-.09.05.14.14,0,0,1-.09,0l-.51-.39a.1.1,0,0,1,0-.08.09.09,0,0,1,0-.09L137,55a.45.45,0,0,0,.09-.36.56.56,0,0,0-.24-.37.58.58,0,0,0-.4-.15.42.42,0,0,0-.31.17.35.35,0,0,0-.05.33,1,1,0,0,0,.22.38,4.09,4.09,0,0,1,.37.51,1.61,1.61,0,0,1,.22.51,1.19,1.19,0,0,1,0,.53,1.24,1.24,0,0,1-.25.52,1.44,1.44,0,0,1-.44.38,1.35,1.35,0,0,1-.52.15,1.46,1.46,0,0,1-.57-.08,2,2,0,0,1-.55-.29,1.76,1.76,0,0,1-.41-.46,1.56,1.56,0,0,1-.2-.53,1.4,1.4,0,0,1,0-.54A1.38,1.38,0,0,1,134.18,55.2Z"/><path class="cls-3" d="M136.23,58.45l.55-.53a.14.14,0,0,1,.09,0,.11.11,0,0,1,.08,0l.48.5a.1.1,0,0,1,0,.09.09.09,0,0,1,0,.08l-.55.53a.14.14,0,0,1-.09,0,.07.07,0,0,1-.08,0l-.48-.5a.09.09,0,0,1,0-.09A.09.09,0,0,1,136.23,58.45Zm1-.94,2.08-2a.09.09,0,0,1,.07,0,.13.13,0,0,1,.08,0l.47.5a.08.08,0,0,1,0,.08.09.09,0,0,1,0,.07l-2.08,2a.09.09,0,0,1-.07,0,.11.11,0,0,1-.08,0l-.47-.5a.06.06,0,0,1,0-.07A.08.08,0,0,1,137.2,57.51Z"/><path class="cls-3" d="M114,63.51l-.7-1.81h.43l.46,1.28a.58.58,0,0,1,0,.17h0l.11-.17.92-1.28h.46l-1.33,1.81-.22,1.2h-.4Z"/><path class="cls-3" d="M115.64,63.44a1.63,1.63,0,0,1,1.55-1.81A1.21,1.21,0,0,1,118.48,63a1.63,1.63,0,0,1-1.55,1.81A1.21,1.21,0,0,1,115.64,63.44Zm2.41-.46c0-.8-.45-1-.86-1-.86,0-1.12.85-1.12,1.46,0,.8.45,1,.86,1C117.79,64.44,118.05,63.6,118.05,63Z"/><path class="cls-3" d="M119.82,61.7l-.34,1.88c-.09.55.14.85.68.85s.74-.34.82-.8l.35-1.93h.4l-.37,2.08a1.12,1.12,0,0,1-1.23,1,.94.94,0,0,1-1-1.24l.33-1.84Z"/><path class="cls-3" d="M123.37,63.45c0-.84.4-1.82,1.52-1.82a1,1,0,0,1,1.17,1.06l-.4,0a.72.72,0,0,0-.79-.76c-.8,0-1.07.82-1.07,1.45,0,.84.43,1,.81,1a.86.86,0,0,0,.87-.73l.39.07a1.2,1.2,0,0,1-1.25,1A1.17,1.17,0,0,1,123.37,63.45Z"/><path class="cls-3" d="M128.23,63.84H127l-.46.87h-.43l1.67-3h.39l.61,3h-.39Zm-.06-.34L128,62.33c0-.07,0-.14,0-.23h0a1.23,1.23,0,0,1-.11.23l-.62,1.17Z"/><path class="cls-3" d="M130,61.7h.48l.86,2.2c.06.15.1.26.14.39h0a2.78,2.78,0,0,1,.06-.4l.39-2.19h.35l-.53,3h-.47l-.87-2.21a2.22,2.22,0,0,1-.14-.38h0c0,.1,0,.21-.05.4l-.39,2.19h-.36Z"/><path class="cls-3" d="M133,62.61a.41.41,0,0,0,.32-.39v0H133l.09-.5h.49l-.08.47c-.08.43-.28.57-.49.63Z"/><path class="cls-3" d="M136.38,62h-.95L135,64.71h-.4L135,62h-.94l0-.34h2.3Z"/><path class="cls-3" d="M111,68.4l.42-.06a.67.67,0,0,0,.76.7c.5,0,.7-.22.7-.54s-.21-.41-.44-.48l-.34-.09c-.4-.12-.75-.32-.75-.83s.3-.88,1.1-.88c.59,0,1,.25,1.07.85l-.39.09a.61.61,0,0,0-.68-.62c-.56,0-.67.31-.67.53s.23.43.47.5l.32.09c.41.12.74.27.74.82,0,.4-.2.89-1.13.89C111.54,69.37,111.05,69.08,111,68.4Z"/><path class="cls-3" d="M116.42,67.09c0,.45-.28,1-1.18,1h-.67l-.22,1.23h-.41l.54-3h1C115.93,66.29,116.42,66.49,116.42,67.09Zm-.42,0c0-.38-.26-.49-.6-.49h-.58l-.2,1.1h.56C115.87,67.73,116,67.37,116,67.12Z"/><path class="cls-3" d="M117.56,66.63l-.17,1h1.39l-.06.34h-1.39l-.18,1h1.49l-.06.34h-1.89l.53-3h1.86l-.06.34Z"/><path class="cls-3" d="M121.24,68.43H120l-.46.87h-.44l1.67-3h.4l.61,3h-.4Zm-.06-.34L121,66.92c0-.07,0-.14,0-.23h0a2.42,2.42,0,0,1-.12.23l-.62,1.17Z"/><path class="cls-3" d="M123.86,67.49l.88,1.81h-.46l-.72-1.54-.56.51-.18,1h-.4l.53-3h.4l-.26,1.47,1.58-1.47h.51Z"/><path class="cls-3" d="M127.41,68.1l-.7-1.81h.43l.47,1.28a1.28,1.28,0,0,1,0,.17h0a1.11,1.11,0,0,1,.11-.17l.91-1.28h.47l-1.34,1.81-.21,1.2h-.41Z"/><path class="cls-3" d="M129.08,68a1.62,1.62,0,0,1,1.54-1.81,1.21,1.21,0,0,1,1.29,1.34,1.62,1.62,0,0,1-1.54,1.81A1.21,1.21,0,0,1,129.08,68Zm2.4-.46c0-.8-.45-1-.86-1-.86,0-1.11.84-1.11,1.46,0,.8.45,1,.86,1C131.23,69,131.48,68.18,131.48,67.57Z"/><path class="cls-3" d="M133.25,66.29l-.33,1.88c-.1.55.14.84.68.84s.74-.33.82-.79l.34-1.93h.4l-.36,2.08a1.12,1.12,0,0,1-1.23,1c-.82,0-1.18-.46-1-1.25l.33-1.83Z"/><path class="cls-3" d="M137.2,68l.55,1.29h-.46l-.51-1.25h-.61L136,69.3h-.41l.54-3h1c.55,0,1,.23,1,.8A.91.91,0,0,1,137.2,68Zm.42-.92c0-.36-.26-.46-.55-.46h-.65l-.19,1.08h.61C137.43,67.71,137.62,67.41,137.62,67.09Z"/><path class="cls-3" d="M113.46,70.88h.4l-.47,2.67h1.39l-.06.33h-1.79Z"/><path class="cls-3" d="M117.27,73H116l-.46.86h-.44l1.67-3h.4l.61,3h-.39Zm-.06-.34L117,71.5a1.3,1.3,0,0,1,0-.22h0l-.11.22-.63,1.18Z"/><path class="cls-3" d="M119,70.88h.48l.87,2.2a3.57,3.57,0,0,1,.14.38h0c0-.1,0-.21.06-.4l.39-2.18h.36l-.53,3h-.48l-.87-2.2a3.71,3.71,0,0,1-.14-.39h0a2.78,2.78,0,0,1-.06.4l-.39,2.19h-.35Z"/><path class="cls-3" d="M121.75,72.66a1.65,1.65,0,0,1,1.58-1.85,1,1,0,0,1,1.12.91l-.41,0a.67.67,0,0,0-.74-.63c-.83,0-1.12.83-1.12,1.52s.31,1,.78,1a1,1,0,0,0,1-.86v-.1h-.87l.06-.34h1.24l-.28,1.57h-.3l0-.47a1,1,0,0,1-.95.55C122.3,74,121.75,73.6,121.75,72.66Z"/><path class="cls-3" d="M125.82,70.88l-.34,1.88c-.09.55.14.84.68.84s.74-.33.82-.79l.35-1.93h.4L127.36,73a1.12,1.12,0,0,1-1.23,1,1,1,0,0,1-1-1.25l.33-1.83Z"/><path class="cls-3" d="M129.83,73h-1.22l-.47.86h-.43l1.67-3h.39l.61,3H130Zm-.06-.34-.21-1.18c0-.06,0-.14,0-.22h0a1.13,1.13,0,0,1-.11.22l-.62,1.18Z"/><path class="cls-3" d="M130.83,72.66a1.65,1.65,0,0,1,1.58-1.85,1,1,0,0,1,1.11.91l-.4,0a.67.67,0,0,0-.74-.63c-.84,0-1.12.83-1.12,1.52s.31,1,.77,1a1,1,0,0,0,1-.86l0-.1h-.88l.06-.34h1.24l-.28,1.57h-.29l0-.47a1,1,0,0,1-1,.55C131.38,74,130.83,73.6,130.83,72.66Z"/><path class="cls-3" d="M134.89,71.22l-.17,1h1.39l-.06.34h-1.39l-.18,1H136l-.06.33H134l.53-3h1.86l0,.34Z"/><path class="cls-3" d="M121.94,80.9l.18-.76a.14.14,0,0,1,0-.09.18.18,0,0,1,.09,0H123a.09.09,0,0,1,.08,0,.1.1,0,0,1,0,.09l-.15.76a.18.18,0,0,1-.06.09.13.13,0,0,1-.1,0H122a.09.09,0,0,1-.08,0A.1.1,0,0,1,121.94,80.9Zm.31-1.36.65-2.86,0-.07a.11.11,0,0,1,.08,0h.68a.07.07,0,0,1,.07,0,.1.1,0,0,1,0,.09l-.57,2.85s0,0,0,.06a.14.14,0,0,1-.09,0h-.74a.08.08,0,0,1-.07,0A.12.12,0,0,1,122.25,79.54Z"/><path class="cls-3" d="M123.8,80.9l.18-.76a.14.14,0,0,1,0-.09.18.18,0,0,1,.09,0h.75a.09.09,0,0,1,.08,0,.1.1,0,0,1,0,.09l-.15.76a.18.18,0,0,1-.06.09.13.13,0,0,1-.1,0h-.76a.09.09,0,0,1-.08,0A.1.1,0,0,1,123.8,80.9Zm.31-1.36.65-2.86,0-.07a.11.11,0,0,1,.08,0h.68a.07.07,0,0,1,.07,0,.1.1,0,0,1,0,.09l-.57,2.85s0,0,0,.06a.16.16,0,0,1-.09,0h-.74a.08.08,0,0,1-.07,0A.08.08,0,0,1,124.11,79.54Z"/><path class="cls-3" d="M125.66,80.9l.17-.76a.24.24,0,0,1,.06-.09.18.18,0,0,1,.09,0h.75a.09.09,0,0,1,.08,0,.1.1,0,0,1,0,.09l-.15.76a.18.18,0,0,1-.06.09.13.13,0,0,1-.1,0h-.76a.09.09,0,0,1-.08,0A.1.1,0,0,1,125.66,80.9Zm.31-1.36.65-2.86,0-.07a.11.11,0,0,1,.08,0h.68a.08.08,0,0,1,.07,0,.1.1,0,0,1,0,.09l-.57,2.85a.1.1,0,0,1,0,.06.16.16,0,0,1-.09,0h-.74a.1.1,0,0,1-.08,0A.11.11,0,0,1,126,79.54Z"/><polygon class="cls-4" points="123.63 14.91 124.63 14.91 124.85 13.65 123.86 13.65 124.21 11.66 123.21 11.66 123.39 10.66 122.13 10.66 121.95 11.66 120.95 11.66 120.03 16.9 121.03 16.9 120.85 17.9 122.11 17.9 122.29 16.9 123.28 16.9 123.63 14.91"/><polygon class="cls-4" points="19.96 15.63 17.7 15.63 17.53 16.63 16.53 16.63 16.48 16.9 17.48 16.9 17.3 17.9 18.57 17.9 18.75 16.9 19.73 16.9 19.96 15.63"/><polygon class="cls-4" points="69.55 11.66 68.55 11.66 68.73 10.66 67.47 10.66 67.29 11.66 66.3 11.66 65.94 13.65 64.95 13.65 64.73 14.91 65.72 14.91 65.37 16.9 66.37 16.9 66.19 17.9 67.45 17.9 67.63 16.9 68.62 16.9 68.97 14.91 69.97 14.91 70.19 13.65 69.2 13.65 69.55 11.66"/><polygon class="cls-4" points="155.5 11.66 154.51 11.66 154.68 10.66 153.42 10.66 153.24 11.66 152.25 11.66 151.9 13.65 150.9 13.65 150.68 14.91 151.68 14.91 151.32 16.9 152.32 16.9 152.14 17.9 153.41 17.9 153.58 16.9 154.58 16.9 154.93 14.91 155.92 14.91 156.15 13.65 155.15 13.65 155.5 11.66"/><polygon class="cls-4" points="97.02 6.69 96.03 6.69 96.2 5.69 92.95 5.69 92.2 9.94 95.45 9.94 95.8 7.95 97.79 7.95 97.84 7.68 96.85 7.68 97.02 6.69"/><path d="M2.82,5.69h2L2.65,17.9h-2L.19,20.6H7.87l.48-2.7h-2L8.51,5.69h2L11,3H3.3Zm.71-2.42h7.12l-.11.67-.18,1-.08.48h-2L6,18.18H8l-.11.68-.18,1-.08.48H.52l.12-.67.17-1,.08-.48h2L5.13,5.41h-2l.12-.68.17-1Z"/><path d="M20,17.19l.33-1.84H17.47l-.09.52-.08.47h-1l-.15.85h1l-.12.67-.06.32H18.8l.09-.52.08-.47h1Zm-1.21-.29-.18,1H17.3l.18-1h-1l.05-.27h1l.17-1H20l-.22,1.27Z"/><path d="M23.27,17.9l1.4-8h-1l.17-1h-1L23,8H16.34l-.17,1h-1l-.17,1H14l-.48,2.71h3.7l.18-1h1l.18-1h1.27l-.18,1h1l-.05.27h-1l-.17,1h-3l-.17,1h-2l-.18,1h-1l-.65,3.71h1l-.18,1h1l-.18,1h5.7l.18-1h.26l-.17,1h3.71l.47-2.7Zm.37,1.94-.08.48H20.41l.11-.67.06-.32h-.82l-.09.51-.09.48H14.44l.12-.67,0-.32h-1l.12-.67,0-.33h-1l.11-.67.36-2,.08-.47h1l.09-.52.08-.48h2l.1-.52.08-.47h3l.1-.52.08-.47h1l.15-.85H20l.12-.67.05-.32H18.35l-.09.52-.08.47h-1l-.09.52-.09.48H13.86L14,11.7l.17-1,.09-.47h1l.1-.53.08-.47h1l.1-.52.08-.47H22.7l-.11.67-.06.32h1l-.11.67-.06.33h1l-.11.67-1.29,7.28h1l-.12.68Z"/><path d="M43.3,9.94l.18-1h-1l.18-1H37l-.17,1H35.52l.18-1h-5l.17-1H28.19L28,8H27l-.18,1h-1l-.48,2.71h1l-1.1,6.24h-1l-.47,2.7h5.69L30,17.9H29l1.1-6.24h1l.17-1H32.5l-.17,1h1l-1.1,6.24h-1l-.48,2.7h5.7l.48-2.7h-1L37,11.66h1l.17-1h1.27l-.18,1h1l-1.1,6.24h-1l-.48,2.7h5.7l.48-2.7h-1l1.41-8Zm-.73,8.24h1l-.12.68-.17,1-.08.48H38l.12-.67.17-1,.09-.48h1l1.2-6.81h-1l.12-.67,0-.32H38l-.1.52-.08.47h-1L35.6,18.18h1l-.12.68-.17,1-.09.48H31.08l.12-.67.17-1,.09-.48h1l1.2-6.81h-1l.12-.67,0-.32H31l-.1.52-.08.47h-1l-1.2,6.81h1l-.12.68-.17,1-.09.48H24.13l.11-.67.18-1,.08-.48h1l1.2-6.81h-1l.12-.67.18-1,.08-.47h1l.09-.52.08-.47h1l.09-.53.08-.47h2.16l-.12.67-.05.33h5l-.12.67-.06.32H37l.09-.52.08-.47h5.14l-.12.67-.06.32h1L43,9.9l-.06.33h1l-.12.67Z"/><path d="M61.2,9.94h-1l.17-1h-1l.17-1H54.09l.18-1H51.56l-.18,1h-1l-.18,1h-1l-.48,2.71h1l-1.1,6.24h-1l-.47,2.7h5.69l.48-2.7h-1l1.1-6.24h1l.17-1h1.76l-.17,1h1l-1.1,6.24h-1l-.48,2.7h5.7l.48-2.7h-1Zm-.73,8.24-.12.68-.18,1-.08.48H55l.12-.67.17-1,.08-.48h1l1.2-6.81h-1l.12-.67.06-.32H54.38l-.09.52-.08.47h-1L52,18.18h1l-.12.68-.17,1-.09.48H47.49l.12-.67.18-1,.08-.48h1l1.2-6.81h-1l.12-.67.18-1,.08-.47h1l.09-.52.08-.47h1l.09-.53.08-.47h2.16l-.12.67,0,.33h5.47l-.12.67-.06.32h1l-.12.67-.06.33h1l-.11.67-1.29,7.28h1Z"/><path d="M70.21,13.36h-.68l.11-.67.24-1.32h-1L69,10.7l.06-.32H67.24l-.09.52-.09.47h-1l-.27,1.52-.08.47h-1L64.4,15.2h1l-.11.67L65,17.19h1l-.12.67-.06.32h1.82l.09-.52.09-.47h1l.27-1.52.08-.47h1l.32-1.84ZM70,14.91H69l-.36,2h-1l-.18,1H66.19l.18-1h-1l.35-2h-1L65,13.65h1l.36-2h1l.18-1h1.26l-.18,1h1l-.35,2h1Z"/><path d="M73.21,11.93l.35-2h-1l.17-1h-1l.17-1H65.23l-.17,1h-1l-.17,1h-1l-.35,2h-1l-.83,4.7h1l-.35,2h1l-.18,1h1l-.17,1h6.69l.17-1h1l.17-1h1l.35-2h1l.82-4.7Zm0,3.94-.08.47h-1l-.26,1.52-.09.47h-1l-.09.53-.09.47h-1l-.09.51-.09.48H63.33l.12-.67,0-.32h-1l.12-.67,0-.33h-1l.12-.67L62,16.34h-1l.12-.67.52-3,.09-.47h1L63,10.7l.09-.47h1l.09-.53.09-.47h1l.1-.52.08-.47h6.13l-.12.67,0,.32h1l-.12.67-.05.33h1l-.12.67-.23,1.32h1l-.12.67Z"/><path d="M80,6H77.26l-.18,1h-1l-.18,1h-1l-.48,2.71h1l-1.57,9h1l-.17,1h4.7l.17-1h1L81,16.9H78.31l-.17,1h-.27l1.27-7.24h3L82.61,8h-3ZM81.6,8.24h.68l-.12.67L82,9.9l-.08.48h-3l-1.38,7.8h.83l.09-.52.08-.47H80.7l-.12.67-.17,1-.09.47h-1l-.09.51-.09.48H75l.12-.67.06-.32h-1l.12-.67,1.46-8.28h-1l.12-.68.18-1,.08-.47h1l.09-.53.08-.47h1l.09-.52.08-.47h2.16l-.12.67-.23,1.32Z"/><path d="M100.38,8.67,101,5h-1l.35-2H87.74l-.48,2.71h2L87.09,17.9h-2l-.47,2.7h7.68l.48-2.7h-2l.92-5.25H95l-.35,2h2.72l1-6ZM97.79,8h-2l-.35,2H92.2L93,5.69H96.2l-.17,1h1l-.17,1h1ZM97,5.83l.17-1h-5l-1,6h5l.35-2h1l-.88,5h-1l.35-2H91l-1.23,7h2l-.18,1h-6l.17-1h2L90.25,4.83h-2l.17-1H99.38l-.35,2h1l-.35,2h-1l.17-1h-1l.17-1Z"/><path d="M105.86,3h-3.7l-.66,3.71h3.71ZM104.5,5.83h-2l.35-2h2Z"/><path d="M103.23,17.9,105.16,7h-2.71l-.18,1h-1l-.18,1h-1l-.48,2.71h1l-1.1,6.24h-1l-.48,2.7h5.69l.48-2.7ZM103,19.74h-4l.17-1h1l1.41-8h-1l.17-1h1l.18-1h1l.18-1h1l-1.93,11h1Z"/><path d="M108.94,17.9,112.09,0h-2.71l-.17,1h-1L108,2h-1l-.48,2.72h1l-2.33,13.2h-1l-.48,2.7h5.7l.47-2.7Zm-.19,1.84h-4l.18-1h1l2.63-14.92h-1l.17-1h1l.18-1h1l.18-1h1l-3.15,17.9h1Z"/><path d="M117.27,3h-3.71l-.65,3.71h3.71Zm-1.36,2.85h-2l.35-2h2Z"/><path d="M115.64,17.9h-1L116.57,7h-2.71l-.18,1h-1l-.18,1h-1L111,11.66h1l-1.1,6.24h-1l-.47,2.7h5.69Zm-1.19,1.84h-4l.17-1h1l1.4-8h-1l.18-1h1l.18-1h1l.18-1h1l-1.93,11h1Z"/><path d="M123,17.76h1l.35-2h1l.52-3h-1l.35-2h-1l.18-1h-3l-.18,1h-1l-1.23,7h1l-.18,1h3Zm-.89.14h-1.26l.18-1h-1l.93-5.24h1l.18-1h1.26l-.18,1h1l-.35,2h1l-.22,1.26h-1l-.35,2h-1Z"/><path d="M128.86,11.93h-1l.35-2h-1l.18-1h-1l.18-1h-5l.17-1h-2.71l-.17,1h-1l-.18,1h-1l-.48,2.71h1L115.1,23.85h-1l-.48,2.72h5.69l.48-2.72h-1l.58-3.25h5l.17-1h1l.17-1h1l.35-2h1Zm-1.53,3.84h-1l-.35,2h-1l-.18,1h-1l-.18,1h-4l.17-1h-1l-1,5.95h1l-.18,1h-4l.18-1h1l2.46-13.91h-1l.17-1h1l.18-1h1l.18-1h1l-.35,2h1l.17-1h4l-.18,1h1l-.18,1h1l-.35,2h1Z"/><path d="M132.59,17.9,134.52,7h-2.71l-.18,1h-1l-.18,1h-1L129,11.66h1l-1.1,6.24h-1l-.47,2.7h5.69l.48-2.7Zm-.19,1.84h-4l.17-1h1l1.4-8h-1l.18-1h1l.18-1h1l.18-1h1l-1.93,11h1Z"/><path d="M135.22,3h-3.71l-.65,3.71h3.71Zm-1.36,2.85h-2l.35-2h2Z"/><path d="M147.16,9.94h-1l.18-1h-1l.18-1h-5.47l.17-1h-2.71l-.18,1h-1l-.18,1h-1l-.47,2.71h1l-1.1,6.24h-1l-.48,2.7h5.69l.48-2.7h-1l1.1-6.24h1l.17-1h1.76l-.17,1h1L142,17.9h-1l-.48,2.7h5.7l.48-2.7h-1Zm-1.6,9.8h-4l.18-1h1l1.4-8h-1l.17-1h-3.47l-.18,1h-1l-1.41,8h1l-.18,1h-4l.17-1h1l1.41-8h-1l.17-1h1l.18-1h1l.18-1h1l-.35,2h1l.17-1h4.48l-.18,1h1l-.18,1h1l-1.4,8h1Z"/><path d="M160.16,11.93h-1l.35-2h-1l.17-1h-1l.17-1h-6.69L151,9h-1l-.17,1h-1l-.35,2h-1l-.83,4.7h1l-.35,2h1l-.18,1h1l-.18,1h6.69l.18-1h1l.18-1h1l.35-2h1Zm-1.54,3.84h-1l-.36,2h-1l-.18,1h-1l-.18,1h-5l.18-1h-1l.18-1h-1l.35-2h-1l.52-3h1l.35-2h1l.17-1h1l.17-1h5l-.17,1h1l-.17,1h1l-.35,2h1Z"/><path d="M156.51,10.8h-1l.17-1h-3l-.17,1h-1l-.35,2h-1l-.52,3h1l-.35,2h1l-.18,1h3l.18-1h1l.36-2h1l.53-3h-1Zm-.59,4.11h-1l-.35,2h-1l-.17,1h-1.27l.18-1h-1l.35-2h-1l.22-1.26h1l.35-2h1l.18-1h1.26l-.17,1h1l-.35,2h1Z"/><path d="M159.13,20.6h3.71l.66-3.7h-3.71Zm1.36-2.84h2l-.35,2h-2Z"/><path d="M162.24,3l-1.7,9.67H161l-.7,4h2.72l.7-4h.49L166,3Zm1.3,8.81H163l-.7,4h-1l.7-4h-.49L163,3.84h2Z"/><polygon class="cls-5" points="3.36 18.76 1.38 18.76 1.2 19.75 7.17 19.75 7.34 18.76 5.35 18.76 7.81 4.83 9.8 4.83 9.97 3.84 4.01 3.84 3.83 4.83 5.82 4.83 3.36 18.76"/><path class="cls-6" d="M3.15,5.41h2L2.88,18.18h-2l-.08.48-.17,1-.12.67H7.65l.08-.48.18-1L8,18.18H6L8.29,5.41h2l.08-.48.18-1,.11-.67H3.53l-.09.47-.17,1ZM4,3.84h6l-.17,1h-2L5.35,18.76h2l-.17,1h-6l.18-1h2L5.82,4.83h-2Z"/><polygon class="cls-5" points="16.47 17.76 15.47 17.76 15.82 15.77 16.82 15.77 16.99 14.78 15 14.78 14.83 15.77 13.84 15.77 13.49 17.76 14.48 17.76 14.3 18.76 15.3 18.76 15.12 19.75 19.1 19.75 19.28 18.76 16.29 18.76 16.47 17.76"/><polygon class="cls-5" points="23.66 10.8 22.67 10.8 22.84 9.8 21.85 9.8 22.02 8.81 17.05 8.81 16.88 9.8 15.88 9.8 15.7 10.8 14.72 10.8 14.54 11.79 16.52 11.79 16.7 10.8 17.7 10.8 17.87 9.8 20.86 9.8 20.68 10.8 21.67 10.8 21.32 12.79 20.33 12.79 20.16 13.78 21.14 13.78 20.44 17.76 19.45 17.76 19.28 18.76 21.26 18.76 21.09 19.75 23.08 19.75 23.25 18.76 22.26 18.76 23.66 10.8"/><polygon class="cls-5" points="20.16 13.78 17.17 13.78 16.99 14.78 19.98 14.78 20.16 13.78"/><path class="cls-6" d="M23.25,18.18h-.31l1.29-7.28.11-.67h-1l.06-.33.11-.67h-1l.06-.32.11-.67H16.57l-.08.47-.1.52h-1l-.08.47-.1.53h-1l-.09.47-.17,1-.12.67H17l.09-.48.09-.52h1l.08-.47.09-.52h1.82l-.05.32-.12.67h1l-.15.85h-1l-.08.47-.1.52h-3l-.08.47-.1.52h-2l-.08.48-.09.52h-1l-.08.47-.36,2-.11.67h1l0,.33-.12.67h1l0,.32-.12.67h5.14l.09-.48.09-.51h.82l-.06.32-.11.67h3.15l.08-.48.18-1,.12-.68Zm-.17,1.56h-2l.17-1h-2l-.18,1h-4l.18-1h-1l.18-1h-1l.35-2h1l.17-1h2l.18-1h3l.18-1h1l.35-2h-1l.18-1h-3l-.18,1h-1l-.18,1h-2l.18-1h1l.18-1h1l.17-1h5l-.17,1h1l-.17,1h1l-1.4,8h1Z"/><path class="cls-6" d="M20.44,17.76l.71-4h-1l-.17,1H17l-.17,1h-1l-.35,2h1l-.18,1h3l.17-1Zm-1.55-.1-.09.52H17l.06-.32.12-.67h-1l.15-.85h1l.08-.47.09-.52h2.82L20,17.19H19Z"/><polygon class="cls-5" points="35.51 9.8 34.51 9.8 34.69 8.81 30.71 8.81 30.54 9.8 33.52 9.8 33.34 10.8 34.34 10.8 32.93 18.76 31.94 18.76 31.76 19.75 35.74 19.75 35.92 18.76 34.92 18.76 36.33 10.8 35.33 10.8 35.51 9.8"/><polygon class="cls-5" points="29.89 7.81 28.89 7.81 28.72 8.81 27.72 8.81 27.55 9.8 26.56 9.8 26.39 10.8 27.37 10.8 25.97 18.76 24.98 18.76 24.81 19.75 28.78 19.75 28.96 18.76 27.96 18.76 29.36 10.8 30.36 10.8 30.54 9.8 29.54 9.8 29.89 7.81"/><polygon class="cls-5" points="42.47 9.8 41.47 9.8 41.65 8.81 37.67 8.81 37.5 9.8 40.48 9.8 40.3 10.8 41.3 10.8 39.89 18.76 38.9 18.76 38.72 19.75 42.7 19.75 42.88 18.76 41.88 18.76 43.29 10.8 42.29 10.8 42.47 9.8"/><polygon class="cls-5" points="36.33 10.8 37.32 10.8 37.5 9.8 36.5 9.8 36.33 10.8"/><path class="cls-6" d="M43.29,10.23H43L43,9.9l.12-.67h-1l.06-.32.12-.67H37.19l-.08.47L37,9.23H35.19l.06-.32.12-.67h-5l.05-.33.12-.67H28.41l-.08.47-.09.53h-1l-.08.47-.09.52h-1L26,9.7l-.18,1-.12.67h1l-1.2,6.81h-1l-.08.48-.18,1-.11.67h5.13l.09-.48.17-1,.12-.68h-1l1.2-6.81h1l.08-.47.1-.52h1.81l0,.32-.12.67h1l-1.2,6.81h-1l-.09.48-.17,1-.12.67h5.14l.09-.48.17-1,.12-.68h-1l1.21-6.81h1l.08-.47.1-.52h1.81l0,.32-.12.67h1l-1.2,6.81h-1l-.09.48-.17,1-.12.67h5.15l.08-.48.17-1,.12-.68h-1l1.28-7.28.12-.67Zm-1.41,8.53h1l-.18,1h-4l.18-1h1l1.41-8h-1l.18-1h-3l-.18,1h-1l-1.41,8h1l-.18,1h-4l.18-1h1l1.4-8h-1l.18-1h-3l-.17,1h-1l-1.4,8h1l-.18,1h-4l.17-1h1l1.4-8h-1l.17-1h1l.17-1h1l.18-1h1l-.35,2h1l.18-1h4l-.18,1h1l-.18,1h1l.17-1h1l.17-1h4l-.18,1h1l-.18,1h1Z"/><polygon class="cls-5" points="60.19 10.8 59.2 10.8 59.37 9.8 58.38 9.8 58.55 8.81 54.08 8.81 53.9 9.8 57.38 9.8 57.21 10.8 58.2 10.8 56.8 18.76 55.8 18.76 55.63 19.75 59.61 19.75 59.78 18.76 58.79 18.76 60.19 10.8"/><polygon class="cls-5" points="53.26 7.81 52.26 7.81 52.09 8.81 51.09 8.81 50.92 9.8 49.93 9.8 49.75 10.8 50.74 10.8 49.34 18.76 48.35 18.76 48.18 19.75 52.15 19.75 52.33 18.76 51.33 18.76 52.73 10.8 53.73 10.8 53.9 9.8 52.91 9.8 53.26 7.81"/><path class="cls-6" d="M59.47,18.18l1.29-7.28.11-.67h-1l.06-.33.12-.67h-1l.06-.32.12-.67H53.77l0-.33.12-.67H51.78l-.08.47-.09.53h-1l-.08.47-.09.52h-1l-.08.47-.18,1-.12.67h1l-1.2,6.81h-1l-.08.48-.18,1-.12.67h5.14l.09-.48.17-1,.12-.68H52l1.2-6.81h1l.08-.47.09-.52H56.7l-.06.32-.12.67h1l-1.2,6.81h-1l-.08.48-.17,1-.12.67h5.14l.08-.48.18-1,.12-.68h-1Zm.14,1.56h-4l.17-1h1l1.4-8h-1l.17-1H53.9l-.17,1h-1l-1.4,8h1l-.18,1h-4l.17-1h1l1.4-8h-1l.18-1h1l.17-1h1l.17-1h1l-.35,2h1l.18-1h4.47l-.17,1h1l-.17,1h1l-1.4,8h1Z"/><path class="cls-5" d="M71.67,15.77h1l.52-3h-1l.35-2h-1l.18-1h-1l.18-1h-5l-.18,1h-1l-.18,1h-1l-.35,2h-1l-.53,3h1l-.35,2h1l-.18,1h1l-.18,1h5l.18-1h1l.18-1h1Zm-1,0h-1l-.35,2h-1l-.18,1h-3l.18-1h-1l.35-2h-1l.52-3h1l.35-2h1l.18-1h3l-.18,1h1l-.35,2h1Z"/><path class="cls-6" d="M73.19,12.22h-.31l.23-1.32.12-.67h-1l.05-.33.12-.67h-1l0-.32.12-.67H65.46l-.08.47-.1.52h-1l-.09.47-.09.53h-1L63,10.7l-.26,1.52h-1l-.09.47-.52,3-.12.67h1l-.23,1.32-.12.67h1l0,.33-.12.67h1l0,.32-.12.67h6.13l.09-.48.09-.51h1l.09-.47.09-.53h1l.09-.47.26-1.52h1l.08-.47.53-3,.12-.67Zm-3,6.54h-1l-.18,1H64l.18-1h-1l.18-1h-1l.35-2h-1l.53-3h1l.35-2h1l.18-1h1l.18-1h5l-.18,1h1l-.18,1h1l-.35,2h1l-.52,3h-1l-.35,2h-1Z"/><path class="cls-6" d="M70.56,10.8h-1l.18-1h-3l-.18,1h-1l-.35,2h-1l-.52,3h1l-.35,2h1l-.18,1h3l.18-1h1l.35-2h1l.52-3h-1Zm-.88,4.4H69.2l-.08.47-.27,1.52h-1l-.09.47-.09.52H65.86l.06-.32.12-.67H65l.24-1.32.11-.67h-1l.32-1.84h1l.08-.47.27-1.52h1l.09-.47.09-.52h1.82L69,10.7l-.12.67h1l-.24,1.32-.11.67h1L70.2,15.2Z"/><polygon class="cls-5" points="78.96 6.82 77.97 6.82 77.79 7.81 76.8 7.81 76.62 8.81 75.63 8.81 75.45 9.8 76.44 9.8 74.87 18.76 75.86 18.76 75.69 19.75 78.67 19.75 78.85 18.76 76.86 18.76 78.44 9.8 81.42 9.8 81.6 8.81 78.61 8.81 78.96 6.82"/><polygon class="cls-5" points="80.02 17.76 79.02 17.76 78.85 18.76 79.84 18.76 80.02 17.76"/><path class="cls-6" d="M79.52,6.92l.12-.67H77.48l-.08.47-.09.52h-1l-.08.47-.09.53h-1l-.08.47-.18,1-.12.68h1L74.3,18.66l-.12.67h1l-.06.32-.12.67h4.15l.09-.48.09-.51h1l.09-.47.17-1,.12-.67H78.54l-.08.47-.09.52h-.83l1.38-7.8h3L82,9.9l.18-1,.12-.67h-3Zm1.9,2.88h-3l-1.58,9h2l.17-1h1l-.18,1h-1l-.18,1h-3l.17-1h-1l1.57-9h-1l.18-1h1l.18-1h1l.18-1h1l-.35,2h3Z"/><polygon class="cls-6" points="98.85 6.82 98.68 7.81 99.67 7.81 100.02 5.83 99.03 5.83 99.38 3.84 88.44 3.84 88.27 4.83 90.25 4.83 87.8 18.76 85.81 18.76 85.64 19.75 91.6 19.75 91.78 18.76 89.79 18.76 91.02 11.79 95.98 11.79 95.64 13.78 96.63 13.78 97.51 8.81 96.51 8.81 96.16 10.8 91.19 10.8 92.24 4.83 97.21 4.83 97.04 5.83 98.03 5.83 97.86 6.82 98.85 6.82"/><polygon class="cls-6" points="102.51 5.83 104.5 5.83 104.85 3.84 102.86 3.84 102.51 5.83"/><polygon class="cls-6" points="104.15 7.81 103.16 7.81 102.98 8.81 101.99 8.81 101.81 9.8 100.82 9.8 100.65 10.8 101.64 10.8 100.23 18.76 99.25 18.76 99.07 19.75 103.04 19.75 103.22 18.76 102.22 18.76 104.15 7.81"/><polygon class="cls-6" points="111.08 0.86 110.09 0.86 109.91 1.85 108.92 1.85 108.74 2.84 107.75 2.84 107.58 3.84 108.57 3.84 105.94 18.76 104.95 18.76 104.77 19.75 108.75 19.75 108.92 18.76 107.93 18.76 111.08 0.86"/><polygon class="cls-6" points="113.92 5.83 115.91 5.83 116.26 3.84 114.27 3.84 113.92 5.83"/><polygon class="cls-6" points="115.56 7.81 114.57 7.81 114.39 8.81 113.4 8.81 113.22 9.8 112.23 9.8 112.06 10.8 113.05 10.8 111.64 18.76 110.65 18.76 110.48 19.75 114.45 19.75 114.63 18.76 113.63 18.76 115.56 7.81"/><polygon class="cls-6" points="127.21 10.8 126.21 10.8 126.39 9.8 125.39 9.8 125.57 8.81 121.59 8.81 121.42 9.8 124.4 9.8 124.22 10.8 125.22 10.8 124.87 12.79 125.86 12.79 125.34 15.77 124.34 15.77 123.99 17.76 123 17.76 122.82 18.76 119.84 18.76 119.67 19.75 123.64 19.75 123.81 18.76 124.81 18.76 124.99 17.76 125.98 17.76 126.33 15.77 127.33 15.77 127.85 12.79 126.86 12.79 127.21 10.8"/><polygon class="cls-6" points="119.02 17.76 120.25 10.8 121.24 10.8 121.42 9.8 120.42 9.8 120.77 7.81 119.78 7.81 119.6 8.81 118.61 8.81 118.43 9.8 117.44 9.8 117.27 10.8 118.26 10.8 115.8 24.71 114.81 24.71 114.64 25.71 118.61 25.71 118.79 24.71 117.79 24.71 118.84 18.76 119.84 18.76 120.02 17.76 119.02 17.76"/><polygon class="cls-6" points="133.51 7.81 132.52 7.81 132.34 8.81 131.34 8.81 131.17 9.8 130.18 9.8 130 10.8 130.99 10.8 129.59 18.76 128.6 18.76 128.43 19.75 132.4 19.75 132.58 18.76 131.58 18.76 133.51 7.81"/><polygon class="cls-6" points="131.87 5.83 133.86 5.83 134.21 3.84 132.22 3.84 131.87 5.83"/><polygon class="cls-6" points="146.15 10.8 145.15 10.8 145.32 9.8 144.33 9.8 144.5 8.81 140.03 8.81 139.86 9.8 143.34 9.8 143.16 10.8 144.15 10.8 142.75 18.76 141.76 18.76 141.58 19.75 145.56 19.75 145.74 18.76 144.74 18.76 146.15 10.8"/><polygon class="cls-6" points="139.21 7.81 138.22 7.81 138.04 8.81 137.05 8.81 136.87 9.8 135.88 9.8 135.71 10.8 136.69 10.8 135.29 18.76 134.3 18.76 134.13 19.75 138.1 19.75 138.28 18.76 137.28 18.76 138.69 10.8 139.68 10.8 139.86 9.8 138.86 9.8 139.21 7.81"/><path class="cls-6" d="M158.5,10.8h-1l.17-1h-1l.17-1h-5l-.17,1h-1l-.17,1h-1l-.35,2h-1l-.52,3h1l-.35,2h1l-.18,1h1l-.18,1h5l.18-1h1l.18-1h1l.36-2h1l.53-3h-1Zm-1.87,5h-1l-.36,2h-1l-.18,1h-3l.18-1h-1l.35-2h-1l.52-3h1l.35-2h1l.17-1h3l-.17,1h1l-.35,2h1Z"/><polygon class="cls-6" points="162.49 17.76 160.5 17.76 160.15 19.75 162.13 19.75 162.49 17.76"/><polygon class="cls-6" points="162.95 3.84 161.55 11.79 162.04 11.79 161.34 15.77 162.34 15.77 163.04 11.79 163.54 11.79 164.94 3.84 162.95 3.84"/></g></svg>