<svg xmlns="http://www.w3.org/2000/svg" viewBox="0 0 83.24 83.24"><defs><style>.cls-1{fill:#ffdc0f;}.cls-2{fill:#231f20;}</style></defs><g id="Layer_1" data-name="Layer 1"><rect class="cls-1" x="12.19" y="12.19" width="58.86" height="58.86" transform="translate(41.62 -17.24) rotate(45)"/><path class="cls-2" d="M26.75,30.16H25.29V22h1.46Z"/><path class="cls-2" d="M27.39,22h3.14v1.43H28.86V25.2h1.23v1.47H28.86v3.49H27.39Z"/><path class="cls-2" d="M34.59,26.94v3.22H33.13V27l-1.21-5h1.46l.5,2.9.49-2.9h1.32Z"/><path class="cls-2" d="M39.85,28.3c0,1.19-.64,2-1.74,2h-.33c-1.15,0-1.77-.7-1.77-2V24c0-1.27.5-2.09,1.76-2.09h.33c1.28,0,1.75.82,1.75,2.08Zm-1.53-4.44c0-.37-.13-.54-.39-.54s-.39.17-.39.54v4.48c0,.25.1.48.4.48s.38-.23.38-.48Z"/><path class="cls-2" d="M40.46,22H42v6.33c0,.34.12.5.36.5s.35-.16.35-.5V22h1.51v6.27c0,1.37-.64,2-1.69,2h-.37c-1.06,0-1.67-.65-1.67-2Z"/><path class="cls-2" d="M47.9,21.89c1.15,0,1.57.51,1.57,1.6v1.1h-1.4v-1c0-.26-.06-.43-.32-.43s-.32.17-.32.44v.19a1.39,1.39,0,0,0,.45,1.05l.84.94a2.83,2.83,0,0,1,.89,2.1v.38c0,1.23-.56,2-1.78,2h-.29a1.5,1.5,0,0,1-1.67-1.69V27.1h1.44v1.31c0,.32.12.49.37.49s.37-.2.37-.59v-.16a1.46,1.46,0,0,0-.48-1.27l-.84-.94A2.71,2.71,0,0,1,46,23.87v-.35a1.5,1.5,0,0,1,1.66-1.63Z"/><path class="cls-2" d="M53.23,22v1.44H51.64v1.78h1.25v1.47H51.64v2h1.67v1.47H50.17V22Z"/><path class="cls-2" d="M56.93,22v1.44h-1.6v1.78h1.26v1.47H55.33v2H57v1.47H53.87V22Z"/><path class="cls-2" d="M24.64,31.78c1.14,0,1.57.51,1.57,1.6v1.1H24.8v-1c0-.26-.05-.43-.32-.43s-.31.17-.31.44v.19a1.36,1.36,0,0,0,.45,1.05l.83.94a2.8,2.8,0,0,1,.89,2.1v.38c0,1.23-.56,2-1.78,2h-.28a1.5,1.5,0,0,1-1.67-1.69V37H24v1.3c0,.33.13.5.38.5s.36-.2.36-.59V38a1.45,1.45,0,0,0-.47-1.27l-.85-.94a2.76,2.76,0,0,1-.78-2.07v-.35a1.5,1.5,0,0,1,1.66-1.63Z"/><path class="cls-2" d="M30.73,38.19c0,1.19-.64,2-1.74,2h-.33c-1.15,0-1.77-.7-1.77-2V33.87c0-1.27.5-2.09,1.76-2.09H29c1.29,0,1.75.82,1.75,2.08ZM29.2,33.75c0-.37-.13-.54-.38-.54s-.4.17-.4.54v4.48c0,.25.1.48.41.48s.37-.23.37-.48Z"/><path class="cls-2" d="M31.36,31.88h1.8L33.72,36l.56-4.13H36v8.17H34.64V35.22l-.72,4.83h-.55l-.74-4.83v4.83H31.36Z"/><path class="cls-2" d="M39.67,31.88v1.44H38.08V35.1h1.25v1.47H38.08v2h1.67v1.47H36.62V31.88Z"/><path class="cls-2" d="M43.76,31.88v1.44h-1v6.73H41.25V33.32h-1V31.88Z"/><path class="cls-2" d="M45.78,40.05H44.32V31.88h1.46V35h.77V31.88H48v8.17H46.55V36.6h-.77Z"/><path class="cls-2" d="M50.13,40.05H48.66V31.88h1.47Z"/><path class="cls-2" d="M52.14,31.88l1,4.17V31.88h1.3v8.17H53.2l-1.13-4.48v4.48h-1.3V31.88Z"/><path class="cls-2" d="M56.4,40.16a1.42,1.42,0,0,1-1.33-1.6V33.69c0-1,.43-1.91,1.71-1.91h.29c1.45,0,1.69.92,1.69,1.9v.9H57.34v-.91c0-.34-.08-.52-.38-.52s-.36.18-.36.52v4.55c0,.35.13.53.4.53s.42-.17.42-.51V36.48h-.53V35.11h1.94v4.94h-.89c0-.18-.13-.52-.22-.78a1.39,1.39,0,0,1-1.21.89Z"/><path class="cls-2" d="M59.56,41.1a3.08,3.08,0,0,0,.27-1.05h-.5V38.47h1.3v1.16a3.31,3.31,0,0,1-.34,1.47Z"/><path class="cls-2" d="M37.43,41.67c1.14,0,1.57.51,1.57,1.6v1.1H37.59v-1c0-.26-.05-.43-.32-.43s-.32.17-.32.44v.19a1.39,1.39,0,0,0,.45,1.05l.84.94a2.83,2.83,0,0,1,.89,2.09V48c0,1.23-.56,2-1.78,2h-.29a1.5,1.5,0,0,1-1.67-1.69V46.88h1.44v1.3c0,.33.12.5.38.5s.36-.2.36-.59v-.16a1.45,1.45,0,0,0-.47-1.27l-.85-.94a2.76,2.76,0,0,1-.78-2.07V43.3a1.5,1.5,0,0,1,1.66-1.63Z"/><path class="cls-2" d="M41.79,48.57h-.88l-.13,1.37h-1.3l1-8.17h1.73l1.11,8.17H41.94Zm-.74-1.41h.6l-.31-2.8Z"/><path class="cls-2" d="M45.84,46.72v3.22H44.38V46.78l-1.2-5h1.46l.49,2.9.49-2.9h1.32Z"/><path class="cls-2" d="M24.64,51.56c1.14,0,1.57.5,1.57,1.6v1.1h-1.4v-1c0-.26-.06-.43-.32-.43s-.32.17-.32.44v.19a1.39,1.39,0,0,0,.45,1.05l.83.94a2.79,2.79,0,0,1,.89,2.09v.39c0,1.23-.56,2-1.78,2h-.28a1.5,1.5,0,0,1-1.67-1.69V56.77h1.44v1.3c0,.33.12.5.37.5s.36-.2.36-.6v-.15a1.45,1.45,0,0,0-.47-1.27l-.85-.94a2.76,2.76,0,0,1-.78-2.07v-.36a1.5,1.5,0,0,1,1.66-1.62Z"/><path class="cls-2" d="M30.73,58c0,1.2-.64,2-1.74,2h-.32c-1.16,0-1.77-.7-1.77-2V53.65c0-1.27.49-2.09,1.75-2.09H29c1.29,0,1.75.82,1.75,2.08ZM29.2,53.53c0-.37-.13-.54-.38-.54s-.4.17-.4.54V58c0,.25.1.48.41.48s.37-.23.37-.48Z"/><path class="cls-2" d="M31.36,51.66h1.8l.56,4.13.56-4.13H36v8.17H34.64V55l-.72,4.83h-.55L32.63,55v4.83H31.36Z"/><path class="cls-2" d="M39.68,51.66V53.1h-1.6v1.78h1.26v1.47H38.08v2h1.67v1.47H36.62V51.66Z"/><path class="cls-2" d="M43.76,51.66V53.1h-1v6.73H41.26V53.1h-1V51.66Z"/><path class="cls-2" d="M45.79,59.83H44.32V51.66h1.47v3.12h.76V51.66H48v8.17H46.55V56.38h-.76Z"/><path class="cls-2" d="M50.13,59.83H48.67V51.66h1.46Z"/><path class="cls-2" d="M52.15,51.66l1,4.17V51.66h1.29v8.17H53.2l-1.13-4.48v4.48h-1.3V51.66Z"/><path class="cls-2" d="M56.41,59.94c-.85,0-1.33-.72-1.33-1.6V53.47c0-1,.42-1.91,1.7-1.91h.3c1.45,0,1.69.92,1.69,1.9v.9H57.34v-.91c0-.34-.08-.52-.37-.52s-.37.18-.37.52V58c0,.35.14.52.4.52s.43-.16.43-.5V56.26h-.54V54.89h1.94v4.94h-.89a6.85,6.85,0,0,0-.22-.78,1.39,1.39,0,0,1-1.2.89Z"/><path class="cls-2" d="M60.63,59.83H59.32V58.25h1.31Z"/></g></svg>