<svg xmlns="http://www.w3.org/2000/svg" viewBox="0 0 104.14 63.32"><defs><style>.cls-1{fill:#fff;}.cls-2{fill:#231f20;}</style></defs><g id="Layer_1" data-name="Layer 1"><path d="M96.46,63.32H7.68A7.69,7.69,0,0,1,0,55.64v-48A7.69,7.69,0,0,1,7.68,0H96.46a7.69,7.69,0,0,1,7.68,7.68v48A7.69,7.69,0,0,1,96.46,63.32ZM7.68,1A6.7,6.7,0,0,0,1,7.68v48a6.7,6.7,0,0,0,6.69,6.69H96.46a6.7,6.7,0,0,0,6.69-6.69v-48A6.7,6.7,0,0,0,96.46,1Z"/><rect x="5.43" y="7.38" width="32.38" height="48.56"/><polygon class="cls-1" points="21.62 26.04 24.53 20.8 24.43 26.79 29.57 23.71 26.48 28.85 32.48 28.75 27.24 31.66 32.48 34.57 26.48 34.47 29.57 39.61 24.43 36.53 24.53 42.52 21.62 37.28 18.71 42.52 18.81 36.53 13.67 39.61 16.75 34.47 10.76 34.57 16 31.66 10.76 28.75 16.75 28.85 13.67 23.71 18.81 26.79 18.71 20.8 21.62 26.04"/><path class="cls-2" d="M52.56,19.68h-.51l-1.21,2.79H46.18l-2.55-7.69c-.26-.79-.58-.95-.89-1V10h6.13v3.77c-1.27,0-1.68.54-1.68,1.17s.37,1,1,1.38l3.5,2.18.4-.3-1.15-3.44c-.28-.77-.57-.95-.89-1V10h6.33v3.77c-1.27,0-1.7.54-1.7,1.17a2,2,0,0,0,.69,1.38L58,19.27a13.49,13.49,0,0,0,.75-3.54c0-1-.3-1.72-1.21-1.94V10h4.55v3.77c-.65.28-1,.87-1.68,2.65l-2.23,6H53.49Z"/><path class="cls-2" d="M72.81,16.78H68.3v.73c0,1.11,0,1.16,1.46,1.16v3.8h-6.7v-3.8c1.4,0,1.46-.05,1.46-1.16V15c0-1.11-.06-1.17-1.46-1.17V10h6.7v3.77c-1.42,0-1.46.06-1.46,1.17v.65h4.51V15c0-1.11,0-1.17-1.47-1.17V10H78v3.77c-1.4,0-1.46.06-1.46,1.17v2.55c0,1.11.06,1.16,1.46,1.16v3.8h-6.7v-3.8c1.43,0,1.47-.05,1.47-1.16Z"/><path class="cls-2" d="M86.34,22.75c-5.1,0-7.06-2.38-7.06-6.66s2-6.35,7.06-6.35,7.09,2.15,7.09,6.35S91.44,22.75,86.34,22.75Zm0-9.37c-1.72,0-2.55.87-2.55,2.68S84.62,19,86.34,19s2.57-1.13,2.57-2.93S88.08,13.38,86.34,13.38Z"/><path class="cls-2" d="M48.75,38.28H43v-3.8a6,6,0,0,0,2.86-3.1,2.63,2.63,0,0,0,.26-1.15.67.67,0,0,0-.73-.69h-.89V25.83h9v2.76a6.52,6.52,0,0,0,1.11,3.07L55.49,33c.61,1,.95,1.41,1.26,1.5v3.8H50.13v-3.6c.67,0,.93-.29.93-.69a1.48,1.48,0,0,0-.22-.69L50.66,33H46.75a2.19,2.19,0,0,0,2,1.66Zm-2-6.23h3.3l-1.7-2.78L47.17,31.2A3.32,3.32,0,0,0,46.79,32.05Z"/><path class="cls-2" d="M68.35,38.48c-2.1,0-3.2-.83-3.2-4.47,0-.79-.24-.93-1.09-.93H62.87v.81c0,.93.12,1,1.41,1v3.42H57.83v-3.8c1.23,0,1.27-.06,1.27-1.16V31c0-1.29,0-1.37-1.27-1.37V25.83h7.36c3.73,0,5.31.93,5.31,3.46s-1.78,2.94-3.58,2.94h-.17v.83h1c1.12,0,1.58.3,1.58.91v.08c0,.57.12.79.55.79s.61-.38.61-1.64c0-.2,0-.48,0-.83h1c0,.37,0,.67,0,.85C71.43,37.43,70.84,38.48,68.35,38.48ZM62.87,29.6v2.29H65c1.44,0,2-.35,2-1.14s-.49-1.15-1.83-1.15Z"/><path class="cls-2" d="M72.56,38.28v-3.8c1.44,0,1.46-.06,1.46-1.16V30.77c0-1.11,0-1.17-1.46-1.17V25.83h11.5v5.49h-1c-.31-1.42-1-1.7-5.3-1.72v1.8a6.63,6.63,0,0,0,2.63-.57h.81V33H80.4a5.68,5.68,0,0,0-2.63-.57v2c4.61,0,5.06-.49,5.38-1.85h1v5.67Z"/><path class="cls-2" d="M45.21,54.09v-3.8c1.92,0,1.94-.06,1.94-1.16v-.28L45.53,47a4.65,4.65,0,0,0-2.79-1.6V41.64h6.44v3.77c-.49,0-.81.3-.81.75a1.52,1.52,0,0,0,.6,1.13l1.24,1.22c.85-.67,1.5-1.44,1.5-2s-.35-.93-1.14-1.05V41.64h5.19v3.77c-1.22.3-2.68,1.4-4.44,3.44v.28c0,1.1,0,1.16,2,1.16v3.8Z"/><path class="cls-2" d="M63.57,54.36c-5.1,0-7.06-2.37-7.06-6.66s2-6.34,7.06-6.34,7.09,2.15,7.09,6.34S68.67,54.36,63.57,54.36Zm0-9.36c-1.72,0-2.55.87-2.55,2.68s.83,2.93,2.55,2.93,2.57-1.13,2.57-2.93S65.31,45,63.57,45Z"/><path class="cls-2" d="M79.69,45.45V41.64h5v3.75c-1.23,0-1.27,0-1.27,1.15v3c0,3.09-1.42,4.73-5.29,4.73s-5.32-1.39-5.26-4.71v-3c0-1.11,0-1.17-1.27-1.17V41.64h6.51v3.81c-1.47,0-1.47.06-1.47,1.17V48c0,1.78.48,2.35,2.91,2.35,1.94,0,2.73-.49,2.73-1.34C82.28,47.33,79.69,47.25,79.69,45.45Z"/><path class="cls-2" d="M90.51,48.71c0-1.58,2.64-1,2.64-2.25,0-.56-.31-.85-1-.85-.95,0-1.47.61-1.62,1.78H85.6V41.64h3.76v5H90c.24-3.92,1.46-5.16,3.76-5.16,1.91,0,3.28.93,3.28,3.38s-.73,3.63-3,3.63c-.55,0-1.26-.09-1.72-.09-.29,0-.43.13-.43.39a1.73,1.73,0,0,0,0,.3H90.52C90.51,48.91,90.51,48.79,90.51,48.71Zm3.3,3.22c0,1.43-1.07,2.28-2.71,2.28s-2.69-.85-2.69-2.28,1.07-2.29,2.69-2.29S93.81,50.53,93.81,51.93Z"/></g></svg>