<?xml version="1.0" encoding="utf-8"?>
<!-- Generator: Adobe Illustrator 25.2.1, SVG Export Plug-In . SVG Version: 6.00 Build 0)  -->
<svg version="1.1" id="Layer_1" xmlns="http://www.w3.org/2000/svg" xmlns:xlink="http://www.w3.org/1999/xlink" x="0px" y="0px"
	 viewBox="0 0 719.62 404.79" style="enable-background:new 0 0 719.62 404.79;" xml:space="preserve">
<style type="text/css">
	.st0{fill:none;}
	.st1{fill:#E3AED3;}
	.st2{display:none;}
	.st3{fill:#FFFFFF;}
	.st4{fill:#66C085;}
	.st5{fill:#471D4D;}
	.st6{fill:#E2E1DA;}
	.st7{fill:#AFA89F;}
	.st8{fill:#061235;}
	.st9{fill:none;stroke:#CCCCCC;stroke-linecap:round;stroke-miterlimit:10;}
	.st10{font-family:'HalyardDisplay-Bold';}
	.st11{font-size:11.7757px;}
	.st12{font-family:'HalyardDisplay-Regular';}
	.st13{font-size:5.3526px;}
	.st14{font-family:'HalyardDisplayBook';}
	.st15{font-size:9.6347px;}
	.st16{fill:#EA3785;}
	.st17{fill:#061235;stroke:#E4E3DD;stroke-width:3;stroke-miterlimit:10;}
	.st18{fill:#E4E3DD;}
	.st19{fill:#B1AAA2;}
	.st20{fill:#77AAD0;}
	.st21{fill:#BBDAEA;}
	.st22{fill:#FFFFFF;stroke:#FFFFFF;stroke-miterlimit:10;}
	.st23{fill:none;stroke:#66C085;stroke-miterlimit:10;}
	.st24{font-size:6.6731px;}
	.st25{fill:#808080;}
	.st26{font-size:5.4815px;}
	.st27{clip-path:url(#SVGID_3_);fill:#E3AED3;}
	.st28{clip-path:url(#SVGID_3_);}
	.st29{font-size:7.1557px;}
	.st30{clip-path:url(#SVGID_3_);fill:#EA3785;}
	.st31{clip-path:url(#SVGID_3_);fill:#FFFFFF;}
	.st32{fill:#3F3F3F;}
	.st33{font-size:4.4724px;}
	.st34{font-size:9px;}
	.st35{font-size:4.77px;}
	.st36{font-family:'HalyardDisplaySemiBold';}
	.st37{font-size:6px;}
	.st38{font-family:'Aeonik-Regular';}
	.st39{fill:url(#SVGID_4_);}
	.st40{fill:#7F5B82;}
	.st41{fill:none;stroke:#FFFFFF;stroke-miterlimit:10;}
	.st42{fill:none;stroke:#FFFFFF;stroke-miterlimit:10;stroke-dasharray:4,1;}
</style>
<pattern  y="404.79" width="88.72" height="88.72" patternUnits="userSpaceOnUse" id="SVGID_1_" viewBox="0 -88.72 88.72 88.72" style="overflow:visible;">
	<g>
		<rect y="-88.72" class="st0" width="88.72" height="88.72"/>
		<g>
			<rect y="-88.72" class="st0" width="88.72" height="88.72"/>
			<polygon class="st1" points="0,0 88.72,-88.72 88.72,-77.63 11.09,0 			"/>
			<polygon class="st1" points="22.18,0 88.72,-66.54 88.72,-55.45 33.27,0 			"/>
			<polygon class="st1" points="44.36,0 88.72,-44.36 88.72,-33.27 55.45,0 			"/>
			<polygon class="st1" points="66.54,0 88.72,-22.18 88.72,-11.09 77.63,0 			"/>
			<polygon class="st1" points="0,-11.09 77.63,-88.72 66.54,-88.72 0,-22.18 			"/>
			<polygon class="st1" points="0,-33.27 55.45,-88.72 44.36,-88.72 0,-44.36 			"/>
			<polygon class="st1" points="0,-55.45 33.27,-88.72 22.18,-88.72 0,-66.54 			"/>
			<polygon class="st1" points="0,-77.63 11.09,-88.72 0,-88.72 			"/>
		</g>
	</g>
</pattern>
<g id="Layer_2_1_" class="st2">
</g>
<rect width="719.62" height="404.79"/>
<g>
	<rect x="42.65" y="105.87" class="st3" width="87.3" height="174.62"/>
	<rect x="42.65" y="127.65" class="st4" width="87.3" height="87.3"/>
	<rect x="58.82" y="185.65" class="st5" width="2.8" height="1.33"/>
	<rect x="71.81" y="195.32" class="st5" width="3.58" height="1.33"/>
	<polygon class="st3" points="42.68,280.49 129.95,280.49 129.95,298.04 42.65,298.04 	"/>
	<rect x="42.65" y="280.49" class="st4" width="21.82" height="11.44"/>
	<g>
		<path class="st4" d="M81.41,116.65c-1.78,0-3.23,1.45-3.23,3.23c0,1.78,1.45,3.23,3.23,3.23c1.47,0,2.52-0.72,3.12-1.81l-1.07-0.6
			c-0.28,0.58-1.1,1.24-2.05,1.24c-0.99,0-1.81-0.8-1.95-1.75h5.19C84.64,118.26,83.54,116.65,81.41,116.65z M79.56,119.16
			c0.13-0.75,0.8-1.37,1.85-1.37c1.1,0,1.73,0.62,1.83,1.37H79.56z"/>
		<polygon class="st4" points="85.12,122.97 86.37,122.97 86.37,117.9 89.12,117.9 89.12,122.97 90.37,122.97 90.37,116.82 
			85.12,116.82 		"/>
		<path class="st4" d="M94.76,120.56c0,0.78-0.5,1.37-1.31,1.37c-0.71,0-1.3-0.51-1.3-1.38v-3.72h-1.24v3.72
			c0,1.61,1.14,2.56,2.56,2.56c1.41,0,2.54-1.02,2.54-2.56v-3.72h-1.24v3.73H94.76z"/>
		<path class="st4" d="M97.59,118.43c0-0.37,0.15-0.74,0.66-0.74c0.6,0,0.75,0.48,0.82,0.71l0.94-0.59
			c-0.24-0.71-0.79-1.22-1.75-1.22c-1,0-1.83,0.82-1.83,1.81c0,1.98,2.62,1.67,2.62,2.82c0,0.43-0.39,0.78-0.86,0.78
			s-0.8-0.41-0.91-0.75l-1.12,0.44c0.27,0.8,0.99,1.39,2.03,1.39c1.18,0,2.13-0.88,2.13-1.95
			C100.31,119.36,97.59,119.2,97.59,118.43z"/>
		<polygon class="st4" points="77.25,116.83 77.25,118.05 78.03,118.05 79.25,116.83 		"/>
		<path class="st4" d="M76.33,120.92c0.01-0.01,0.02-0.01,0.03-0.02l0.03-0.02l0,0c0.6-0.43,1-1.14,0.98-1.94
			c-0.02-1.22-1.04-2.25-2.26-2.28c-1.32-0.04-2.39,1.02-2.39,2.33c0,0.93,0.55,1.73,1.34,2.1c-0.47,0.34-0.53,1.03-0.12,1.44
			c0.29,0.29,0.69,0.46,1.11,0.46h1.7c0,0.94-0.76,1.69-1.69,1.69s-1.69-0.76-1.69-1.69h-1.25c0,1.64,1.35,2.97,3,2.94
			c1.62-0.03,2.89-1.42,2.89-3.04v-1.15h-2.88L76.33,120.92z M73.94,118.98c0-0.62,0.5-1.12,1.12-1.12s1.12,0.5,1.12,1.12
			c0,0.35-0.16,0.66-0.4,0.86l-0.12,0.08c-0.17,0.11-0.38,0.18-0.6,0.18C74.44,120.1,73.94,119.6,73.94,118.98z"/>
	</g>
	<path class="st6" d="M121.98,105.47c5.11,0,9.26,4.15,9.26,9.26v175.33c0,5.11-4.14,9.26-9.26,9.26H50.62
		c-5.11,0-9.26-4.15-9.26-9.26V114.73c0-5.11,4.14-9.26,9.26-9.26H121.98 M121.98,99.05H50.62c-8.66,0.01-15.67,7.03-15.68,15.68
		v175.33c0.01,8.66,7.02,15.67,15.68,15.68h71.35c8.66-0.01,15.67-7.03,15.68-15.68V114.73C137.65,106.07,130.63,99.06,121.98,99.05
		z"/>
	<path class="st7" d="M121.98,105.47c5.11,0,9.26,4.15,9.26,9.26v175.33c0,5.11-4.14,9.26-9.26,9.26H50.62
		c-5.11,0-9.26-4.15-9.26-9.26V114.73c0-5.11,4.14-9.26,9.26-9.26H121.98 M121.98,99.69H50.62c-8.3,0.01-15.03,6.74-15.03,15.04
		v175.33c0.01,8.3,6.73,15.03,15.03,15.04h71.35c8.3-0.01,15.03-6.74,15.03-15.04V114.73C137,106.43,130.28,99.7,121.98,99.69z"/>
	<g>
		<path class="st8" d="M120.89,101.61H51.71c-7.84,0-14.2,6.36-14.2,14.2v173.16c0,7.84,6.36,14.2,14.2,14.2h69.17
			c7.84,0,14.2-6.36,14.2-14.2V115.81C135.09,107.97,128.73,101.61,120.89,101.61z M129.95,288.97c0,5-4.06,9.06-9.06,9.06H51.71
			c-5,0-9.06-4.06-9.06-9.06V115.81c0-5,4.06-9.06,9.06-9.06h9.67c0.45,0.47,0.68,1.11,0.6,1.76c-0.02,0.42,0.03,0.83,0.13,1.23
			c0.27,0.88,0.75,1.68,1.42,2.33c0.58,0.59,1.32,1.01,2.12,1.19c0.83,0.14,1.68,0.19,2.52,0.16l35.95,0.25
			c0.84,0.05,1.69,0.01,2.52-0.12c0.81-0.17,1.55-0.58,2.14-1.16c0.67-0.63,1.17-1.43,1.45-2.31c0.11-0.4,0.16-0.82,0.15-1.23
			c-0.07-0.68,0.19-1.36,0.69-1.82c0.15-0.13,0.28-0.21,0.4-0.27h9.4c5,0,9.06,4.06,9.06,9.06v173.15H129.95z"/>
	</g>
	<line class="st9" x1="70.9" y1="295.47" x2="101.71" y2="295.47"/>
	<g>
		<path class="st4" d="M96.46,284.21l0.42,1.3l0.1,0.3h0.32h1.36l-1.1,0.8l-0.26,0.19l0.1,0.3l0.42,1.3l-1.11-0.8l-0.26-0.19
			l-0.26,0.19l-1.11,0.8l0.42-1.3l0.1-0.3l-0.26-0.19l-1.1-0.8h1.36h0.32l0.1-0.3L96.46,284.21 M96.46,282.79l-0.84,2.59H92.9
			l2.2,1.6l-0.84,2.59l2.2-1.6l2.2,1.6l-0.84-2.59l2.2-1.6H97.3L96.46,282.79L96.46,282.79z"/>
	</g>
	<polygon class="st3" points="53.57,282.8 49.82,286.17 51.28,286.17 51.28,289.54 55.85,289.54 55.85,286.17 57.31,286.17 	"/>
	<path class="st4" d="M121.54,286.21l-1.93-3.34h-3.86l-1.93,3.34l0.97,1.67l0,0l0.97,1.67h3.86l0.97-1.67l0,0L121.54,286.21z
		 M114.32,286.21l1.68-2.91h3.36l1.68,2.91l-0.71,1.23l-0.71-1.23h-1.93c0.62,0,1.12-0.5,1.12-1.12s-0.5-1.12-1.12-1.12
		s-1.12,0.5-1.12,1.12s0.5,1.12,1.12,1.12h-1.93l-0.71,1.23L114.32,286.21z"/>
	<g>
		<path class="st4" d="M78.81,289.13l-1.68-1.68c0.37-0.48,0.59-1.09,0.59-1.74c0-1.59-1.29-2.88-2.88-2.88s-2.88,1.29-2.88,2.88
			s1.29,2.88,2.88,2.88c0.7,0,1.34-0.25,1.84-0.67l1.67,1.67L78.81,289.13z M74.85,287.95c-1.23,0-2.23-1-2.23-2.23
			s1-2.23,2.23-2.23s2.23,1,2.23,2.23S76.08,287.95,74.85,287.95z"/>
	</g>
	<text transform="matrix(1 0 0 1 47.3513 140.0653)" class="st5 st10 st11">New additions</text>
	<text transform="matrix(1 0 0 1 47.3513 150.7753)" class="st5 st10 st11">to Genus!</text>
	<g>
		<path class="st3" d="M94.86,209.65H77.74c-2.17,0-3.94-1.76-3.94-3.94v-0.56c0-2.17,1.76-3.94,3.94-3.94h17.12
			c2.17,0,3.94,1.76,3.94,3.94v0.56C98.8,207.89,97.04,209.65,94.86,209.65z"/>
	</g>
	<text transform="matrix(1 0 0 1 75.7961 207.2059)" class="st5 st12 st13">See More</text>
	<rect x="47.28" y="158.3" class="st5" width="38.95" height="8.03"/>
	<rect x="47.35" y="167.96" class="st5" width="17.62" height="8.03"/>
	<rect x="47.35" y="177.62" class="st5" width="16.58" height="8.03"/>
	<rect x="47.35" y="187.29" class="st5" width="51.45" height="8.03"/>
	<text transform="matrix(1 0 0 1 47.3513 165.4364)" class="st4 st14 st15">Starbucks</text>
	<text transform="matrix(1 0 0 1 47.3513 175.0664)" class="st4 st14 st15">Zara</text>
	<text transform="matrix(1 0 0 1 47.3513 184.7064)" class="st4 st14 st15">Muji</text>
	<text transform="matrix(1 0 0 1 47.3513 194.3364)" class="st4 st14 st15">&amp; many more</text>
	<rect x="42.65" y="214.95" class="st16" width="87.3" height="65.54"/>
	<g>
		<path class="st3" d="M102.7,222.33c-0.83,0-1.36,0.49-1.47,1.09h2.93C104.07,222.82,103.57,222.33,102.7,222.33 M101.15,224.24
			c0.12,0.76,0.77,1.39,1.55,1.39c0.76,0,1.4-0.53,1.63-0.99l0.85,0.48c-0.48,0.86-1.31,1.44-2.48,1.44c-1.42,0-2.57-1.15-2.57-2.57
			c0-1.42,1.15-2.57,2.57-2.57c1.69,0,2.57,1.28,2.58,2.81h-4.13V224.24z"/>
		<polygon class="st3" points="108.83,226.45 108.83,222.42 106.64,222.42 106.64,226.45 105.65,226.45 105.65,221.56 
			109.82,221.56 109.82,226.45 		"/>
		<path class="st3" d="M112.29,226.56c-1.13,0-2.03-0.76-2.03-2.03v-2.96h0.99v2.96c0,0.69,0.47,1.1,1.03,1.1
			c0.65,0,1.04-0.47,1.04-1.09v-2.97h0.99v2.96C114.31,225.75,113.4,226.56,112.29,226.56"/>
		<path class="st3" d="M116.04,226.55c-0.83,0-1.41-0.47-1.62-1.11l0.89-0.35c0.09,0.27,0.35,0.6,0.72,0.6s0.68-0.28,0.68-0.62
			c0-0.92-2.09-0.67-2.09-2.25c0-0.79,0.66-1.44,1.46-1.44c0.77,0,1.2,0.4,1.39,0.97l-0.75,0.47c-0.05-0.18-0.17-0.56-0.65-0.56
			c-0.4,0-0.52,0.29-0.52,0.59c0,0.61,2.16,0.73,2.16,2.15C117.73,225.85,116.98,226.55,116.04,226.55"/>
		<polygon class="st3" points="99.39,221.57 99.39,222.54 100.01,222.54 100.98,221.57 		"/>
		<path class="st3" d="M97.65,224.17c-0.49,0-0.89-0.4-0.89-0.89s0.4-0.89,0.89-0.89s0.89,0.4,0.89,0.89c0,0.28-0.12,0.52-0.32,0.69
			l-0.09,0.07C97.99,224.12,97.83,224.17,97.65,224.17 M98.66,224.82c0.01,0,0.01-0.01,0.02-0.01l0.03-0.02l0,0
			c0.48-0.34,0.79-0.9,0.78-1.54c-0.02-0.97-0.82-1.79-1.8-1.82c-1.05-0.03-1.9,0.81-1.9,1.85c0,0.74,0.44,1.38,1.07,1.67
			c-0.38,0.27-0.42,0.82-0.09,1.15c0.23,0.23,0.55,0.37,0.88,0.37H99c0,0.74-0.6,1.35-1.35,1.35c-0.74,0-1.35-0.6-1.35-1.35h-0.99
			c0,1.31,1.07,2.36,2.38,2.34c1.29-0.02,2.3-1.13,2.3-2.42v-0.92H97.7L98.66,224.82z"/>
		<path class="st3" d="M89.09,225.21c0.33,0,0.59-0.12,0.79-0.35c0.2-0.23,0.3-0.54,0.3-0.93v-0.06c0-0.4-0.1-0.71-0.29-0.93
			c-0.2-0.22-0.46-0.34-0.8-0.34s-0.6,0.12-0.79,0.36s-0.29,0.54-0.29,0.92v0.06c0,0.37,0.1,0.68,0.29,0.91
			C88.5,225.09,88.76,225.21,89.09,225.21 M89.19,225.63c-0.25,0-0.48-0.06-0.68-0.18s-0.36-0.28-0.48-0.48v0.59h-0.47v-4.71h0.47v2
			c0.12-0.2,0.27-0.37,0.47-0.49c0.2-0.12,0.42-0.18,0.68-0.18c0.44,0,0.8,0.15,1.09,0.46c0.28,0.31,0.42,0.72,0.42,1.24v0.01
			c0,0.52-0.14,0.94-0.42,1.25C90,225.47,89.63,225.63,89.19,225.63"/>
		<path class="st3" d="M90.91,226.43h0.31c0.13,0,0.24-0.01,0.32-0.03s0.16-0.07,0.22-0.14c0.06-0.07,0.13-0.17,0.18-0.3
			c0.06-0.13,0.13-0.3,0.21-0.51l-1.32-3.18h0.51l1.05,2.62l0.92-2.62h0.5l-1.25,3.41c-0.08,0.21-0.16,0.4-0.24,0.55
			c-0.07,0.15-0.16,0.27-0.26,0.37c-0.1,0.1-0.21,0.16-0.34,0.21c-0.13,0.04-0.29,0.06-0.49,0.06h-0.34v-0.44H90.91z"/>
		<path class="st3" d="M62.26,222.33c-0.83,0-1.36,0.49-1.47,1.09h2.93C63.64,222.82,63.13,222.33,62.26,222.33 M60.71,224.24
			c0.12,0.76,0.77,1.39,1.55,1.39c0.76,0,1.4-0.53,1.63-0.99l0.85,0.48c-0.48,0.86-1.31,1.44-2.48,1.44c-1.42,0-2.57-1.15-2.57-2.57
			c0-1.42,1.15-2.57,2.57-2.57c1.69,0,2.57,1.28,2.58,2.81h-4.13V224.24z"/>
		<polygon class="st3" points="68.4,226.45 68.4,222.42 66.2,222.42 66.2,226.45 65.21,226.45 65.21,221.56 69.39,221.56 
			69.39,226.45 		"/>
		<path class="st3" d="M71.85,226.56c-1.13,0-2.03-0.76-2.03-2.03v-2.96h0.99v2.96c0,0.69,0.47,1.1,1.03,1.1
			c0.65,0,1.04-0.47,1.04-1.09v-2.97h0.99v2.96C73.87,225.75,72.97,226.56,71.85,226.56"/>
		<polygon class="st3" points="58.96,221.57 58.96,222.54 59.57,222.54 60.54,221.57 		"/>
		<path class="st3" d="M57.21,224.17c-0.49,0-0.89-0.4-0.89-0.89s0.4-0.89,0.89-0.89s0.89,0.4,0.89,0.89c0,0.28-0.13,0.52-0.32,0.69
			l-0.09,0.07C57.55,224.12,57.39,224.17,57.21,224.17 M58.22,224.82c0.01,0,0.01-0.01,0.02-0.01l0.03-0.02l0,0
			c0.48-0.34,0.79-0.9,0.78-1.54c-0.02-0.97-0.82-1.79-1.8-1.82c-1.05-0.03-1.9,0.81-1.9,1.85c0,0.74,0.44,1.38,1.07,1.67
			c-0.38,0.27-0.42,0.82-0.09,1.15c0.23,0.23,0.55,0.37,0.88,0.37h1.35c0,0.74-0.6,1.35-1.35,1.35c-0.74,0-1.35-0.6-1.35-1.35h-0.99
			c0,1.31,1.07,2.36,2.38,2.34c1.29-0.02,2.3-1.13,2.3-2.42v-0.92h-2.29L58.22,224.82z"/>
		<path class="st3" d="M74.28,221.56h0.99v4.9h-0.99V221.56z M74.77,220.29c-0.35,0-0.64-0.29-0.64-0.64s0.29-0.63,0.64-0.63
			s0.64,0.28,0.64,0.63C75.41,220,75.12,220.29,74.77,220.29"/>
		<polygon class="st3" points="78.89,226.45 78.89,222.42 76.7,222.42 76.7,226.45 75.71,226.45 75.71,221.56 79.88,221.56 
			79.88,226.45 		"/>
		<path class="st3" d="M82.75,222.33c-0.83,0-1.36,0.49-1.47,1.09h2.93C84.12,222.82,83.62,222.33,82.75,222.33 M81.19,224.24
			c0.12,0.76,0.77,1.39,1.55,1.39c0.76,0,1.41-0.53,1.63-0.99l0.85,0.48c-0.48,0.86-1.31,1.44-2.48,1.44
			c-1.42,0-2.57-1.15-2.57-2.57s1.15-2.57,2.57-2.57c1.69,0,2.57,1.28,2.58,2.81h-4.13V224.24z"/>
	</g>
	<rect x="47.35" y="233.59" class="st0" width="78.17" height="25.18"/>
	<text transform="matrix(1 0 0 1 47.3518 237.1961)" class="st3 st14 st13">Genuine by Genus aims to provide </text>
	<text transform="matrix(1 0 0 1 47.3518 242.5461)" class="st3 st14 st13">youths who are seeking a higher </text>
	<text transform="matrix(1 0 0 1 47.3518 247.9061)" class="st3 st14 st13">education with an opportunity to </text>
	<text transform="matrix(1 0 0 1 47.3518 253.2561)" class="st3 st14 st13">receive a scholarship to help with </text>
	<text transform="matrix(1 0 0 1 47.3518 258.6061)" class="st3 st14 st13">the fnancial burden of higher </text>
	<g>
		<path class="st3" d="M100.83,273.84H77.38c-2.17,0-3.94-1.76-3.94-3.94v-0.56c0-2.17,1.76-3.94,3.94-3.94h23.45
			c2.17,0,3.94,1.76,3.94,3.94v0.56C104.77,272.08,103,273.84,100.83,273.84z"/>
		<g>
			<path class="st16" d="M77.43,267.91h1.26c0.46,0,0.8,0.09,1.01,0.26c0.22,0.17,0.32,0.4,0.32,0.69c0,0.24-0.07,0.45-0.22,0.63
				c-0.14,0.18-0.36,0.29-0.64,0.34c0.28,0.08,0.49,0.24,0.63,0.47s0.23,0.56,0.28,0.97l0.02,0.13h-0.56l-0.01-0.11
				c-0.05-0.37-0.15-0.67-0.32-0.9s-0.43-0.34-0.81-0.34h-0.47v1.35H77.4v-3.49H77.43z M77.95,268.36v1.26h0.66
				c0.16,0,0.3-0.02,0.41-0.06s0.2-0.1,0.27-0.16c0.07-0.07,0.12-0.14,0.15-0.23c0.03-0.08,0.05-0.17,0.05-0.25
				c0-0.19-0.07-0.33-0.19-0.42c-0.13-0.09-0.34-0.14-0.62-0.14L77.95,268.36L77.95,268.36z"/>
			<path class="st16" d="M81.69,271.44c-0.38,0-0.68-0.12-0.9-0.35s-0.33-0.54-0.33-0.92c0-0.19,0.03-0.36,0.09-0.53
				c0.06-0.16,0.15-0.3,0.25-0.41c0.11-0.11,0.23-0.2,0.38-0.26c0.15-0.06,0.31-0.1,0.49-0.1c0.36,0,0.65,0.11,0.86,0.34
				s0.31,0.54,0.31,0.93v0.19h-1.86c0.01,0.21,0.08,0.38,0.21,0.5s0.3,0.18,0.51,0.18s0.37-0.04,0.47-0.13s0.18-0.19,0.23-0.31
				l0.46,0.18c-0.08,0.19-0.22,0.35-0.4,0.49C82.25,271.38,82,271.44,81.69,271.44z M81.66,269.3c-0.19,0-0.34,0.06-0.47,0.18
				c-0.13,0.12-0.2,0.27-0.23,0.48h1.34c-0.01-0.21-0.07-0.37-0.19-0.48C82,269.36,81.85,269.3,81.66,269.3z"/>
			<path class="st16" d="M84.04,271.47c-0.26,0-0.47-0.07-0.63-0.2s-0.23-0.3-0.23-0.52c0-0.14,0.02-0.25,0.07-0.34
				s0.12-0.16,0.2-0.22c0.09-0.06,0.19-0.1,0.31-0.14s0.25-0.07,0.38-0.1c0.21-0.05,0.38-0.08,0.5-0.11
				c0.13-0.03,0.2-0.07,0.23-0.14v-0.04c0-0.1-0.04-0.19-0.12-0.26s-0.22-0.1-0.41-0.1c-0.18,0-0.32,0.04-0.42,0.12
				s-0.15,0.19-0.17,0.33v0.03h-0.52c0.01-0.28,0.11-0.49,0.32-0.65c0.2-0.16,0.47-0.24,0.8-0.24c0.31,0,0.56,0.07,0.74,0.22
				s0.27,0.38,0.27,0.69v1.22l0.01,0.38h-0.5v-0.37c-0.08,0.15-0.2,0.26-0.35,0.33C84.39,271.43,84.22,271.47,84.04,271.47z
				 M84.14,271.07c0.18,0,0.34-0.05,0.49-0.15s0.23-0.27,0.25-0.52v-0.3c-0.08,0.05-0.18,0.09-0.3,0.12s-0.24,0.06-0.36,0.08
				c-0.14,0.03-0.26,0.08-0.36,0.14c-0.1,0.06-0.15,0.15-0.15,0.28c0,0.1,0.04,0.18,0.11,0.25C83.9,271.04,84,271.07,84.14,271.07z"
				/>
			<path class="st16" d="M86.94,271.45c-0.16,0-0.3-0.03-0.44-0.09s-0.25-0.14-0.35-0.25s-0.18-0.25-0.23-0.4
				c-0.06-0.16-0.08-0.34-0.08-0.54s0.03-0.37,0.08-0.54c0.06-0.16,0.13-0.3,0.23-0.41c0.1-0.11,0.22-0.2,0.35-0.26
				c0.14-0.06,0.29-0.09,0.45-0.09c0.17,0,0.33,0.04,0.46,0.12c0.14,0.08,0.25,0.18,0.34,0.31v-1.43h0.5v3.54h-0.5v-0.36
				c-0.09,0.13-0.2,0.23-0.34,0.3C87.27,271.42,87.11,271.45,86.94,271.45z M87.07,271.01c0.21,0,0.38-0.08,0.51-0.24
				c0.13-0.16,0.19-0.36,0.19-0.6v-0.04c0-0.24-0.06-0.44-0.19-0.59c-0.12-0.15-0.29-0.23-0.51-0.23c-0.21,0-0.38,0.07-0.51,0.22
				c-0.13,0.15-0.19,0.36-0.19,0.62v0.04c0,0.26,0.06,0.47,0.19,0.61C86.69,270.94,86.86,271.01,87.07,271.01z"/>
			<path class="st16" d="M90.61,267.91l0.9,2.76l0.96-2.76h0.86v3.49h-0.51v-3.02l-1.08,3.02h-0.46l-1.03-2.99v2.99h-0.52v-3.49
				H90.61z"/>
			<path class="st16" d="M95.09,271.44c-0.36,0-0.66-0.12-0.89-0.36c-0.23-0.24-0.34-0.54-0.34-0.92c0-0.19,0.03-0.36,0.09-0.52
				s0.15-0.29,0.26-0.41c0.11-0.11,0.24-0.2,0.39-0.26s0.32-0.1,0.5-0.1s0.35,0.03,0.5,0.1c0.15,0.06,0.28,0.15,0.39,0.26
				c0.11,0.11,0.19,0.25,0.25,0.41s0.09,0.33,0.09,0.52s-0.03,0.36-0.09,0.52s-0.15,0.29-0.26,0.4s-0.24,0.2-0.4,0.26
				C95.44,271.41,95.27,271.44,95.09,271.44z M95.09,271.01c0.22,0,0.4-0.07,0.53-0.22s0.2-0.35,0.2-0.6v-0.02
				c0-0.26-0.07-0.46-0.19-0.62c-0.13-0.15-0.3-0.23-0.53-0.23c-0.22,0-0.4,0.08-0.53,0.23c-0.13,0.15-0.2,0.36-0.2,0.62v0.02
				c0,0.25,0.06,0.45,0.19,0.6C94.7,270.93,94.87,271.01,95.09,271.01z"/>
			<path class="st16" d="M97.33,268.92v0.46c0.03-0.14,0.11-0.26,0.22-0.35s0.28-0.13,0.5-0.13h0.08v0.5h-0.24
				c-0.22,0-0.37,0.06-0.45,0.17c-0.08,0.12-0.12,0.3-0.12,0.55v1.27H96.8v-2.48h0.53V268.92z"/>
			<path class="st16" d="M99.62,271.44c-0.38,0-0.68-0.12-0.9-0.35s-0.33-0.54-0.33-0.92c0-0.19,0.03-0.36,0.09-0.53
				c0.06-0.16,0.15-0.3,0.25-0.41c0.11-0.11,0.23-0.2,0.38-0.26c0.15-0.06,0.31-0.1,0.49-0.1c0.36,0,0.65,0.11,0.86,0.34
				s0.31,0.54,0.31,0.93v0.19H98.9c0.01,0.21,0.08,0.38,0.21,0.5s0.3,0.18,0.51,0.18s0.37-0.04,0.47-0.13s0.18-0.19,0.23-0.31
				l0.46,0.18c-0.08,0.19-0.22,0.35-0.4,0.49C100.18,271.38,99.93,271.44,99.62,271.44z M99.59,269.3c-0.19,0-0.34,0.06-0.47,0.18
				c-0.13,0.12-0.2,0.27-0.23,0.48h1.34c-0.01-0.21-0.07-0.37-0.19-0.48C99.93,269.36,99.78,269.3,99.59,269.3z"/>
		</g>
	</g>
</g>
<g id="Layer_3">
</g>
<path class="st17" d="M199.62,30.89h456c8.8,0,16,7.1,16,15.9v306.2c0,8.8-7.2,15.9-16,15.9h-456c-8.8,0-16-7.1-16-15.9v-3.1v-303
	C183.62,37.99,190.82,30.89,199.62,30.89"/>
<g id="MBP-base_2_">
	<path class="st18" d="M693.52,373.89c13.6,0,26.1-6.5,26.1-6.5v-11.5h-586v11.5c0,0,12.5,6.5,26.1,6.5H693.52z"/>
	<path class="st19" d="M475.62,355.89c0,0.7-0.1,1.3-0.2,2c-0.8,4.6-4.4,8-8.6,8h-79.4c-4.3,0-7.8-3.4-8.6-8c-0.1-0.7-0.2-1.3-0.2-2
		"/>
</g>
<g id="menuBar_5_">
	<rect x="202.12" y="54.39" class="st20" width="451" height="9"/>
	<path class="st21" d="M246.12,56.89h6c0.3,0,0.5,0.2,0.5,0.5v3c0,0.3-0.2,0.5-0.5,0.5h-6c-0.3,0-0.5-0.2-0.5-0.5v-3
		C245.62,57.09,245.82,56.89,246.12,56.89z"/>
	<path class="st21" d="M219.62,56.89h18c0.3,0,0.5,0.2,0.5,0.5v3c0,0.3-0.2,0.5-0.5,0.5h-18c-0.3,0-0.5-0.2-0.5-0.5v-3
		C219.12,57.09,219.32,56.89,219.62,56.89z"/>
	<path class="st21" d="M209.62,56.89L209.62,56.89c1.1,0,2,0.9,2,2l0,0c0,1.1-0.9,2-2,2l0,0c-1.1,0-2-0.9-2-2l0,0
		C207.62,57.79,208.52,56.89,209.62,56.89z"/>
	<path class="st21" d="M592.62,56.89h25c0.3,0,0.5,0.2,0.5,0.5v3c0,0.3-0.2,0.5-0.5,0.5h-25c-0.3,0-0.5-0.2-0.5-0.5v-3
		C592.12,57.09,592.32,56.89,592.62,56.89z"/>
	<path class="st21" d="M624.62,56.89h3c0.3,0,0.5,0.2,0.5,0.5v3c0,0.3-0.2,0.5-0.5,0.5h-3c-0.3,0-0.5-0.2-0.5-0.5v-3
		C624.12,57.09,624.32,56.89,624.62,56.89z"/>
	<path class="st21" d="M581.62,56.89h6c0.3,0,0.5,0.2,0.5,0.5v3c0,0.3-0.2,0.5-0.5,0.5h-6c-0.3,0-0.5-0.2-0.5-0.5v-3
		C581.12,57.09,581.32,56.89,581.62,56.89z"/>
	<path class="st21" d="M640.62,56.89h6c0.3,0,0.5,0.2,0.5,0.5v3c0,0.3-0.2,0.5-0.5,0.5h-6c-0.3,0-0.5-0.2-0.5-0.5v-3
		C640.12,57.09,640.32,56.89,640.62,56.89z"/>
	<path class="st21" d="M259.12,56.89h6c0.3,0,0.5,0.2,0.5,0.5v3c0,0.3-0.2,0.5-0.5,0.5h-6c-0.3,0-0.5-0.2-0.5-0.5v-3
		C258.62,57.09,258.82,56.89,259.12,56.89z"/>
	<path class="st21" d="M273.12,56.89h7.5c0.3,0,0.5,0.2,0.5,0.5v3c0,0.3-0.2,0.5-0.5,0.5h-7.5c-0.3,0-0.5-0.2-0.5-0.5v-3
		C272.62,57.09,272.82,56.89,273.12,56.89z"/>
	<path class="st21" d="M288.12,56.89h5.5c0.3,0,0.5,0.2,0.5,0.5v3c0,0.3-0.2,0.5-0.5,0.5h-5.5c-0.3,0-0.5-0.2-0.5-0.5v-3
		C287.62,57.09,287.82,56.89,288.12,56.89z"/>
	<circle class="st21" cx="634.62" cy="58.89" r="2"/>
</g>
<path class="st4" d="M649.03,315.9H206.22c-2.26,0-4.1-1.83-4.1-4.1V72.39h451V311.8C653.12,314.07,651.29,315.9,649.03,315.9z"/>
<g>
	<path class="st22" d="M268.39,105.16h110.37c3.11,0,5.63,2.52,5.63,5.63v0c0,3.11-2.52,5.63-5.63,5.63H268.39
		c-3.11,0-5.63-2.52-5.63-5.63v0C262.76,107.68,265.28,105.16,268.39,105.16z"/>
	<g>
		<circle class="st23" cx="376.61" cy="110.26" r="2.73"/>
		<line class="st23" x1="378.99" y1="111.63" x2="382.1" y2="113.93"/>
	</g>
</g>
<text transform="matrix(1 0 0 1 262.763 126.3378)" class="st3 st12 st24">Search Results (153 Jobs)</text>
<g>
	<circle class="st16" cx="475.12" cy="110.79" r="4.32"/>
	<g>
		<path class="st3" d="M473.59,112.62h-0.68v-2.56c-0.13,0.17-0.29,0.31-0.47,0.44c-0.18,0.13-0.38,0.22-0.61,0.29v-0.63
			c0.28-0.1,0.52-0.25,0.71-0.43c0.19-0.19,0.32-0.43,0.39-0.74h0.66L473.59,112.62L473.59,112.62z"/>
		<path class="st3" d="M473.89,109.59v-0.6h2.58v0.58l-1.62,3.05h-0.73l1.7-3.03C475.82,109.59,473.89,109.59,473.89,109.59z"/>
		<path class="st3" d="M478.47,111.41h-0.83v0.84h-0.55v-0.84h-0.83v-0.52h0.83v-0.85h0.55v0.85h0.83V111.41z"/>
	</g>
</g>
<g>
	<path class="st3" d="M507.56,115.11h-22.73c-2.38,0-4.32-1.93-4.32-4.32l0,0c0-2.38,1.93-4.32,4.32-4.32h22.73
		c2.38,0,4.32,1.93,4.32,4.32l0,0C511.87,113.18,509.94,115.11,507.56,115.11z"/>
	<g>
		<path class="st25" d="M485.97,113.3c-0.09-0.18-0.19-0.31-0.29-0.4c-0.11-0.09-0.24-0.14-0.4-0.14c-0.12,0-0.23,0.04-0.31,0.11
			s-0.13,0.15-0.16,0.22h-0.37c0.03-0.09,0.08-0.17,0.13-0.24c0.05-0.07,0.12-0.14,0.19-0.2c-0.44-0.06-0.79-0.26-1.05-0.59
			c-0.26-0.33-0.39-0.75-0.39-1.26c0-0.28,0.04-0.54,0.13-0.78c0.08-0.23,0.2-0.43,0.36-0.59c0.15-0.16,0.34-0.29,0.56-0.38
			s0.46-0.14,0.73-0.14c0.26,0,0.5,0.05,0.72,0.14s0.4,0.22,0.55,0.38c0.15,0.16,0.27,0.36,0.35,0.59c0.08,0.23,0.13,0.49,0.13,0.78
			c0,0.42-0.09,0.78-0.27,1.08s-0.43,0.52-0.75,0.65c0.16,0.06,0.3,0.15,0.43,0.28s0.25,0.29,0.37,0.48L485.97,113.3L485.97,113.3z
			 M485.07,112.21c0.37,0,0.67-0.12,0.88-0.37s0.32-0.58,0.32-1.01v-0.05c0-0.42-0.11-0.76-0.32-1c-0.21-0.25-0.5-0.37-0.87-0.37
			s-0.67,0.12-0.88,0.37c-0.21,0.24-0.32,0.58-0.32,1v0.05c0,0.42,0.11,0.76,0.32,1C484.42,112.08,484.71,112.21,485.07,112.21z"/>
		<path class="st25" d="M488.16,112.65c-0.29,0-0.51-0.09-0.68-0.28c-0.16-0.19-0.25-0.44-0.25-0.77v-1.57h0.54v1.54
			c0,0.2,0.04,0.35,0.13,0.46s0.22,0.16,0.39,0.16c0.21,0,0.37-0.08,0.47-0.25s0.15-0.39,0.15-0.67v-1.23h0.54v2.58h-0.54v-0.44
			c-0.07,0.16-0.17,0.28-0.29,0.36C488.51,112.61,488.35,112.65,488.16,112.65z"/>
		<path class="st25" d="M491.12,112.65c-0.39,0-0.71-0.12-0.94-0.36s-0.35-0.56-0.35-0.95c0-0.2,0.03-0.38,0.1-0.55
			c0.06-0.17,0.15-0.31,0.26-0.43c0.11-0.12,0.24-0.21,0.4-0.28c0.15-0.07,0.32-0.1,0.5-0.1c0.38,0,0.68,0.12,0.89,0.36
			c0.21,0.24,0.32,0.56,0.32,0.96v0.2h-1.94c0.01,0.22,0.09,0.39,0.22,0.52s0.31,0.19,0.53,0.19s0.38-0.05,0.49-0.14
			s0.19-0.2,0.23-0.32l0.47,0.19c-0.09,0.2-0.23,0.36-0.42,0.5C491.71,112.58,491.45,112.65,491.12,112.65z M491.09,110.43
			c-0.19,0-0.36,0.06-0.49,0.18s-0.21,0.29-0.24,0.49h1.4c-0.01-0.22-0.08-0.39-0.19-0.5C491.45,110.48,491.29,110.43,491.09,110.43
			z"/>
		<path class="st25" d="M493.84,112.65c-0.39,0-0.71-0.12-0.94-0.36s-0.35-0.56-0.35-0.95c0-0.2,0.03-0.38,0.1-0.55
			c0.06-0.17,0.15-0.31,0.26-0.43c0.11-0.12,0.24-0.21,0.4-0.28c0.15-0.07,0.32-0.1,0.5-0.1c0.38,0,0.68,0.12,0.89,0.36
			c0.21,0.24,0.32,0.56,0.32,0.96v0.2h-1.94c0.01,0.22,0.09,0.39,0.22,0.52s0.31,0.19,0.53,0.19s0.38-0.05,0.49-0.14
			s0.19-0.2,0.23-0.32l0.47,0.19c-0.09,0.2-0.23,0.36-0.42,0.5C494.43,112.58,494.16,112.65,493.84,112.65z M493.8,110.43
			c-0.19,0-0.36,0.06-0.49,0.18s-0.21,0.29-0.24,0.49h1.4c-0.01-0.22-0.08-0.39-0.19-0.5C494.16,110.48,494,110.43,493.8,110.43z"/>
		<path class="st25" d="M495.95,110.03v0.49c0.07-0.17,0.17-0.3,0.3-0.4s0.29-0.14,0.49-0.14c0.28,0,0.49,0.09,0.66,0.28
			c0.16,0.18,0.24,0.45,0.24,0.79v1.57h-0.54v-1.54c0-0.2-0.04-0.35-0.13-0.46s-0.22-0.16-0.39-0.16c-0.2,0-0.35,0.08-0.46,0.24
			c-0.11,0.16-0.17,0.39-0.17,0.68v1.23h-0.53v-2.58C495.42,110.03,495.95,110.03,495.95,110.03z"/>
		<path class="st25" d="M499.08,112.68c-0.25,0-0.47-0.05-0.67-0.15s-0.36-0.23-0.47-0.39l0.46-0.25c0.08,0.11,0.18,0.2,0.31,0.26
			c0.13,0.06,0.26,0.09,0.39,0.09c0.15,0,0.26-0.03,0.34-0.09s0.12-0.15,0.12-0.25c0-0.11-0.07-0.19-0.2-0.23s-0.3-0.08-0.5-0.13
			c-0.12-0.03-0.23-0.06-0.34-0.09s-0.2-0.08-0.28-0.14s-0.15-0.13-0.2-0.22c-0.05-0.09-0.07-0.19-0.07-0.31
			c0-0.23,0.09-0.41,0.28-0.57c0.19-0.15,0.42-0.23,0.69-0.23c0.24,0,0.45,0.05,0.64,0.15s0.35,0.23,0.47,0.4l-0.46,0.23
			c-0.07-0.11-0.17-0.2-0.28-0.26s-0.24-0.09-0.37-0.09c-0.14,0-0.25,0.03-0.33,0.09s-0.13,0.14-0.13,0.24
			c0,0.11,0.05,0.18,0.15,0.22s0.26,0.08,0.5,0.13c0.12,0.02,0.23,0.05,0.35,0.09s0.22,0.08,0.31,0.14s0.16,0.13,0.22,0.22
			c0.06,0.09,0.08,0.2,0.08,0.32c0,0.24-0.09,0.43-0.28,0.59C499.61,112.6,499.37,112.68,499.08,112.68z"/>
		<path class="st25" d="M500.42,113.47l-0.08-0.21c0.17-0.05,0.28-0.13,0.35-0.24c0.06-0.11,0.1-0.26,0.1-0.44h-0.33v-0.64h0.69
			v0.59c0,0.24-0.06,0.44-0.17,0.61S500.68,113.41,500.42,113.47z"/>
		<path class="st25" d="M503.28,108.99l1.8,2.71v-2.71h0.53v3.63h-0.53l-1.9-2.84v2.84h-0.53V109L503.28,108.99L503.28,108.99z"/>
		<path class="st25" d="M508.45,108.99h0.61l-1.31,1.97v1.66h-0.55v-1.67l-1.3-1.95h0.62l0.96,1.47L508.45,108.99z"/>
	</g>
</g>
<g>
	<path class="st3" d="M536.63,115.11h-18.95c-2.38,0-4.32-1.93-4.32-4.32l0,0c0-2.38,1.93-4.32,4.32-4.32h18.95
		c2.38,0,4.32,1.93,4.32,4.32l0,0C540.94,113.18,539.01,115.11,536.63,115.11z"/>
	<g>
		<path class="st25" d="M516.91,108.99h1.15c0.49,0,0.86,0.09,1.11,0.28c0.24,0.19,0.37,0.47,0.37,0.85c0,0.39-0.12,0.68-0.37,0.87
			s-0.62,0.28-1.12,0.28h-0.58v1.34h-0.55v-3.62H516.91z M517.45,109.45v1.36h0.58c0.33,0,0.57-0.05,0.71-0.16
			c0.15-0.11,0.22-0.28,0.22-0.53c0-0.24-0.07-0.41-0.21-0.52c-0.14-0.1-0.38-0.16-0.7-0.16h-0.6V109.45z"/>
		<path class="st25" d="M520.61,112.68c-0.27,0-0.49-0.07-0.65-0.21c-0.16-0.14-0.24-0.32-0.24-0.54c0-0.15,0.03-0.26,0.08-0.36
			c0.05-0.09,0.12-0.17,0.21-0.23c0.09-0.06,0.2-0.11,0.32-0.14c0.12-0.04,0.26-0.07,0.4-0.1c0.22-0.05,0.39-0.09,0.52-0.11
			c0.13-0.03,0.21-0.08,0.23-0.15v-0.04c0-0.11-0.04-0.19-0.13-0.27c-0.09-0.07-0.23-0.11-0.42-0.11s-0.34,0.04-0.44,0.12
			s-0.16,0.2-0.17,0.34v0.03h-0.54c0.01-0.29,0.12-0.51,0.33-0.68s0.49-0.25,0.83-0.25c0.33,0,0.58,0.08,0.77,0.23
			s0.28,0.39,0.28,0.72v1.27l0.01,0.4h-0.52v-0.39c-0.09,0.15-0.21,0.27-0.36,0.34C520.96,112.64,520.79,112.68,520.61,112.68z
			 M520.7,112.27c0.19,0,0.36-0.05,0.51-0.16s0.24-0.28,0.26-0.54v-0.32c-0.08,0.05-0.18,0.1-0.31,0.13s-0.25,0.06-0.37,0.09
			c-0.15,0.04-0.27,0.09-0.38,0.15c-0.11,0.06-0.16,0.16-0.16,0.29c0,0.11,0.04,0.19,0.11,0.26
			C520.45,112.23,520.56,112.27,520.7,112.27z"/>
		<path class="st25" d="M523.01,110.03v0.47c0.04-0.15,0.11-0.27,0.23-0.36s0.29-0.14,0.52-0.14h0.08v0.52h-0.25
			c-0.23,0-0.38,0.06-0.46,0.18s-0.12,0.31-0.12,0.57v1.32h-0.53v-2.58h0.53V110.03z"/>
		<path class="st25" d="M525.49,112.61h-0.46c-0.23-0.01-0.39-0.07-0.47-0.18c-0.08-0.11-0.12-0.26-0.13-0.47v-1.47h-0.41v-0.46
			h0.41v-0.5l0.52-0.32v0.82h0.56v0.46h-0.56v1.41c0,0.08,0.02,0.14,0.05,0.18c0.04,0.04,0.09,0.06,0.17,0.06h0.31v0.47H525.49z"/>
		<path class="st25" d="M529.57,108.99v0.49h-1.16v3.14h-0.55v-3.14h-1.15v-0.49H529.57z"/>
		<path class="st25" d="M530.44,109.05v0.57h-0.58v-0.57H530.44z M530.42,110.03v2.58h-0.54v-2.58H530.42z"/>
		<path class="st25" d="M531.47,110.03v0.45c0.07-0.16,0.16-0.28,0.29-0.37c0.13-0.09,0.28-0.13,0.47-0.13
			c0.15,0,0.29,0.04,0.42,0.13s0.23,0.23,0.29,0.43c0.06-0.17,0.16-0.3,0.3-0.41c0.14-0.1,0.32-0.16,0.54-0.16
			c0.24,0,0.44,0.09,0.58,0.27c0.15,0.18,0.22,0.43,0.22,0.75v1.62h-0.54v-1.59c0-0.19-0.04-0.33-0.12-0.43
			c-0.08-0.09-0.2-0.14-0.35-0.14c-0.17,0-0.3,0.06-0.4,0.19c-0.09,0.13-0.14,0.3-0.14,0.52v1.44h-0.54v-1.59
			c0-0.19-0.04-0.33-0.12-0.43c-0.08-0.09-0.2-0.14-0.35-0.14c-0.16,0-0.29,0.06-0.39,0.19c-0.1,0.12-0.15,0.3-0.15,0.53v1.44h-0.53
			v-2.58h0.52V110.03z"/>
		<path class="st25" d="M536.2,112.65c-0.39,0-0.71-0.12-0.94-0.36s-0.35-0.56-0.35-0.95c0-0.2,0.03-0.38,0.1-0.55
			c0.06-0.17,0.15-0.31,0.26-0.43s0.24-0.21,0.4-0.28c0.15-0.07,0.32-0.1,0.5-0.1c0.38,0,0.68,0.12,0.89,0.36s0.32,0.56,0.32,0.96
			v0.2h-1.94c0.01,0.22,0.09,0.39,0.22,0.52c0.13,0.13,0.31,0.19,0.53,0.19c0.22,0,0.38-0.05,0.49-0.14s0.19-0.2,0.23-0.32
			l0.47,0.19c-0.09,0.2-0.23,0.36-0.42,0.5C536.78,112.58,536.52,112.65,536.2,112.65z M536.16,110.43c-0.19,0-0.36,0.06-0.49,0.18
			s-0.21,0.29-0.24,0.49h1.4c-0.01-0.22-0.08-0.39-0.19-0.5C536.52,110.48,536.36,110.43,536.16,110.43z"/>
	</g>
</g>
<text transform="matrix(1 0 0 1 575.3569 112.6104)" class="st3 st12 st26">+ Filters</text>
<g id="menuBar_4_">
	<path class="st21" d="M205.14,63.39H650.1c1.67,0,3.02,1.35,3.02,3.02v9.72h-451v-9.72C202.12,64.75,203.47,63.39,205.14,63.39z"/>
	<path class="st20" d="M209.62,67.77L209.62,67.77c1.1,0,2,0.9,2,2l0,0c0,1.1-0.9,2-2,2l0,0c-1.1,0-2-0.9-2-2l0,0
		C207.62,68.67,208.52,67.77,209.62,67.77z"/>
	<path class="st20" d="M215.53,67.77L215.53,67.77c1.1,0,2,0.9,2,2l0,0c0,1.1-0.9,2-2,2l0,0c-1.1,0-2-0.9-2-2l0,0
		C213.53,68.67,214.43,67.77,215.53,67.77z"/>
	<path class="st20" d="M221.45,67.77L221.45,67.77c1.1,0,2,0.9,2,2l0,0c0,1.1-0.9,2-2,2l0,0c-1.1,0-2-0.9-2-2l0,0
		C219.45,68.67,220.35,67.77,221.45,67.77z"/>
</g>
<path class="st20" d="M233.6,65.59h-5.55c-0.77,0-1.4,0.63-1.4,1.4v5.55c0,0.77,0.63,1.4,1.4,1.4h5.55c0.77,0,1.4-0.63,1.4-1.4
	v-5.55C235,66.21,234.37,65.59,233.6,65.59z"/>
<path class="st20" d="M243.98,65.59h-5.55c-0.77,0-1.4,0.63-1.4,1.4v5.55c0,0.77,0.63,1.4,1.4,1.4h5.55c0.77,0,1.4-0.63,1.4-1.4
	v-5.55C245.38,66.21,244.75,65.59,243.98,65.59z"/>
<path class="st20" d="M256.49,65.59h-7.24c-0.77,0-1.4,0.63-1.4,1.4v5.55c0,0.77,0.63,1.4,1.4,1.4h7.24c0.77,0,1.4-0.63,1.4-1.4
	v-5.55C257.9,66.21,257.27,65.59,256.49,65.59z"/>
<path class="st20" d="M625.72,65.59h-7.24c-0.77,0-1.4,0.63-1.4,1.4v5.55c0,0.77,0.63,1.4,1.4,1.4h7.24c0.77,0,1.4-0.63,1.4-1.4
	v-5.55C627.12,66.21,626.5,65.59,625.72,65.59z"/>
<path class="st20" d="M638.24,65.59H631c-0.77,0-1.4,0.63-1.4,1.4v5.55c0,0.77,0.63,1.4,1.4,1.4h7.24c0.77,0,1.4-0.63,1.4-1.4v-5.55
	C639.65,66.21,639.02,65.59,638.24,65.59z"/>
<path class="st20" d="M536.1,65.59H319.15c-0.77,0-1.4,0.63-1.4,1.4v5.55c0,0.77,0.63,1.4,1.4,1.4H536.1c0.77,0,1.4-0.63,1.4-1.4
	v-5.55C537.5,66.21,536.87,65.59,536.1,65.59z"/>
<path class="st20" d="M653.12,69.77h-9.39c-0.72,0-1.31,0.59-1.31,1.31v5.06h10.7V69.77z"/>
<rect x="202.12" y="76.14" class="st3" width="450.9" height="22.85"/>
<g>
	<path class="st4" d="M420.51,81.11c-2.64,0-4.78,2.14-4.78,4.78s2.14,4.78,4.78,4.78c2.18,0,3.73-1.07,4.62-2.68l-1.59-0.89
		c-0.42,0.85-1.62,1.84-3.03,1.84c-1.47,0-2.68-1.19-2.89-2.6h7.69C425.29,83.49,423.66,81.11,420.51,81.11z M417.78,84.82
		c0.2-1.11,1.19-2.02,2.73-2.02c1.62,0,2.56,0.91,2.71,2.02H417.78z"/>
	<polygon class="st4" points="426,90.46 427.85,90.46 427.85,82.95 431.93,82.95 431.93,90.46 433.77,90.46 433.77,81.35 426,81.35 
			"/>
	<path class="st4" d="M440.28,86.9c0,1.15-0.73,2.02-1.94,2.02c-1.05,0-1.92-0.75-1.92-2.04v-5.51h-1.84v5.51
		c0,2.38,1.68,3.79,3.79,3.79c2.08,0,3.77-1.51,3.77-3.79v-5.51h-1.84v5.53H440.28z"/>
	<path class="st4" d="M444.47,83.75c0-0.55,0.22-1.09,0.97-1.09c0.89,0,1.11,0.71,1.21,1.05l1.39-0.87c-0.36-1.05-1.17-1.8-2.6-1.8
		c-1.49,0-2.72,1.21-2.72,2.68c0,2.93,3.88,2.48,3.88,4.18c0,0.63-0.58,1.15-1.27,1.15s-1.19-0.61-1.35-1.11l-1.66,0.65
		c0.4,1.19,1.47,2.06,3.01,2.06c1.74,0,3.15-1.31,3.15-2.89C448.5,85.11,444.47,84.88,444.47,83.75z"/>
	<polygon class="st4" points="414.35,81.37 414.35,83.18 415.5,83.18 417.3,81.37 	"/>
	<path class="st4" d="M412.99,87.42c0.01-0.01,0.02-0.02,0.04-0.03l0.05-0.03l0,0c0.89-0.64,1.47-1.68,1.45-2.87
		c-0.03-1.81-1.54-3.33-3.35-3.38c-1.95-0.05-3.54,1.51-3.54,3.44c0,1.38,0.81,2.57,1.98,3.12c-0.7,0.51-0.78,1.52-0.17,2.14
		c0.44,0.44,1.03,0.68,1.64,0.68h2.52c0,1.39-1.12,2.51-2.51,2.51s-2.51-1.12-2.51-2.51h-1.85c0,2.43,2,4.4,4.44,4.36
		c2.4-0.04,4.28-2.1,4.28-4.5v-1.7h-4.27L412.99,87.42z M409.45,84.55c0-0.92,0.74-1.66,1.66-1.66s1.66,0.74,1.66,1.66
		c0,0.51-0.23,0.97-0.6,1.28L412,85.96c-0.26,0.16-0.56,0.26-0.89,0.26C410.19,86.22,409.45,85.47,409.45,84.55z"/>
</g>
<g>
	<g>
		<path class="st4" d="M558.5,85.1l0.52,1.62l0.12,0.38h0.4h1.7l-1.37,1l-0.32,0.23l0.12,0.38l0.53,1.62l-1.38-1l-0.32-0.23
			l-0.32,0.23l-1.38,1l0.53-1.62l0.12-0.38l-0.32-0.23l-1.37-1h1.7h0.4l0.12-0.38L558.5,85.1 M558.5,83.33l-1.05,3.22h-3.39
			l2.74,1.99l-1.05,3.22l2.74-1.99l2.74,1.99l-1.05-3.22l2.74-1.99h-3.39L558.5,83.33L558.5,83.33z"/>
	</g>
	<g>
		<path class="st4" d="M505.05,84.36l2.71,2.44h-0.62v0.75v3.44h-4.19v-3.44V86.8h-0.61L505.05,84.36 M505.05,83.35l-4.68,4.2h1.82
			v4.19h5.69v-4.19h1.83L505.05,83.35L505.05,83.35z"/>
	</g>
	<path class="st4" d="M589.74,87.6l-2.41-4.17h-4.81l-2.41,4.17l1.2,2.08l0,0l1.2,2.08h4.81l1.2-2.08l0,0L589.74,87.6z M580.75,87.6
		l2.09-3.62h4.18l2.09,3.62l-0.89,1.54l-0.89-1.54h-2.41c0.77,0,1.4-0.63,1.4-1.4c0-0.77-0.63-1.4-1.4-1.4s-1.4,0.63-1.4,1.4
		c0,0.77,0.63,1.4,1.4,1.4h-2.41l-0.89,1.54L580.75,87.6z"/>
	<g>
		<path class="st4" d="M536.5,91.23l-2.09-2.09c0.46-0.6,0.74-1.35,0.74-2.17c0-1.98-1.6-3.58-3.58-3.58c-1.98,0-3.58,1.6-3.58,3.58
			s1.6,3.58,3.58,3.58c0.87,0,1.67-0.31,2.3-0.83l2.08,2.08L536.5,91.23z M531.56,89.76c-1.53,0-2.78-1.25-2.78-2.78
			s1.25-2.78,2.78-2.78s2.78,1.25,2.78,2.78C534.35,88.51,533.1,89.76,531.56,89.76z"/>
	</g>
</g>
<g>
	<defs>
		<rect id="SVGID_2_" x="262.76" y="133.22" width="120.65" height="182.68"/>
	</defs>
	<clipPath id="SVGID_3_">
		<use xlink:href="#SVGID_2_"  style="overflow:visible;"/>
	</clipPath>
	<rect x="262.79" y="95.14" class="st27" width="121.62" height="59.05"/>
	<rect x="262.79" y="106.38" class="st27" width="121.62" height="47.81"/>
	<g class="st28">
		<circle class="st3" cx="275.64" cy="114.7" r="6.08"/>
		<g>
			<path class="st1" d="M272.86,117.27h-0.95v-3.6c-0.19,0.24-0.41,0.44-0.66,0.62c-0.25,0.18-0.54,0.31-0.86,0.41v-0.89
				c0.4-0.14,0.73-0.35,1-0.61c0.27-0.26,0.45-0.61,0.55-1.04h0.92V117.27z"/>
			<path class="st1" d="M275.63,117.35c-0.67,0-1.2-0.22-1.57-0.67c-0.37-0.45-0.56-1.09-0.56-1.94c0-0.86,0.19-1.53,0.56-1.99
				c0.37-0.46,0.9-0.7,1.56-0.7c0.31,0,0.57,0.04,0.8,0.13c0.22,0.08,0.41,0.2,0.56,0.34c0.15,0.14,0.26,0.3,0.34,0.48
				c0.08,0.18,0.12,0.37,0.14,0.57h-0.95c-0.03-0.2-0.11-0.36-0.25-0.49c-0.13-0.13-0.36-0.19-0.68-0.19
				c-0.35,0-0.63,0.14-0.83,0.41c-0.2,0.27-0.3,0.65-0.3,1.11l-0.02,0.14c0.14-0.18,0.33-0.32,0.56-0.43
				c0.23-0.11,0.47-0.16,0.71-0.16c0.54,0,0.98,0.15,1.31,0.45c0.33,0.3,0.5,0.7,0.5,1.19c0,0.26-0.05,0.49-0.14,0.71
				c-0.1,0.22-0.23,0.4-0.39,0.55c-0.17,0.15-0.37,0.27-0.6,0.36C276.15,117.31,275.9,117.35,275.63,117.35z M275.59,116.54
				c0.29,0,0.52-0.09,0.7-0.26c0.17-0.17,0.26-0.39,0.26-0.66v-0.02c0-0.26-0.09-0.48-0.27-0.64c-0.18-0.17-0.42-0.25-0.72-0.25
				c-0.29,0-0.53,0.08-0.72,0.25c-0.19,0.17-0.29,0.38-0.29,0.63v0.02c0,0.26,0.1,0.48,0.3,0.66
				C275.05,116.44,275.29,116.54,275.59,116.54z"/>
			<path class="st1" d="M280.9,115.56h-1.17v1.19h-0.78v-1.19h-1.17v-0.74h1.17v-1.19h0.78v1.19h1.17V115.56z"/>
		</g>
	</g>
	<g class="st28">
		<text transform="matrix(1 0 0 1 269.2067 102.9023)" class="st5 st12 st29">Part Time Babysitter</text>
	</g>
	<rect x="262.76" y="154.19" class="st30" width="121.65" height="81.13"/>
	<g class="st28">
		<text transform="matrix(1 0 0 1 269.2067 161.9551)" class="st3 st12 st29">Cashier at Rite Aid HQ, Corp.</text>
	</g>
	<g class="st28">
		<circle class="st3" cx="275.64" cy="173.75" r="6.08"/>
		<g>
			<path class="st16" d="M273.48,176.32h-0.95v-3.6c-0.19,0.24-0.41,0.44-0.66,0.62c-0.25,0.18-0.54,0.31-0.86,0.41v-0.89
				c0.4-0.14,0.73-0.35,1-0.61c0.27-0.26,0.45-0.61,0.55-1.04h0.92V176.32z"/>
			<path class="st16" d="M273.9,172.05v-0.85h3.64v0.82l-2.29,4.29h-1.03l2.4-4.27H273.9z"/>
			<path class="st16" d="M280.35,174.62h-1.17v1.19h-0.78v-1.19h-1.17v-0.74h1.17v-1.19h0.78v1.19h1.17V174.62z"/>
		</g>
	</g>
	<rect x="286.49" y="107.73" class="st31" width="97.92" height="46.46"/>
	<rect x="286.49" y="166.78" class="st31" width="97.92" height="68.54"/>
	<rect x="262.76" y="309.31" class="st30" width="121.65" height="81.13"/>
	<g class="st28">
		<text transform="matrix(1 0 0 1 269.2067 317.0713)" class="st3 st12 st29">Sales Associate, Retail at GNC</text>
	</g>
	<g class="st28">
		<circle class="st3" cx="275.64" cy="328.87" r="6.08"/>
		<g>
			<path class="st16" d="M273.48,331.44h-0.95v-3.6c-0.19,0.24-0.41,0.44-0.66,0.62c-0.25,0.18-0.54,0.31-0.86,0.41v-0.89
				c0.4-0.14,0.73-0.35,1-0.61c0.27-0.26,0.45-0.61,0.55-1.04h0.92V331.44z"/>
			<path class="st16" d="M273.9,327.17v-0.85h3.64v0.82l-2.29,4.29h-1.03l2.4-4.27H273.9z"/>
			<path class="st16" d="M280.35,329.73h-1.17v1.19h-0.78v-1.19h-1.17v-0.74h1.17v-1.19h0.78v1.19h1.17V329.73z"/>
		</g>
	</g>
	<rect x="286.49" y="321.9" class="st31" width="97.92" height="68.54"/>
	<g class="st28">
		<rect x="287.98" y="109.22" class="st0" width="88.73" height="31.08"/>
		<text transform="matrix(1 0 0 1 287.9801 112.2402)"><tspan x="0" y="0" class="st32 st12 st33">We are looking for a great sitter for 1 child. We </tspan><tspan x="0" y="5.37" class="st32 st12 st33">need someone one morning a week, the day is </tspan><tspan x="0" y="10.73" class="st32 st12 st33">fexible. We would prefer someone who could </tspan><tspan x="0" y="16.1" class="st32 st12 st33">help out with light housekeeping and meal </tspan><tspan x="0" y="21.47" class="st32 st12 st33">preparation. We would prefer a nanny who does </tspan><tspan x="0" y="26.83" class="st32 st12 st33">not smoke and who is CPR certifed.</tspan></text>
	</g>
	<g class="st28">
		<rect x="287.98" y="168.28" class="st0" width="88.73" height="51.67"/>
		<text transform="matrix(1 0 0 1 287.9801 171.291)"><tspan x="0" y="0" class="st32 st12 st33">As a Cashier, you are a vital part of our store team </tspan><tspan x="0" y="5.37" class="st32 st12 st33">that is responsible for the day to day operations </tspan><tspan x="0" y="10.73" class="st32 st12 st33">and the care and service provided to our </tspan><tspan x="0" y="16.1" class="st32 st12 st33">customers/patients. This individual is responsible </tspan><tspan x="0" y="21.47" class="st32 st12 st33">for provide excellent customer service to people </tspan><tspan x="0" y="26.83" class="st32 st12 st33">shopping in Rite Aid stores. All duties described in </tspan><tspan x="0" y="32.2" class="st32 st12 st33">this document are to be performed in keeping with </tspan><tspan x="0" y="37.57" class="st32 st12 st33">the core values and service attributes consistent </tspan><tspan x="0" y="42.93" class="st32 st12 st33">with the Rite Aid brand and strategy.</tspan></text>
	</g>
	<g class="st28">
		<path class="st4" d="M314.03,231.98h-22c-2.24,0-4.05-1.81-4.05-4.05l0,0c0-2.24,1.81-4.05,4.05-4.05h22
			c2.24,0,4.05,1.81,4.05,4.05l0,0C318.08,230.17,316.27,231.98,314.03,231.98z"/>
		<g>
			<path class="st3" d="M291.82,226.28h1.21c0.44,0,0.76,0.08,0.97,0.25c0.21,0.16,0.31,0.39,0.31,0.67c0,0.23-0.07,0.43-0.21,0.61
				c-0.14,0.17-0.34,0.28-0.61,0.32c0.27,0.08,0.47,0.23,0.61,0.45c0.13,0.23,0.23,0.54,0.27,0.93l0.01,0.13h-0.53l0-0.11
				c-0.04-0.36-0.14-0.65-0.3-0.86c-0.16-0.21-0.42-0.32-0.78-0.32h-0.45v1.29h-0.5V226.28z M292.32,226.71v1.21h0.64
				c0.15,0,0.29-0.02,0.4-0.06c0.11-0.04,0.2-0.09,0.26-0.16c0.07-0.06,0.11-0.14,0.14-0.22c0.03-0.08,0.05-0.16,0.05-0.24
				c0-0.18-0.06-0.32-0.19-0.4c-0.12-0.09-0.32-0.13-0.6-0.13H292.32z"/>
			<path class="st3" d="M295.91,229.68c-0.36,0-0.65-0.11-0.87-0.34c-0.21-0.22-0.32-0.52-0.32-0.88c0-0.18,0.03-0.35,0.09-0.5
				c0.06-0.15,0.14-0.29,0.24-0.4c0.1-0.11,0.23-0.19,0.37-0.25c0.14-0.06,0.3-0.09,0.47-0.09c0.35,0,0.62,0.11,0.82,0.33
				c0.2,0.22,0.3,0.52,0.3,0.89v0.18h-1.79c0.01,0.2,0.08,0.36,0.2,0.48c0.12,0.12,0.29,0.18,0.49,0.18c0.2,0,0.35-0.04,0.45-0.13
				c0.1-0.09,0.17-0.19,0.22-0.3l0.44,0.17c-0.08,0.18-0.21,0.34-0.39,0.47C296.45,229.61,296.21,229.68,295.91,229.68z
				 M295.88,227.62c-0.18,0-0.33,0.06-0.45,0.17c-0.12,0.11-0.2,0.26-0.22,0.46h1.29c-0.01-0.2-0.07-0.36-0.18-0.46
				C296.21,227.67,296.06,227.62,295.88,227.62z"/>
			<path class="st3" d="M298.17,229.7c-0.25,0-0.45-0.06-0.6-0.19c-0.15-0.13-0.22-0.29-0.22-0.49c0-0.13,0.02-0.24,0.07-0.33
				c0.05-0.09,0.11-0.16,0.19-0.21c0.08-0.06,0.18-0.1,0.3-0.13c0.11-0.03,0.24-0.07,0.37-0.1c0.2-0.04,0.36-0.08,0.48-0.11
				c0.12-0.03,0.19-0.07,0.22-0.14v-0.04c0-0.1-0.04-0.18-0.12-0.25c-0.08-0.07-0.21-0.1-0.39-0.1c-0.17,0-0.31,0.04-0.41,0.11
				c-0.1,0.08-0.15,0.18-0.16,0.32v0.03h-0.5c0.01-0.27,0.11-0.48,0.31-0.63c0.2-0.15,0.45-0.23,0.76-0.23
				c0.3,0,0.54,0.07,0.71,0.21c0.17,0.14,0.26,0.36,0.26,0.67v1.18l0.01,0.37h-0.48v-0.36c-0.08,0.14-0.19,0.25-0.33,0.32
				C298.5,229.66,298.34,229.7,298.17,229.7z M298.26,229.32c0.17,0,0.33-0.05,0.47-0.15c0.14-0.1,0.22-0.26,0.24-0.49v-0.29
				c-0.07,0.05-0.17,0.09-0.29,0.12c-0.12,0.03-0.23,0.05-0.35,0.08c-0.13,0.03-0.25,0.08-0.35,0.14c-0.1,0.06-0.15,0.15-0.15,0.27
				c0,0.1,0.04,0.18,0.11,0.24C298.03,229.29,298.13,229.32,298.26,229.32z"/>
			<path class="st3" d="M300.96,229.69c-0.15,0-0.29-0.03-0.42-0.08c-0.13-0.06-0.24-0.14-0.34-0.24c-0.1-0.11-0.17-0.24-0.22-0.39
				c-0.05-0.15-0.08-0.33-0.08-0.52c0-0.19,0.03-0.36,0.08-0.51c0.05-0.15,0.13-0.29,0.22-0.4c0.1-0.11,0.21-0.19,0.34-0.25
				c0.13-0.06,0.27-0.09,0.43-0.09c0.17,0,0.31,0.04,0.44,0.11c0.13,0.07,0.24,0.17,0.32,0.3v-1.38h0.48v3.4h-0.48v-0.35
				c-0.08,0.12-0.19,0.22-0.33,0.29C301.27,229.65,301.12,229.69,300.96,229.69z M301.08,229.26c0.2,0,0.36-0.08,0.49-0.23
				c0.12-0.15,0.18-0.35,0.18-0.58v-0.04c0-0.23-0.06-0.42-0.18-0.57c-0.12-0.15-0.28-0.22-0.49-0.22c-0.2,0-0.37,0.07-0.49,0.21
				c-0.12,0.14-0.19,0.34-0.19,0.6v0.03c0,0.25,0.06,0.45,0.19,0.58C300.72,229.19,300.88,229.26,301.08,229.26z"/>
			<path class="st3" d="M304.48,226.28l0.86,2.66l0.92-2.66h0.83v3.35h-0.49v-2.9l-1.04,2.9h-0.44l-0.99-2.87v2.87h-0.49v-3.35
				H304.48z"/>
			<path class="st3" d="M308.79,229.68c-0.35,0-0.63-0.11-0.86-0.34c-0.22-0.23-0.33-0.52-0.33-0.88c0-0.18,0.03-0.35,0.09-0.5
				c0.06-0.15,0.14-0.28,0.25-0.39c0.11-0.11,0.23-0.19,0.38-0.25c0.15-0.06,0.31-0.09,0.48-0.09c0.17,0,0.34,0.03,0.48,0.09
				c0.15,0.06,0.27,0.14,0.38,0.25c0.1,0.11,0.19,0.24,0.24,0.39c0.06,0.15,0.09,0.32,0.09,0.5c0,0.18-0.03,0.34-0.09,0.49
				c-0.06,0.15-0.14,0.28-0.25,0.39c-0.11,0.11-0.23,0.19-0.38,0.25C309.12,229.65,308.96,229.68,308.79,229.68z M308.79,229.26
				c0.21,0,0.38-0.07,0.51-0.21c0.13-0.14,0.19-0.34,0.19-0.58v-0.02c0-0.25-0.06-0.45-0.19-0.59c-0.12-0.15-0.29-0.22-0.5-0.22
				s-0.38,0.07-0.51,0.22c-0.13,0.15-0.19,0.34-0.19,0.59v0.02c0,0.24,0.06,0.43,0.18,0.58
				C308.41,229.19,308.57,229.26,308.79,229.26z"/>
			<path class="st3" d="M310.94,227.25v0.44c0.03-0.14,0.1-0.25,0.21-0.33s0.27-0.13,0.48-0.13h0.08v0.48h-0.23
				c-0.21,0-0.36,0.06-0.43,0.17c-0.07,0.11-0.11,0.29-0.11,0.53v1.22h-0.49v-2.38H310.94z"/>
			<path class="st3" d="M313.14,229.68c-0.36,0-0.65-0.11-0.87-0.34c-0.21-0.22-0.32-0.52-0.32-0.88c0-0.18,0.03-0.35,0.09-0.5
				c0.06-0.15,0.14-0.29,0.24-0.4c0.1-0.11,0.23-0.19,0.37-0.25c0.14-0.06,0.3-0.09,0.47-0.09c0.35,0,0.62,0.11,0.82,0.33
				c0.2,0.22,0.3,0.52,0.3,0.89v0.18h-1.79c0.01,0.2,0.08,0.36,0.2,0.48c0.12,0.12,0.29,0.18,0.49,0.18c0.2,0,0.35-0.04,0.45-0.13
				c0.1-0.09,0.17-0.19,0.22-0.3l0.44,0.17c-0.08,0.18-0.21,0.34-0.39,0.47C313.68,229.61,313.44,229.68,313.14,229.68z
				 M313.11,227.62c-0.18,0-0.33,0.06-0.45,0.17c-0.12,0.11-0.2,0.26-0.22,0.46h1.29c-0.01-0.2-0.07-0.36-0.18-0.46
				C313.44,227.67,313.29,227.62,313.11,227.62z"/>
		</g>
	</g>
	<g class="st28">
		<path class="st4" d="M314.03,150.85h-22c-2.24,0-4.05-1.81-4.05-4.05v0c0-2.24,1.81-4.05,4.05-4.05h22c2.24,0,4.05,1.81,4.05,4.05
			v0C318.08,149.03,316.27,150.85,314.03,150.85z"/>
		<g>
			<path class="st3" d="M291.82,145.15h1.21c0.44,0,0.76,0.08,0.97,0.25c0.21,0.16,0.31,0.39,0.31,0.67c0,0.23-0.07,0.43-0.21,0.61
				c-0.14,0.17-0.34,0.28-0.61,0.32c0.27,0.08,0.47,0.23,0.61,0.45s0.23,0.54,0.27,0.93l0.01,0.13h-0.53l0-0.11
				c-0.04-0.36-0.14-0.65-0.3-0.86c-0.16-0.21-0.42-0.32-0.78-0.32h-0.45v1.29h-0.5V145.15z M292.32,145.58v1.21h0.64
				c0.15,0,0.29-0.02,0.4-0.06s0.2-0.09,0.26-0.16c0.07-0.06,0.11-0.14,0.14-0.22c0.03-0.08,0.05-0.16,0.05-0.24
				c0-0.18-0.06-0.32-0.19-0.4c-0.12-0.09-0.32-0.13-0.6-0.13H292.32z"/>
			<path class="st3" d="M295.91,148.54c-0.36,0-0.65-0.11-0.87-0.34c-0.21-0.22-0.32-0.52-0.32-0.88c0-0.18,0.03-0.35,0.09-0.5
				c0.06-0.15,0.14-0.29,0.24-0.4c0.1-0.11,0.23-0.19,0.37-0.25c0.14-0.06,0.3-0.09,0.47-0.09c0.35,0,0.62,0.11,0.82,0.33
				c0.2,0.22,0.3,0.52,0.3,0.89v0.18h-1.79c0.01,0.2,0.08,0.36,0.2,0.48c0.12,0.12,0.29,0.18,0.49,0.18c0.2,0,0.35-0.04,0.45-0.13
				c0.1-0.09,0.17-0.19,0.22-0.3l0.44,0.17c-0.08,0.18-0.21,0.34-0.39,0.47C296.45,148.48,296.21,148.54,295.91,148.54z
				 M295.88,146.48c-0.18,0-0.33,0.06-0.45,0.17c-0.12,0.11-0.2,0.26-0.22,0.46h1.29c-0.01-0.2-0.07-0.36-0.18-0.46
				C296.21,146.54,296.06,146.48,295.88,146.48z"/>
			<path class="st3" d="M298.17,148.56c-0.25,0-0.45-0.06-0.6-0.19c-0.15-0.13-0.22-0.29-0.22-0.49c0-0.13,0.02-0.24,0.07-0.33
				c0.05-0.09,0.11-0.16,0.19-0.21c0.08-0.06,0.18-0.1,0.3-0.13c0.11-0.03,0.24-0.07,0.37-0.1c0.2-0.04,0.36-0.08,0.48-0.11
				c0.12-0.03,0.19-0.07,0.22-0.14v-0.04c0-0.1-0.04-0.18-0.12-0.25c-0.08-0.07-0.21-0.1-0.39-0.1c-0.17,0-0.31,0.04-0.41,0.11
				c-0.1,0.08-0.15,0.18-0.16,0.32v0.03h-0.5c0.01-0.27,0.11-0.48,0.31-0.63c0.2-0.15,0.45-0.23,0.76-0.23
				c0.3,0,0.54,0.07,0.71,0.21c0.17,0.14,0.26,0.36,0.26,0.67v1.18l0.01,0.37h-0.48v-0.36c-0.08,0.14-0.19,0.25-0.33,0.32
				C298.5,148.53,298.34,148.56,298.17,148.56z M298.26,148.18c0.17,0,0.33-0.05,0.47-0.15c0.14-0.1,0.22-0.26,0.24-0.49v-0.29
				c-0.07,0.05-0.17,0.09-0.29,0.12c-0.12,0.03-0.23,0.05-0.35,0.08c-0.13,0.03-0.25,0.08-0.35,0.14c-0.1,0.06-0.15,0.15-0.15,0.27
				c0,0.1,0.04,0.18,0.11,0.24C298.03,148.15,298.13,148.18,298.26,148.18z"/>
			<path class="st3" d="M300.96,148.55c-0.15,0-0.29-0.03-0.42-0.08c-0.13-0.06-0.24-0.14-0.34-0.24c-0.1-0.11-0.17-0.24-0.22-0.39
				c-0.05-0.15-0.08-0.33-0.08-0.52c0-0.19,0.03-0.36,0.08-0.51c0.05-0.15,0.13-0.29,0.22-0.4c0.1-0.11,0.21-0.19,0.34-0.25
				c0.13-0.06,0.27-0.09,0.43-0.09c0.17,0,0.31,0.04,0.44,0.11c0.13,0.07,0.24,0.17,0.32,0.3v-1.38h0.48v3.4h-0.48v-0.35
				c-0.08,0.12-0.19,0.22-0.33,0.29C301.27,148.52,301.12,148.55,300.96,148.55z M301.08,148.13c0.2,0,0.36-0.08,0.49-0.23
				c0.12-0.15,0.18-0.35,0.18-0.58v-0.04c0-0.23-0.06-0.42-0.18-0.57c-0.12-0.15-0.28-0.22-0.49-0.22c-0.2,0-0.37,0.07-0.49,0.21
				c-0.12,0.14-0.19,0.34-0.19,0.6v0.03c0,0.25,0.06,0.45,0.19,0.58C300.72,148.06,300.88,148.13,301.08,148.13z"/>
			<path class="st3" d="M304.48,145.15l0.86,2.66l0.92-2.66h0.83v3.35h-0.49v-2.9l-1.04,2.9h-0.44l-0.99-2.87v2.87h-0.49v-3.35
				H304.48z"/>
			<path class="st3" d="M308.79,148.54c-0.35,0-0.63-0.11-0.86-0.34c-0.22-0.23-0.33-0.52-0.33-0.88c0-0.18,0.03-0.35,0.09-0.5
				c0.06-0.15,0.14-0.28,0.25-0.39c0.11-0.11,0.23-0.19,0.38-0.25c0.15-0.06,0.31-0.09,0.48-0.09c0.17,0,0.34,0.03,0.48,0.09
				c0.15,0.06,0.27,0.14,0.38,0.25c0.1,0.11,0.19,0.24,0.24,0.39c0.06,0.15,0.09,0.32,0.09,0.5c0,0.18-0.03,0.34-0.09,0.49
				c-0.06,0.15-0.14,0.28-0.25,0.39c-0.11,0.11-0.23,0.19-0.38,0.25C309.12,148.51,308.96,148.54,308.79,148.54z M308.79,148.12
				c0.21,0,0.38-0.07,0.51-0.21c0.13-0.14,0.19-0.34,0.19-0.58v-0.02c0-0.25-0.06-0.45-0.19-0.59c-0.12-0.15-0.29-0.22-0.5-0.22
				s-0.38,0.07-0.51,0.22c-0.13,0.15-0.19,0.34-0.19,0.59v0.02c0,0.24,0.06,0.43,0.18,0.58
				C308.41,148.05,308.57,148.12,308.79,148.12z"/>
			<path class="st3" d="M310.94,146.12v0.44c0.03-0.14,0.1-0.25,0.21-0.33s0.27-0.13,0.48-0.13h0.08v0.48h-0.23
				c-0.21,0-0.36,0.06-0.43,0.17c-0.07,0.11-0.11,0.29-0.11,0.53v1.22h-0.49v-2.38H310.94z"/>
			<path class="st3" d="M313.14,148.54c-0.36,0-0.65-0.11-0.87-0.34c-0.21-0.22-0.32-0.52-0.32-0.88c0-0.18,0.03-0.35,0.09-0.5
				c0.06-0.15,0.14-0.29,0.24-0.4c0.1-0.11,0.23-0.19,0.37-0.25c0.14-0.06,0.3-0.09,0.47-0.09c0.35,0,0.62,0.11,0.82,0.33
				c0.2,0.22,0.3,0.52,0.3,0.89v0.18h-1.79c0.01,0.2,0.08,0.36,0.2,0.48c0.12,0.12,0.29,0.18,0.49,0.18c0.2,0,0.35-0.04,0.45-0.13
				c0.1-0.09,0.17-0.19,0.22-0.3l0.44,0.17c-0.08,0.18-0.21,0.34-0.39,0.47C313.68,148.48,313.44,148.54,313.14,148.54z
				 M313.11,146.48c-0.18,0-0.33,0.06-0.45,0.17c-0.12,0.11-0.2,0.26-0.22,0.46h1.29c-0.01-0.2-0.07-0.36-0.18-0.46
				C313.44,146.54,313.29,146.48,313.11,146.48z"/>
		</g>
	</g>
	<rect x="262.79" y="235.32" class="st27" width="121.62" height="73.98"/>
	<rect x="262.79" y="246.56" class="st27" width="121.62" height="62.74"/>
	<g class="st28">
		<circle class="st3" cx="275.64" cy="254.89" r="6.08"/>
		<g>
			<path class="st1" d="M272.86,257.45h-0.95v-3.6c-0.19,0.24-0.41,0.44-0.66,0.62c-0.25,0.18-0.54,0.31-0.86,0.41v-0.89
				c0.4-0.14,0.73-0.35,1-0.61c0.27-0.26,0.45-0.61,0.55-1.04h0.92V257.45z"/>
			<path class="st1" d="M275.63,257.54c-0.67,0-1.2-0.22-1.57-0.67c-0.37-0.45-0.56-1.09-0.56-1.94c0-0.86,0.19-1.53,0.56-1.99
				c0.37-0.46,0.9-0.7,1.56-0.7c0.31,0,0.57,0.04,0.8,0.13c0.22,0.08,0.41,0.2,0.56,0.34c0.15,0.14,0.26,0.3,0.34,0.48
				c0.08,0.18,0.12,0.37,0.14,0.57h-0.95c-0.03-0.2-0.11-0.36-0.25-0.49c-0.13-0.13-0.36-0.19-0.68-0.19
				c-0.35,0-0.63,0.14-0.83,0.41c-0.2,0.27-0.3,0.65-0.3,1.11l-0.02,0.14c0.14-0.18,0.33-0.32,0.56-0.43
				c0.23-0.11,0.47-0.16,0.71-0.16c0.54,0,0.98,0.15,1.31,0.45c0.33,0.3,0.5,0.7,0.5,1.19c0,0.26-0.05,0.49-0.14,0.71
				c-0.1,0.22-0.23,0.4-0.39,0.55c-0.17,0.15-0.37,0.27-0.6,0.36C276.15,257.5,275.9,257.54,275.63,257.54z M275.59,256.72
				c0.29,0,0.52-0.09,0.7-0.26c0.17-0.17,0.26-0.39,0.26-0.66v-0.02c0-0.26-0.09-0.48-0.27-0.64c-0.18-0.17-0.42-0.25-0.72-0.25
				c-0.29,0-0.53,0.08-0.72,0.25c-0.19,0.17-0.29,0.38-0.29,0.63v0.02c0,0.26,0.1,0.48,0.3,0.66
				C275.05,256.63,275.29,256.72,275.59,256.72z"/>
			<path class="st1" d="M280.9,255.75h-1.17v1.19h-0.78v-1.19h-1.17v-0.74h1.17v-1.19h0.78v1.19h1.17V255.75z"/>
		</g>
	</g>
	<g class="st28">
		<text transform="matrix(1 0 0 1 269.2067 243.0889)" class="st5 st12 st29">Barista, Queens Blvd, Sunnyside</text>
	</g>
	<rect x="286.49" y="247.92" class="st31" width="97.92" height="61.39"/>
	<g class="st28">
		<rect x="287.98" y="249.41" class="st0" width="88.73" height="46.01"/>
		<text transform="matrix(1 0 0 1 287.9801 252.4258)"><tspan x="0" y="0" class="st32 st12 st33">This position contributes to Starbucks success by </tspan><tspan x="0" y="5.37" class="st32 st12 st33">providing legendary customer service to all </tspan><tspan x="0" y="10.73" class="st32 st12 st33">customers. This job creates the Starbucks </tspan><tspan x="0" y="16.1" class="st32 st12 st33">Experience for our customers by providing </tspan><tspan x="0" y="21.47" class="st32 st12 st33">customers with prompt service, quality beverages </tspan><tspan x="0" y="26.83" class="st32 st12 st33">and products, and maintaining a clean and </tspan><tspan x="0" y="32.2" class="st32 st12 st33">comfortable store environment. Models and acts </tspan><tspan x="0" y="37.57" class="st32 st12 st33">in accordance to with Starbucks guiding </tspan><tspan x="0" y="42.93" class="st32 st12 st33">principles.</tspan></text>
	</g>
	<g class="st28">
		<path class="st4" d="M314.03,305.96h-22c-2.24,0-4.05-1.81-4.05-4.05v0c0-2.24,1.81-4.05,4.05-4.05h22c2.24,0,4.05,1.81,4.05,4.05
			v0C318.08,304.15,316.27,305.96,314.03,305.96z"/>
		<g>
			<path class="st3" d="M291.82,300.27h1.21c0.44,0,0.76,0.08,0.97,0.25c0.21,0.16,0.31,0.39,0.31,0.67c0,0.23-0.07,0.43-0.21,0.61
				c-0.14,0.17-0.34,0.28-0.61,0.32c0.27,0.08,0.47,0.23,0.61,0.45s0.23,0.54,0.27,0.93l0.01,0.13h-0.53l0-0.11
				c-0.04-0.36-0.14-0.65-0.3-0.86c-0.16-0.21-0.42-0.32-0.78-0.32h-0.45v1.29h-0.5V300.27z M292.32,300.69v1.21h0.64
				c0.15,0,0.29-0.02,0.4-0.06c0.11-0.04,0.2-0.09,0.26-0.16c0.07-0.06,0.11-0.14,0.14-0.22c0.03-0.08,0.05-0.16,0.05-0.24
				c0-0.18-0.06-0.32-0.19-0.4c-0.12-0.09-0.32-0.13-0.6-0.13H292.32z"/>
			<path class="st3" d="M295.91,303.66c-0.36,0-0.65-0.11-0.87-0.34c-0.21-0.22-0.32-0.52-0.32-0.88c0-0.18,0.03-0.35,0.09-0.5
				c0.06-0.15,0.14-0.29,0.24-0.4c0.1-0.11,0.23-0.19,0.37-0.25c0.14-0.06,0.3-0.09,0.47-0.09c0.35,0,0.62,0.11,0.82,0.33
				c0.2,0.22,0.3,0.52,0.3,0.89v0.18h-1.79c0.01,0.2,0.08,0.36,0.2,0.48c0.12,0.12,0.29,0.18,0.49,0.18c0.2,0,0.35-0.04,0.45-0.13
				c0.1-0.09,0.17-0.19,0.22-0.3l0.44,0.17c-0.08,0.18-0.21,0.34-0.39,0.47C296.45,303.59,296.21,303.66,295.91,303.66z
				 M295.88,301.6c-0.18,0-0.33,0.06-0.45,0.17c-0.12,0.11-0.2,0.26-0.22,0.46h1.29c-0.01-0.2-0.07-0.36-0.18-0.46
				C296.21,301.65,296.06,301.6,295.88,301.6z"/>
			<path class="st3" d="M298.17,303.68c-0.25,0-0.45-0.06-0.6-0.19s-0.22-0.29-0.22-0.49c0-0.13,0.02-0.24,0.07-0.33
				c0.05-0.09,0.11-0.16,0.19-0.21c0.08-0.06,0.18-0.1,0.3-0.13c0.11-0.03,0.24-0.07,0.37-0.1c0.2-0.04,0.36-0.08,0.48-0.11
				c0.12-0.03,0.19-0.07,0.22-0.14v-0.04c0-0.1-0.04-0.18-0.12-0.25c-0.08-0.07-0.21-0.1-0.39-0.1c-0.17,0-0.31,0.04-0.41,0.11
				c-0.1,0.08-0.15,0.18-0.16,0.32v0.03h-0.5c0.01-0.27,0.11-0.48,0.31-0.63c0.2-0.15,0.45-0.23,0.76-0.23
				c0.3,0,0.54,0.07,0.71,0.21c0.17,0.14,0.26,0.36,0.26,0.67v1.18l0.01,0.37h-0.48v-0.36c-0.08,0.14-0.19,0.25-0.33,0.32
				C298.5,303.64,298.34,303.68,298.17,303.68z M298.26,303.3c0.17,0,0.33-0.05,0.47-0.15c0.14-0.1,0.22-0.26,0.24-0.49v-0.29
				c-0.07,0.05-0.17,0.09-0.29,0.12c-0.12,0.03-0.23,0.05-0.35,0.08c-0.13,0.03-0.25,0.08-0.35,0.14c-0.1,0.06-0.15,0.15-0.15,0.27
				c0,0.1,0.04,0.18,0.11,0.24C298.03,303.27,298.13,303.3,298.26,303.3z"/>
			<path class="st3" d="M300.96,303.67c-0.15,0-0.29-0.03-0.42-0.08c-0.13-0.06-0.24-0.14-0.34-0.24c-0.1-0.11-0.17-0.24-0.22-0.39
				c-0.05-0.15-0.08-0.33-0.08-0.52c0-0.19,0.03-0.36,0.08-0.51c0.05-0.15,0.13-0.29,0.22-0.4c0.1-0.11,0.21-0.19,0.34-0.25
				c0.13-0.06,0.27-0.09,0.43-0.09c0.17,0,0.31,0.04,0.44,0.11c0.13,0.07,0.24,0.17,0.32,0.3v-1.38h0.48v3.4h-0.48v-0.35
				c-0.08,0.12-0.19,0.22-0.33,0.29C301.27,303.63,301.12,303.67,300.96,303.67z M301.08,303.24c0.2,0,0.36-0.08,0.49-0.23
				c0.12-0.15,0.18-0.35,0.18-0.58v-0.04c0-0.23-0.06-0.42-0.18-0.57c-0.12-0.15-0.28-0.22-0.49-0.22c-0.2,0-0.37,0.07-0.49,0.21
				c-0.12,0.14-0.19,0.34-0.19,0.6v0.03c0,0.25,0.06,0.45,0.19,0.58C300.72,303.18,300.88,303.24,301.08,303.24z"/>
			<path class="st3" d="M304.48,300.27l0.86,2.66l0.92-2.66h0.83v3.35h-0.49v-2.9l-1.04,2.9h-0.44l-0.99-2.87v2.87h-0.49v-3.35
				H304.48z"/>
			<path class="st3" d="M308.79,303.66c-0.35,0-0.63-0.11-0.86-0.34c-0.22-0.23-0.33-0.52-0.33-0.88c0-0.18,0.03-0.35,0.09-0.5
				c0.06-0.15,0.14-0.28,0.25-0.39c0.11-0.11,0.23-0.19,0.38-0.25c0.15-0.06,0.31-0.09,0.48-0.09c0.17,0,0.34,0.03,0.48,0.09
				c0.15,0.06,0.27,0.14,0.38,0.25c0.1,0.11,0.19,0.24,0.24,0.39c0.06,0.15,0.09,0.32,0.09,0.5c0,0.18-0.03,0.34-0.09,0.49
				c-0.06,0.15-0.14,0.28-0.25,0.39c-0.11,0.11-0.23,0.19-0.38,0.25C309.12,303.63,308.96,303.66,308.79,303.66z M308.79,303.24
				c0.21,0,0.38-0.07,0.51-0.21c0.13-0.14,0.19-0.34,0.19-0.58v-0.02c0-0.25-0.06-0.45-0.19-0.59c-0.12-0.15-0.29-0.22-0.5-0.22
				s-0.38,0.07-0.51,0.22c-0.13,0.15-0.19,0.34-0.19,0.59v0.02c0,0.24,0.06,0.43,0.18,0.58
				C308.41,303.17,308.57,303.24,308.79,303.24z"/>
			<path class="st3" d="M310.94,301.23v0.44c0.03-0.14,0.1-0.25,0.21-0.33s0.27-0.13,0.48-0.13h0.08v0.48h-0.23
				c-0.21,0-0.36,0.06-0.43,0.17c-0.07,0.11-0.11,0.29-0.11,0.53v1.22h-0.49v-2.38H310.94z"/>
			<path class="st3" d="M313.14,303.66c-0.36,0-0.65-0.11-0.87-0.34c-0.21-0.22-0.32-0.52-0.32-0.88c0-0.18,0.03-0.35,0.09-0.5
				c0.06-0.15,0.14-0.29,0.24-0.4c0.1-0.11,0.23-0.19,0.37-0.25c0.14-0.06,0.3-0.09,0.47-0.09c0.35,0,0.62,0.11,0.82,0.33
				c0.2,0.22,0.3,0.52,0.3,0.89v0.18h-1.79c0.01,0.2,0.08,0.36,0.2,0.48c0.12,0.12,0.29,0.18,0.49,0.18c0.2,0,0.35-0.04,0.45-0.13
				c0.1-0.09,0.17-0.19,0.22-0.3l0.44,0.17c-0.08,0.18-0.21,0.34-0.39,0.47C313.68,303.59,313.44,303.66,313.14,303.66z
				 M313.11,301.6c-0.18,0-0.33,0.06-0.45,0.17c-0.12,0.11-0.2,0.26-0.22,0.46h1.29c-0.01-0.2-0.07-0.36-0.18-0.46
				C313.44,301.65,313.29,301.6,313.11,301.6z"/>
		</g>
	</g>
</g>
<polyline class="st3" points="401.94,315.9 401.94,133.22 592.38,133.22 592.38,315.9 "/>
<g>
	<circle class="st1" cx="411.04" cy="166.08" r="6.48"/>
	<g>
		<path class="st3" d="M408.07,168.81h-1.02v-3.84c-0.2,0.25-0.44,0.47-0.7,0.66c-0.27,0.19-0.57,0.34-0.92,0.44v-0.95
			c0.42-0.15,0.78-0.37,1.06-0.65c0.29-0.28,0.48-0.65,0.59-1.11h0.99V168.81z"/>
		<path class="st3" d="M411.02,168.9c-0.72,0-1.27-0.24-1.67-0.72c-0.4-0.48-0.6-1.17-0.6-2.06c0-0.92,0.2-1.63,0.6-2.12
			c0.4-0.5,0.95-0.74,1.67-0.74c0.33,0,0.61,0.05,0.85,0.14c0.24,0.09,0.44,0.21,0.6,0.36c0.16,0.15,0.28,0.32,0.36,0.51
			c0.08,0.19,0.13,0.4,0.15,0.6h-1.01c-0.03-0.21-0.12-0.39-0.26-0.53c-0.14-0.14-0.38-0.21-0.72-0.21c-0.38,0-0.67,0.15-0.89,0.44
			c-0.21,0.29-0.32,0.69-0.32,1.19l-0.02,0.15c0.15-0.19,0.35-0.34,0.6-0.46c0.24-0.12,0.5-0.17,0.76-0.17
			c0.57,0,1.04,0.16,1.4,0.48c0.36,0.32,0.53,0.75,0.53,1.27c0,0.27-0.05,0.53-0.15,0.76c-0.1,0.23-0.24,0.43-0.42,0.59
			c-0.18,0.16-0.39,0.29-0.64,0.39S411.31,168.9,411.02,168.9z M410.98,168.03c0.31,0,0.56-0.09,0.74-0.27
			c0.18-0.18,0.27-0.42,0.27-0.7v-0.02c0-0.28-0.1-0.51-0.29-0.69c-0.19-0.18-0.45-0.27-0.76-0.27c-0.31,0-0.56,0.09-0.77,0.27
			c-0.21,0.18-0.31,0.4-0.31,0.67v0.02c0,0.27,0.11,0.51,0.32,0.7C410.4,167.93,410.66,168.03,410.98,168.03z"/>
		<path class="st3" d="M416.64,167h-1.25v1.26h-0.83V167h-1.25v-0.79h1.25v-1.27h0.83v1.27h1.25V167z"/>
	</g>
</g>
<rect x="401.94" y="133.22" class="st1" width="190.44" height="23.96"/>
<text transform="matrix(1 0 0 1 404.1765 147.4973)" class="st5 st12 st34">Barista, Queens Blvd, Sunnyside</text>
<rect x="424.18" y="160.24" class="st0" width="155.05" height="175.53"/>
<text transform="matrix(1 0 0 1 424.1843 163.4542)"><tspan x="0" y="0" class="st32 st12 st35">This position contributes to Starbucks success by providing legendary customer </tspan><tspan x="0" y="5.5" class="st32 st12 st35">service to all customers. This job creates the Starbucks Experience for our </tspan><tspan x="0" y="11" class="st32 st12 st35">customers by providing customers with prompt service, quality beverages and </tspan><tspan x="0" y="16.5" class="st32 st12 st35">products, and maintaining a clean and comfortable store environment. Models </tspan><tspan x="0" y="22" class="st32 st12 st35">and acts in accordance to with Starbucks guiding principles.</tspan><tspan x="0" y="33" class="st32 st36 st37">Summary of Key Responsibility</tspan><tspan x="0" y="38.5" class="st32 st12 st35">Responsibility and essential job functions include but are not limited to the </tspan><tspan x="0" y="44" class="st32 st12 st35">following:</tspan><tspan x="10" y="49.5" class="st32 st12 st35">Acts with integrity, honesty and knowledge that promote the culture, values </tspan><tspan x="10" y="55" class="st32 st12 st35">and mission of Starbucks.</tspan><tspan x="10" y="60.5" class="st32 st12 st35">Maintains a calm demeanor during periods of high volume or unusual </tspan><tspan x="10" y="66" class="st32 st12 st35">events to keep the store operating to standard and to set a positive </tspan><tspan x="10" y="71.5" class="st32 st12 st35">example for the shift team.</tspan><tspan x="10" y="77" class="st32 st12 st35">Anticipates customer and store needs by constantly evaluating </tspan><tspan x="10" y="82.5" class="st32 st12 st35">environment and customer for cues.</tspan><tspan x="10" y="88" class="st32 st12 st35">Contributes to positive team environment by recognizing alarms or </tspan><tspan x="10" y="93.5" class="st32 st12 st35">changes in partner morale and performance and communicating them to </tspan><tspan x="10" y="99" class="st32 st12 st35">the store manager.</tspan><tspan x="10" y="104.5" class="st32 st12 st35">Delivers legendary customer service to all customers by acting with a </tspan><tspan x="10" y="110" class="st32 st12 st35">customer comes frst attitude and connecting with the customer.</tspan><tspan x="10" y="115.5" class="st32 st12 st35">Discovers and responds to customer needs.</tspan><tspan x="10" y="121" class="st32 st12 st35">Follows Starbucks operational policies and procedures, including those for </tspan><tspan x="10" y="126.5" class="st32 st12 st35">cash handling and safety and security, to ensure the safety of all partners </tspan><tspan x="10" y="132" class="st32 st12 st35">during each shift. </tspan><tspan x="10" y="137.5" class="st32 st12 st35">Maintains a clean and organized workspace so that partners can locate </tspan><tspan x="10" y="143" class="st32 st12 st35">resources and product as needed.</tspan><tspan x="10" y="148.5" class="st32 st12 st35">Provides quality beverages, whole bean, and food products consistently for </tspan><tspan x="10" y="154" class="st32 st12 st35">all customers by adhering to all recipe and presentation standards. Follows </tspan><tspan x="10" y="159.5" class="st32 st12 st35">health, safety and sanitation guidelines for all products.</tspan></text>
<rect x="424.18" y="160.24" class="st0" width="7.71" height="165.53"/>
<text transform="matrix(1 0 0 1 426.1326 218.4542)"><tspan x="0" y="0" class="st32 st38 st35"></tspan><tspan x="3.81" y="0" class="st32 st12 st35"> </tspan><tspan x="0" y="11" class="st32 st38 st35"></tspan><tspan x="3.81" y="11" class="st32 st12 st35"> </tspan><tspan x="0" y="27.5" class="st32 st38 st35"></tspan><tspan x="0" y="38.5" class="st32 st38 st35"></tspan><tspan x="0" y="55" class="st32 st38 st35"></tspan><tspan x="3.81" y="55" class="st32 st12 st35"> </tspan><tspan x="0" y="66" class="st32 st38 st35"></tspan><tspan x="0" y="71.5" class="st32 st38 st35"></tspan><tspan x="0" y="88" class="st32 st38 st35"></tspan><tspan x="0" y="99" class="st32 st38 st35"></tspan><tspan x="3.81" y="99" class="st32 st12 st35">  </tspan></text>
<g>
	<g>
		<path class="st3" d="M580.81,150.36h-28.06c-2.85,0-5.17-2.31-5.17-5.17v0c0-2.85,2.31-5.17,5.17-5.17h28.06
			c2.85,0,5.17,2.31,5.17,5.17v0C585.98,148.05,583.66,150.36,580.81,150.36z"/>
	</g>
	<g>
		<path class="st4" d="M552.7,147.35l1.61-4.27h0.75l1.56,4.27h-0.68l-0.44-1.24h-1.67l-0.46,1.24H552.7z M554.67,143.79l-0.65,1.76
			h1.28L554.67,143.79z"/>
		<path class="st4" d="M558.63,147.42c-0.21,0-0.4-0.04-0.56-0.13c-0.17-0.09-0.3-0.21-0.41-0.37v1.63h-0.62v-4.23h0.62v0.45
			c0.11-0.16,0.25-0.28,0.41-0.38c0.17-0.09,0.36-0.14,0.57-0.14c0.19,0,0.37,0.04,0.54,0.11c0.17,0.07,0.31,0.18,0.43,0.31
			c0.12,0.13,0.22,0.3,0.29,0.49c0.07,0.19,0.1,0.41,0.1,0.65v0.01c0,0.24-0.03,0.46-0.1,0.66c-0.07,0.2-0.16,0.36-0.29,0.5
			c-0.12,0.14-0.27,0.24-0.43,0.32C559.01,147.38,558.82,147.42,558.63,147.42z M558.47,146.88c0.26,0,0.46-0.09,0.62-0.27
			c0.16-0.18,0.24-0.44,0.24-0.76v-0.05c0-0.32-0.08-0.57-0.24-0.74s-0.37-0.26-0.62-0.26c-0.26,0-0.47,0.1-0.62,0.29
			c-0.15,0.19-0.23,0.44-0.23,0.74v0.05c0,0.3,0.08,0.54,0.23,0.72C558,146.79,558.21,146.88,558.47,146.88z"/>
		<path class="st4" d="M562.08,147.42c-0.21,0-0.4-0.04-0.56-0.13c-0.17-0.09-0.3-0.21-0.41-0.37v1.63h-0.62v-4.23h0.62v0.45
			c0.11-0.16,0.25-0.28,0.41-0.38c0.17-0.09,0.36-0.14,0.57-0.14c0.19,0,0.37,0.04,0.54,0.11c0.17,0.07,0.31,0.18,0.43,0.31
			c0.12,0.13,0.22,0.3,0.29,0.49c0.07,0.19,0.1,0.41,0.1,0.65v0.01c0,0.24-0.03,0.46-0.1,0.66c-0.07,0.2-0.16,0.36-0.29,0.5
			c-0.12,0.14-0.27,0.24-0.43,0.32C562.46,147.38,562.28,147.42,562.08,147.42z M561.93,146.88c0.26,0,0.46-0.09,0.62-0.27
			c0.16-0.18,0.24-0.44,0.24-0.76v-0.05c0-0.32-0.08-0.57-0.24-0.74s-0.37-0.26-0.62-0.26c-0.26,0-0.47,0.1-0.62,0.29
			c-0.15,0.19-0.23,0.44-0.23,0.74v0.05c0,0.3,0.08,0.54,0.23,0.72C561.45,146.79,561.66,146.88,561.93,146.88z"/>
		<path class="st4" d="M564.58,143.02v4.33h-0.64v-4.33H564.58z"/>
		<path class="st4" d="M565.05,148h0.29c0.1,0,0.19-0.01,0.26-0.02c0.07-0.01,0.13-0.05,0.18-0.1c0.05-0.05,0.1-0.12,0.15-0.22
			c0.05-0.09,0.1-0.22,0.16-0.37l-1.17-2.98h0.66l0.81,2.26l0.74-2.26h0.67l-1.16,3.25c-0.07,0.18-0.14,0.33-0.21,0.46
			c-0.07,0.13-0.16,0.23-0.25,0.31c-0.09,0.08-0.21,0.14-0.34,0.18c-0.13,0.04-0.29,0.05-0.47,0.05h-0.32V148z"/>
		<path class="st4" d="M570.13,143.09l2.11,3.19v-3.19h0.63v4.27h-0.62l-2.24-3.35v3.34h-0.63v-4.27H570.13z"/>
		<path class="st4" d="M574.87,147.41c-0.45,0-0.81-0.15-1.09-0.44c-0.28-0.29-0.42-0.67-0.42-1.12c0-0.23,0.04-0.44,0.11-0.64
			c0.08-0.19,0.18-0.36,0.31-0.5c0.13-0.14,0.3-0.25,0.48-0.32c0.19-0.08,0.39-0.12,0.61-0.12c0.22,0,0.43,0.04,0.61,0.12
			c0.19,0.08,0.35,0.19,0.48,0.32c0.13,0.14,0.24,0.31,0.31,0.5c0.08,0.19,0.11,0.4,0.11,0.64c0,0.23-0.04,0.44-0.11,0.63
			c-0.08,0.19-0.18,0.36-0.31,0.49c-0.13,0.14-0.3,0.24-0.49,0.32C575.3,147.37,575.09,147.41,574.87,147.41z M574.87,146.87
			c0.27,0,0.49-0.09,0.65-0.27c0.16-0.18,0.24-0.43,0.24-0.74v-0.03c0-0.32-0.08-0.57-0.24-0.75c-0.16-0.19-0.37-0.28-0.64-0.28
			c-0.27,0-0.49,0.09-0.65,0.28c-0.16,0.19-0.24,0.44-0.24,0.75v0.03c0,0.31,0.08,0.55,0.23,0.74
			C574.39,146.78,574.6,146.87,574.87,146.87z"/>
		<path class="st4" d="M577.16,144.32l0.58,2.12l0.64-2.12H579l0.64,2.13l0.58-2.13h0.65l-0.94,3.03h-0.57l-0.66-2.26l-0.66,2.26
			h-0.57l-0.96-3.03H577.16z"/>
	</g>
</g>
<g>
	<path class="st3" d="M541.98,143.26l0.42,1.28l0.1,0.3h0.32h1.35l-1.09,0.79l-0.26,0.19l0.1,0.3l0.42,1.29l-1.09-0.79l-0.26-0.19
		l-0.26,0.19l-1.09,0.79l0.42-1.29l0.1-0.3l-0.26-0.19l-1.09-0.79h1.35h0.32l0.1-0.3L541.98,143.26 M541.98,141.85l-0.83,2.56h-2.69
		l2.18,1.58l-0.83,2.56l2.18-1.58l2.18,1.58l-0.83-2.56l2.18-1.58h-2.69L541.98,141.85L541.98,141.85z"/>
</g>
<g>
	<polygon points="574.74,152.7 573.76,153.64 573.76,149.06 577.05,152.38 575.67,152.36 576.61,154.11 575.75,154.56 	"/>
	<path class="st3" d="M573.96,149.55l2.6,2.62l-0.55-0.01l-0.68-0.01l0.32,0.6l0.68,1.27l-0.51,0.27l-0.79-1.46l-0.25-0.46
		l-0.38,0.36l-0.45,0.43V149.55 M573.56,148.58v5.53l1.13-1.08l0.97,1.81l1.22-0.64l-0.87-1.62l1.52,0.02L573.56,148.58
		L573.56,148.58z"/>
</g>
<rect x="383.41" y="133.22" class="st3" width="18.53" height="182.68"/>
<g>
	<path class="st5" d="M653.22,311.8v25.49h-451.1V311.8h0.1c0,2.27,1.84,4.1,4.1,4.1h442.81
		C651.39,315.9,653.22,314.07,653.22,311.8z"/>
	<pattern  id="SVGID_4_" xlink:href="#SVGID_1_" patternTransform="matrix(1 0 0 -1 2215.0464 -13181.3438)">
	</pattern>
	<path class="st39" d="M653.22,311.8v25.49h-451.1V311.8h0.1c0,2.27,1.84,4.1,4.1,4.1h442.81
		C651.39,315.9,653.22,314.07,653.22,311.8z"/>
</g>
<g id="dock_2_">
	<path class="st40" d="M355.74,337.39v-20.22c0-0.73,0.54-1.27,1.27-1.27l0,0h148.22c0.73,0,1.27,0.61,1.27,1.27l0,0v20.22"/>
	<rect x="363.61" y="320.56" class="st21" width="12.11" height="12.11"/>
	<path class="st21" d="M387.11,320.56h0.24c3.27,0,5.93,2.66,5.93,5.93v0.24c0,3.27-2.66,5.93-5.93,5.93h-0.24
		c-3.27,0-5.93-2.66-5.93-5.93v-0.24C381.17,323.23,383.84,320.56,387.11,320.56z"/>
	<path class="st21" d="M402.42,320.56h0.24c3.27,0,5.93,2.66,5.93,5.93v0.24c0,3.27-2.66,5.93-5.93,5.93h-0.24
		c-3.27,0-5.93-2.66-5.93-5.93v-0.24C396.49,323.23,399.15,320.56,402.42,320.56z"/>
	<path class="st21" d="M418.11,320.56h0.24c3.27,0,5.93,2.66,5.93,5.93v0.24c0,3.27-2.66,5.93-5.93,5.93h-0.24
		c-3.27,0-5.93-2.66-5.93-5.93v-0.24C412.23,323.23,414.84,320.56,418.11,320.56z"/>
	<circle class="st21" cx="369.67" cy="335.27" r="0.61"/>
	<circle class="st21" cx="402.54" cy="335.27" r="0.61"/>
	
		<rect x="428.76" y="320.57" transform="matrix(0.9877 -0.1564 0.1564 0.9877 -45.6979 71.9831)" class="st21" width="11.62" height="11.62"/>
	<line class="st41" x1="467.75" y1="334.06" x2="467.75" y2="319.53"/>
	<path class="st21" d="M492.21,330.25c0,1.09,1.82,2,4.06,2s4.06-0.91,4.06-2l1.09-9.63h-10.29L492.21,330.25z"/>
	<ellipse class="st21" cx="496.27" cy="320.62" rx="5.15" ry="1.7"/>
	<path class="st21" d="M486.89,322.32h-8.29l-0.67-0.79c-0.12-0.12-0.24-0.18-0.36-0.18h-3.33c-0.18,0-0.36,0.12-0.42,0.24
		l-0.36,0.67v9.45c0,0.24,0.24,0.48,0.48,0.48l0,0h12.96c0.24,0,0.48-0.18,0.48-0.48l0,0v-9.02
		C487.37,322.5,487.13,322.32,486.89,322.32L486.89,322.32z"/>
	<line class="st42" x1="447.59" y1="320.08" x2="449.89" y2="334.49"/>
	<line class="st42" x1="457.16" y1="318.56" x2="459.46" y2="332.97"/>
	<line class="st42" x1="459.7" y1="319.11" x2="445.65" y2="321.35"/>
	<line class="st42" x1="461.58" y1="331.04" x2="447.53" y2="333.28"/>
	
		<rect x="448.92" y="320.45" transform="matrix(0.9877 -0.1564 0.1564 0.9877 -45.4372 74.9353)" class="st21" width="9.08" height="11.5"/>
</g>
</svg>
